<svg width="168" height="43" viewBox="0 0 168 43" fill="none" xmlns="http://www.w3.org/2000/svg">
<g clip-path="url(#clip0_253_2579)">
<path d="M39.2244 18.9325L32.7059 16.5415L26.1591 18.9325L19.6122 16.5415L13.0938 18.9325L6.54688 16.5415L0 18.9325V27.2442L6.54688 29.6353L13.0938 27.2442L19.6122 29.6353L26.1591 27.2442L32.7059 29.6353L39.2244 27.2442V18.9325Z" fill="black"/>
<path d="M39.2244 5.86735L32.7059 3.47632L26.1591 5.86735L19.6122 3.47632L13.0653 5.86735L6.54688 3.47632L0 5.86735V14.179L6.54688 16.5416L13.0938 14.179L19.6122 16.5416L26.1591 14.179L32.7059 16.5416L39.2244 14.179V5.86735Z" fill="#28BE46"/>
<path d="M13.0653 5.86735L6.54688 8.22992L0 5.86735L6.54688 3.47632L13.0653 5.86735Z" fill="black"/>
<path d="M26.1582 5.86735L19.6113 8.22992L13.0645 5.86735L19.6113 3.47632L26.1582 5.86735Z" fill="black"/>
<path d="M39.2235 5.86735L32.7051 8.22992L26.1582 5.86735L32.7051 3.47632L39.2235 5.86735Z" fill="black"/>
<path d="M0 27.2444L6.54688 24.8818L13.0653 27.2444L6.54688 29.6354L0 27.2444Z" fill="#28BE46"/>
<path d="M26.1582 27.2444L32.7051 24.8818L39.2235 27.2444L32.7051 29.6354L26.1582 27.2444Z" fill="#28BE46"/>
<path d="M26.1582 18.9326L19.6113 21.3237L13.0645 18.9326V27.2443L19.6113 29.6353L26.1582 27.2443V18.9326Z" fill="#28BE46"/>
<path d="M39.2244 32.0265L32.7059 29.6355L26.1591 32.0265L19.6122 29.6355L13.0938 32.0265L6.54688 29.6355L0 32.0265V40.3382L6.54688 42.7008L13.0938 40.3382L19.6122 42.7008L26.1591 40.3382L32.7059 42.7008L39.2244 40.3382V32.0265Z" fill="black"/>
<path d="M0 40.3381L6.54688 37.947L13.0653 40.3381L6.54688 42.7006L0 40.3381Z" fill="#28BE46"/>
<path d="M26.1582 40.3381L32.7051 37.947L39.2235 40.3381L32.7051 42.7006L26.1582 40.3381Z" fill="#28BE46"/>
<path d="M26.1582 32.0264L19.6113 34.3889L13.0645 32.0264V40.3381L19.6113 42.7006L26.1582 40.3381V32.0264Z" fill="#28BE46"/>
</g>
<g clip-path="url(#clip1_253_2579)">
<path d="M54.1191 4.31958H66.0851V7.10004H61.5668V17.924H58.5877V7.10004H54.1191V4.31958Z" fill="black"/>
<path d="M75.4201 4.12109C79.5412 4.12109 82.5699 7.10016 82.5699 11.1219C82.5699 15.1436 79.5412 18.1227 75.4201 18.1227C71.2991 18.1227 68.2207 15.1436 68.2207 11.1219C68.2704 7.10016 71.2991 4.12109 75.4201 4.12109ZM79.5412 11.1219C79.5412 8.7883 77.7537 7.00086 75.4698 7.00086C73.1362 7.00086 71.3487 8.7883 71.3487 11.1219C71.3487 13.5052 73.1362 15.2429 75.4698 15.2429C77.7537 15.2926 79.5412 13.4555 79.5412 11.1219Z" fill="black"/>
<path d="M86.7891 4.31958H89.9171L93.9388 9.08609L97.9606 4.31958H101.089V17.8743H98.2088V8.09306L93.9885 13.2568L89.7681 8.14271V17.924H86.8387V4.31958H86.7891Z" fill="black"/>
<path d="M112.31 7.0007C109.976 7.0007 108.189 8.68884 108.189 11.1217C108.189 13.5547 110.026 15.2428 112.31 15.2428C114.147 15.2428 115.189 14.2498 115.884 13.3064L118.019 15.1435C117.275 16.3848 115.338 18.0729 112.26 18.0729C108.189 18.0729 105.061 15.2924 105.061 11.0721C105.061 6.9014 108.486 4.07129 112.26 4.07129C115.487 4.07129 117.275 5.75943 118.019 7.0007L115.884 8.8378C115.189 7.94408 114.097 7.0007 112.31 7.0007Z" fill="black"/>
<path d="M121.844 17.924V4.31958H124.823V17.8743H121.844V17.924ZM129.788 4.31958H133.115L128.348 10.2281L133.959 17.8743H130.433L124.872 10.3274L129.788 4.31958Z" fill="black"/>
<path d="M140.314 13.4057L146.67 4.36923H149.649V17.924H146.719V8.78818L140.364 17.924H137.385V4.31958H140.314V13.4057Z" fill="black"/>
<path d="M157.742 13.4058L164.097 4.3693H167.076V17.924H164.147V8.78825L157.792 17.924H154.812V4.31965H157.742V13.4058ZM159.678 0C159.678 0.744767 160.125 1.39023 160.87 1.39023C161.615 1.39023 162.062 0.744767 162.062 0H164.246C164.246 2.0357 162.757 3.32662 160.87 3.32662C158.934 3.32662 157.444 2.08535 157.444 0H159.678Z" fill="black"/>
<path d="M67.9712 42.2531H64.9921V31.4291H58.7857V42.2531H55.8066V28.6487H68.0208V42.2531H67.9712Z" fill="black"/>
<path d="M79.0939 28.4502C83.215 28.4502 86.2437 31.4293 86.2437 35.451C86.2437 39.4727 83.215 42.4518 79.0939 42.4518C74.9729 42.4518 71.8945 39.4727 71.8945 35.451C71.8945 31.4293 74.9232 28.4502 79.0939 28.4502ZM83.1653 35.451C83.1653 33.1174 81.3779 31.33 79.0939 31.33C76.7603 31.33 74.9729 33.1174 74.9729 35.451C74.9729 37.8343 76.7603 39.572 79.0939 39.572C81.3779 39.6217 83.1653 37.7846 83.1653 35.451Z" fill="black"/>
<path d="M88.4277 42.3524V39.6216H89.1725C90.3641 39.6216 90.9599 39.0754 90.9599 37.4866V28.6487H101.536V42.2034H98.5566V31.4291H93.8397V37.6852C93.8397 40.5153 92.5984 42.402 89.5201 42.402H88.4277V42.3524Z" fill="black"/>
<path d="M109.679 37.7348L116.035 28.6983H119.014V42.2531H116.084V33.1173L109.729 42.2531H106.75V28.6487H109.679V37.7348Z" fill="black"/>
<path d="M122.886 28.6487H134.852V31.4291H130.333V42.2531H127.354V31.4291H122.836V28.6487H122.886Z" fill="black"/>
<path d="M138.725 28.6487H149.003V31.3795H141.704V34.011H146.868V36.6425H141.704V39.4726H149.053V42.2034H138.676V28.6487H138.725Z" fill="black"/>
<path d="M159.231 33.2662L162.657 28.6487H166.083L161.068 35.3516L166.282 42.2531H162.607L158.933 37.5362L155.309 42.2531H151.883L157.096 35.3516L152.081 28.6487H155.706L159.231 33.2662Z" fill="black"/>
</g>
<defs>
<clipPath id="clip0_253_2579">
<rect width="39.2244" height="39.2244" fill="white" transform="translate(0 3.47632)"/>
</clipPath>
<clipPath id="clip1_253_2579">
<rect width="112.956" height="42.4517" fill="white" transform="translate(54.1191)"/>
</clipPath>
</defs>
</svg>
