<svg width="221" height="51" viewBox="0 0 221 51" fill="none" xmlns="http://www.w3.org/2000/svg">
<g clip-path="url(#clip0_253_2640)">
<path d="M51.4572 15.1426C51.8118 15.141 52.166 15.1676 52.5164 15.2222C52.8369 15.2841 53.1395 15.3549 53.4066 15.4345L53.184 16.5843C52.9163 16.5075 52.6423 16.4542 52.3651 16.4251C52.1293 16.3911 51.8913 16.3734 51.653 16.372C51.3617 16.3538 51.0701 16.4016 50.8002 16.5119C50.5303 16.6223 50.2893 16.7922 50.0953 17.0089C49.6977 17.564 49.5087 18.2401 49.5612 18.9194C49.5562 19.2907 49.592 19.6614 49.668 20.025C49.73 20.3093 49.8513 20.5775 50.0241 20.8122C50.1989 21.0286 50.4297 21.1937 50.6917 21.2898C51.0142 21.4043 51.3552 21.4583 51.6975 21.449H52.0358L52.4897 21.396L52.9704 21.3252L53.4244 21.2279L53.6825 22.307C53.5134 22.3801 53.3375 22.4364 53.1573 22.4751L52.5698 22.5989C52.3621 22.6343 52.1574 22.6608 51.9557 22.6785H51.3682C50.7932 22.6969 50.2205 22.5976 49.6858 22.3866C49.2687 22.2179 48.9012 21.9471 48.6177 21.5994C48.3468 21.2525 48.1554 20.851 48.0569 20.423C47.9465 19.9414 47.8928 19.4487 47.8967 18.9548C47.8993 18.5108 47.9531 18.0687 48.0569 17.6369C48.16 17.2012 48.3475 16.7896 48.6088 16.4251C48.8952 16.0491 49.2674 15.7459 49.6947 15.5406C50.2395 15.2636 50.8454 15.1267 51.4572 15.1426Z" fill="#A50328"/>
<path d="M59.5041 15.293H61.0707V22.5812H59.4952V17.6192C59.148 18.1764 58.8009 18.7337 58.4626 19.2909L57.3856 21.0068L56.3709 22.6254H54.8398V15.3018H56.3976V17.8226C56.3976 18.7071 56.3976 19.5032 56.3976 20.3434L57.2877 18.9371C57.439 18.6717 57.617 18.371 57.8307 18.0526L58.4626 17.0354L59.0679 16.0625C59.2905 15.6998 59.3973 15.4787 59.5041 15.293Z" fill="#A50328"/>
<path d="M62.4609 15.2751H67.4456V16.3542H64.0365V18.1232H65.5942C65.9487 18.1198 66.3021 18.1644 66.6445 18.2559C66.9382 18.339 67.2131 18.4771 67.4545 18.6628C67.6795 18.8471 67.8592 19.08 67.9797 19.3438C68.1226 19.6453 68.1956 19.9747 68.1933 20.3079C68.1997 20.6342 68.1423 20.9586 68.0242 21.2632C67.9173 21.5333 67.7534 21.7776 67.5436 21.9796C67.3288 22.1802 67.0741 22.3339 66.7959 22.4307C66.4784 22.5408 66.144 22.5947 65.8078 22.5899H62.4609V15.2751ZM64.0365 19.2377V21.5462H65.4073C65.6979 21.5515 65.979 21.4436 66.1906 21.2455C66.3057 21.1299 66.3947 20.9912 66.4515 20.8386C66.5083 20.6861 66.5316 20.5232 66.5199 20.361C66.5279 20.1847 66.4944 20.0091 66.422 19.848C66.362 19.7133 66.2741 19.5927 66.1639 19.4942C66.0502 19.4052 65.9202 19.3391 65.7811 19.2996C65.6265 19.2635 65.4682 19.2457 65.3093 19.2465L64.0365 19.2377Z" fill="#A50328"/>
<path d="M74.0757 15.293H75.5978V22.5812H74.0668V17.6192C73.7197 18.1764 73.3725 18.7337 73.0343 19.2909L71.9661 21.0068L70.9425 22.6254H69.3848V15.3018H70.9425V17.8226C70.9425 18.7071 70.9425 19.5032 70.9425 20.3434L71.8326 18.9371C71.975 18.6717 72.162 18.371 72.3667 18.0526L73.0076 17.0354C73.2212 16.6905 73.417 16.3632 73.6129 16.0625L74.0757 15.293Z" fill="#A50328"/>
<path d="M82.4879 17.5218C82.4862 17.7925 82.4412 18.0612 82.3544 18.3178C82.2719 18.5879 82.1289 18.8359 81.936 19.0431C81.7341 19.2741 81.4812 19.4557 81.1972 19.5738C80.8493 19.7237 80.4725 19.7962 80.0934 19.7861H78.7494V22.5899H77.1738V15.2751H79.9599C80.6475 15.2278 81.3268 15.4465 81.8559 15.8854C82.0696 16.0997 82.2362 16.3559 82.345 16.6376C82.4538 16.9193 82.5025 17.2204 82.4879 17.5218ZM78.7494 16.3896V18.707H79.7641C79.9023 18.7073 80.04 18.6895 80.1735 18.6539C80.3018 18.6141 80.4201 18.5478 80.5207 18.4593C80.6247 18.3559 80.7065 18.2325 80.761 18.0967C80.8259 17.9244 80.8562 17.741 80.85 17.5571C80.8653 17.3954 80.8445 17.2322 80.7891 17.0794C80.7338 16.9265 80.6451 16.7876 80.5296 16.6726C80.2975 16.4885 80.0076 16.3914 79.7107 16.3985L78.7494 16.3896Z" fill="#A50328"/>
<path d="M86.8853 15.1426C87.24 15.1411 87.5942 15.1677 87.9446 15.2222C88.265 15.2841 88.5677 15.3549 88.8347 15.4345L88.6656 16.5844C88.3978 16.5075 88.1238 16.4542 87.8467 16.4251C87.6108 16.3915 87.3729 16.3738 87.1346 16.3721C86.8433 16.3538 86.5517 16.4016 86.2818 16.512C86.0119 16.6223 85.7708 16.7923 85.5768 17.0089C85.1792 17.564 84.9902 18.2401 85.0428 18.9194C85.023 19.2891 85.0439 19.6598 85.1051 20.025C85.1633 20.3105 85.2849 20.5795 85.4611 20.8122C85.636 21.0287 85.8667 21.1938 86.1287 21.2899C86.4512 21.4043 86.7923 21.4583 87.1346 21.4491H87.4728L87.9268 21.396L88.4074 21.3253L88.8614 21.228L89.1106 22.307C88.9447 22.3804 88.7718 22.4367 88.5944 22.4751L88.0069 22.5989C87.8051 22.6343 87.6004 22.6608 87.3927 22.6785H86.8052C86.2255 22.705 85.6466 22.6117 85.1051 22.4043C84.6879 22.2356 84.3205 21.9648 84.0369 21.6171C83.7661 21.2702 83.5747 20.8688 83.4761 20.4408C83.3688 19.9588 83.318 19.4661 83.3248 18.9725C83.3275 18.5286 83.3812 18.0864 83.4851 17.6546C83.5887 17.2121 83.7792 16.7943 84.0458 16.4251C84.3323 16.0491 84.7045 15.746 85.1318 15.5407C85.6739 15.265 86.2766 15.1282 86.8853 15.1426Z" fill="#A50328"/>
<path d="M94.4503 18.7424C94.6144 18.7775 94.7692 18.8469 94.9043 18.9459C95.0305 19.0303 95.1418 19.1349 95.2336 19.2555C95.3218 19.372 95.3937 19.5 95.4472 19.6358C95.5007 19.7773 95.5452 19.9188 95.5897 20.0603L96.2751 22.59H94.6906L94.0764 20.3434C94.003 20.0572 93.8557 19.795 93.6492 19.5827C93.4091 19.3959 93.1077 19.3045 92.8036 19.3262H91.8066V22.59H90.2578V15.3018H91.8066V18.1675H92.6968C92.8151 18.1802 92.9345 18.1802 93.0528 18.1675C93.1733 18.1412 93.2879 18.0932 93.391 18.026C93.5084 17.9429 93.6082 17.8377 93.6848 17.7164C93.7858 17.5582 93.861 17.3851 93.9073 17.2034L94.3969 15.346H95.919L95.3849 17.4422C95.3091 17.7233 95.1857 17.9895 95.02 18.2294C94.8794 18.4467 94.6784 18.6187 94.4414 18.7248L94.4503 18.7424Z" fill="#A50328"/>
<path d="M101.955 15.293H103.468V22.5812H101.946V17.6192L100.905 19.2909C100.566 19.857 100.228 20.4142 99.8811 20.9714L98.8663 22.5901H97.3086V15.3018H98.8663C98.8663 16.1421 98.8663 16.9824 98.8663 17.8226V20.3434L99.7564 18.9371C99.9078 18.6717 100.086 18.371 100.299 18.0526L100.931 17.0354L101.537 16.0625L101.955 15.293Z" fill="#A50328"/>
<path d="M109.734 15.293H111.256V22.5813H109.725V17.6193C109.378 18.1765 109.031 18.7337 108.692 19.2909L107.624 21.0069L106.601 22.6255H105.043V15.3019H106.601V17.8227C106.601 18.7072 106.601 19.5032 106.601 20.3435L107.491 18.9371C107.633 18.6718 107.82 18.3711 108.025 18.0527L108.666 17.0355C108.879 16.6905 109.075 16.3633 109.271 16.0625L109.734 15.293ZM108.052 14.6562C107.843 14.6562 107.637 14.6141 107.446 14.5324C107.253 14.4568 107.073 14.3524 106.912 14.2228C106.748 14.086 106.596 13.9351 106.458 13.7717C106.313 13.6071 106.179 13.4327 106.058 13.2498L106.699 12.7722C106.895 13.0414 107.139 13.2723 107.42 13.4533C107.615 13.5847 107.843 13.6611 108.078 13.6744H108.319C108.435 13.6627 108.549 13.6328 108.657 13.586C108.814 13.5147 108.966 13.4319 109.111 13.3383C109.323 13.1931 109.523 13.0304 109.707 12.8518L110.161 13.2675C110.011 13.5071 109.835 13.7296 109.636 13.9309C109.473 14.0938 109.291 14.2364 109.093 14.3555C108.926 14.4627 108.742 14.5432 108.55 14.5943C108.387 14.6347 108.22 14.6554 108.052 14.6562Z" fill="#A50328"/>
<path d="M116.02 22.5899V15.2751H121.075V16.3896H117.586V22.5811L116.02 22.5899Z" fill="#A50328"/>
<path d="M127.83 18.9372C127.835 19.4404 127.763 19.9415 127.616 20.4231C127.486 20.8601 127.268 21.2663 126.975 21.6172C126.687 21.9562 126.325 22.2254 125.916 22.4044C125.448 22.6065 124.941 22.7061 124.43 22.6963C123.9 22.7099 123.373 22.6166 122.881 22.4221C122.467 22.2609 122.099 21.9994 121.813 21.6614C121.52 21.3156 121.304 20.9115 121.181 20.4762C121.04 19.9813 120.971 19.4691 120.976 18.9549C120.964 18.4537 121.024 17.9534 121.154 17.4689C121.273 17.0274 121.482 16.615 121.768 16.2571C122.053 15.904 122.419 15.6248 122.836 15.4434C123.33 15.2301 123.865 15.1275 124.403 15.1427C124.941 15.1257 125.476 15.2284 125.97 15.4434C126.383 15.6311 126.746 15.9129 127.029 16.266C127.301 16.622 127.501 17.0277 127.616 17.4601C127.753 17.9408 127.825 18.4375 127.83 18.9372ZM126.157 18.9372C126.156 18.6087 126.132 18.2806 126.085 17.9554C126.051 17.6481 125.963 17.349 125.827 17.0709C125.712 16.8001 125.517 16.5705 125.267 16.4125C125.017 16.2546 124.725 16.1757 124.43 16.1864C124.117 16.1755 123.807 16.2554 123.54 16.4164C123.308 16.5674 123.118 16.7743 122.988 17.0178C122.845 17.2948 122.752 17.5939 122.712 17.9023C122.661 18.236 122.637 18.5732 122.641 18.9106C122.603 19.5742 122.742 20.2358 123.041 20.83C123.188 21.0584 123.395 21.2421 123.64 21.3607C123.885 21.4794 124.158 21.5283 124.43 21.5022C124.707 21.5116 124.981 21.4442 125.222 21.3076C125.446 21.1758 125.631 20.9864 125.756 20.7592C125.906 20.5053 126.008 20.2267 126.059 19.9366C126.113 19.6123 126.137 19.2836 126.13 18.9549L126.157 18.9372Z" fill="#A50328"/>
<path d="M132.478 15.1427C132.832 15.1407 133.187 15.1674 133.537 15.2223C133.837 15.2779 134.134 15.3488 134.427 15.4345L134.205 16.5844C133.937 16.5083 133.663 16.4551 133.386 16.4252C133.15 16.3915 132.912 16.3738 132.674 16.3721C132.382 16.3525 132.09 16.3997 131.82 16.5101C131.55 16.6206 131.309 16.7912 131.116 17.0089C130.718 17.564 130.529 18.2401 130.582 18.9195C130.577 19.2908 130.613 19.6615 130.689 20.0251C130.747 20.3106 130.868 20.5795 131.045 20.8123C131.218 21.0265 131.445 21.1913 131.703 21.2899C132.029 21.4042 132.373 21.4582 132.718 21.4491H133.056L133.501 21.396L133.982 21.3253L134.436 21.228L134.694 22.3071C134.528 22.3804 134.355 22.4367 134.178 22.4751L133.59 22.599C133.389 22.6343 133.184 22.6609 132.976 22.6786H132.389C131.814 22.697 131.241 22.5976 130.706 22.3867C130.284 22.2221 129.913 21.9507 129.629 21.5995C129.359 21.2526 129.167 20.8511 129.069 20.4231C128.958 19.9415 128.904 19.4488 128.908 18.9548C128.911 18.5109 128.965 18.0687 129.069 17.6369C129.172 17.1944 129.363 16.7766 129.629 16.4075C129.917 16.0291 130.293 15.7257 130.724 15.523C131.268 15.2531 131.871 15.1224 132.478 15.1427Z" fill="#A50328"/>
<path d="M138.512 19.7154L139.144 17.9464L140.132 15.2929H141.68L139.17 21.5817C139.041 21.9308 138.816 22.2372 138.52 22.4661C138.229 22.6521 137.887 22.7447 137.541 22.7315C137.34 22.7425 137.138 22.7425 136.936 22.7315C136.634 22.7015 136.336 22.6422 136.046 22.5546L136.295 21.4932L136.802 21.5817H137.159C137.3 21.5937 137.44 21.5548 137.555 21.4719C137.669 21.389 137.75 21.2678 137.782 21.1306L137.951 20.6883H137.621L135.271 15.2664H136.847L137.88 17.9198L138.52 19.6888L138.512 19.7154Z" fill="#A50328"/>
<path d="M142.286 22.59V24.4563H141.066V21.5109H141.77C142.013 21.2538 142.206 20.9539 142.339 20.6264C142.496 20.2773 142.616 19.9126 142.695 19.5385C142.791 19.1127 142.859 18.6814 142.9 18.2471C142.9 17.7783 142.989 17.2742 143.025 16.7435L143.131 15.2664H147.876V21.4578H148.632V24.4563H147.413V22.59H142.286ZM144.422 17.0619C144.422 17.628 144.333 18.141 144.298 18.5921C144.262 19.0432 144.191 19.4766 144.12 19.795C144.06 20.1218 143.968 20.4419 143.844 20.7502C143.734 21.0189 143.584 21.2695 143.399 21.4932H146.318V16.3543H144.476L144.422 17.0619Z" fill="#A50328"/>
<path d="M154.339 22.5901L153.823 20.9184H151.152L150.636 22.5901H149.061L151.562 15.293H153.556L155.977 22.5901H154.339ZM152.959 17.9376L152.532 16.3544H152.479L152.025 17.9907L151.482 19.857H153.502L152.959 17.9376Z" fill="#A50328"/>
<path d="M162.136 17.5218C162.138 17.792 162.096 18.0608 162.012 18.3178C161.919 18.5967 161.769 18.853 161.569 19.0695C161.37 19.2861 161.126 19.458 160.855 19.5738C160.504 19.7247 160.124 19.7972 159.742 19.7861H158.407V22.5899H156.822V15.2751H159.608C160.296 15.2278 160.975 15.4465 161.504 15.8854C161.718 16.0997 161.885 16.3559 161.993 16.6376C162.102 16.9193 162.151 17.2204 162.136 17.5218ZM158.407 16.3896V18.707H159.448C159.586 18.7073 159.724 18.6895 159.858 18.6539C159.986 18.6141 160.104 18.5478 160.205 18.4593C160.309 18.3559 160.391 18.2325 160.445 18.0967C160.51 17.9244 160.54 17.741 160.534 17.5571C160.549 17.3954 160.529 17.2322 160.473 17.0794C160.418 16.9265 160.329 16.7876 160.214 16.6726C159.982 16.4885 159.692 16.3914 159.395 16.3985L158.407 16.3896Z" fill="#A50328"/>
<path d="M166.56 15.1426C166.912 15.1407 167.263 15.1673 167.61 15.2222C167.91 15.2779 168.207 15.3487 168.5 15.4345L168.278 16.5844C168.01 16.5075 167.736 16.4542 167.459 16.4252C167.223 16.3915 166.985 16.3738 166.747 16.3721C166.455 16.3525 166.163 16.3997 165.893 16.5101C165.623 16.6205 165.382 16.7912 165.189 17.0089C164.791 17.564 164.602 18.2401 164.655 18.9194C164.65 19.2907 164.686 19.6615 164.762 20.025C164.82 20.3105 164.942 20.5795 165.118 20.8122C165.293 21.0287 165.523 21.1938 165.785 21.2899C166.108 21.4043 166.449 21.4583 166.791 21.4491H167.13L167.583 21.396L168.064 21.3253L168.518 21.228L168.767 22.307C168.601 22.3804 168.428 22.4367 168.251 22.4751L167.664 22.5989C167.462 22.6343 167.257 22.6608 167.049 22.6785H166.462C165.887 22.697 165.314 22.5976 164.78 22.3866C164.362 22.218 163.995 21.9472 163.711 21.5994C163.441 21.2526 163.249 20.8511 163.151 20.4231C163.04 19.9415 162.987 19.4487 162.99 18.9548C162.993 18.5109 163.047 18.0687 163.151 17.6369C163.254 17.1944 163.445 16.7766 163.711 16.4075C163.998 16.0314 164.37 15.7283 164.797 15.523C165.344 15.252 165.95 15.1213 166.56 15.1426Z" fill="#A50328"/>
<path d="M171.625 22.5899V16.3985H169.293V15.2751H175.524V16.4161H173.227V22.6076L171.625 22.5899Z" fill="#A50328"/>
<path d="M180.971 18.7867C181.193 18.8528 181.397 18.9677 181.568 19.1228C181.709 19.2495 181.824 19.4028 181.906 19.5739C181.983 19.7243 182.037 19.8853 182.066 20.0515C182.077 20.1899 182.077 20.3289 182.066 20.4672C182.074 20.7707 182.016 21.0722 181.897 21.3517C181.787 21.6075 181.623 21.8368 181.416 22.024C181.21 22.222 180.96 22.3702 180.686 22.4574C180.383 22.5594 180.064 22.6103 179.743 22.6077H176.432V15.2929H179.645C180.261 15.2436 180.872 15.4375 181.345 15.8325C181.532 16.0167 181.679 16.2377 181.776 16.4814C181.872 16.725 181.917 16.986 181.906 17.2477C181.918 17.3712 181.918 17.4956 181.906 17.6192C181.872 17.7604 181.822 17.8971 181.755 18.026C181.679 18.1708 181.579 18.3023 181.461 18.4152C181.331 18.5489 181.177 18.657 181.007 18.7336L180.971 18.7867ZM178.007 16.4074V18.2825H179.191C179.486 18.3067 179.779 18.2251 180.019 18.0526C180.114 17.969 180.188 17.8649 180.235 17.7483C180.283 17.6318 180.304 17.5059 180.295 17.3804C180.302 17.2512 180.282 17.1221 180.238 17.0005C180.194 16.8789 180.125 16.7675 180.037 16.6728C179.916 16.5684 179.774 16.4907 179.62 16.445C179.467 16.3992 179.305 16.3864 179.147 16.4074H178.007ZM178.007 19.3439V21.4756H179.342C179.505 21.492 179.67 21.4719 179.824 21.4168C179.978 21.3617 180.117 21.273 180.232 21.1572C180.413 20.9451 180.508 20.6741 180.499 20.3965C180.505 20.1215 180.403 19.8551 180.215 19.6535C180.097 19.5413 179.957 19.4555 179.804 19.4021C179.65 19.3487 179.487 19.3288 179.325 19.3439H178.007Z" fill="#A50328"/>
<path d="M183.473 22.5899V15.2751H188.537V16.3896H185.066V18.2382H187.986V19.2819H185.066V21.4755H188.689V22.5899H183.473Z" fill="#A50328"/>
<path d="M194.385 22.5901V19.3351H191.537V21.0068C191.537 21.5463 191.537 22.0859 191.537 22.6254H189.943V15.293H191.537C191.537 15.7794 191.537 16.2659 191.537 16.7435V18.203H194.385V15.293H195.978V22.5901H194.385Z" fill="#A50328"/>
<path d="M201.978 22.5901V19.3351H199.121C199.121 19.8835 199.121 20.423 199.121 20.9714C199.121 21.5198 199.121 22.0505 199.121 22.5901H197.527V15.293H199.121C199.121 15.7794 199.121 16.2659 199.121 16.7435C199.121 17.2212 199.121 17.7165 199.121 18.203H201.978V15.293H203.571V22.5901H201.978Z" fill="#A50328"/>
<path d="M205.148 15.2751H206.714V18.1409H208.272C208.624 18.1366 208.975 18.1843 209.313 18.2824C209.61 18.3783 209.887 18.525 210.132 18.7158C210.36 18.9047 210.54 19.1441 210.657 19.4146C210.788 19.713 210.851 20.0358 210.844 20.361C210.852 20.6816 210.794 21.0004 210.675 21.2986C210.568 21.5683 210.401 21.8103 210.186 22.0062C209.969 22.1994 209.714 22.3469 209.438 22.4396C209.122 22.5416 208.791 22.5923 208.459 22.5899H205.139L205.148 15.2751ZM206.723 19.2377V21.5462H208.076C208.367 21.5541 208.649 21.453 208.868 21.2632C208.987 21.1494 209.078 21.0112 209.137 20.8584C209.195 20.7055 209.219 20.5417 209.207 20.3787C209.208 20.2029 209.175 20.0285 209.109 19.8657C209.045 19.7285 208.95 19.6076 208.833 19.5119C208.719 19.4192 208.589 19.3473 208.45 19.2996C208.303 19.2562 208.15 19.2353 207.996 19.2377H206.723ZM211.69 22.6253V15.2751H213.283V22.5899L211.69 22.6253Z" fill="#A50328"/>
<path d="M219.514 15.293H221.036V22.5813H219.514V17.6193C219.167 18.1765 218.819 18.7337 218.481 19.2909L217.368 21.0069L216.345 22.6255H214.787V15.3019H216.345V17.8227C216.345 18.7072 216.345 19.5032 216.345 20.3435L217.235 18.9371C217.377 18.6718 217.564 18.3711 217.769 18.0527L218.41 17.0355C218.624 16.6905 218.819 16.3633 219.015 16.0625C219.211 15.7618 219.371 15.4788 219.514 15.293ZM217.831 14.6562C217.623 14.6562 217.417 14.6141 217.226 14.5324C217.033 14.4568 216.853 14.3524 216.692 14.2228C216.528 14.086 216.376 13.9351 216.238 13.7717C216.093 13.6071 215.959 13.4327 215.837 13.2498L216.478 12.7722C216.674 13.0414 216.919 13.2723 217.199 13.4533C217.395 13.5847 217.622 13.6611 217.858 13.6744H218.098C218.215 13.6627 218.329 13.6328 218.437 13.586C218.594 13.5147 218.746 13.4319 218.891 13.3383C219.103 13.1931 219.302 13.0304 219.487 12.8518L219.941 13.2675C219.791 13.5071 219.615 13.7296 219.416 13.9309C219.253 14.0938 219.07 14.2364 218.873 14.3555C218.705 14.4627 218.522 14.5432 218.33 14.5943C218.155 14.6376 217.976 14.6584 217.796 14.6562H217.831Z" fill="#A50328"/>
<path d="M54.5028 30.409L53.951 31.7534C53.8619 31.9657 53.7551 32.1957 53.6483 32.4522C53.5415 32.7087 53.4258 32.9563 53.3101 33.2217L52.9896 33.9912C52.8828 34.2477 52.7849 34.4777 52.687 34.6811H51.4141C51.3162 34.4688 51.2183 34.23 51.1115 33.9647L50.791 33.1775C50.6753 32.9121 50.5685 32.6468 50.4528 32.3903C50.3371 32.1338 50.2391 31.8949 50.1412 31.6827L49.6695 30.4621V31.6207C49.6695 32.0453 49.6695 32.5052 49.6695 32.9298C49.6695 33.3544 49.6695 33.8143 49.6695 34.23V35.3356H48.1562V28.0828H50.0967L51.0581 30.4532L51.2984 31.0635L51.5743 31.7534L51.8414 32.4522C51.9215 32.6733 52.0016 32.8767 52.0817 33.0536H52.1707C52.3398 32.6468 52.509 32.1691 52.6959 31.7711L53.2122 30.4709C53.2834 30.3294 53.3635 30.1436 53.4525 29.9314L53.7195 29.2768L53.9866 28.6223C54.0756 28.41 54.1557 28.2331 54.2269 28.0828H56.1051V35.3356H54.5384V30.409H54.5028Z" fill="#A50328"/>
<path d="M57.627 35.3355V28.0295H62.6918V29.144H59.2203V30.9926H62.1399V32.0363H59.2203V34.221H62.852V35.3355H57.627Z" fill="#A50328"/>
<path d="M64.7117 35.3355V37.2106H63.4922V34.2741H64.1954C64.4379 34.0144 64.6336 33.7152 64.774 33.3896C64.924 33.0417 65.0402 32.6804 65.1211 32.3105C65.2165 31.8817 65.2849 31.4475 65.3258 31.0103C65.3258 30.5415 65.4149 30.0462 65.4505 29.5155L65.5217 28.0295H70.266V34.221H71.0315V37.1664H69.8477V35.3355H64.7117ZM66.8479 29.8516C66.8479 30.4177 66.7678 30.9218 66.7233 31.3729C66.6788 31.824 66.6254 32.2574 66.5542 32.5847C66.4896 32.9074 66.3973 33.224 66.2783 33.5311C66.1678 33.8039 66.0146 34.0577 65.8243 34.2829H68.7439V29.0998H66.9014L66.8479 29.8516Z" fill="#A50328"/>
<path d="M76.8453 28.0828H78.3674V35.3356H76.8363V30.3648C76.4803 30.922 76.1332 31.4881 75.7949 32.0453C75.4567 32.6025 75.1095 33.1598 74.7713 33.7258L73.7209 35.3356H72.1543V28.0828H73.7209C73.7209 28.9673 73.7209 29.7722 73.7209 30.6124C73.7209 31.4527 73.7209 32.293 73.7209 33.1332L74.611 31.718C74.7535 31.4615 74.9404 31.152 75.1451 30.8335L75.786 29.8075L76.3913 28.8346C76.596 28.4808 76.7384 28.2331 76.8453 28.0828Z" fill="#A50328"/>
<path d="M85.7459 35.3356H79.9512V28.0828H81.5445V34.2742H84.4107V28.0828H85.9951V34.2742H86.8852V37.1931H85.7459V35.3356Z" fill="#A50328"/>
<path d="M92.7066 28.0828H94.2198V35.3356H92.6977V30.3648L91.6562 32.0453C91.318 32.6025 90.9708 33.1598 90.6326 33.7258L89.5555 35.3356H88.0156V28.0828H89.5555C89.5555 28.9673 89.5555 29.7722 89.5555 30.6124V33.1332L90.4457 31.718C90.597 31.4615 90.775 31.152 90.9886 30.8335L91.6206 29.8075C91.8343 29.4626 92.039 29.1442 92.2259 28.8346C92.4128 28.525 92.5998 28.2331 92.7066 28.0828Z" fill="#A50328"/>
<path d="M100.238 35.3356V32.0895H97.3804V33.717C97.3804 34.2565 97.3804 34.7961 97.3804 35.3356H95.7871V28.0828H97.3804C97.3804 28.5692 97.3804 29.0557 97.3804 29.5422V30.9928H100.238V28.0828H101.831V35.3356H100.238Z" fill="#A50328"/>
<path d="M106.736 27.8882C107.091 27.885 107.445 27.9146 107.795 27.9766C108.096 28.025 108.394 28.0959 108.685 28.1889L108.454 29.3387C108.188 29.2642 107.917 29.2081 107.643 29.1707C107.406 29.1547 107.168 29.1547 106.931 29.1707C106.639 29.1499 106.346 29.1957 106.075 29.3046C105.803 29.4134 105.561 29.5824 105.365 29.7987C104.967 30.3571 104.778 31.036 104.831 31.718C104.826 32.0864 104.861 32.4542 104.938 32.8148C104.997 33.1042 105.122 33.3765 105.302 33.6109C105.472 33.829 105.7 33.9947 105.961 34.0885C106.287 34.2028 106.631 34.2568 106.976 34.2477H107.305H107.759L108.24 34.1681L108.694 34.0708L108.952 35.1587C108.781 35.2248 108.606 35.278 108.427 35.3179C108.233 35.3694 108.037 35.4108 107.839 35.4418C107.643 35.4418 107.43 35.5037 107.225 35.5214H106.638C106.064 35.538 105.492 35.4418 104.955 35.2383C104.539 35.0648 104.172 34.7913 103.887 34.4423C103.615 34.0963 103.423 33.6945 103.326 33.2659C103.216 32.7872 103.163 32.2975 103.166 31.8065C103.168 31.3625 103.222 30.9203 103.326 30.4886C103.43 30.0433 103.62 29.6225 103.887 29.2503C104.176 28.8765 104.548 28.5739 104.973 28.3658C105.513 28.0662 106.118 27.9023 106.736 27.8882Z" fill="#A50328"/>
<path d="M114.282 31.4969C114.446 31.5291 114.601 31.5954 114.736 31.6915C114.863 31.7791 114.974 31.8867 115.066 32.0099C115.156 32.1253 115.228 32.2535 115.279 32.3903C115.335 32.526 115.382 32.6648 115.422 32.806L116.107 35.3356H114.523L113.908 33.0979C113.841 32.8094 113.693 32.5458 113.481 32.3372C113.243 32.1472 112.94 32.0554 112.636 32.0807H111.639V35.3356H110.09V28.0828H111.639V30.9574H112.529C112.649 30.9552 112.768 30.9404 112.885 30.9132C113.007 30.8923 113.123 30.8439 113.223 30.7716C113.34 30.692 113.44 30.5897 113.517 30.4709C113.62 30.3139 113.695 30.1404 113.739 29.9579L114.229 28.0916H115.751L115.217 30.1879C115.146 30.4718 115.025 30.7412 114.861 30.9839C114.717 31.1992 114.513 31.3682 114.273 31.4704L114.282 31.4969Z" fill="#A50328"/>
<path d="M121.788 28.0828H123.31V35.3356H121.779V30.3648L120.71 32.0453L119.678 33.7258L118.663 35.3356H117.105V28.0828H118.663V30.6124C118.663 31.4438 118.663 32.293 118.663 33.1332L119.553 31.718C119.705 31.4615 119.883 31.152 120.096 30.8335C120.31 30.5151 120.515 30.1525 120.728 29.8075C120.942 29.4626 121.147 29.1442 121.334 28.8346C121.52 28.525 121.681 28.2331 121.788 28.0828Z" fill="#A50328"/>
<path d="M129.612 28.0828H131.125V35.3357H129.594V30.3648C129.238 30.9221 128.899 31.4881 128.552 32.0454C128.205 32.6026 127.867 33.1598 127.529 33.7259L126.514 35.3357H124.947V28.0828H126.514C126.514 28.9673 126.514 29.7722 126.514 30.6125C126.514 31.4528 126.514 32.293 126.514 33.1333H126.558L127.449 31.7181C127.6 31.4616 127.778 31.152 127.983 30.8336L128.623 29.8076C128.837 29.4626 129.042 29.1442 129.229 28.8346C129.416 28.5251 129.469 28.2332 129.612 28.0828ZM127.92 27.446C127.713 27.4488 127.507 27.4097 127.315 27.331C127.125 27.2507 126.948 27.1434 126.79 27.0126C126.619 26.8838 126.463 26.7354 126.327 26.5703C126.184 26.401 126.05 26.2238 125.926 26.0396L126.567 25.562C126.761 25.8333 127.006 26.0647 127.288 26.2431C127.484 26.3745 127.711 26.4509 127.947 26.4642H128.196C128.311 26.4561 128.423 26.4261 128.526 26.3757C128.686 26.3099 128.838 26.2268 128.98 26.1281C129.192 25.9865 129.392 25.8266 129.576 25.6505L130.039 26.0662C129.886 26.3038 129.707 26.5234 129.505 26.7207C129.339 26.8836 129.157 27.0289 128.962 27.1541C128.793 27.2565 128.61 27.334 128.419 27.3841C128.242 27.4125 128.063 27.4185 127.885 27.4018L127.92 27.446Z" fill="#A50328"/>
<path d="M138.512 32.5052L139.144 30.7362L140.124 28.0827H141.672L139.162 34.3714C139.041 34.7247 138.814 35.0331 138.512 35.2559C138.221 35.4419 137.879 35.5345 137.533 35.5213H136.928C136.627 35.4815 136.33 35.4194 136.038 35.3355L136.287 34.2742L136.795 34.3626H137.151C137.277 34.3664 137.402 34.3391 137.516 34.283C137.638 34.1928 137.729 34.0656 137.774 33.9204L137.943 33.4693H137.551L135.201 28.0562H136.732L137.774 30.7096L138.415 32.4786L138.512 32.5052Z" fill="#A50328"/>
<path d="M147.04 35.3356V32.0895H144.192V33.717C144.192 34.2565 144.192 34.7961 144.192 35.3356H142.607V28.0828H144.201C144.201 28.5692 144.201 29.0557 144.201 29.5422V30.9928H147.049V28.0828H148.642V35.3356H147.04Z" fill="#A50328"/>
<path d="M154.89 28.0828H156.413V35.3356H154.881V30.3648L153.849 32.0453L152.754 33.7258L151.739 35.3356H150.182V28.0828H151.739V30.6124C151.739 31.4438 151.739 32.293 151.739 33.1332L152.629 31.718C152.781 31.4615 152.959 31.152 153.172 30.8335C153.386 30.5151 153.591 30.1525 153.804 29.8075C154.018 29.4626 154.223 29.1442 154.41 28.8346C154.597 28.525 154.784 28.2331 154.89 28.0828Z" fill="#A50328"/>
<path d="M162.545 31.5323C162.769 31.6027 162.976 31.7204 163.15 31.8772C163.289 32.0062 163.404 32.159 163.488 32.3283C163.565 32.4787 163.619 32.6397 163.649 32.8059C163.656 32.9415 163.656 33.0773 163.649 33.2128C163.653 33.5159 163.595 33.8168 163.479 34.0973C163.37 34.3557 163.206 34.5879 162.999 34.7784C162.788 34.9686 162.539 35.1132 162.269 35.2029C161.966 35.309 161.646 35.36 161.325 35.3533H157.979V28.0827H161.192C161.808 28.0334 162.419 28.2273 162.892 28.6223C163.079 28.8065 163.226 29.0275 163.322 29.2712C163.419 29.5148 163.463 29.7758 163.453 30.0375C163.454 30.1656 163.439 30.2934 163.408 30.4178C163.381 30.5596 163.333 30.6966 163.266 30.8247C163.188 30.9681 163.089 31.0992 162.972 31.2139C162.839 31.3457 162.682 31.4508 162.509 31.5234L162.545 31.5323ZM159.59 29.153V31.037H160.765C161.059 31.0565 161.351 30.9754 161.592 30.807C161.685 30.7197 161.757 30.6137 161.805 30.4962C161.852 30.3787 161.874 30.2525 161.868 30.1259C161.879 29.8655 161.787 29.6113 161.61 29.4183C161.495 29.3197 161.36 29.2454 161.215 29.1998C161.069 29.1542 160.916 29.1383 160.765 29.153H159.59ZM159.59 32.0984V34.2211H160.925C161.087 34.2357 161.25 34.2156 161.404 34.1622C161.557 34.1088 161.697 34.0233 161.815 33.9116C161.995 33.696 162.09 33.4223 162.082 33.1421C162.085 32.8701 161.983 32.6073 161.797 32.4079C161.681 32.2942 161.541 32.2074 161.387 32.1539C161.233 32.1004 161.069 32.0814 160.907 32.0984H159.59Z" fill="#A50328"/>
<path d="M165.02 35.3355V28.0295H170.084V29.144H166.613V30.9926H169.524V32.0363H166.613V34.221H170.236V35.3355H165.02Z" fill="#A50328"/>
<path d="M176.788 30.2675C176.787 30.5383 176.742 30.8071 176.654 31.0636C176.572 31.3363 176.429 31.5872 176.236 31.7977C176.029 32.0234 175.778 32.2041 175.497 32.3284C175.144 32.4718 174.765 32.5411 174.384 32.5318H173.049V35.3357H171.465V28.0297H174.251C174.937 27.98 175.617 28.1954 176.147 28.6312C176.361 28.8454 176.529 29.1013 176.639 29.3829C176.75 29.6644 176.8 29.9656 176.788 30.2675ZM173.049 29.1442V31.4616H174.117C174.256 31.4633 174.395 31.4424 174.527 31.3997C174.657 31.3635 174.776 31.2968 174.874 31.2051C174.98 31.1032 175.062 30.9794 175.114 30.8424C175.179 30.6732 175.209 30.4928 175.203 30.3117C175.217 30.1501 175.195 29.9875 175.14 29.8349C175.085 29.6823 174.997 29.5433 174.883 29.4273C174.65 29.2456 174.36 29.1516 174.064 29.1619L173.049 29.1442Z" fill="#A50328"/>
<path d="M181.238 27.8881C181.59 27.8845 181.941 27.9141 182.288 27.9766C182.59 28.0239 182.887 28.0949 183.178 28.1888L182.955 29.3387C182.687 29.2633 182.413 29.2071 182.137 29.1706C181.899 29.1544 181.662 29.1544 181.424 29.1706C181.134 29.1506 180.842 29.1968 180.572 29.3056C180.303 29.4144 180.061 29.583 179.867 29.7986C179.469 30.3571 179.28 31.0359 179.333 31.718C179.337 32.0722 179.378 32.4251 179.457 32.7705C179.514 33.0593 179.635 33.3315 179.813 33.5666C179.988 33.783 180.219 33.9481 180.481 34.0442C180.803 34.1586 181.144 34.2126 181.487 34.2034H181.825H182.279L182.76 34.1238L183.214 34.0265L183.463 35.1145C183.295 35.1804 183.122 35.2337 182.947 35.2737C182.753 35.3252 182.557 35.3665 182.359 35.3975L181.745 35.4771H181.157C180.575 35.4848 179.997 35.3766 179.457 35.1587C179.04 34.9852 178.673 34.7117 178.389 34.3626C178.117 34.0167 177.925 33.6148 177.828 33.1863C177.718 32.7076 177.665 32.2178 177.668 31.7268C177.67 31.2829 177.724 30.8406 177.828 30.4089C177.932 29.9636 178.122 29.5429 178.389 29.1706C178.678 28.7969 179.05 28.4942 179.475 28.2861C180.021 28.0132 180.626 27.8766 181.238 27.8881Z" fill="#A50328"/>
<path d="M189.249 28.0828H190.771V35.3356H189.249V30.3648L188.216 32.0453L187.184 33.7258L186.169 35.3356H184.611V28.0828H186.169C186.169 28.9673 186.169 29.7722 186.169 30.6124V33.1332H186.214L187.104 31.718C187.255 31.4615 187.433 31.152 187.647 30.8335C187.86 30.5151 188.065 30.1525 188.279 29.8075C188.492 29.4626 188.697 29.1442 188.884 28.8346C189.071 28.525 189.169 28.2331 189.249 28.0828Z" fill="#A50328"/>
<path d="M194.073 35.3355V29.144H191.75V28.0295H197.981V29.1617H195.658V35.3532L194.073 35.3355Z" fill="#A50328"/>
<path d="M198.889 35.3355V28.0295H203.953V29.144H200.482V30.9926H203.402V32.0363H200.482V34.221H204.105V35.3355H198.889Z" fill="#A50328"/>
<path d="M207.051 35.3355V29.144H204.719V28.0295H210.95V29.1617H208.635V35.3532L207.051 35.3355Z" fill="#A50328"/>
<path d="M14.7841 46.3741C14.7214 46.3486 14.6511 46.3486 14.5883 46.3741C14.5327 46.3848 14.4807 46.4091 14.437 46.4449C14.3885 46.4922 14.3466 46.5458 14.3124 46.6041C14.271 46.6643 14.2381 46.7297 14.2145 46.7987C14.1744 46.8733 14.1474 46.954 14.1344 47.0375C14.1219 47.0988 14.1219 47.162 14.1344 47.2233C14.1404 47.2782 14.162 47.3304 14.1967 47.3736C14.2343 47.4204 14.2833 47.4569 14.3391 47.4798C14.3974 47.4956 14.4588 47.4956 14.5171 47.4798C14.5727 47.4691 14.6247 47.4448 14.6684 47.409C14.7187 47.3702 14.761 47.3221 14.793 47.2675C14.8357 47.2005 14.8715 47.1293 14.8999 47.0552C14.9314 46.9864 14.9582 46.9154 14.98 46.8429C14.9925 46.7787 14.9925 46.7126 14.98 46.6483C14.98 46.5882 14.9614 46.5295 14.9266 46.4803C14.8909 46.4315 14.8412 46.3945 14.7841 46.3741Z" fill="#A50328"/>
<path d="M16.5646 47.0287L16.3599 46.9668L16.2441 47.3914L16.4489 47.4444C16.4748 47.4532 16.503 47.4532 16.529 47.4444C16.5551 47.4526 16.583 47.4526 16.6091 47.4444C16.6368 47.4327 16.6612 47.4145 16.6803 47.3914V47.3029C16.6993 47.2485 16.6993 47.1893 16.6803 47.1349C16.6567 47.0861 16.6154 47.0482 16.5646 47.0287Z" fill="#A50328"/>
<path d="M32.1426 40.386C28.9559 43.1456 25.7782 45.0915 20.6244 45.0915C15.6931 45.0915 12.2483 43.1367 9.05277 40.3506C8.75903 40.2356 8.5454 40.554 8.29616 41.9957C8.20715 42.5176 7.59296 44.3927 8.29616 45.4011C11.6786 48.939 15.5774 50.9999 20.5799 50.9999C25.5824 50.9999 29.5879 48.9037 32.9793 45.2684C33.5668 44.3131 32.9793 42.5176 32.9348 41.9957C32.7123 40.4656 32.4719 40.1914 32.1426 40.386ZM9.44442 44.72L10.6461 43.3136L11.7053 44.1981L11.4739 44.4723L10.8241 43.9151L10.5927 44.1804L11.1357 44.6492L10.9042 44.9146L10.3345 44.4723L10.0586 44.7819L10.7351 45.3657L10.4948 45.6399L9.44442 44.72ZM12.3284 45.7195V46.2855C12.3284 46.4801 12.3284 46.6659 12.3284 46.8516L11.83 46.5244V45.8168L11.2069 46.144L10.6995 45.8168L11.2336 45.5868L11.7587 45.3657V44.3043L12.2661 44.6404L12.2038 45.2861L12.4975 45.1357C12.5897 45.0805 12.6848 45.0303 12.7824 44.9853L13.2898 45.3126L12.3284 45.7195ZM15.248 47.5946C15.1755 47.6873 15.0806 47.7603 14.9721 47.8069C14.8643 47.8602 14.7453 47.8874 14.6249 47.8865C14.4872 47.8808 14.3516 47.8508 14.2244 47.798C14.1014 47.7308 13.9902 47.6441 13.895 47.5415C13.8029 47.4613 13.7351 47.3572 13.6992 47.2408C13.6627 47.1327 13.6476 47.0185 13.6547 46.9047C13.6705 46.7742 13.7034 46.6463 13.7526 46.5244C13.8029 46.4051 13.872 46.2946 13.9573 46.1971C14.0327 46.1075 14.1265 46.0351 14.2325 45.9847C14.3384 45.9344 14.4541 45.9072 14.5715 45.9052C14.715 45.9109 14.8565 45.9408 14.9899 45.9937C15.1191 46.0481 15.2368 46.1261 15.337 46.2236C15.4223 46.3096 15.4889 46.4119 15.5329 46.5244C15.5557 46.6382 15.5557 46.7554 15.5329 46.8693C15.5159 46.9938 15.483 47.1157 15.435 47.232C15.3897 47.3662 15.317 47.4897 15.2213 47.5946H15.248ZM17.3042 47.4C17.2974 47.4479 17.2791 47.4934 17.2508 47.5327C17.2285 47.5761 17.1983 47.6151 17.1618 47.6477C17.124 47.6821 17.0822 47.7118 17.0372 47.7361L16.8859 47.7803C16.9169 47.8022 16.944 47.8291 16.966 47.8599C16.9693 47.8923 16.9693 47.9249 16.966 47.9572C16.9711 47.9895 16.9711 48.0223 16.966 48.0545V48.6825L16.4586 48.541V48.0545C16.4638 47.9827 16.445 47.9112 16.4052 47.8511C16.3667 47.805 16.3132 47.7737 16.2539 47.7627H16.1382L15.9423 48.4349L15.435 48.2933L15.9334 46.5244L16.7523 46.7543C16.8515 46.7776 16.9452 46.8196 17.0283 46.8782C17.0947 46.9203 17.1498 46.978 17.1885 47.0462C17.2212 47.1067 17.2423 47.1727 17.2508 47.2408C17.2654 47.2928 17.2744 47.3461 17.2775 47.4H17.3042ZM17.9451 48.8417L17.4288 48.7444L17.776 46.9755L18.2923 47.0727L17.9451 48.8417ZM19.9568 47.5858L19.0667 47.4973V47.8511L19.7788 47.9219V48.2757L19.0667 48.1961L19.0133 48.6118L19.9034 48.7091V49.0717L18.3457 48.9213L18.5415 47.0904L19.9301 47.232L19.9568 47.5858ZM21.4878 49.0806L21.203 48.6471L20.9181 48.2137L20.8469 48.0899L20.7757 47.9749V49.0982H20.2594V47.2585H20.8024C20.8914 47.4 20.9893 47.5327 21.0694 47.6654L21.3454 48.0722L21.5056 48.3376V47.2408H22.0219V49.0806H21.4878ZM23.4639 48.9125L22.9387 48.9833L22.7251 47.5415L22.1465 47.6123L22.102 47.2496L23.7754 47.0374V47.4L23.1968 47.4708L23.4639 48.9125ZM24.354 48.771L23.9178 47.002L25.253 46.657L25.342 47.0108L24.5053 47.2054L24.5765 47.5415L25.2797 47.3823L25.3598 47.7184L24.6655 47.8865L24.7635 48.2933L25.6536 48.0899L25.7426 48.4437L24.354 48.771ZM26.9799 48.0368L26.2678 46.3298L26.7662 46.1263L27.3181 47.5415L28.1548 47.1966L28.2972 47.5327L26.9799 48.0368ZM29.8105 46.489C29.779 46.5816 29.7273 46.6662 29.6591 46.7366C29.5728 46.8283 29.4702 46.9032 29.3565 46.9578C29.2461 47.0254 29.1261 47.0761 29.0004 47.1081C28.9034 47.1259 28.8038 47.1259 28.7067 47.1081C28.6165 47.0851 28.5337 47.0394 28.4664 46.9755C28.3907 46.9071 28.3275 46.8263 28.2794 46.7366L27.692 45.7725L28.1459 45.516L28.7334 46.542C28.7495 46.5834 28.7746 46.6207 28.8069 46.6513C28.8393 46.6819 28.878 46.705 28.9203 46.7189C29.006 46.7368 29.0954 46.721 29.1696 46.6747C29.203 46.6562 29.233 46.6323 29.2586 46.604C29.2844 46.575 29.3055 46.5422 29.3209 46.5067C29.3298 46.4659 29.3298 46.4236 29.3209 46.3828C29.3121 46.3328 29.294 46.2848 29.2675 46.2413L28.6889 45.2153L29.134 44.9676L29.7036 45.9671C29.7563 46.0574 29.7925 46.1562 29.8105 46.259C29.8247 46.3359 29.8185 46.4152 29.7927 46.489H29.8105ZM31.3949 45.6045L30.7362 45.3214L30.843 46.0202L30.3534 46.374V45.8079C30.3534 45.6133 30.3534 45.4276 30.3534 45.233L29.2675 44.888L29.757 44.5254L30.3445 44.7996C30.3445 44.6935 30.3445 44.5873 30.3445 44.4812C30.3445 44.375 30.3445 44.2601 30.3445 44.1539L30.8252 43.8001L30.8074 44.835L31.3326 45.0296L31.8755 45.2242L31.3949 45.6045Z" fill="#A50328"/>
<path d="M18.9248 42.0224C18.9283 42.0385 18.9359 42.0534 18.9468 42.0658C18.9577 42.0781 18.9715 42.0876 18.9871 42.0932C19.0219 42.1035 19.0591 42.1035 19.0939 42.0932C19.1259 42.1023 19.1598 42.1023 19.1918 42.0932C19.2222 42.0776 19.2493 42.0566 19.2719 42.0313C19.277 41.9931 19.277 41.9544 19.2719 41.9163C19.2813 41.8696 19.2813 41.8215 19.2719 41.7748V41.6421C19.2821 41.6044 19.2821 41.5648 19.2719 41.5271C19.2629 41.4932 19.2444 41.4625 19.2185 41.4387C19.1837 41.4283 19.1466 41.4283 19.1117 41.4387C19.0738 41.4285 19.0339 41.4285 18.996 41.4387C18.996 41.4387 18.9426 41.4387 18.9159 41.5094C18.9109 41.5476 18.9109 41.5862 18.9159 41.6244C18.9159 41.6244 18.9159 41.704 18.9159 41.7571V41.8986C18.9115 41.9401 18.9145 41.982 18.9248 42.0224Z" fill="#A50328"/>
<path d="M20.6785 43.1722C17.6965 43.1722 17.0467 42.8184 15.676 41.9339C15.3377 41.6863 15.4979 40.4657 15.5424 40.333C15.5424 39.6696 15.3288 39.4485 15.4445 39.4485C16.2367 40.333 18.5956 40.333 20.5983 40.333H20.7675C22.7702 40.333 25.1202 40.333 25.9124 39.4485C26.0281 39.4485 25.8145 39.6785 25.8145 40.333C25.8145 40.4657 25.9836 41.6863 25.6809 41.9339C24.3102 42.8184 23.6604 43.1722 20.6785 43.1722Z" fill="#A50328"/>
<path d="M4.61955 35.601C2.62567 35.2738 2.67908 35.0349 3.02623 34.7165C3.3944 34.3883 3.7905 34.0923 4.21009 33.832C3.70197 33.9295 3.21239 34.1056 2.75919 34.3539C2.38534 34.6104 1.86906 35.3887 2.8215 35.7956C3.77393 36.2025 2.93721 37.9449 3.71162 38.6083C4.48603 39.2717 5.58088 37.9096 7.11189 38.3341C7.07671 37.6564 7.07671 36.9774 7.11189 36.2998C7.22761 35.8664 5.88352 35.8133 4.61955 35.601Z" fill="#A50328"/>
<path d="M7.30716 28.41C7.40903 28.4059 7.50758 28.3729 7.59118 28.3149C7.67478 28.2569 7.73992 28.1763 7.77892 28.0827C7.91244 27.782 7.6009 27.5874 7.33386 27.5255C7.28261 27.5201 7.23359 27.5019 7.19144 27.4724H7.11133H7.18254C7.25858 27.5391 7.31759 27.6228 7.35473 27.7166C7.39187 27.8104 7.40607 27.9116 7.39617 28.012C7.40305 28.1502 7.3723 28.2877 7.30716 28.41Z" fill="#A50328"/>
<path d="M7.77903 30.1968C7.8681 30.1787 7.94965 30.1344 8.01313 30.0698C8.07661 30.0051 8.1191 29.923 8.13508 29.8341C8.20629 29.5776 7.93036 29.4538 7.69892 29.4449C7.46749 29.4361 7.48529 29.2592 7.61881 29.1707C7.75233 29.0823 7.94816 28.9142 7.83244 28.7727C7.71673 28.6312 7.5298 28.6931 7.42298 28.6931L7.35177 28.6224C7.26276 28.5427 7.20936 28.5516 7.15595 28.6224C7.05443 28.7241 6.94085 28.8132 6.8177 28.8877C6.58327 29.0132 6.37004 29.1744 6.18571 29.3653L5.78516 29.8518C6.10522 30.3344 6.37089 30.8505 6.57737 31.3908C6.57357 31.435 6.57357 31.4794 6.57737 31.5235C6.64858 31.7269 6.71089 31.9392 6.77319 32.1515C6.95122 32.063 7.23606 31.9481 7.41408 31.8684C7.59211 31.7888 7.65442 31.6562 7.45859 31.5235C7.26276 31.3908 7.35177 31.2139 7.512 31.1785C7.60052 31.1609 7.68365 31.1229 7.75475 31.0676C7.82585 31.0123 7.88294 30.9413 7.92145 30.8601C8.01937 30.6921 8.02827 30.5152 7.77903 30.5152C7.5298 30.5152 7.60991 30.2498 7.77903 30.1968Z" fill="#A50328"/>
<path d="M5.24269 19.167C4.99345 19.2378 4.99345 19.0078 5.08247 18.884C5.17148 18.7602 5.39401 18.5214 5.24269 18.3887C5.09137 18.256 4.87774 18.3887 4.76202 18.3887C4.73516 18.3708 4.70484 18.3588 4.67301 18.3533C4.44158 18.2029 4.42378 18.486 4.28136 18.5744C4.13894 18.6629 4.05882 18.4064 3.82739 18.5744C3.59596 18.7425 3.82739 19.0963 3.8897 19.3174C3.95201 19.5385 3.61376 19.5828 3.57816 19.5208C3.54255 19.4589 3.45354 19.229 3.25771 19.5208C3.06189 19.8127 3.46244 20.1842 3.72948 20.4053C3.99652 20.6265 3.78289 20.6884 3.59596 20.5999C3.40903 20.5115 3.21321 20.4849 3.22211 20.7768C3.23101 21.0687 3.42684 21.1483 3.65827 21.2014C3.8897 21.2544 4.09443 21.2633 4.14784 21.5198C4.20124 21.7763 3.99652 21.5198 3.8808 21.7321C3.76508 21.9444 3.8808 22.0416 4.12113 22.1389C4.11279 22.2175 4.09485 22.2947 4.06773 22.3689C3.96981 22.5193 3.78289 22.3158 3.66717 22.5989L3.05298 21.9797C2.85716 21.7851 2.90166 22.9085 2.92837 23.5718C2.92837 23.8902 3.26661 23.9698 3.57816 24.1291C3.57919 24.0089 3.61639 23.8919 3.68497 23.7929C3.77698 23.685 3.89371 23.6005 4.02536 23.5467C4.15701 23.4928 4.29974 23.4711 4.44158 23.4834C4.47493 23.4349 4.51375 23.3904 4.55729 23.3507C4.64295 23.2456 4.76364 23.1744 4.89753 23.1501C5.03141 23.1258 5.16964 23.1499 5.2872 23.218C5.34877 23.2553 5.40556 23.2998 5.45632 23.3507C5.56796 23.2798 5.69768 23.2421 5.83017 23.2421C5.96266 23.2421 6.09238 23.2798 6.20402 23.3507C6.34536 23.4468 6.4558 23.5813 6.52211 23.7382C6.58842 23.8951 6.60778 24.0677 6.57788 24.2352C6.65398 24.1978 6.73775 24.1783 6.82266 24.1783C6.90757 24.1783 6.99134 24.1978 7.06744 24.2352C7.1564 24.292 7.23724 24.3604 7.30778 24.4386C7.3597 24.4884 7.40461 24.5449 7.4413 24.6067C7.44621 24.5863 7.44621 24.5651 7.4413 24.5448C7.4947 24.4829 7.54811 24.3767 7.39679 24.3236C7.38555 24.2728 7.38961 24.2198 7.40847 24.1712C7.42733 24.1226 7.46016 24.0807 7.50286 24.0505C7.54556 24.0203 7.59624 24.0033 7.64861 24.0015C7.70097 23.9998 7.7527 24.0134 7.79735 24.0406C7.91926 24.1 8.05323 24.1308 8.189 24.1308C8.32477 24.1308 8.45874 24.1 8.58065 24.0406C8.85659 23.9168 9.03462 23.7133 8.71417 23.4922C8.39373 23.2711 8.71417 22.9527 8.97231 23.0323C9.09578 23.0959 9.23635 23.119 9.37386 23.0983C9.51137 23.0777 9.63877 23.0143 9.73782 22.9173C10.0583 22.6696 9.83573 22.2716 9.56869 22.0328C9.30166 21.794 9.47078 21.6082 9.71111 21.6259C9.95145 21.6436 10.3431 21.6259 10.3342 21.3429C10.3253 21.0599 10.0405 20.9626 9.91584 20.8741C9.91584 20.8741 9.91584 20.7857 9.91584 20.7238C9.84463 20.3611 9.55979 20.5911 9.33726 20.5292C9.11473 20.4672 9.33726 20.1577 8.91 20.1134C8.48274 20.0692 8.39373 20.5822 8.23351 20.821C8.07328 21.0599 7.71723 20.821 7.75284 20.7061C7.78844 20.5911 7.93086 20.3257 7.43239 20.4319C6.93393 20.538 6.96063 21.2191 6.96953 21.679C6.97843 22.1389 6.7381 21.9797 6.65799 21.679C6.57788 21.3783 6.43546 21.2102 6.15062 21.4756C5.86578 21.7409 5.96369 22.0063 6.15062 22.2805C6.33754 22.5547 6.47996 22.7669 6.27523 23.0323C6.0705 23.2976 6.10611 23.0323 5.92809 22.9704C5.96862 22.894 5.98981 22.809 5.98981 22.7227C5.98981 22.6364 5.96862 22.5514 5.92809 22.4751C5.80347 22.192 5.46522 22.2716 5.25159 22.422C5.03796 22.5723 4.91334 22.422 4.97565 22.2274C5.14478 22.1036 5.36731 21.962 5.50973 21.8647C5.65215 21.7675 5.72336 21.5817 5.50973 21.4667C5.2961 21.3517 5.3228 21.1395 5.50973 21.0687C5.60251 21.0263 5.68531 20.9651 5.75278 20.8889C5.82024 20.8127 5.87087 20.7233 5.90138 20.6265C5.97259 20.4053 5.90138 20.2107 5.66105 20.2727C5.42071 20.3346 5.35841 19.9896 5.52753 19.9012C5.62515 19.8622 5.70873 19.795 5.76745 19.7082C5.82618 19.6215 5.85733 19.5192 5.85687 19.4147C5.83017 19.2378 5.49192 19.1317 5.24269 19.167Z" fill="#A50328"/>
<path d="M8.65137 25.8804C8.82939 25.9601 9.13203 26.0308 9.20324 25.8274C9.27445 25.6239 9.06973 25.4647 9.00742 25.3586C9.01016 25.3174 9.01016 25.276 9.00742 25.2348C9.00742 24.9429 8.77598 25.0402 8.62466 24.934C8.47334 24.8279 8.69587 24.651 8.40213 24.5095C8.10839 24.368 7.88586 24.7306 7.69893 24.8721C7.66812 24.8951 7.63064 24.9075 7.59212 24.9075C7.5536 24.9075 7.51612 24.8951 7.48531 24.8721C7.54879 25.1754 7.49475 25.4913 7.33398 25.7566C7.3966 25.7664 7.45691 25.7874 7.51201 25.8185C7.59618 25.8725 7.6676 25.9439 7.72138 26.0279C7.77516 26.1118 7.81001 26.2064 7.82355 26.305C7.87637 26.475 7.87637 26.6569 7.82355 26.8269C7.89662 26.8688 7.97951 26.8908 8.06389 26.8908C8.14826 26.8908 8.23115 26.8688 8.30422 26.8269C8.61576 26.7207 8.54455 26.3581 8.40213 26.1281C8.25971 25.8981 8.47334 25.8008 8.65137 25.8804Z" fill="#A50328"/>
<path d="M5.88308 28.861C5.89395 28.9402 5.89395 29.0206 5.88308 29.0998C6.09224 28.8749 6.33552 28.6839 6.60408 28.5337C6.96904 28.3126 7.13816 28.0119 6.93343 27.8173C6.7287 27.6227 6.55068 27.9677 6.52397 27.6316C6.49727 27.2955 6.78211 27.2158 7.05805 27.0743C7.33399 26.9328 7.56542 26.7648 7.47641 26.3844C7.38739 26.0041 7.14706 26.1014 6.93343 26.2694C6.7198 26.4375 6.43496 26.4463 6.702 26.0748C6.96904 25.7034 7.37849 25.1461 7.02244 24.7746C6.66639 24.4032 6.62189 24.7746 6.59518 24.8277C6.56848 24.8808 6.13232 24.9515 6.13232 24.6597C6.13232 24.3678 6.32815 23.8725 5.9721 23.6956C5.61605 23.5187 5.59824 23.8636 5.38461 23.7929C5.17098 23.7221 5.05527 23.3683 4.79713 23.6425C4.75898 23.6758 4.72599 23.7146 4.69922 23.7575C5.0598 23.9154 5.36493 24.1763 5.57576 24.5071C5.78658 24.8379 5.89357 25.2235 5.88308 25.6149C5.85935 26.1312 5.76962 26.6424 5.61605 27.1362C5.56041 27.4285 5.56041 27.7285 5.61605 28.0207C5.68423 28.3069 5.77349 28.5878 5.88308 28.861Z" fill="#A50328"/>
<path d="M5.70538 25.5178C5.72232 25.1738 5.63785 24.8324 5.46234 24.5355C5.28683 24.2385 5.02791 23.9989 4.71734 23.8461H4.63723C4.49481 23.8461 4.14766 23.7842 3.99634 24.0053C3.84502 24.2264 4.13876 24.4653 4.35239 24.5891C4.56602 24.7129 4.58382 24.9694 4.24558 25.0048C3.90733 25.0402 3.49787 25.2348 3.62249 25.6239C3.65102 25.759 3.72123 25.8819 3.82334 25.9754C3.92546 26.0689 4.05438 26.1285 4.19217 26.1458C4.4414 26.2077 4.53932 26.65 4.19217 26.6677C3.84502 26.6853 3.83612 26.9418 3.99634 27.2072C4.06714 27.3214 4.16178 27.4192 4.27388 27.494C4.38598 27.5688 4.51292 27.6188 4.64613 27.6406C4.70712 27.6448 4.76497 27.669 4.81061 27.7094C4.85624 27.7498 4.88709 27.8042 4.89829 27.8639C4.90949 27.9236 4.90043 27.9853 4.87251 28.0394C4.84459 28.0934 4.79941 28.1367 4.74405 28.1625C4.46811 28.3836 4.51261 28.5693 4.84196 28.6843C5.1713 28.7993 5.49175 28.8612 5.58966 29.0027L5.64307 29.0646C5.64307 28.9585 5.58076 28.8524 5.55406 28.7374C5.45751 28.4497 5.38895 28.1535 5.34933 27.8529C5.32315 27.5557 5.35027 27.2562 5.42944 26.9684C5.58898 26.5 5.68186 26.0117 5.70538 25.5178Z" fill="#A50328"/>
<path d="M10.4054 39.3513C10.5923 39.0683 11.0374 37.8654 11.705 38.2457C11.7759 38.2942 11.8315 38.3616 11.8652 38.4403C11.9898 39.0683 10.4855 39.0152 11.1887 39.767C11.2955 39.8732 11.9898 40.1916 12.2124 40.3331C12.3425 39.6184 12.309 38.8838 12.1145 38.1838C12.0968 38.1035 12.059 38.0289 12.0046 37.967C11.9501 37.9051 11.8807 37.858 11.8029 37.83C10.9128 37.0251 8.05549 37.9096 7.57483 37.432C7.4057 37.2728 7.3879 38.5287 8.02879 39.5105C8.48275 39.3248 10.3342 39.4928 10.4054 39.3513Z" fill="#A50328"/>
<path d="M3.09827 31.3554C3.55223 31.3023 3.40981 31.5588 3.16058 31.6561C2.91134 31.7534 2.70662 31.9215 2.99146 32.1868C3.2763 32.4522 3.55223 32.3107 3.81037 32.1868C4.06851 32.063 4.26433 31.8154 4.54917 32.0011C4.83401 32.1868 4.46016 32.1692 4.54917 32.4433C4.63819 32.7175 4.96753 32.7175 5.34138 32.5053C5.60174 32.3399 5.8873 32.2174 6.187 32.1426C6.115 32.1018 6.04909 32.0512 5.99117 31.9922C5.79886 31.7902 5.59049 31.6039 5.36809 31.435C5.11219 31.2189 4.83482 31.0292 4.54027 30.8689C4.04127 30.7329 3.55083 30.5675 3.07157 30.3736C2.87079 30.2935 2.68841 30.1739 2.53543 30.0219C2.38244 29.8699 2.26203 29.6886 2.18144 29.4891C2.40637 29.8224 2.74443 30.0641 3.13388 30.1702C3.51838 30.3193 3.91426 30.4376 4.31774 30.524C4.61611 30.5945 4.89945 30.7173 5.15446 30.8866C5.38846 31.0645 5.60865 31.2597 5.81315 31.4704C5.89326 31.55 6.08909 31.8773 6.1692 31.948V31.8773C6.08909 31.7181 6.1692 31.4173 6.24931 31.0724C6.32942 30.7274 6.1603 30.6036 5.83095 30.7363C5.50161 30.8689 5.35028 30.6213 5.42149 30.3913C5.46768 30.2654 5.48447 30.1307 5.47059 29.9974C5.45672 29.8641 5.41253 29.7357 5.34138 29.6218C5.19006 29.3565 4.97643 29.1972 4.78061 29.5334C4.58478 29.8695 4.23763 29.5334 4.29994 29.3211C4.36465 29.1834 4.38052 29.028 4.34496 28.8802C4.3094 28.7325 4.2245 28.601 4.10411 28.5073C3.81927 28.2155 3.44542 28.5073 3.21399 28.755C2.98255 29.0027 2.80453 28.8877 2.80453 28.6489C2.80453 28.41 2.72442 28.0297 2.45738 28.0562C2.19034 28.0828 2.11023 28.3924 2.02122 28.5162H1.8699C1.51385 28.6135 1.77199 28.8788 1.72748 29.1C1.68297 29.3211 1.36253 29.1707 1.35363 29.5687C1.34473 29.9668 1.8699 30.0287 2.12804 30.1702C2.38617 30.3117 2.12804 30.6832 2.05683 30.6567C1.98562 30.6301 1.64737 30.5151 1.80759 31.0016C1.96781 31.4881 2.63541 31.4085 3.09827 31.3554Z" fill="#A50328"/>
<path d="M0.320527 19.9455C0.33916 19.8395 0.368995 19.7357 0.409539 19.6359C0.486092 19.4487 0.606982 19.2826 0.761946 19.1517C0.916909 19.0208 1.10137 18.929 1.29966 18.8841C3.43596 18.2649 4.01454 17.8492 4.10355 17.2478C4.10355 17.0266 4.10355 16.664 4.10355 16.3191C4.13916 16.1598 4.17476 15.9918 4.21037 15.8149C4.33499 15.2665 3.64959 14.5235 3.12442 14.0459C2.95973 14.3833 2.81991 14.7321 2.70606 15.0896C2.86783 15.161 3.02275 15.2469 3.16892 15.3461C3.29826 15.4558 3.40309 15.5911 3.47667 15.7435C3.55025 15.8958 3.59096 16.0617 3.59618 16.2306C2.96471 16.6949 2.25261 17.0397 1.49549 17.2478C1.15073 17.3595 0.8393 17.5546 0.589165 17.8155C0.339029 18.0764 0.15802 18.395 0.0623909 18.7426C-0.00127712 19.5724 -0.0191064 20.4051 0.0089835 21.2368C0.0089835 21.626 0.961416 22.7936 1.02372 22.5282C1.13585 22.0341 1.20141 21.5307 1.21955 21.0246C1.21955 20.7415 0.178107 20.83 0.329428 19.9189L0.320527 19.9455Z" fill="#A50328"/>
<path d="M1.49599 14.7445H1.62061C1.68464 14.5995 1.75594 14.4578 1.83424 14.3199C1.83696 14.2964 1.83696 14.2727 1.83424 14.2491C2.11908 13.7892 2.59084 13.8777 3.25843 13.8246C3.37644 13.8424 3.49648 13.8424 3.61448 13.8246C3.70981 13.7985 3.80225 13.7629 3.89042 13.7184C4.03626 13.664 4.16517 13.5725 4.26427 13.4531V13.4C4.5177 13.0526 4.69094 12.654 4.77165 12.2325C4.91407 11.7195 5.38583 12.1794 5.1989 11.5161C5.09209 11.1534 5.38583 10.8527 5.1366 10.9411C4.84253 10.9805 4.5738 11.1274 4.38287 11.3531C4.19195 11.5788 4.09254 11.8671 4.10405 12.1617C4.08574 12.4745 3.99103 12.778 3.82811 13.0462C3.31184 13.515 2.63535 13.0462 1.86094 13.8423C1.78756 13.9267 1.7192 14.0153 1.65621 14.1076C1.30906 14.5853 1.31796 14.7268 1.49599 14.7445Z" fill="#A50328"/>
<path d="M33.9503 34.7076C34.0482 34 34.1639 33.3632 34.2974 32.7794C34.0126 32.5848 34.0215 32.7794 34.0126 32.8855C34.0037 32.9917 33.6832 33.027 33.6476 32.8148C33.612 32.6025 33.701 32.2133 33.4162 32.1249C33.1314 32.0364 33.1581 32.2841 32.9978 32.2664C32.8376 32.2487 32.7041 31.9922 32.5439 32.2133L32.4816 32.3106C32.3748 32.3106 32.1344 32.3106 32.0454 32.4964C31.9564 32.6821 32.2056 32.8236 32.3747 32.8855C32.5439 32.9474 32.5973 33.142 32.3747 33.2039C32.1522 33.2659 31.8496 33.4693 31.9831 33.7346C32.0216 33.8314 32.0894 33.914 32.177 33.971C32.2647 34.0281 32.368 34.0567 32.4727 34.0531C32.6596 34.0531 32.7842 34.3892 32.4727 34.4422C32.1611 34.4953 32.2412 34.6899 32.3837 34.858C32.4496 34.9355 32.5313 34.9984 32.6233 35.0425C32.7153 35.0867 32.8156 35.1112 32.9177 35.1145C32.9525 35.1097 32.988 35.1143 33.0204 35.1278C33.0528 35.1413 33.0809 35.1632 33.1019 35.1913C33.1228 35.2193 33.1358 35.2524 33.1394 35.2872C33.143 35.3219 33.1372 35.3569 33.1225 35.3886C33.0329 35.3618 32.9401 35.3469 32.8465 35.3444C32.4538 35.2837 32.0524 35.3109 31.6716 35.424C31.6716 35.4859 31.5469 35.6186 31.6092 35.7248C31.6716 35.8309 31.8407 35.7248 31.9297 35.6805C32.0187 35.6363 32.1344 35.6805 32.0899 35.8044C32.0454 35.9282 32.0454 36.167 32.2323 36.1935C32.3001 36.2105 32.3715 36.2049 32.4358 36.1778C32.5 36.1506 32.5536 36.1034 32.5884 36.0432C32.6685 35.9459 32.8732 35.9901 32.802 36.1582C32.7308 36.3262 32.8554 36.3616 32.9978 36.3439C33.0584 36.3353 33.1166 36.3143 33.1686 36.2824C33.2207 36.2504 33.2656 36.2081 33.3005 36.1582C33.3628 36.0609 33.5052 36.052 33.5497 36.2112C33.5942 36.3704 33.6387 36.3527 33.79 36.2731C33.8506 36.2345 33.9073 36.19 33.9592 36.1405C33.9838 35.6631 33.9808 35.1847 33.9503 34.7076ZM33.6654 35.6894C33.5945 35.5377 33.535 35.381 33.4874 35.2206C33.4413 34.9989 33.4413 34.7701 33.4874 34.5484C33.5397 34.1787 33.5397 33.8036 33.4874 33.4339C33.4652 33.1364 33.3356 32.8569 33.1225 32.6467C33.2564 32.7555 33.3671 32.8898 33.4481 33.0417C33.5291 33.1936 33.5788 33.36 33.5942 33.5312C33.6454 33.9158 33.6454 34.3053 33.5942 34.6899C33.598 34.9201 33.6432 35.1478 33.7277 35.3621C33.7739 35.5132 33.8304 35.661 33.8969 35.8044C33.8141 35.7783 33.736 35.7395 33.6654 35.6894Z" fill="#A50328"/>
<path d="M38.5064 34.4069C38.0489 34.1542 37.5528 33.9779 37.0377 33.885C37.4573 34.1453 37.8534 34.4412 38.2216 34.7695C38.5687 35.0614 38.6222 35.3002 36.6283 35.654C35.3554 35.8663 34.0202 35.9193 34.1359 36.4058C34.176 37.0833 34.176 37.7626 34.1359 38.4402C35.6669 38.0156 36.8063 39.3777 37.5451 38.7143C38.2839 38.051 37.5451 36.3174 38.4352 35.9017C39.3254 35.4859 38.8892 34.6634 38.5064 34.4069Z" fill="#A50328"/>
<path d="M34.0823 27.5166H34.1535H34.0734C34.0357 27.5479 33.9889 27.5665 33.9399 27.5697C33.6729 27.6316 33.3613 27.8262 33.4948 28.1269C33.526 28.2284 33.5882 28.3178 33.6727 28.3828C33.7572 28.4477 33.8599 28.485 33.9666 28.4895C33.9009 28.3911 33.8583 28.2793 33.842 28.1623C33.8321 28.062 33.8463 27.9607 33.8834 27.867C33.9206 27.7732 33.9796 27.6895 34.0556 27.6227L34.0823 27.5166Z" fill="#A50328"/>
<path d="M33.7634 31.5411C33.5764 31.6738 33.5942 31.8065 33.7634 31.8861C33.9325 31.9657 34.2351 32.0807 34.4043 32.1691C34.4666 31.9569 34.5378 31.7446 34.609 31.5411C34.6052 31.497 34.6052 31.4526 34.609 31.4085C34.8355 30.8565 35.1284 30.3338 35.4813 29.8518L35.0629 29.3122C34.8824 29.1208 34.672 28.9595 34.4399 28.8346C34.3167 28.7601 34.2031 28.671 34.1016 28.5692C34.0482 28.5692 33.9859 28.5162 33.8969 28.5692L33.8346 28.64C33.7367 28.64 33.5319 28.64 33.4251 28.7196C33.3183 28.7992 33.5052 29.038 33.6387 29.1176C33.7723 29.1972 33.7812 29.383 33.5586 29.3918C33.3361 29.4007 33.0513 29.5245 33.1225 29.781C33.139 29.8711 33.1828 29.9541 33.248 30.0189C33.3132 30.0837 33.3967 30.1272 33.4874 30.1436C33.6476 30.1967 33.7011 30.4886 33.4429 30.4797C33.1848 30.4709 33.1937 30.6566 33.2916 30.8247C33.3323 30.9043 33.39 30.9741 33.4607 31.0291C33.5315 31.0841 33.6135 31.123 33.7011 31.1431C33.8702 31.2316 33.9592 31.4085 33.7634 31.5411Z" fill="#A50328"/>
<path d="M31.554 21.7233C31.7943 21.7233 31.9635 21.9179 31.6964 22.1302C31.4294 22.3424 31.2069 22.7405 31.5273 23.0147C31.6278 23.1124 31.7567 23.1762 31.8958 23.1968C32.0348 23.2175 32.1769 23.194 32.3017 23.1296C32.542 23.05 32.8714 23.3596 32.5509 23.5896C32.2305 23.8196 32.4174 24.0141 32.6934 24.138C32.8153 24.1973 32.9493 24.2282 33.085 24.2282C33.2208 24.2282 33.3548 24.1973 33.4767 24.138C33.5212 24.1134 33.5718 24.102 33.6226 24.1051C33.6734 24.1082 33.7222 24.1256 33.7633 24.1554C33.8045 24.1851 33.8362 24.2259 33.8548 24.273C33.8734 24.32 33.8781 24.3714 33.8683 24.421C33.7259 24.4741 33.7793 24.5802 33.8683 24.6421V24.704C33.8987 24.6406 33.941 24.5836 33.993 24.536C34.0665 24.4574 34.1503 24.3889 34.2422 24.3326C34.3167 24.2952 34.399 24.2758 34.4825 24.2758C34.566 24.2758 34.6483 24.2952 34.7229 24.3326C34.6929 24.165 34.7123 23.9925 34.7786 23.8356C34.8449 23.6787 34.9554 23.5441 35.0967 23.4481C35.2083 23.3772 35.3381 23.3395 35.4706 23.3395C35.603 23.3395 35.7328 23.3772 35.8444 23.4481C35.8973 23.3996 35.9538 23.3552 36.0135 23.3154C36.1329 23.2484 36.2721 23.2249 36.407 23.2492C36.542 23.2734 36.6641 23.3438 36.7523 23.4481L36.8681 23.5807C37.0084 23.5699 37.1494 23.5923 37.2794 23.6461C37.4094 23.6999 37.5247 23.7836 37.6158 23.8903C37.6828 23.9906 37.7227 24.1063 37.7315 24.2264C38.0341 24.0672 38.3546 23.9876 38.3724 23.6692C38.3724 23.0058 38.4436 21.9002 38.2477 22.0771L37.6336 22.6962C37.5178 22.4132 37.3309 22.6166 37.2419 22.4663C37.2064 22.3948 37.1881 22.316 37.1885 22.2363C37.411 22.139 37.5178 21.9798 37.4199 21.8294C37.322 21.6791 37.1084 21.8294 37.1618 21.6172C37.2152 21.4049 37.4199 21.3607 37.6514 21.2987C37.8828 21.2368 38.0786 21.1661 38.0875 20.8742C38.0964 20.5823 37.8917 20.6088 37.7048 20.6973C37.5178 20.7857 37.3042 20.6973 37.5712 20.5027C37.8383 20.3081 38.2388 19.9455 38.043 19.6182C37.8472 19.2909 37.7582 19.5297 37.7226 19.6182C37.687 19.7066 37.3665 19.6182 37.411 19.4148C37.4555 19.2113 37.6959 18.8752 37.4733 18.6718C37.2508 18.4684 37.1707 18.7337 37.0283 18.6718C36.8859 18.6099 36.8681 18.3003 36.6277 18.4507L36.5298 18.5214C36.4141 18.5214 36.1916 18.3976 36.0491 18.5214C35.9067 18.6453 36.0491 18.8929 36.2005 19.0167C36.3518 19.1406 36.2984 19.3352 36.0491 19.2998C35.7999 19.2644 35.4528 19.2998 35.4706 19.6447C35.4701 19.7493 35.5013 19.8515 35.56 19.9383C35.6187 20.025 35.7023 20.0922 35.7999 20.1312C35.969 20.2197 35.9601 20.5558 35.6664 20.5027C35.3726 20.4496 35.3637 20.6354 35.426 20.8565C35.458 20.9526 35.5092 21.0413 35.5765 21.1173C35.6438 21.1933 35.7258 21.255 35.8177 21.2987C35.9868 21.3695 36.0491 21.5906 35.8177 21.6968C35.5863 21.8029 35.5685 21.9533 35.8177 22.0948L36.3607 22.4574C36.423 22.6343 36.3073 22.8024 36.0936 22.652C35.88 22.5017 35.5329 22.422 35.4082 22.7051C35.3645 22.7804 35.3415 22.8658 35.3415 22.9527C35.3415 23.0397 35.3645 23.1251 35.4082 23.2004C35.2213 23.2004 35.2391 23.5011 35.0522 23.2623C34.8653 23.0235 35.0522 22.7847 35.1768 22.5105C35.3014 22.2363 35.426 21.971 35.1768 21.7056C34.9276 21.4403 34.7496 21.6525 34.6694 21.909C34.5893 22.1655 34.349 22.3336 34.3579 21.909C34.3668 21.4845 34.4024 20.768 33.895 20.6619C33.3877 20.5558 33.5479 20.8476 33.5835 20.9361C33.6191 21.0245 33.263 21.2987 33.0939 21.0511C32.9248 20.8034 32.818 20.2993 32.4174 20.3435C32.0169 20.3877 32.2127 20.6884 31.9902 20.7592C31.7676 20.83 31.4828 20.5911 31.4205 20.9538C31.4132 21.0036 31.4132 21.0543 31.4205 21.1042C31.3048 21.1926 31.011 21.3164 31.0021 21.5729C30.9932 21.8294 31.3137 21.741 31.554 21.7233Z" fill="#A50328"/>
<path d="M32.9426 26.8532C33.0159 26.8943 33.0987 26.9159 33.1829 26.9159C33.2671 26.9159 33.3499 26.8943 33.4233 26.8532C33.3704 26.6832 33.3704 26.5013 33.4233 26.3314C33.4404 26.2339 33.4768 26.1407 33.5302 26.0573C33.5837 25.9738 33.6532 25.9016 33.7348 25.8449C33.7931 25.8138 33.8563 25.7928 33.9217 25.783C33.7587 25.5185 33.7016 25.2028 33.7615 24.8985C33.7313 24.9229 33.6936 24.9362 33.6547 24.9362C33.6158 24.9362 33.5781 24.9229 33.5479 24.8985C33.361 24.757 33.1384 24.4032 32.8447 24.5358C32.5509 24.6685 32.7735 24.8542 32.631 24.9604C32.4886 25.0665 32.1949 24.9604 32.2483 25.2611C32.2413 25.3021 32.2413 25.344 32.2483 25.3849C32.186 25.4911 31.9991 25.6591 32.0614 25.8537C32.1237 26.0483 32.4263 25.9864 32.6132 25.9068C32.8002 25.8272 32.9693 25.9068 32.8269 26.181C32.6845 26.4552 32.631 26.7471 32.9426 26.8532Z" fill="#A50328"/>
<path d="M35.6233 27.1362C35.4655 26.6435 35.3756 26.1317 35.3563 25.6149C35.3434 25.223 35.4494 24.8364 35.6605 24.5051C35.8716 24.1739 36.1781 23.9134 36.5402 23.7575C36.5162 23.7126 36.4828 23.6734 36.4423 23.6425C36.1841 23.3683 36.0773 23.7221 35.8637 23.7929C35.65 23.8636 35.6322 23.5098 35.2762 23.6956C34.9201 23.8813 35.1071 24.3678 35.1071 24.6597C35.1071 24.9515 34.6709 24.9162 34.6442 24.8277C34.6175 24.7393 34.573 24.4032 34.2258 24.7746C33.8787 25.1461 34.2258 25.6591 34.5463 26.0748C34.8667 26.4906 34.5463 26.4463 34.306 26.2694C34.0656 26.0925 33.852 26.0041 33.763 26.3844C33.674 26.7648 33.9143 26.924 34.1902 27.0743C34.4662 27.2247 34.7332 27.2866 34.7154 27.6316C34.6976 27.9765 34.5196 27.6316 34.3149 27.8173C34.1101 28.003 34.3149 28.3126 34.6353 28.5337C34.9067 28.6796 35.1507 28.8712 35.3563 29.0998C35.3416 29.0209 35.3416 28.9399 35.3563 28.861C35.442 28.5956 35.5045 28.3233 35.5432 28.0473C35.6248 27.7508 35.652 27.4422 35.6233 27.1362Z" fill="#A50328"/>
<path d="M37.0388 26.181C37.177 26.165 37.3067 26.1059 37.409 26.0121C37.5114 25.9184 37.5812 25.7948 37.6085 25.6592C37.742 25.27 37.3236 25.0754 36.9854 25.04C36.6471 25.0047 36.6738 24.7393 36.8786 24.6243C37.0833 24.5093 37.3948 24.2528 37.2435 24.0406C37.0922 23.8283 36.745 23.899 36.5937 23.8813H36.5136C36.203 24.0342 35.9441 24.2738 35.7686 24.5707C35.5931 24.8677 35.5086 25.2091 35.5256 25.553C35.5625 26.0665 35.6704 26.5724 35.846 27.0567C35.9294 27.3437 35.9566 27.644 35.9261 27.9412C35.8895 28.2416 35.8239 28.5378 35.7303 28.8257C35.7303 28.9407 35.668 29.0468 35.6324 29.1529L35.6858 29.091C35.7926 28.9495 36.1041 28.8964 36.4335 28.7726C36.7628 28.6488 36.8073 28.4719 36.5314 28.2508C36.4756 28.2245 36.4303 28.1805 36.4026 28.1256C36.375 28.0708 36.3667 28.0083 36.379 27.9482C36.3913 27.8881 36.4235 27.8338 36.4705 27.7941C36.5175 27.7543 36.5765 27.7314 36.6382 27.7289C36.771 27.7094 36.8977 27.6602 37.0086 27.5852C37.1196 27.5101 37.2121 27.4111 37.2791 27.2955C37.4393 27.0302 37.4749 26.7648 37.0833 26.756C36.6916 26.7471 36.8251 26.243 37.0388 26.181Z" fill="#A50328"/>
<path d="M33.7446 37.432C33.255 37.9096 30.4422 37.0251 29.5076 37.83C29.431 37.8585 29.3631 37.906 29.3101 37.9679C29.2571 38.0298 29.221 38.1041 29.205 38.1838C28.9793 38.8769 28.9183 39.6126 29.0269 40.3331C29.2406 40.1916 29.9171 39.8732 30.0417 39.767C30.7449 39.0152 29.2406 39.0683 29.3652 38.4403C29.3989 38.359 29.4582 38.2907 29.5343 38.2457C30.193 37.8654 30.647 39.0683 30.825 39.3513C30.9229 39.4928 32.7477 39.3513 33.2461 39.5105C33.9315 38.5287 33.9048 37.2728 33.7446 37.432Z" fill="#A50328"/>
<path d="M39.5473 29.1087C39.5473 28.8876 39.7609 28.6222 39.4049 28.5249H39.2536C39.1735 28.4011 39.0755 28.1004 38.8174 28.065C38.5593 28.0296 38.4792 28.4188 38.4792 28.6576C38.4792 28.8964 38.2477 29.0468 38.0608 28.7638C37.8739 28.4807 37.4911 28.2242 37.1707 28.5161C37.0657 28.6073 36.9921 28.7288 36.9602 28.8636C36.9283 28.9984 36.9396 29.1398 36.9927 29.2679C37.055 29.5244 36.7078 29.8163 36.512 29.4802C36.3162 29.1441 36.0936 29.3033 35.9423 29.5686C35.8712 29.6825 35.827 29.8109 35.8131 29.9442C35.7992 30.0775 35.816 30.2122 35.8622 30.3382C35.9423 30.5681 35.7821 30.8246 35.4527 30.6831C35.1234 30.5416 34.981 30.6831 35.0344 31.0192C35.0878 31.3553 35.1946 31.6649 35.1145 31.8241C35.1182 31.8475 35.1182 31.8714 35.1145 31.8949C35.1946 31.8241 35.3904 31.4968 35.4794 31.4172C35.6862 31.2028 35.9094 31.0047 36.147 30.8246C36.402 30.6553 36.6854 30.5325 36.9838 30.462C37.3875 30.3768 37.7835 30.2585 38.1676 30.1082C38.5581 30.0043 38.8969 29.7621 39.1201 29.4271C39.0423 29.6283 38.9228 29.8109 38.7695 29.9633C38.6162 30.1156 38.4323 30.2343 38.2299 30.3116C37.7472 30.5043 37.2539 30.6697 36.7523 30.8069C36.4591 30.965 36.1845 31.1548 35.9334 31.373C35.7081 31.5417 35.4968 31.728 35.3014 31.9302C35.2435 31.9892 35.1776 32.0398 35.1056 32.0806C35.4205 32.1514 35.7214 32.274 35.9957 32.4433C36.3607 32.6555 36.7078 32.6555 36.779 32.3813C36.8502 32.1071 36.4586 32.116 36.779 31.9391C37.0995 31.7622 37.2597 31.9391 37.5178 32.1248C37.776 32.3106 38.043 32.4256 38.3367 32.1248C38.6305 31.8241 38.4258 31.6914 38.1676 31.5941C37.9095 31.4968 37.776 31.2403 38.2388 31.2934C38.7017 31.3465 39.3782 31.4349 39.5384 30.9485C39.6986 30.462 39.3782 30.5858 39.2803 30.6035C39.1824 30.6212 38.9509 30.2585 39.2091 30.117C39.4672 29.9755 39.9924 29.9136 39.9835 29.5156C39.9746 29.1175 39.5918 29.3298 39.5473 29.1087Z" fill="#A50328"/>
<path d="M41.2037 18.7426C41.1038 18.3872 40.9139 18.0631 40.6521 17.8014C40.3903 17.5397 40.0653 17.3491 39.7082 17.2478C38.9519 17.0376 38.2402 16.693 37.6076 16.2306C37.6128 16.0617 37.6535 15.8958 37.7271 15.7435C37.8006 15.5911 37.9055 15.4558 38.0348 15.3461C38.181 15.2469 38.3359 15.161 38.4977 15.0896C38.3877 14.7307 38.2478 14.3816 38.0793 14.0459C37.5541 14.5147 36.8688 15.2577 36.9934 15.8149C37.0408 15.9918 37.0764 16.1598 37.1002 16.3191C37.1002 16.664 37.1002 17.0266 37.1002 17.2478C37.1892 17.8492 37.7767 18.2649 39.9397 18.8841C40.1377 18.9297 40.3218 19.0217 40.4767 19.1525C40.6315 19.2833 40.7526 19.4491 40.8298 19.6359C40.8701 19.7366 40.9028 19.84 40.9277 19.9455C41.0612 20.83 40.0376 20.7681 40.0376 21.0511C40.0603 21.5569 40.1258 22.0599 40.2334 22.5547C40.3046 22.8201 41.2482 21.6703 41.2482 21.2634C41.2802 20.4229 41.2653 19.5814 41.2037 18.7426Z" fill="#A50328"/>
<path d="M36.3877 12.206C36.4684 12.6275 36.6417 13.0262 36.8951 13.3736C36.8925 13.3912 36.8925 13.409 36.8951 13.4266C36.9893 13.5474 37.1157 13.6393 37.26 13.692C37.3507 13.7379 37.4462 13.7735 37.5449 13.7981C37.6599 13.816 37.777 13.816 37.892 13.7981C38.5507 13.8512 39.0314 13.7981 39.3073 14.2227L39.3607 14.2934C39.4319 14.4173 39.4942 14.5588 39.5655 14.718H39.6901C39.877 14.718 39.8859 14.5588 39.512 14.0192C39.4519 13.9249 39.3834 13.8361 39.3073 13.7539C38.5329 12.9579 37.8564 13.4266 37.349 12.9579C37.1819 12.6916 37.0869 12.3869 37.0731 12.0734C37.0807 11.7654 36.9682 11.4665 36.7592 11.2391C36.5502 11.0116 36.2608 10.8732 35.9516 10.8528C35.6934 10.7643 35.9516 11.065 35.8803 11.4277C35.7735 12.1618 36.2542 11.693 36.3877 12.206Z" fill="#A50328"/>
<path d="M19.832 43.7559V44.2159C20.0991 44.2159 20.3661 44.2159 20.6153 44.2159H21.4343V43.7471C21.1672 43.7471 20.9002 43.7471 20.6242 43.7471C20.3483 43.7471 20.1258 43.7736 19.832 43.7559Z" fill="#CCCCCC"/>
<path d="M27.5325 31.4437C27.6546 31.3949 27.7578 31.3084 27.8267 31.1969C27.8956 31.0855 27.9266 30.9549 27.9152 30.8246C27.9152 30.4796 27.7105 30.1966 27.4523 30.1966H27.3633C25.1457 29.7842 22.8884 29.6211 20.634 29.7101C18.3826 29.6213 16.1283 29.7845 13.9136 30.1966H13.8246C13.5664 30.1966 13.3617 30.4796 13.3617 30.8246C13.3503 30.9549 13.3813 31.0855 13.4502 31.1969C13.5191 31.3084 13.6223 31.3949 13.7444 31.4437C13.8157 33.7257 15.7472 35.6539 18.4176 36.3527C18.2415 36.5292 18.1424 36.7675 18.1417 37.0161C18.1415 37.136 18.1659 37.2548 18.2134 37.3651C18.2609 37.4754 18.3305 37.5749 18.4179 37.6577C18.5053 37.7404 18.6088 37.8046 18.722 37.8464C18.8351 37.8881 18.9557 37.9066 19.0763 37.9006H19.2365C19.5213 38.0863 19.8418 38.3251 19.8418 38.6347V39.758H20.2512H20.5005V38.1571C20.5005 38.1195 20.5155 38.0835 20.5422 38.057C20.5689 38.0305 20.6051 38.0155 20.6429 38.0155C20.6815 38.0155 20.7187 38.0301 20.7469 38.0564C20.775 38.0827 20.792 38.1187 20.7942 38.1571V39.8288H21.0969H21.444V38.6966C21.444 38.387 21.7645 38.1482 22.0582 37.9625H22.2006C22.3953 37.9874 22.5929 37.9476 22.7625 37.8493C22.9321 37.7511 23.0642 37.5999 23.1384 37.4192C23.2125 37.2386 23.2245 37.0386 23.1724 36.8506C23.1203 36.6625 23.0071 36.4968 22.8504 36.3792C25.5208 35.6539 27.4613 33.7257 27.5325 31.4437ZM13.8246 30.7361C13.8246 30.6565 14.0115 30.5858 14.2518 30.5858H27.0162C27.2565 30.5858 27.4523 30.6565 27.4523 30.7361C27.4523 30.8157 27.2565 30.8865 27.0162 30.8865C27.0162 30.8865 24.3458 31.0192 20.634 31.0192C16.4771 31.0192 14.2518 30.8865 14.2518 30.8865C14.0115 30.913 13.8246 30.8423 13.8246 30.7361ZM23.1174 32.0629C22.8134 33.2445 22.2978 34.362 21.5953 35.3621C21.5953 35.0702 22.1027 32.8766 22.1027 32.0629C22.1027 31.2492 22.3252 31.6472 22.6101 31.6472C22.8949 31.6472 23.1174 31.2403 23.1174 32.0629ZM21.4618 32.0629C21.4618 32.8766 21.0346 35.4328 20.6963 35.4328C20.3581 35.4328 19.9308 32.8766 19.9308 32.0629C19.9308 31.2492 20.278 31.6472 20.6963 31.6472C21.1147 31.6472 21.4618 31.2403 21.4618 32.0629ZM19.6816 35.3621C18.9827 34.3611 18.4702 33.2437 18.1684 32.0629C18.1684 31.2403 18.3909 31.6472 18.6757 31.6472C18.9606 31.6472 19.1831 31.2403 19.1831 32.0629C19.1831 32.8855 19.6727 35.0702 19.6727 35.3621H19.6816ZM14.4654 32.0187C14.4654 31.2668 14.5188 31.6383 14.6969 31.6383C14.8749 31.6383 15.0262 31.2668 15.0262 32.0187C15.0262 33.4515 16.8065 34.4776 16.9756 34.7694C17.1447 35.0613 14.4565 33.2481 14.4565 32.0187H14.4654ZM15.5959 32.0187C15.5959 31.2315 15.6493 31.6295 15.8362 31.6295C16.0232 31.6295 16.1923 31.2315 16.1923 32.0187C16.1923 33.5135 17.8835 34.7694 17.9725 35.0436C18.0615 35.3178 15.587 33.3189 15.587 32.0364L15.5959 32.0187ZM16.8866 32.0187C16.8866 31.1961 17.0468 31.603 17.2426 31.603C17.4385 31.603 17.5898 31.1961 17.5898 32.0187C17.5898 33.5665 18.8181 34.9375 18.8181 35.2382C18.8181 35.539 16.8777 33.3896 16.8777 32.0629L16.8866 32.0187ZM22.4053 37.1664H18.8449C18.6312 37.1664 18.4532 37.078 18.4532 36.9718C18.4532 36.8657 18.6312 36.7773 18.8449 36.7773H22.4053C22.6279 36.7773 22.8059 36.8657 22.8059 36.9718C22.8059 37.078 22.619 37.2107 22.3964 37.2107L22.4053 37.1664ZM22.4766 35.2382C22.4766 34.9375 23.696 33.5665 23.696 32.0187C23.696 31.1961 23.8562 31.603 24.0432 31.603C24.2301 31.603 24.3992 31.1961 24.3992 32.0187C24.3903 33.3896 22.4677 35.477 22.4677 35.2825L22.4766 35.2382ZM23.3133 35.0171C23.4023 34.7429 25.0935 33.4869 25.0935 31.9921C25.0935 31.2049 25.2448 31.603 25.4407 31.603C25.6365 31.603 25.6899 31.2049 25.6899 31.9921C25.6899 33.3189 23.251 35.2471 23.3044 35.0613L23.3133 35.0171ZM24.3102 34.7252C24.4526 34.4333 26.2596 33.4073 26.2596 31.9744C26.2596 31.2226 26.4109 31.5941 26.5889 31.5941C26.767 31.5941 26.8204 31.2226 26.8204 31.9744C26.8115 33.2481 24.2123 34.9463 24.3013 34.7694L24.3102 34.7252Z" fill="#CCCCCC"/>
<path d="M26.2593 4.02447C26.2725 4.1233 26.2652 4.2238 26.2376 4.31968C26.21 4.41555 26.1629 4.50475 26.099 4.5817L26.0189 4.65246L25.8943 4.73206H26.0011C26.2014 4.70014 26.3848 4.60119 26.5207 4.45159C26.6567 4.302 26.7372 4.11073 26.7488 3.90948C26.7418 3.67603 26.706 3.44432 26.642 3.21958C26.6242 3.04312 26.6242 2.86533 26.642 2.68888C26.8646 2.77733 27.1583 2.88347 27.3808 2.95423C27.4909 2.9859 27.6045 3.00373 27.7191 3.0073C28.1196 3.34341 27.7191 3.73258 27.6301 3.81219C27.4748 3.97623 27.3884 4.19291 27.3884 4.41807C27.3884 4.64323 27.4748 4.85991 27.6301 5.02395C27.7978 5.17665 27.9499 5.34554 28.084 5.52811C28.1101 5.41493 28.1066 5.29701 28.0739 5.18555C28.0411 5.07409 27.9803 4.97279 27.8971 4.89127C27.8446 4.83219 27.7998 4.76682 27.7636 4.69668C27.7451 4.61433 27.7486 4.52863 27.7735 4.44799C27.7985 4.36735 27.8442 4.29456 27.906 4.23675C27.9191 4.4074 27.999 4.56616 28.1285 4.67899C28.4579 4.91781 28.8317 4.72322 28.9296 4.81167C28.9619 4.84256 28.9889 4.87839 29.0098 4.91781C29.032 4.87076 29.0435 4.81942 29.0435 4.76744C29.0435 4.71547 29.032 4.66413 29.0098 4.61708C28.9474 4.52863 28.7783 4.51978 28.6092 4.52863C28.5399 4.5399 28.4689 4.52537 28.4098 4.48783C28.3507 4.45029 28.3076 4.39237 28.2887 4.3252C28.2848 4.2502 28.3076 4.17623 28.3532 4.11634C28.3988 4.05646 28.4643 4.01452 28.538 3.99793C28.6666 3.94756 28.7744 3.85554 28.8438 3.73676C28.9133 3.61798 28.9404 3.47939 28.9207 3.34341C28.9207 2.91885 28.4579 2.86578 27.9594 2.83924H27.7814C27.4755 2.79831 27.1763 2.71803 26.8913 2.60043C26.7838 2.55821 26.6738 2.52276 26.5619 2.49429C26.4457 2.44107 26.3177 2.41802 26.1901 2.4273C26.0624 2.43658 25.9392 2.47789 25.832 2.54736C25.5561 2.70657 25.832 3.13997 26.0723 3.43186C26.2006 3.60256 26.2665 3.81157 26.2593 4.02447Z" fill="#CCCCCC"/>
<path d="M12.4525 4.82932C12.5415 4.74087 12.9153 4.93546 13.2447 4.69665C13.3742 4.58381 13.4541 4.42506 13.4672 4.2544C13.529 4.31221 13.5747 4.38501 13.5996 4.46564C13.6246 4.54628 13.628 4.63198 13.6096 4.71434C13.5734 4.78447 13.5286 4.84984 13.4761 4.90893C13.3929 4.99044 13.332 5.09174 13.2993 5.2032C13.2666 5.31466 13.2631 5.43258 13.2892 5.54576C13.4256 5.37857 13.5776 5.22458 13.7431 5.08582C13.8983 4.92179 13.9848 4.7051 13.9848 4.47995C13.9848 4.25479 13.8983 4.0381 13.7431 3.87407C13.6897 3.79446 13.2536 3.40528 13.6541 3.06918C13.7687 3.0656 13.8823 3.04777 13.9924 3.01611C14.2149 2.94535 14.5086 2.83921 14.7312 2.75076C14.749 2.92721 14.749 3.105 14.7312 3.28145C14.6672 3.5062 14.6314 3.73791 14.6244 3.97136C14.636 4.17261 14.7165 4.36387 14.8524 4.51347C14.9884 4.66307 15.1717 4.76202 15.3721 4.79394H15.4878L15.3543 4.71434L15.2652 4.64358C15.1431 4.4848 15.0887 4.28463 15.1139 4.08634C15.1341 3.8813 15.2217 3.68858 15.3632 3.53796C15.5768 3.21069 15.8794 2.77729 15.6035 2.65346C15.4956 2.55349 15.3612 2.48623 15.2161 2.45959C15.071 2.43295 14.9213 2.44805 14.7846 2.5031C14.676 2.53308 14.5691 2.56851 14.4641 2.60924C14.1791 2.72684 13.8799 2.80712 13.574 2.84805H13.396C12.8975 2.84805 12.4435 2.92766 12.4346 3.35221C12.415 3.4882 12.4421 3.62679 12.5116 3.74557C12.581 3.86435 12.6888 3.95637 12.8174 4.00674C12.892 4.02164 12.9585 4.06315 13.0044 4.12343C13.0504 4.18372 13.0725 4.25862 13.0666 4.334C13.0478 4.40118 13.0047 4.45909 12.9456 4.49664C12.8864 4.53418 12.8154 4.54871 12.7462 4.53744C12.5682 4.53744 12.4079 4.53744 12.3456 4.62589C12.3251 4.67338 12.3145 4.72455 12.3145 4.77625C12.3145 4.82796 12.3251 4.87912 12.3456 4.92662C12.3766 4.88951 12.4126 4.85678 12.4525 4.82932Z" fill="#CCCCCC"/>
<path d="M21.1588 11.6135H20.1263V13.0995H18.6309V14.1255H20.1263V15.6114H21.1588V14.1255H22.6453V13.0995H21.1588V11.6135Z" fill="#CCCCCC"/>
<path d="M6.53415 38.6348C5.90864 38.7771 5.30842 39.0127 4.75391 39.3336C5.16181 40.9838 6.03945 42.4823 7.28186 43.6499L7.41538 43.7649C7.41538 43.6411 7.49549 43.5172 7.53109 43.3934C7.63791 42.8892 7.74472 42.3851 7.82483 41.8898C7.88714 41.536 7.95835 41.191 8.03846 40.8814C7.56879 40.2137 7.20829 39.4763 6.97031 38.6967C6.83245 38.6401 6.68247 38.6188 6.53415 38.6348Z" fill="#CCCCCC"/>
<path d="M2.4132 18.9016C2.14033 19.0228 1.86101 19.1291 1.57649 19.22C1.5955 20.7599 1.48234 22.2986 1.23824 23.8194C1.02993 25.3162 1.22022 26.841 1.79012 28.2419C1.83393 28.1226 1.90495 28.015 1.99761 27.9275C2.09026 27.84 2.20204 27.7751 2.32419 27.7377H2.3865C2.4651 27.73 2.54446 27.7386 2.61955 27.7629C2.69464 27.7873 2.7638 27.8269 2.82266 27.8792C2.96208 28.0135 3.05019 28.1917 3.07189 28.3834C3.16223 28.2964 3.26404 28.222 3.37454 28.1623C2.83875 27.3238 2.50658 26.373 2.4043 25.385C2.21737 23.8459 2.68914 21.5463 2.4132 18.9016Z" fill="#CCCCCC"/>
<path d="M6.40878 35.539L6.32867 34.9022C6.22283 34.096 6.07427 33.2959 5.88361 32.5052C5.74279 32.5674 5.60603 32.6383 5.47415 32.7175C5.34182 32.7961 5.19752 32.8529 5.04689 32.8856C4.96229 32.9155 4.87238 32.9276 4.78282 32.9212C4.69326 32.9149 4.606 32.8901 4.52655 32.8486C4.4471 32.807 4.37717 32.7496 4.32119 32.6798C4.2652 32.6101 4.22437 32.5295 4.20127 32.4433C4.1888 32.382 4.1888 32.3189 4.20127 32.2576L4.01434 32.3902H3.96094C4.11188 33.0717 4.21008 33.7636 4.25468 34.46C4.25468 34.6988 4.25468 34.9464 4.25468 35.2029C4.43661 35.2401 4.62108 35.2638 4.80656 35.2737C5.34514 35.3328 5.88003 35.4213 6.40878 35.539Z" fill="#CCCCCC"/>
<path d="M2.5636 14.0459C2.26096 14.2935 1.55776 15.0807 1.46875 16.9824L2.10074 16.7789C1.98502 14.8861 2.88405 13.7717 2.5636 14.0459Z" fill="#CCCCCC"/>
<path d="M34.2967 38.6966C34.0698 39.4915 33.7086 40.2422 33.2285 40.9167C33.3278 41.2367 33.411 41.5614 33.4777 41.8897C33.5668 42.385 33.6647 42.8891 33.7804 43.3933C33.8077 43.5193 33.8434 43.6434 33.8872 43.7648L34.0207 43.6498C35.2566 42.4799 36.1279 40.9816 36.5309 39.3335C35.975 39.0153 35.3752 38.7799 34.7506 38.6347C34.5965 38.6156 34.44 38.637 34.2967 38.6966Z" fill="#CCCCCC"/>
<path d="M40.0286 23.8195C39.7915 22.3041 39.6843 20.7713 39.7082 19.2379C39.426 19.1485 39.1496 19.0421 38.8804 18.9194C38.6045 21.5729 39.0762 23.8638 38.8804 25.3851C38.7701 26.3713 38.4385 27.3204 37.9102 28.1624C38.0178 28.2224 38.1167 28.2968 38.2039 28.3835C38.2321 28.1919 38.3228 28.0148 38.462 27.8794C38.5203 27.8261 38.5894 27.7859 38.6646 27.7614C38.7399 27.737 38.8195 27.729 38.8982 27.7379H38.9605C39.0782 27.7706 39.1871 27.8288 39.2794 27.9083C39.3718 27.9879 39.4452 28.0867 39.4946 28.1978C40.0507 26.8088 40.2347 25.3003 40.0286 23.8195Z" fill="#CCCCCC"/>
<path d="M37.0906 32.293C37.0837 32.366 37.0657 32.4376 37.0372 32.5052C37.0137 32.5961 36.971 32.6809 36.9117 32.7538C36.8524 32.8268 36.7781 32.8863 36.6937 32.9282C36.6093 32.9701 36.5168 32.9936 36.4225 32.9969C36.3282 33.0002 36.2342 32.9834 36.147 32.9475C35.9969 32.9133 35.8528 32.8566 35.7198 32.7794C35.5909 32.7005 35.4571 32.6296 35.3192 32.5672C35.1212 33.3443 34.9726 34.1331 34.8742 34.9288C34.8742 35.141 34.8119 35.3533 34.7852 35.5656C35.3092 35.4691 35.8381 35.4012 36.3696 35.3622C36.5549 35.3511 36.7393 35.3275 36.9215 35.2914C36.9215 35.0349 36.9215 34.7872 36.9215 34.5484C36.9636 33.8524 37.0588 33.1605 37.2063 32.4787L37.0906 32.293Z" fill="#CCCCCC"/>
<path d="M39.1745 16.7789C39.3615 16.8497 39.5662 16.9116 39.7976 16.9824C39.7086 15.0807 39.0054 14.3289 38.7117 14.0458C38.4179 13.7628 39.2814 14.8861 39.1745 16.7789Z" fill="#CCCCCC"/>
<path d="M32.2841 14.2846C32.1425 14.2167 31.993 14.1662 31.8391 14.1342H31.6966L31.7501 14.0458H31.8124C33.1742 14.0458 33.5392 13.4709 33.5926 13.3205C33.436 13.1362 33.2181 13.0138 32.9784 12.9755C32.9161 12.9755 32.6224 12.9755 32.2307 12.9755C32.2257 12.9374 32.2257 12.8987 32.2307 12.8606C32.8894 12.7102 33.6549 12.3918 33.8062 11.7373C33.3495 11.6082 32.8655 11.6082 32.4087 11.7373V11.64C32.9962 11.4188 33.7083 10.8704 33.7706 10.499C33.4865 10.3893 33.1743 10.3738 32.8805 10.4547C32.7063 10.4981 32.5364 10.5573 32.3731 10.6316V10.4636C32.9784 10.1982 33.6816 9.62331 33.735 9.23413H33.6905C33.3783 9.13219 33.0414 9.13219 32.7292 9.23413C32.5141 9.30174 32.3031 9.38147 32.0972 9.47294V9.42872C33.1119 8.64152 33.0496 8.02237 33.0585 7.81894C32.9428 7.81894 32.7915 7.74818 32.0705 8.12851L31.6788 8.35848V8.25234L31.759 8.16389C32.4978 7.45629 32.382 7.01405 32.1862 6.62487C31.8258 6.8208 31.4985 7.07148 31.216 7.36785C31.213 7.34139 31.213 7.31469 31.216 7.28824C31.4557 7.08382 31.6083 6.79658 31.643 6.4846C31.6777 6.17263 31.5919 5.8592 31.4029 5.6077C31.1989 5.94395 30.9603 6.25817 30.6908 6.54526L30.6374 6.4745C30.7564 6.16862 30.7758 5.83332 30.6927 5.51592C30.6097 5.19852 30.4284 4.91505 30.1745 4.70551C30.0791 4.97494 29.9661 5.2379 29.8363 5.49272C29.5112 6.04616 29.1546 6.58068 28.7681 7.09365C28.1361 7.97815 26.5695 9.50832 26.8277 10.1717C27.0858 10.8351 27.6466 11.6488 27.0947 12.2945C26.712 12.7367 25.9197 12.3741 25.4658 11.8699C25.5699 11.7486 25.6487 11.6079 25.6976 11.4561C25.7465 11.3042 25.7645 11.1443 25.7506 10.9854C25.4601 11.0729 25.1528 11.0905 24.854 11.0367C24.5553 10.9828 24.2738 10.8592 24.0327 10.6759C24.1346 10.6716 24.233 10.6373 24.3154 10.5775C24.3978 10.5177 24.4604 10.435 24.4955 10.3397C24.0665 10.2401 23.669 10.0365 23.3384 9.74714C22.6263 9.05723 22.8399 8.54422 23.1515 7.64204C23.2773 7.31021 23.5006 7.02363 23.7923 6.81946C24.2347 6.77988 24.6761 6.90607 25.0296 7.17326C25.3009 7.32143 25.6166 7.36848 25.9197 7.30593L24.9228 6.67794C25.2339 6.68926 25.5383 6.77093 25.8129 6.91675C25.994 7.04098 26.2021 7.12095 26.4202 7.15016C26.6383 7.17936 26.8603 7.15697 27.068 7.08481C27.1392 7.08481 27.4062 6.85484 26.9968 6.96098C26.347 7.12019 25.6616 6.45681 25.4124 6.37721C25.9731 6.45681 26.5339 6.58949 26.6407 6.83715C26.7339 6.77955 26.808 6.69605 26.8539 6.597C26.8998 6.49796 26.9154 6.38771 26.8989 6.27992C26.7832 5.98803 26.258 5.71384 25.8841 5.53694C25.8841 5.53694 26.0889 5.13007 25.3679 4.89126V4.65244C25.4034 4.53137 25.4481 4.41311 25.5014 4.29865C25.5585 4.20214 25.5886 4.0922 25.5886 3.98023C25.5886 3.86826 25.5585 3.75832 25.5014 3.66181C25.4366 3.59158 25.3561 3.53741 25.2665 3.50362C25.1768 3.46983 25.0805 3.45736 24.9851 3.46722H24.9228C24.9333 3.44354 24.9388 3.41793 24.9388 3.39204C24.9388 3.36614 24.9333 3.34054 24.9228 3.31686V3.25494H25.0118H25.0563V2.94537H24.9406V2.84807H24.6558V2.96306H24.5222V3.26379H24.6202V3.31686C24.6098 3.35148 24.6098 3.38837 24.6202 3.423H24.5668C24.462 3.41369 24.3564 3.42619 24.2568 3.45969C24.1572 3.4932 24.0657 3.54697 23.9882 3.61759C23.819 3.82102 23.9348 4.06868 23.9882 4.25442C24.0416 4.36056 24.095 4.48439 24.1306 4.56399C23.2405 4.42248 22.4127 4.23673 21.9943 4.13059C21.8436 3.9503 21.7288 3.74319 21.656 3.52029V3.36993L21.7095 3.2461C21.7629 3.10458 21.8608 2.88345 21.9587 2.68002V2.61811C22.11 2.282 22.3236 1.83091 22.0032 1.45057C21.871 1.32901 21.7151 1.23568 21.5452 1.17635C21.3752 1.11701 21.1948 1.09294 21.0152 1.10562C20.9798 1.09951 20.9437 1.09951 20.9083 1.10562V1.07908C20.9054 1.00987 20.8839 0.942691 20.846 0.884495V0.813736V0.716441H21.0152H21.0864V0.194589H21.0152H20.846V0.0265348V0H20.3298V0.0707595V0.238814H20.125H20.0538V0.751821H20.125H20.2942V0.866805V0.919875C20.2497 0.978684 20.2248 1.04979 20.2229 1.12331V1.17638C20.1881 1.16605 20.151 1.16605 20.1161 1.17638C19.9573 1.15482 19.7956 1.16906 19.643 1.21806C19.4905 1.26706 19.351 1.34955 19.2349 1.45942C19.1299 1.63464 19.0744 1.83481 19.0744 2.03876C19.0744 2.24271 19.1299 2.44288 19.2349 2.61811V2.68002C19.3295 2.88767 19.4127 3.10026 19.4841 3.31686V3.5999H19.5643C19.4904 3.81786 19.379 4.02138 19.2349 4.20135C18.8166 4.30749 18.0065 4.49324 17.0986 4.63475C17.0986 4.55515 17.1876 4.43132 17.241 4.32518C17.33 4.13944 17.4458 3.89178 17.241 3.68834C17.1655 3.61749 17.0756 3.56349 16.9773 3.52993C16.8791 3.49637 16.7748 3.48404 16.6714 3.49376H16.6179C16.6283 3.45913 16.6283 3.42224 16.6179 3.38762V3.31686V3.26379H16.707V2.94537H16.5823V2.83923H16.3064V2.93652H16.1907V3.23725H16.2886V3.29917V3.31686C16.261 3.34904 16.2453 3.3896 16.2441 3.43184H16.1907C16.0953 3.42198 15.999 3.43445 15.9093 3.46824C15.8197 3.50203 15.7392 3.5562 15.6744 3.62643C15.6173 3.72294 15.5871 3.83288 15.5871 3.94485C15.5871 4.05682 15.6173 4.16676 15.6744 4.26327C15.7277 4.37773 15.7724 4.49599 15.8079 4.61706V4.76743C15.0869 5.00624 15.2917 5.41311 15.2917 5.41311C14.9178 5.59001 14.4015 5.8642 14.2769 6.15609C14.2604 6.26388 14.276 6.37413 14.3219 6.47318C14.3678 6.57223 14.4419 6.65572 14.5351 6.71332C14.6419 6.46566 15.2026 6.33299 15.7634 6.25338C15.5142 6.33299 14.8288 6.99636 14.179 6.83715C13.7695 6.73101 14.0366 6.93444 14.0989 6.96098C14.3211 7.06537 14.5668 7.11048 14.8118 7.09187C15.0568 7.07326 15.2928 6.99157 15.4964 6.85484C15.771 6.70902 16.0754 6.62734 16.3865 6.61602L15.3985 7.24402C15.7015 7.30899 16.0181 7.26181 16.2886 7.11134C16.6422 6.84416 17.0835 6.71797 17.5259 6.75754C17.8176 6.96171 18.0409 7.2483 18.1668 7.58012C18.4783 8.46462 18.6919 8.99532 17.9798 9.68522C17.6492 9.97459 17.2517 10.1782 16.8227 10.2778C16.8578 10.373 16.9205 10.4558 17.0028 10.5156C17.0852 10.5754 17.1836 10.6096 17.2855 10.6139C17.0427 10.7973 16.7597 10.921 16.4595 10.9748C16.1594 11.0286 15.8507 11.011 15.5587 10.9235C15.5389 11.2449 15.6441 11.5615 15.8524 11.808C15.3985 12.3122 14.6063 12.6925 14.2235 12.2326C13.6716 11.5869 14.2235 10.8351 14.4905 10.1098C14.7576 9.38449 13.1821 7.89854 12.5501 7.03174C12.1593 6.52179 11.8025 5.987 11.4819 5.4308C11.3521 5.17598 11.2391 4.91302 11.1437 4.6436C10.8898 4.85313 10.7085 5.1366 10.6255 5.45401C10.5424 5.77141 10.5618 6.10671 10.6808 6.41259L10.6274 6.48335C10.3579 6.19625 10.1193 5.88203 9.91531 5.54579C9.72528 5.79623 9.63797 6.10899 9.67101 6.42092C9.70405 6.73285 9.85499 7.02069 10.0933 7.22633C10.0819 7.25461 10.067 7.28136 10.0488 7.30593C9.76456 7.01153 9.43752 6.76109 9.07859 6.56295C8.88277 6.95213 8.76705 7.39438 9.49695 8.10198L9.58596 8.19043L9.54146 8.29657L9.1498 8.0666C8.4288 7.68626 8.25968 7.73933 8.16177 7.75702C8.16177 7.96046 8.10836 8.5796 9.1231 9.3668V9.41103C8.91717 9.31956 8.70617 9.23983 8.49111 9.17222C8.17888 9.07028 7.84201 9.07028 7.52978 9.17222H7.48527C7.53868 9.56139 8.23298 10.1363 8.84716 10.4017V10.5697C8.68387 10.4954 8.51403 10.4362 8.33979 10.3928C8.04603 10.3119 7.73384 10.3274 7.44967 10.437C7.51198 10.8085 8.21517 11.3215 8.81156 11.578V11.6753C8.35478 11.5463 7.87084 11.5463 7.41406 11.6753C7.56538 12.3299 8.30419 12.6483 8.98958 12.7986C8.99462 12.8368 8.99462 12.8755 8.98958 12.9136C8.59793 12.9136 8.30419 12.8694 8.24188 12.9136C8.00222 12.9519 7.78431 13.0743 7.62769 13.2586C7.6989 13.4089 8.06385 13.9839 9.40794 13.9839H9.47025L9.52366 14.0723H9.44354C9.28958 14.1042 9.14012 14.1547 8.99848 14.2227C8.79661 14.3945 8.64066 14.6133 8.54452 14.8595C8.64183 14.9725 8.76626 15.0593 8.90629 15.1119C9.04632 15.1645 9.19742 15.1811 9.34563 15.1602C9.63634 15.096 9.91754 14.9949 10.1823 14.8595L10.2625 14.9391H10.2002C10.0577 15.0014 9.92562 15.0849 9.8085 15.1868C9.6514 15.4014 9.54769 15.65 9.50585 15.9121C9.63406 16.001 9.78232 16.0572 9.93756 16.0757C10.0928 16.0942 10.2502 16.0745 10.396 16.0182C10.6308 15.91 10.8495 15.7701 11.0458 15.6025L11.1615 15.6821C11.0424 15.7724 10.9375 15.8797 10.8499 16.0005C10.7461 16.2462 10.7063 16.5139 10.7342 16.7789C10.8793 16.8364 11.0363 16.8576 11.1915 16.8407C11.3467 16.8237 11.4954 16.7691 11.6243 16.6816C11.8048 16.531 11.9689 16.362 12.1139 16.1774L12.3364 16.2659C12.1673 16.4605 12.0338 16.6285 11.9893 16.6904C11.9047 16.8201 11.8518 16.9676 11.8348 17.1211C11.8178 17.2747 11.8372 17.4301 11.8914 17.5749C12.0809 17.5925 12.2719 17.5647 12.4485 17.4939C12.625 17.4232 12.7819 17.3114 12.9061 17.1681C13.0576 16.9853 13.1973 16.7933 13.3245 16.5931L13.4758 16.6374C13.3579 16.8402 13.2879 17.0671 13.2711 17.3007C13.2711 17.8314 13.547 17.9729 13.6093 17.9995C13.9039 17.9351 14.1677 17.7729 14.357 17.5395C14.4862 17.3516 14.5798 17.1418 14.633 16.9204H14.8199C14.7861 17.1551 14.7861 17.3933 14.8199 17.628C14.8199 17.7784 15.0602 17.9464 15.167 18.0172C15.3104 17.9806 15.4406 17.9049 15.5428 17.7986C15.6451 17.6923 15.7153 17.5597 15.7456 17.4157C15.8109 17.1576 15.8526 16.8941 15.8702 16.6285C16.1195 16.0005 16.6803 14.9922 17.428 15.4875C17.8854 15.923 18.1804 16.4999 18.2647 17.1238C18.1846 18.3621 17.6505 18.8309 15.3985 19.2908C14.777 19.3678 14.1615 19.486 13.5559 19.6446C13.6627 19.8038 13.7784 19.7508 13.9565 19.795C13.252 20.0339 12.6207 20.448 12.1228 20.9979C12.2563 21.0753 12.4077 21.1168 12.5623 21.1183C12.7168 21.1199 12.869 21.0814 13.004 21.0068C12.5895 21.5178 12.223 22.0655 11.9092 22.6431C12.1074 22.6692 12.309 22.6501 12.4987 22.5872C12.6884 22.5244 12.8612 22.4195 13.004 22.2804C13.0489 22.7934 12.9136 23.3059 12.6213 23.731C12.9114 23.8186 13.2213 23.8186 13.5114 23.731L13.004 24.6863C13.1051 24.6872 13.205 24.7082 13.2978 24.7482C13.5203 24.5271 13.8052 24.4651 13.9387 24.6509C13.8951 24.6378 13.8487 24.6378 13.8052 24.6509C13.4402 24.7305 13.2622 25.1108 13.0574 25.3143C13.0068 25.3552 12.9679 25.4085 12.9445 25.4691C12.921 25.5296 12.914 25.5951 12.9239 25.6592C12.9404 25.7476 12.9803 25.8301 13.0396 25.898C12.9985 25.9682 12.9741 26.0469 12.9684 26.128C12.9684 26.2872 12.7993 26.128 12.7459 25.9069C12.7128 25.8668 12.6858 25.8221 12.6658 25.7742C12.6658 25.7742 12.6658 25.7742 12.6658 25.73C12.6616 25.7036 12.6616 25.6767 12.6658 25.6504C12.661 25.6122 12.661 25.5736 12.6658 25.5354C12.6625 25.4813 12.6711 25.4271 12.6911 25.3767C12.7111 25.3263 12.742 25.2808 12.7815 25.2435C12.8784 25.1472 12.9825 25.0585 13.0931 24.9781C13.0731 24.957 13.0489 24.9401 13.0222 24.9286C12.9954 24.9171 12.9665 24.9111 12.9373 24.9111C12.9081 24.9111 12.8792 24.9171 12.8524 24.9286C12.8256 24.9401 12.8015 24.957 12.7815 24.9781L12.5857 25.217C12.5369 25.2853 12.4801 25.3476 12.4166 25.4027C12.3394 25.4805 12.2961 25.5853 12.2961 25.6946C12.2961 25.8038 12.3394 25.9087 12.4166 25.9865C12.4476 26.0367 12.4867 26.0815 12.5323 26.1191C12.5146 26.1738 12.5146 26.2326 12.5323 26.2872C12.5768 26.4818 12.3008 26.2164 12.2385 26.1368L12.1851 26.0838C12.1519 26.0434 12.1276 25.9966 12.1138 25.9463C12.1 25.896 12.097 25.8434 12.105 25.7919C12.106 25.71 12.1267 25.6295 12.1654 25.5572C12.2042 25.4848 12.2597 25.4228 12.3275 25.3762L12.4789 25.2435C12.4338 25.2311 12.3865 25.2286 12.3404 25.2362C12.2943 25.2438 12.2504 25.2614 12.2118 25.2877C12.0354 25.4059 11.8965 25.5716 11.8113 25.7653C11.7907 25.8288 11.7872 25.8965 11.8013 25.9617C11.8154 26.0269 11.8464 26.0873 11.8914 26.1368C11.9558 26.1896 12.0322 26.226 12.1139 26.243C12.1075 26.2661 12.1075 26.2906 12.1139 26.3137C12.1762 26.4287 11.9181 26.3137 11.7757 26.2164L11.7134 26.1368C11.5399 26.2633 11.3734 26.3991 11.2149 26.5437C9.51475 27.9147 9.0875 30.6035 10.6452 33.5312C11.9982 36.0609 13.4758 39.7227 12.4255 41.6774C12.5323 42.0843 13.2088 42.5619 14.2057 43.0395C14.4154 42.6462 14.5711 42.2268 14.6686 41.7924C15.5587 38.0687 12.9684 34.8845 11.6778 31.9922C10.5384 29.4537 11.9003 27.3574 13.458 26.8975C13.4421 26.8396 13.4421 26.7785 13.458 26.7206C13.458 26.5791 13.5826 26.4376 13.5915 26.3491C13.6004 26.2607 13.6983 26.3491 13.7963 26.4818C13.7428 26.4818 13.6627 26.7914 13.6627 26.7914V26.924C13.6551 26.95 13.6551 26.9776 13.6627 27.0036C13.6768 27.0095 13.692 27.0125 13.7072 27.0125C13.7225 27.0125 13.7376 27.0095 13.7517 27.0036V27.1982C13.5092 27.2013 13.2688 27.2431 13.0396 27.3221C13.1198 27.4017 13.102 27.5166 13.3423 27.5609C13.5113 27.5695 13.6781 27.5194 13.8141 27.4194C13.9169 27.3831 14.0154 27.3356 14.1078 27.2778C14.268 27.1717 14.1078 26.924 14.1078 26.8887C14.091 26.8664 14.0761 26.8427 14.0633 26.8179H14.2057C14.2591 26.8179 14.8021 26.8179 14.9801 26.8179C15.5676 27.0567 15.5498 27.6405 16.5912 28.2154C17.078 28.579 17.6651 28.7858 18.2736 28.808C18.3169 28.8511 18.3557 28.8985 18.3893 28.9495C18.6261 29.1848 18.9447 29.3209 19.2794 29.3299L19.1014 29.1176C19.2113 29.1004 19.3135 29.0511 19.3951 28.9761C19.096 28.9622 18.8091 28.8537 18.5762 28.6665C18.9323 28.4277 18.9412 28.1623 18.7097 27.6405C18.5733 27.1973 18.3442 26.7878 18.0374 26.4387C17.7306 26.0897 17.353 25.809 16.9295 25.615C16.699 25.5182 16.4565 25.4528 16.2085 25.4204H16.0839C15.8524 25.4204 14.8644 25.3054 14.3926 25.3054C14.1394 25.3042 13.8865 25.322 13.636 25.3585C13.6707 25.2828 13.7094 25.209 13.7517 25.1374C13.8672 25.1261 13.9835 25.1261 14.0989 25.1374H14.3926C14.3501 25.0382 14.2931 24.9458 14.2235 24.8632C14.4426 24.238 14.7418 23.6434 15.1136 23.0942C15.3095 23.3595 15.7278 23.563 16.5467 23.501C16.2954 23.0903 16.2186 22.5971 16.3331 22.1301C16.5168 22.1979 16.7139 22.222 16.9087 22.2005C17.1034 22.179 17.2904 22.1124 17.4547 22.0062C17.3178 21.9427 17.2114 21.8285 17.1582 21.688C17.1049 21.5475 17.1091 21.3919 17.1698 21.2544C17.3597 21.0058 17.5993 20.799 17.8735 20.6467C18.1477 20.4945 18.4506 20.4003 18.7631 20.3699C20.3565 20.1134 19.7601 22.59 17.873 22.077C17.873 22.3335 18.5406 22.7669 19.0035 22.873C18.8129 23.064 18.5759 23.2027 18.3154 23.2755C18.0548 23.3484 17.7798 23.353 17.517 23.2888C17.7375 23.6458 18.0843 23.9081 18.4894 24.0243C18.8945 24.1405 19.3286 24.1021 19.7067 23.9168C19.3351 24.3441 18.8125 24.6132 18.2469 24.6686C18.4102 24.8755 18.625 25.0366 18.87 25.1358C19.1151 25.2351 19.382 25.2692 19.6444 25.2346C19.4885 25.5762 19.3893 25.9406 19.3506 26.3137C19.6697 26.1958 19.9697 26.0319 20.2407 25.8273C20.3102 26.1452 20.4434 26.446 20.6324 26.7118C20.8359 26.4195 20.9754 26.088 21.0419 25.7388C21.3228 26.0066 21.6561 26.2143 22.021 26.3491C21.9973 25.9727 21.9131 25.6024 21.7718 25.2523C22.0236 25.2663 22.2751 25.2206 22.5056 25.1191C22.7362 25.0176 22.9392 24.8632 23.098 24.6686C22.5324 24.6132 22.0098 24.3441 21.6382 23.9168C22.0163 24.1021 22.4505 24.1405 22.8555 24.0243C23.2606 23.9081 23.6074 23.6458 23.8279 23.2888C23.5651 23.353 23.2901 23.3484 23.0296 23.2755C22.7691 23.2027 22.532 23.064 22.3414 22.873C22.8043 22.7669 23.4986 22.3335 23.4719 22.077C21.5492 22.59 20.9528 20.1134 22.5818 20.3699C22.8944 20.4003 23.1973 20.4945 23.4714 20.6467C23.7456 20.799 23.9852 21.0058 24.1751 21.2544C24.2358 21.3919 24.24 21.5475 24.1867 21.688C24.1335 21.8285 24.0271 21.9427 23.8903 22.0062C24.0568 22.0968 24.2419 22.1486 24.4315 22.1578C24.6212 22.167 24.8105 22.1333 24.9851 22.0593C25.0996 22.5264 25.0228 23.0195 24.7715 23.4303C25.5904 23.4922 26.0088 23.2888 26.2046 23.0234C26.5765 23.5727 26.8756 24.1672 27.0947 24.7924C27.0251 24.875 26.9681 24.9674 26.9256 25.0666H27.2193C27.3348 25.0554 27.451 25.0554 27.5665 25.0666C27.609 25.1368 27.6448 25.2108 27.6733 25.2877C27.4258 25.2512 27.1758 25.2334 26.9256 25.2346C26.4538 25.2346 25.4658 25.3143 25.2254 25.3496H25.1097C24.8617 25.382 24.6192 25.4475 24.3887 25.5442C23.9652 25.7382 23.5876 26.0189 23.2808 26.368C22.9741 26.717 22.7449 27.1266 22.6085 27.5697C22.377 28.0916 22.3859 28.3569 22.742 28.5957C22.5092 28.7829 22.2223 28.8914 21.9231 28.9053C22.0047 28.9804 22.107 29.0296 22.2168 29.0468L22.0388 29.2591C22.3158 29.244 22.5807 29.1417 22.7954 28.9672C22.829 28.9162 22.8677 28.8688 22.9111 28.8257C23.5145 28.7974 24.0949 28.5876 24.5757 28.2242C25.6171 27.6493 25.5993 27.0656 26.1868 26.8267C26.3648 26.8267 26.9078 26.8267 26.9523 26.8267H27.1036L27.0591 26.8975C27.0591 26.8975 26.9078 27.1805 27.0591 27.2867C27.1515 27.3445 27.25 27.3919 27.3528 27.4282C27.4881 27.5297 27.6554 27.5798 27.8246 27.5697C28.0649 27.5255 28.0471 27.4105 28.1183 27.3309C27.8924 27.2514 27.6548 27.2095 27.4151 27.2071V27.0656C27.4293 27.0714 27.4444 27.0744 27.4597 27.0744C27.4749 27.0744 27.4901 27.0714 27.5042 27.0656C27.5118 27.0396 27.5118 27.0119 27.5042 26.9859V26.8533C27.5042 26.8533 27.424 26.5525 27.3706 26.5437C27.4686 26.4022 27.5665 26.3226 27.5754 26.411C27.5843 26.4995 27.6733 26.641 27.7089 26.7825C27.7214 26.8408 27.7214 26.9011 27.7089 26.9594C29.2933 27.4194 30.6552 29.5156 29.4891 32.0541C28.1985 34.9464 25.6349 38.1306 26.4983 41.8543C26.5994 42.2877 26.7549 42.7067 26.9612 43.1015C27.9759 42.6504 28.6524 42.1462 28.7414 41.7393C27.7267 39.7492 29.2043 36.1228 30.5217 33.5931C32.0794 30.6654 31.6521 27.9766 29.952 26.6056C29.7934 26.4611 29.627 26.3252 29.4535 26.1987L29.3912 26.2784C29.2488 26.411 28.9907 26.4906 29.053 26.3756C29.0617 26.3577 29.0662 26.3381 29.0662 26.3182C29.0662 26.2983 29.0617 26.2786 29.053 26.2607C29.1347 26.2437 29.2111 26.2073 29.2755 26.1545C29.3183 26.1038 29.3479 26.0434 29.3619 25.9786C29.3758 25.9139 29.3737 25.8468 29.3556 25.783C29.2704 25.5893 29.1315 25.4236 28.9551 25.3054C28.9165 25.2791 28.8726 25.2615 28.8265 25.2539C28.7803 25.2463 28.7331 25.2487 28.688 25.2612L28.8393 25.3939C28.9071 25.4405 28.9627 25.5025 29.0014 25.5748C29.0402 25.6472 29.0609 25.7277 29.0619 25.8096C29.0699 25.8611 29.0669 25.9137 29.0531 25.964C29.0393 26.0143 29.015 26.0611 28.9818 26.1015L28.9284 26.1545C28.866 26.2341 28.5901 26.4995 28.6346 26.3049C28.6482 26.2497 28.6482 26.192 28.6346 26.1368C28.675 26.0966 28.7108 26.0521 28.7414 26.0042C28.8186 25.9264 28.8619 25.8215 28.8619 25.7123C28.8619 25.603 28.8186 25.4982 28.7414 25.4204C28.6779 25.3653 28.6211 25.303 28.5723 25.2346L28.3765 24.9958C28.3565 24.9747 28.3324 24.9578 28.3056 24.9463C28.2788 24.9348 28.2499 24.9288 28.2207 24.9288C28.1915 24.9288 28.1626 24.9348 28.1358 24.9463C28.109 24.9578 28.0849 24.9747 28.0649 24.9958C28.1755 25.0762 28.2796 25.1649 28.3765 25.2612C28.4142 25.2998 28.4439 25.3455 28.4638 25.3956C28.4837 25.4457 28.4933 25.4992 28.4922 25.5531C28.4969 25.5912 28.4969 25.6299 28.4922 25.6681C28.4964 25.6944 28.4964 25.7213 28.4922 25.7477C28.4922 25.7477 28.4922 25.7477 28.4922 25.7919C28.4722 25.8398 28.4452 25.8845 28.4121 25.9246C28.3587 26.1368 28.1718 26.3049 28.1896 26.1457C28.1839 26.0646 28.1595 25.9859 28.1183 25.9157C28.1777 25.8478 28.2176 25.7653 28.2341 25.6769C28.2415 25.613 28.2333 25.5482 28.21 25.4881C28.1868 25.428 28.1492 25.3744 28.1005 25.3319C27.8958 25.1285 27.7178 24.7482 27.3528 24.6686C27.3093 24.6555 27.2629 24.6555 27.2193 24.6686C27.3528 24.4828 27.6377 24.5447 27.8602 24.7659C27.9533 24.7268 28.053 24.7058 28.1539 24.704L27.7623 23.7222C28.0525 23.8098 28.3623 23.8098 28.6524 23.7222C28.3559 23.299 28.2202 22.7849 28.2697 22.2716C28.4149 22.4059 28.5888 22.5059 28.7784 22.5641C28.968 22.6223 29.1683 22.6372 29.3645 22.6077C29.063 22.0441 28.7115 21.5083 28.3142 21.0068C28.4417 21.1169 28.5982 21.1887 28.7652 21.2138C28.9323 21.2388 29.1031 21.2161 29.2577 21.1483C28.7598 20.5984 28.1286 20.1843 27.424 19.9454C27.6021 19.9011 27.7089 19.9454 27.8335 19.795C27.2248 19.6372 26.6063 19.519 25.982 19.4412C23.73 18.9813 23.196 18.5125 23.1158 17.2742C23.2001 16.6503 23.4951 16.0733 23.9526 15.6379C24.7003 15.1426 25.261 16.1509 25.5192 16.7789C25.53 17.0446 25.5688 17.3084 25.6349 17.5661C25.6652 17.71 25.7354 17.8427 25.8377 17.949C25.9399 18.0553 26.0701 18.131 26.2135 18.1675C26.3203 18.0968 26.5339 17.9287 26.5695 17.7784C26.5981 17.5433 26.5981 17.3058 26.5695 17.0708H26.7565C26.8097 17.2921 26.9032 17.502 27.0324 17.6899C27.2217 17.9232 27.4855 18.0855 27.7801 18.1498C27.8424 18.1498 28.1005 17.9818 28.1183 17.4511C28.1015 17.2174 28.0315 16.9906 27.9136 16.7877L28.0649 16.7435C28.1921 16.9437 28.3318 17.1357 28.4833 17.3184C28.6075 17.4618 28.7644 17.5735 28.9409 17.6443C29.1175 17.7151 29.3085 17.7429 29.498 17.7253C29.5502 17.5801 29.5685 17.4251 29.5516 17.2718C29.5346 17.1186 29.4828 16.9712 29.4001 16.8408C29.3556 16.7789 29.2221 16.6108 29.053 16.4162L29.2755 16.3278C29.4205 16.5124 29.5846 16.6813 29.7651 16.8319C29.894 16.9194 30.0427 16.9741 30.1979 16.991C30.3531 17.008 30.5102 16.9868 30.6552 16.9292C30.6785 16.6644 30.6388 16.3978 30.5395 16.1509C30.452 16.0301 30.347 15.9228 30.2279 15.8325L30.2724 15.6998C30.4688 15.8674 30.6874 16.0073 30.9222 16.1155C31.068 16.1718 31.2254 16.1915 31.3806 16.173C31.5359 16.1545 31.6842 16.0983 31.8124 16.0094C31.7705 15.7472 31.6668 15.4987 31.5097 15.2841C31.3926 15.1822 31.2605 15.0987 31.1181 15.0364H31.0558L31.1359 14.9568C31.4007 15.0922 31.6819 15.1933 31.9726 15.2575C32.1208 15.2784 32.2719 15.2618 32.4119 15.2092C32.552 15.1566 32.6764 15.0698 32.7737 14.9568C32.6728 14.6939 32.5039 14.462 32.2841 14.2846ZM32.6402 10.897L32.4622 10.9766L32.6402 10.897ZM32.4622 9.67638L32.2218 9.79136L32.4622 9.67638ZM8.82046 10.9766L8.63353 10.897L8.82046 10.9677V10.9766ZM9.06079 9.79136L8.82936 9.67638L9.06079 9.77367V9.79136ZM20.4366 3.89178H20.5701H20.8371C21.267 4.38317 21.8065 4.76785 22.4127 5.01509C22.1193 5.01357 21.8313 4.93745 21.5759 4.79396C21.5541 4.96337 21.5884 5.13523 21.6735 5.28361C21.7586 5.43199 21.8899 5.54884 22.0477 5.61654C21.7734 6.06594 21.5353 6.53619 21.3356 7.02289C21.2021 7.359 20.9706 7.81009 20.6413 7.83663C20.312 7.86316 20.0805 7.359 19.947 7.02289C19.7478 6.53316 19.5096 6.05994 19.2349 5.6077C19.3927 5.54 19.5241 5.42314 19.6092 5.27476C19.6943 5.12638 19.7285 4.95452 19.7067 4.78512C19.4503 4.92612 19.1629 5.00208 18.87 5.00624C19.4698 4.7565 20.0053 4.37557 20.4366 3.89178ZM22.1634 16.1067C21.7551 16.499 21.2093 16.7183 20.6413 16.7183C20.0733 16.7183 19.5275 16.499 19.1192 16.1067C17.9175 15.0276 16.4488 10.6759 20.6413 10.6759C24.8338 10.6759 23.3651 15.0276 22.1634 16.1067Z" fill="#CCCCCC"/>
</g>
<defs>
<clipPath id="clip0_253_2640">
<rect width="221" height="51" fill="white"/>
</clipPath>
</defs>
</svg>
