<svg width="237" height="80" viewBox="0 0 237 80" fill="none" xmlns="http://www.w3.org/2000/svg">
<g clip-path="url(#clip0_253_2739)">
<path fill-rule="evenodd" clip-rule="evenodd" d="M31.9244 65.8279L34.0063 69.6542L33.7448 70.2162H32.9772H32.9467V70.2467V71.2219V71.249L34.3561 72.8235H34.3866H35.7146L35.7519 72.7998L38.2379 67.3821V67.3381L36.8251 65.7636H36.7979H35.7791L35.7417 65.7873L34.9504 67.5311L33.1606 65.7738H33.1301H31.9788L31.9414 65.7941V65.8347L31.9244 65.8279ZM7.40061 71.8043L5.70253 69.9724L4.93499 69.1903H4.90442H4.87046C4.67791 69.4628 4.39739 69.6612 4.07576 69.7524C4.09023 69.4994 4.16847 69.2541 4.30322 69.0393C4.43797 68.8244 4.62489 68.6469 4.84669 68.5232C5.0501 68.4213 5.2745 68.368 5.50215 68.3675C5.73161 68.3757 5.95659 68.4332 6.16173 68.5361C6.36687 68.6389 6.54733 68.7847 6.69081 68.9634C6.77963 69.0168 6.87954 69.0493 6.98288 69.0582L7.08137 69.0142C7.10274 69.0177 7.12454 69.0177 7.1459 69.0142V70.9544V70.9781L8.65381 72.854L8.68437 72.8709H9.87982H9.91039V72.8404V71.0865L11.3402 72.8675L11.3741 72.8844H12.7598H12.7904V72.854V67.6835V67.6564L11.2824 65.7839H11.2553H7.17986H7.1493V65.8144V67.9578L5.71271 66.6033C5.46329 66.313 5.15391 66.0798 4.80574 65.9197C4.45757 65.7595 4.07881 65.6763 3.69538 65.6756C2.99161 65.6765 2.31696 65.9558 1.81964 66.4523C1.32231 66.9488 1.04297 67.6218 1.04297 68.3234C1.04299 68.7003 1.12358 69.0727 1.27935 69.4161C1.43513 69.7594 1.66251 70.0656 1.94635 70.3144L3.74633 72.2309C4.21352 72.5985 4.79159 72.7977 5.38668 72.7964C5.76996 72.7968 6.14876 72.7144 6.49702 72.5548C6.84528 72.3952 7.15471 72.1623 7.40401 71.872V71.8178L7.40061 71.8043ZM13.5545 70.8698L15.0896 72.4341C15.4196 72.7419 15.8504 72.9199 16.302 72.9352C16.694 72.9361 17.0743 72.8017 17.3783 72.5548C17.6822 72.3079 17.8911 71.9638 17.9695 71.5808C17.9868 71.4903 17.997 71.3986 18.0001 71.3065L19.3586 72.8404H19.3891H20.3163H20.3468V72.81V68.3505H22.5815L21.454 70.8901V70.9172V70.9544L23.1147 72.8269H23.1453H24.3306L24.3679 72.8066L24.9147 71.9262H26.2154L26.9796 72.8133H27.0135H28.4535L28.4909 72.793V72.7998L27.1868 70.0131C27.2771 70.119 27.3747 70.2185 27.4788 70.3111L29.2754 72.2276C29.7464 72.6009 30.3311 72.8028 30.9327 72.7998C31.3163 72.7976 31.6947 72.7122 32.0419 72.5497C32.389 72.3872 32.6966 72.1513 32.9433 71.8585V71.8043L31.2452 69.9724L30.481 69.1903H30.4471H30.4165C30.2225 69.4643 29.9393 69.6629 29.615 69.7524C29.6308 69.4993 29.7099 69.2542 29.8452 69.0395C29.9804 68.8247 30.1675 68.6472 30.3893 68.5232C30.5928 68.4213 30.8172 68.368 31.0448 68.3675C31.2737 68.3762 31.498 68.4339 31.7025 68.5368C31.907 68.6396 32.087 68.7851 32.2301 68.9634C32.3179 69.0163 32.4166 69.0488 32.5187 69.0582L32.6206 69.0142C32.7225 69.0142 32.8142 68.9465 32.8142 68.7264V68.0898L31.2452 66.5999C30.9962 66.3091 30.6869 66.0755 30.3386 65.9153C29.9904 65.7552 29.6114 65.6722 29.2279 65.6722C28.5241 65.6731 27.8494 65.9524 27.3521 66.4489C26.8548 66.9454 26.5754 67.6184 26.5754 68.3201V68.4216L24.137 65.8381V65.8008L24.0996 65.7771H23.76L23.7226 65.8008L23.0027 67.4194L21.3963 65.7805H21.3657H17.6876H17.6605V65.811V66.793C17.1986 66.1394 16.9201 65.75 16.8692 65.6823V65.6519H16.0846L16.0337 65.7738C15.9956 65.901 15.919 66.0135 15.8145 66.0959C15.71 66.1783 15.5826 66.2266 15.4496 66.2343C15.306 66.2288 15.165 66.1942 15.0352 66.1327C14.7665 66.0098 14.475 65.9441 14.1794 65.9397C13.8976 65.9448 13.6199 66.0075 13.3634 66.124C13.107 66.2405 12.8772 66.4082 12.6885 66.6169L12.6613 66.6474L12.6885 66.6711L13.3269 67.2738L13.9858 67.9273C13.6636 68.0528 13.3875 68.2734 13.1945 68.5596C13.0015 68.8459 12.9008 69.184 12.9058 69.5289C12.903 69.7897 12.9607 70.0477 13.0744 70.2826C13.1881 70.5176 13.3548 70.7231 13.5613 70.8833L13.5545 70.8698ZM17.6299 70.0571L16.1322 68.5639C16.3865 68.5468 16.637 68.4932 16.876 68.4047C17.0479 68.3527 17.2068 68.2648 17.342 68.1469C17.4773 68.029 17.5858 67.8837 17.6605 67.7207V70.0706L17.6299 70.0571Z" fill="#C14524"/>
<path fill-rule="evenodd" clip-rule="evenodd" d="M38.0879 12.6841L36.4204 14.3398V13.2902L38.037 11.6682H37.4189L36.4 12.6841V11.8138L36.5426 11.6682H35.4083V12.1897V12.8161V13.6626V14.2789V15.3286V15.9448V16.9945V17.6074V18.6503V19.2665V20.3162V20.9325V21.8196H35.5679H36.186H36.3966V21.6131L38.0675 19.9641V19.3342L36.417 20.9934V19.9437L38.0879 18.2846V17.6683L36.417 19.3207V18.2846L38.0879 16.6322V16.0091L36.417 17.6615V16.6186L38.0879 14.9629V14.35L36.417 16.0058V14.9561L38.0845 13.3003V12.6841H38.0879ZM39.3105 10.4188H39.7962V9.93458L49.4244 0.372383C49.4648 0.331241 49.4875 0.275928 49.4875 0.218318C49.4875 0.160708 49.4648 0.105394 49.4244 0.0642524C49.3831 0.0239254 49.3276 0.00133747 49.2698 0.00133747C49.212 0.00133747 49.1566 0.0239254 49.1153 0.0642524L39.7962 9.31832V8.4007L47.7466 0.372383C47.7671 0.35223 47.7833 0.328237 47.7944 0.301791C47.8054 0.275346 47.8111 0.246975 47.8111 0.218318C47.8111 0.189662 47.8054 0.161289 47.7944 0.134844C47.7833 0.108398 47.7671 0.0844052 47.7466 0.0642524C47.7054 0.0239254 47.6499 0.00133747 47.5921 0.00133747C47.5343 0.00133747 47.4789 0.0239254 47.4376 0.0642524L39.7962 7.78783V6.70429L46.0655 0.372383C46.086 0.35223 46.1022 0.328237 46.1133 0.301791C46.1243 0.275346 46.13 0.246975 46.13 0.218318C46.13 0.189662 46.1243 0.161289 46.1133 0.134844C46.1022 0.108398 46.086 0.0844052 46.0655 0.0642524C46.0456 0.0439809 46.0218 0.027877 45.9956 0.0168828C45.9693 0.00588854 45.9412 0.000225337 45.9127 0.000225337C45.8842 0.000225337 45.8561 0.00588854 45.8298 0.0168828C45.8036 0.027877 45.7798 0.0439809 45.7599 0.0642524L39.7962 6.0948V5.01804L44.3844 0.372383C44.4249 0.331241 44.4475 0.275928 44.4475 0.218318C44.4475 0.160708 44.4249 0.105394 44.3844 0.0642524C44.3432 0.0239254 44.2877 0.00133747 44.2299 0.00133747C44.1721 0.00133747 44.1166 0.0239254 44.0754 0.0642524L39.7962 4.40178V3.32163L42.7067 0.385927C42.7464 0.344379 42.7685 0.289219 42.7685 0.231863C42.7685 0.174506 42.7464 0.119345 42.7067 0.0777969C42.6654 0.0374699 42.61 0.014882 42.5522 0.014882C42.4944 0.014882 42.4389 0.0374699 42.3977 0.0777969L39.7996 2.70198V1.62522L41.0256 0.372383C41.046 0.35223 41.0623 0.328237 41.0733 0.301791C41.0844 0.275346 41.0901 0.246975 41.0901 0.218318C41.0901 0.189662 41.0844 0.161289 41.0733 0.134844C41.0623 0.108398 41.046 0.0844052 41.0256 0.0642524C40.9843 0.0239254 40.9289 0.00133747 40.8711 0.00133747C40.8133 0.00133747 40.7578 0.0239254 40.7165 0.0642524L39.6977 1.10716L39.1441 0.589091L39.3581 0.372383C39.3785 0.35223 39.3947 0.328237 39.4058 0.301791C39.4169 0.275346 39.4226 0.246975 39.4226 0.218318C39.4226 0.189662 39.4169 0.161289 39.4058 0.134844C39.3947 0.108398 39.3785 0.0844052 39.3581 0.0642524C39.3382 0.0439809 39.3144 0.027877 39.2881 0.0168828C39.2619 0.00588854 39.2337 0.000225337 39.2053 0.000225337C39.1768 0.000225337 39.1486 0.00588854 39.1224 0.0168828C39.0961 0.027877 39.0723 0.0439809 39.0524 0.0642524L38.8283 0.291118V10.4188H39.3105ZM38.0879 1.01573L36.417 2.70876V1.63199L37.6634 0.372383C37.6838 0.35223 37.7 0.328237 37.7111 0.301791C37.7222 0.275346 37.7279 0.246975 37.7279 0.218318C37.7279 0.189662 37.7222 0.161289 37.7111 0.134844C37.7 0.108398 37.6838 0.0844052 37.6634 0.0642524C37.6221 0.0239254 37.5666 0.00133747 37.5089 0.00133747C37.4511 0.00133747 37.3956 0.0239254 37.3543 0.0642524L36.3355 1.08007L35.7819 0.562002L35.9857 0.358839C36.0061 0.338687 36.0223 0.314693 36.0334 0.288248C36.0445 0.261803 36.0502 0.23343 36.0502 0.204774C36.0502 0.176117 36.0445 0.147746 36.0334 0.1213C36.0223 0.0948552 36.0061 0.070862 35.9857 0.0507092C35.9444 0.0103822 35.8889 -0.012207 35.8311 -0.012207C35.7734 -0.012207 35.7179 0.0103822 35.6766 0.0507092L35.4695 0.264029L35.4287 0.226782V10.3748H35.5544L35.5102 10.4188H36.1215L36.1691 10.3748H36.4204V10.1174L38.0913 8.4244V7.80476L36.4204 9.49778V8.42102L38.0913 6.72799V6.10835L36.4204 7.80137V6.72461L38.0913 5.03158V4.41194L36.4204 6.10496V5.02481L38.0913 3.33179V2.70876L36.4204 4.40178V3.32502L38.0913 1.63199V1.01573H38.0879ZM34.6917 1.03605L26.0213 9.81946V8.73931L34.3012 0.372383C34.3416 0.331241 34.3643 0.275928 34.3643 0.218318C34.3643 0.160708 34.3416 0.105394 34.3012 0.0642524C34.2599 0.0239254 34.2044 0.00133747 34.1466 0.00133747C34.0889 0.00133747 34.0334 0.0239254 33.9921 0.0642524L26.0213 8.12643V7.0429L32.6235 0.372383C32.6639 0.331241 32.6866 0.275928 32.6866 0.218318C32.6866 0.160708 32.6639 0.105394 32.6235 0.0642524C32.5822 0.0239254 32.5267 0.00133747 32.4689 0.00133747C32.4111 0.00133747 32.3557 0.0239254 32.3144 0.0642524L26.0213 6.43341V5.35665L30.9457 0.382542C30.9854 0.340993 31.0075 0.285832 31.0075 0.228476C31.0075 0.17112 30.9854 0.11596 30.9457 0.0744114C30.9045 0.0340844 30.849 0.0114952 30.7912 0.0114952C30.7334 0.0114952 30.678 0.0340844 30.6367 0.0744114L26.0213 4.74038V3.66024L29.2646 0.385927C29.3051 0.344785 29.3277 0.289473 29.3277 0.231863C29.3277 0.174253 29.3051 0.118939 29.2646 0.0777969C29.2447 0.0575254 29.2209 0.0414215 29.1947 0.0304273C29.1685 0.019433 29.1403 0.0137698 29.1118 0.0137698C29.0833 0.0137698 29.0552 0.019433 29.0289 0.0304273C29.0027 0.0414215 28.9789 0.0575254 28.959 0.0777969L26.0213 3.04736V1.96721L27.5835 0.389314C27.624 0.348172 27.6466 0.292858 27.6466 0.235248C27.6466 0.177638 27.624 0.122325 27.5835 0.0811836C27.5423 0.0408566 27.4868 0.0182674 27.429 0.0182674C27.3712 0.0182674 27.3157 0.0408566 27.2745 0.0811836L26.0213 1.34756V1.23244L25.5254 0.768551L25.9024 0.389314C25.9429 0.348172 25.9655 0.292858 25.9655 0.235248C25.9655 0.177638 25.9429 0.122325 25.9024 0.0811836C25.8612 0.0408566 25.8057 0.0182674 25.7479 0.0182674C25.6901 0.0182674 25.6346 0.0408566 25.5934 0.0811836L25.2096 0.470578L25.0296 0.301276V10.4188H26.0485L34.7155 1.66247V1.04282L34.6917 1.03605ZM24.3096 1.35434L22.6387 3.04736V1.96721L24.2247 0.368997C24.2652 0.327855 24.2878 0.272541 24.2878 0.214931C24.2878 0.157321 24.2652 0.102009 24.2247 0.0608669C24.1834 0.0205399 24.128 -0.00204801 24.0702 -0.00204801C24.0124 -0.00204801 23.9569 0.0205399 23.9157 0.0608669L22.6387 1.35434V1.17149L22.1802 0.741462L22.5436 0.375769C22.564 0.355617 22.5803 0.331623 22.5913 0.305178C22.6024 0.278733 22.6081 0.25036 22.6081 0.221704C22.6081 0.193047 22.6024 0.164676 22.5913 0.13823C22.5803 0.111785 22.564 0.0877919 22.5436 0.0676391C22.5237 0.0473676 22.4999 0.0312625 22.4737 0.0202683C22.4474 0.00927402 22.4192 0.00361211 22.3908 0.00361211C22.3623 0.00361211 22.3341 0.00927402 22.3079 0.0202683C22.2816 0.0312625 22.2579 0.0473676 22.2379 0.0676391L21.8644 0.443491L21.6504 0.243714V10.3748H22.1123L22.0681 10.4188H22.6794L24.313 8.76978V8.15013L22.6421 9.84316V8.75962L24.313 7.0666V6.44695L22.6421 8.13998V7.06321L24.313 5.37019V4.75054L22.6421 6.44357V5.3668L24.313 3.67378V3.04736L22.6421 4.74038V3.66362L24.313 1.9706V1.35434H24.3096ZM20.9134 1.37465L11.9849 10.4188H12.5962L20.9304 2.00107V1.38143L20.9134 1.37465ZM10.7453 11.6682L9.61435 12.8127C9.5739 12.8539 9.55125 12.9092 9.55125 12.9668C9.55125 13.0244 9.5739 13.0797 9.61435 13.1209C9.65562 13.1612 9.7111 13.1838 9.76888 13.1838C9.82666 13.1838 9.88214 13.1612 9.92341 13.1209L11.3566 11.6682H10.7453ZM20.9338 3.07784L13.6626 10.4188H14.2637L20.9168 3.69748V3.07784H20.9338ZM12.4264 11.6682L9.61435 14.5091C9.5739 14.5503 9.55125 14.6056 9.55125 14.6632C9.55125 14.7208 9.5739 14.7761 9.61435 14.8173C9.63457 14.8376 9.65863 14.8538 9.68516 14.8648C9.71168 14.8759 9.74014 14.8816 9.76888 14.8816C9.79762 14.8816 9.82608 14.8759 9.8526 14.8648C9.87913 14.8538 9.90319 14.8376 9.92341 14.8173L13.0377 11.6682H12.4264ZM20.9168 4.77424L15.3437 10.4188H15.9618L20.9338 5.39389V4.77424H20.9168ZM14.1041 11.6682L9.61435 16.2055C9.5739 16.2467 9.55125 16.302 9.55125 16.3596C9.55125 16.4172 9.5739 16.4725 9.61435 16.5137C9.65562 16.554 9.7111 16.5766 9.76888 16.5766C9.82666 16.5766 9.88214 16.554 9.92341 16.5137L14.7188 11.6682H14.1041ZM20.9304 6.47404L17.0248 10.4188H17.6361L20.9304 7.0903V6.47404ZM15.7852 11.6682L9.92001 17.6074L11.18 16.9302L16.3999 11.6682H15.7852ZM20.9304 8.17045L18.7025 10.4188H19.3172L20.9304 8.80364V8.17045ZM17.4663 11.6682L13.3909 15.7992L14.6509 15.1457L18.081 11.6682H17.4663ZM20.9304 9.86686L20.3768 10.4188H20.9236V9.86686H20.9304ZM19.1474 11.6682L16.8346 14.0046L18.0946 13.3511L19.7587 11.6581L19.1474 11.6682ZM20.8251 11.6682L19.3206 13.2055L19.718 13.4256L20.9304 12.1897V11.6682H20.8251ZM24.3096 9.84654L23.7458 10.4188H24.3096V9.84654ZM22.5062 11.6682H21.6504V13.1547V14.2213V14.4685L22.9715 15.2033L24.313 13.8489V13.2428L22.6455 14.9358V13.8489L24.313 12.1558V11.6682H24.1907L22.6455 13.2292V12.1491L23.121 11.6682H22.5062ZM20.9304 13.2631L20.404 13.7913L20.8014 14.0114L20.9304 13.8793V13.2631ZM24.3266 14.9392L23.6745 15.6164L24.0685 15.8365L24.3266 15.5724V14.9392ZM26.2386 17.0216L31.5197 11.6682H30.905L26.0009 16.6254V15.5453L29.8386 11.6682H29.2273L26.0009 14.9256V13.8489L28.1575 11.6682H27.5462L26.0043 13.2292V12.1491L26.49 11.6682H25.0296V16.3613L26.2217 17.0216H26.2386ZM32.7763 10.4188L34.7053 8.46504V7.84539L32.1446 10.4323L32.7763 10.4188ZM34.7223 9.52826L33.8257 10.4188H34.437L34.7053 10.1479V9.52826H34.7223ZM32.6031 11.6682L26.9077 17.4042L27.2847 17.6141H27.305L33.2008 11.6682H32.6031ZM34.2842 11.6682L27.9911 18.0069L28.3884 18.227L34.7053 11.8511V11.6682H34.2842ZM38.1049 9.50794L37.2015 10.4188H37.8162L38.1049 10.1276V9.50794ZM34.7087 12.9211L29.0778 18.6232L29.4718 18.8433L34.7053 13.5441V12.9211H34.7087ZM34.7087 14.3737L29.9541 19.1142L30.3548 19.3342L34.7087 15.0069V14.3737ZM34.7087 16.0396L31.0273 19.6932L31.4246 19.9133L34.7053 16.6559V16.0396H34.7087ZM34.7087 17.7022L32.1004 20.2891L32.2159 20.3534L32.4978 20.5092L34.7087 18.315V17.7022ZM34.7087 19.3546L33.1668 20.8817L33.5642 21.1018L34.7053 19.9776V19.3546H34.7087ZM34.7087 21.0103L34.24 21.4776L34.6374 21.6977L34.7087 21.6266V21.0103ZM38.1049 20.9934L37.2762 21.8095H37.8977L38.1049 21.6063V20.9934ZM38.8215 21.8027H38.9879H39.6094H39.7962V21.6198L49.7606 11.7664C49.7952 11.7319 49.8173 11.6869 49.8234 11.6385C49.8296 11.5901 49.8194 11.541 49.7945 11.4989V11.6682H49.2444L39.7758 20.9934V19.937L48.1576 11.6682H47.5463L39.7792 19.3241V18.2846L46.4663 11.6682H45.8482L39.7826 17.6615V16.6085L44.775 11.6682H44.1501L39.7792 15.9956V14.9459L43.0871 11.6682H42.469L39.7792 14.3331V13.2834L41.4094 11.6682H40.7913L39.7724 12.6841V11.6682H38.7977V21.8027H38.8215ZM37.6973 23.0589L37.3815 23.3704L37.7415 23.6278L38.0811 23.2892V23.0589H37.6973ZM49.4244 10.4188L49.764 10.0802C49.8046 10.0385 49.8274 9.98259 49.8274 9.92442C49.8274 9.86625 49.8046 9.81038 49.764 9.76867C49.7227 9.72834 49.6672 9.70575 49.6094 9.70575C49.5517 9.70575 49.4962 9.72834 49.4549 9.76867L48.8028 10.4188H49.4244ZM47.7263 10.4188L49.764 8.41425C49.8044 8.3731 49.8271 8.31779 49.8271 8.26018C49.8271 8.20257 49.8044 8.14726 49.764 8.10612C49.744 8.08532 49.72 8.06878 49.6935 8.05747C49.6669 8.04617 49.6383 8.04034 49.6094 8.04034C49.5806 8.04034 49.552 8.04617 49.5254 8.05747C49.4989 8.06878 49.4749 8.08532 49.4549 8.10612L47.1116 10.4188H47.7263ZM46.0282 10.4188L49.764 6.73815C49.8044 6.69701 49.8271 6.6417 49.8271 6.58409C49.8271 6.52648 49.8044 6.47116 49.764 6.43002C49.7227 6.3897 49.6672 6.36711 49.6094 6.36711C49.5517 6.36711 49.4962 6.3897 49.4549 6.43002L45.4169 10.4188H46.0282ZM44.3301 10.4188L49.7606 5.07899C49.801 5.03785 49.8237 4.98253 49.8237 4.92492C49.8237 4.86731 49.801 4.812 49.7606 4.77086C49.7193 4.73053 49.6638 4.70794 49.606 4.70794C49.5483 4.70794 49.4928 4.73053 49.4515 4.77086L43.7324 10.4188H44.3301ZM42.649 10.4188L49.7606 3.38597C49.801 3.34482 49.8237 3.28951 49.8237 3.2319C49.8237 3.17429 49.801 3.11898 49.7606 3.07784C49.7185 3.03905 49.6633 3.0175 49.606 3.0175C49.5488 3.0175 49.4936 3.03905 49.4515 3.07784L42.0512 10.4188H42.649ZM40.9509 10.4188L49.7606 1.71326C49.801 1.67212 49.8237 1.6168 49.8237 1.55919C49.8237 1.50158 49.801 1.44627 49.7606 1.40513C49.7193 1.3648 49.6638 1.34221 49.606 1.34221C49.5483 1.34221 49.4928 1.3648 49.4515 1.40513L40.3701 10.4188H40.9509ZM49.4142 13.1276L40.6588 21.8095H41.2803L49.7708 13.4391C49.8112 13.398 49.8339 13.3427 49.8339 13.2851C49.8339 13.2275 49.8112 13.1722 49.7708 13.131C49.7505 13.1106 49.7265 13.0945 49.7 13.0834C49.6734 13.0724 49.645 13.0667 49.6162 13.0667C49.5875 13.0667 49.559 13.0724 49.5325 13.0834C49.506 13.0945 49.4819 13.1106 49.4617 13.131L49.4142 13.1276ZM39.3954 23.0589H38.8079V33.1832H39.3071H39.9286L49.7776 23.472C49.7978 23.4518 49.8139 23.4277 49.8249 23.4013C49.8359 23.3749 49.8416 23.3465 49.8416 23.3179C49.8416 23.2893 49.8359 23.261 49.8249 23.2346C49.8139 23.2081 49.7978 23.1841 49.7776 23.1639C49.7573 23.1436 49.7332 23.1276 49.7067 23.1166C49.6801 23.1057 49.6517 23.1001 49.623 23.1001C49.5943 23.1001 49.5659 23.1057 49.5394 23.1166C49.5129 23.1276 49.4888 23.1436 49.4685 23.1639L39.7758 32.7261V31.6662L48.4972 23.0589H47.8859L39.7792 31.0534V29.9935L46.8025 23.0589H46.1878L39.7792 29.3807V28.3208L45.1044 23.0589H44.4897L39.7792 27.7079V26.6447L43.4097 23.0589H42.7916L39.7826 26.0319V24.972L41.7184 23.0589H41.0935L39.7792 24.3558V23.2892L40.0135 23.0589H39.3954ZM38.0913 24.349L37.9283 24.5115V25.121L38.0913 24.9619V24.349ZM38.0913 26.042L37.9283 26.2012V26.814L38.0913 26.6549V26.0285V26.042ZM38.0913 27.7147L37.1947 28.5985V29.2113L38.0913 28.3276V27.7012V27.7147ZM38.0913 29.3908L37.1947 30.2746V30.8874L38.0913 30.0037V29.3773V29.3908ZM38.0913 31.0635L37.7177 31.4292C37.8046 31.5609 37.8507 31.7152 37.8502 31.8728V31.9134L38.0913 31.6764V31.05V31.0635ZM36.5019 32.6313L36.4102 32.7227V33.2137H36.5325L37.0657 32.6888H37.0181C36.8421 32.6914 36.6663 32.6721 36.4951 32.6313H36.5019ZM38.0913 32.7362L37.6057 33.2137H38.0913V32.7227V32.7362ZM36.4102 35.0049L36.9604 34.4631H36.4068V35.0049H36.4102ZM38.0336 34.4631L36.4102 36.0647V36.6776L38.0913 35.0218V34.4496L38.0336 34.4631ZM49.764 21.8095C49.784 21.789 49.7999 21.7648 49.8106 21.7382C49.8213 21.7117 49.8266 21.6833 49.8263 21.6547C49.826 21.6261 49.82 21.5978 49.8087 21.5715C49.7975 21.5452 49.7811 21.5213 49.7606 21.5013C49.7401 21.4813 49.7158 21.4655 49.6892 21.4549C49.6625 21.4442 49.634 21.4389 49.6053 21.4392C49.5766 21.4395 49.5483 21.4455 49.5219 21.4567C49.4955 21.4679 49.4716 21.4843 49.4515 21.5047L49.1459 21.8095H49.764ZM48.0659 21.8095L49.764 20.1401C49.7991 20.0981 49.8173 20.0445 49.815 19.9898C49.8126 19.9352 49.79 19.8833 49.7514 19.8444C49.7128 19.8055 49.661 19.7823 49.6062 19.7794C49.5514 19.7765 49.4975 19.794 49.4549 19.8286L47.4512 21.8095H48.0659ZM46.3678 21.8095L49.764 18.464C49.805 18.4232 49.828 18.3678 49.828 18.31C49.828 18.2522 49.805 18.1968 49.764 18.1559C49.723 18.115 49.6674 18.0921 49.6094 18.0921C49.5515 18.0921 49.4959 18.115 49.4549 18.1559L45.7531 21.8095H46.3678ZM44.6697 21.8095L49.764 16.7879C49.805 16.7471 49.828 16.6917 49.828 16.6339C49.828 16.5761 49.805 16.5207 49.764 16.4798C49.723 16.439 49.6674 16.416 49.6094 16.416C49.5515 16.416 49.4959 16.439 49.4549 16.4798L44.055 21.8095H44.6697ZM42.9716 21.8095L49.764 15.1152C49.8044 15.0741 49.8271 15.0188 49.8271 14.9612C49.8271 14.9036 49.8044 14.8482 49.764 14.8071C49.7438 14.7867 49.7197 14.7706 49.6932 14.7595C49.6666 14.7485 49.6382 14.7428 49.6094 14.7428C49.5807 14.7428 49.5522 14.7485 49.5257 14.7595C49.4992 14.7706 49.4751 14.7867 49.4549 14.8071L42.3603 21.8095H42.9716ZM49.4413 24.8569L40.995 33.2001H41.6165L49.7674 25.165C49.8083 25.1242 49.8314 25.0687 49.8314 25.011C49.8314 24.9532 49.8083 24.8978 49.7674 24.8569C49.7471 24.8367 49.723 24.8206 49.6965 24.8097C49.67 24.7987 49.6415 24.7931 49.6128 24.7931C49.5549 24.7931 49.4993 24.816 49.4583 24.8569H49.4413ZM39.7351 34.4496H38.8113V44.584H39.6705C39.6786 44.6275 39.7013 44.667 39.7351 44.6957C39.7763 44.7361 39.8318 44.7587 39.8896 44.7587C39.9474 44.7587 40.0028 44.7361 40.0441 44.6957L49.7606 35.2148C49.7813 35.1949 49.7979 35.1711 49.8093 35.1447C49.8208 35.1184 49.8268 35.09 49.8272 35.0613C49.8275 35.0326 49.8222 35.0042 49.8114 34.9775C49.8006 34.9509 49.7846 34.9267 49.7644 34.9063C49.7441 34.8859 49.72 34.8697 49.6934 34.8587C49.6669 34.8476 49.6384 34.8419 49.6096 34.842C49.5808 34.842 49.5523 34.8478 49.5257 34.8589C49.4992 34.87 49.4751 34.8862 49.4549 34.9067L39.7758 44.3571V43.3413L48.8334 34.4496H48.2255L39.7792 42.7183V41.7025L47.1319 34.4496H46.5274L39.7792 41.0761V40.0332L45.4406 34.4496H44.8293L39.7792 39.4203V38.3605L43.7425 34.4496H43.1312L39.7894 37.7476V36.6877L42.0546 34.4496H41.4331L39.7894 36.0749V35.0116L40.36 34.4496H39.7351ZM38.0947 36.0681L36.4136 37.7273V38.3401L38.0947 36.681V36.0681ZM38.0947 37.7611L36.4136 39.4169V40.0298L38.0947 38.374V37.7442V37.7611ZM38.0947 39.4338L36.4068 41.0727V41.6856L38.0879 40.0298V39.4169L38.0947 39.4338ZM38.0947 41.1031L36.4136 42.7623V43.3752L38.0947 41.7194V41.0862V41.1031ZM38.0947 42.7589L36.417 44.4113V44.6957C36.4583 44.7361 36.5137 44.7587 36.5715 44.7587C36.6293 44.7587 36.6848 44.7361 36.726 44.6957L38.0845 43.3413V42.742L38.0947 42.7589ZM38.0947 44.391L38.0743 44.4113C38.054 44.4312 38.0378 44.4549 38.0268 44.481C38.0158 44.5072 38.0101 44.5353 38.0101 44.5637C38.0101 44.5921 38.0158 44.6202 38.0268 44.6463C38.0378 44.6725 38.054 44.6962 38.0743 44.7161C38.1175 44.7526 38.1732 44.7708 38.2296 44.7671C38.286 44.7633 38.3388 44.7377 38.3766 44.6957L38.4988 44.5772H38.0913V44.3673L38.0947 44.391ZM49.73 33.217C49.6954 33.1954 49.6554 33.1839 49.6145 33.1839C49.5737 33.1839 49.5337 33.1954 49.4991 33.217H49.73ZM48.4089 33.217L49.7674 31.8829C49.8088 31.8425 49.8324 31.7874 49.8331 31.7296C49.8337 31.6718 49.8113 31.6161 49.7708 31.5748C49.7302 31.5335 49.6749 31.5099 49.6169 31.5093C49.559 31.5087 49.5031 31.531 49.4617 31.5714L47.7874 33.217H48.4089ZM46.7108 33.217L49.7674 30.2068C49.8078 30.1657 49.8305 30.1104 49.8305 30.0528C49.8305 29.9952 49.8078 29.9399 49.7674 29.8987C49.7257 29.8592 49.6704 29.8371 49.6128 29.8371C49.5553 29.8371 49.5 29.8592 49.4583 29.8987L46.0859 33.2001L46.7108 33.217ZM45.0127 33.217L49.7674 28.5308C49.7877 28.5105 49.8038 28.4865 49.8147 28.4601C49.8257 28.4336 49.8314 28.4053 49.8314 28.3767C49.8314 28.3481 49.8257 28.3197 49.8147 28.2933C49.8038 28.2669 49.7877 28.2429 49.7674 28.2226C49.7471 28.2024 49.723 28.1863 49.6965 28.1754C49.67 28.1644 49.6415 28.1588 49.6128 28.1588C49.5841 28.1588 49.5557 28.1644 49.5292 28.1754C49.5027 28.1863 49.4786 28.2024 49.4583 28.2226L44.3878 33.2001L45.0127 33.217ZM43.3146 33.217L49.7674 26.858C49.8078 26.8169 49.8305 26.7616 49.8305 26.704C49.8305 26.6464 49.8078 26.5911 49.7674 26.5499C49.7472 26.5295 49.7231 26.5134 49.6966 26.5023C49.67 26.4913 49.6416 26.4856 49.6128 26.4856C49.5841 26.4856 49.5556 26.4913 49.5291 26.5023C49.5026 26.5134 49.4785 26.5295 49.4583 26.5499L42.6897 33.2001L43.3146 33.217ZM49.4549 36.5692L41.3856 44.391C41.3459 44.4325 41.3238 44.4877 41.3238 44.5451C41.3238 44.6024 41.3459 44.6576 41.3856 44.6991C41.4274 44.7397 41.4835 44.7624 41.5418 44.7624C41.6002 44.7624 41.6562 44.7397 41.698 44.6991L49.7606 36.9078C49.8012 36.8661 49.824 36.8102 49.824 36.7521C49.824 36.6939 49.8012 36.638 49.7606 36.5963C49.7193 36.556 49.6638 36.5334 49.606 36.5334C49.5483 36.5334 49.4928 36.556 49.4515 36.5963L49.4549 36.5692ZM49.4549 38.2623L43.0463 44.391C43.0259 44.4112 43.0097 44.4351 42.9986 44.4616C42.9875 44.488 42.9818 44.5164 42.9818 44.5451C42.9818 44.5737 42.9875 44.6021 42.9986 44.6285C43.0097 44.655 43.0259 44.679 43.0463 44.6991C43.0876 44.7395 43.1431 44.762 43.2009 44.762C43.2586 44.762 43.3141 44.7395 43.3554 44.6991L49.7572 38.5704C49.7779 38.5506 49.7945 38.5269 49.8061 38.5007C49.8177 38.4745 49.8239 38.4463 49.8246 38.4177C49.8252 38.3891 49.8202 38.3607 49.8098 38.334C49.7994 38.3073 49.7838 38.2829 49.764 38.2623C49.7441 38.2416 49.7204 38.225 49.6941 38.2135C49.6678 38.2019 49.6395 38.1957 49.6108 38.1951C49.5821 38.1944 49.5536 38.1994 49.5269 38.2098C49.5001 38.2202 49.4757 38.2357 49.4549 38.2555V38.2623ZM49.4549 39.935L44.7037 44.391C44.6632 44.4321 44.6406 44.4875 44.6406 44.5451C44.6406 44.6027 44.6632 44.658 44.7037 44.6991C44.7453 44.7387 44.8007 44.7607 44.8582 44.7607C44.9157 44.7607 44.971 44.7387 45.0127 44.6991L49.7674 40.2397C49.8097 40.2002 49.8346 40.1455 49.8365 40.0877C49.8384 40.03 49.8172 39.9738 49.7776 39.9316C49.7379 39.8894 49.6831 39.8646 49.6251 39.8627C49.5672 39.8608 49.5108 39.8819 49.4685 39.9214L49.4549 39.935ZM49.4549 41.6077L46.3644 44.3876C46.3421 44.407 46.3238 44.4305 46.3107 44.4569C46.2975 44.4832 46.2896 44.512 46.2876 44.5414C46.2855 44.5708 46.2893 44.6003 46.2987 44.6282C46.3081 44.6562 46.3229 44.682 46.3423 44.7042C46.3617 44.7264 46.3853 44.7446 46.4118 44.7578C46.4382 44.7709 46.467 44.7787 46.4965 44.7808C46.526 44.7828 46.5556 44.7791 46.5836 44.7697C46.6117 44.7603 46.6376 44.7456 46.6599 44.7262L49.7538 41.9395C49.7741 41.9196 49.7903 41.8959 49.8013 41.8698C49.8123 41.8436 49.818 41.8155 49.818 41.7871C49.818 41.7588 49.8123 41.7307 49.8013 41.7045C49.7903 41.6783 49.7741 41.6546 49.7538 41.6348C49.7339 41.6145 49.7101 41.5984 49.6838 41.5874C49.6576 41.5764 49.6294 41.5707 49.6009 41.5707C49.5725 41.5707 49.5443 41.5764 49.5181 41.5874C49.4918 41.5984 49.468 41.6145 49.4481 41.6348L49.4549 41.6077ZM49.4549 43.2702L48.0183 44.3842C47.9792 44.4215 47.9554 44.472 47.9516 44.5258C47.9478 44.5797 47.9643 44.633 47.9979 44.6753C48.0314 44.7177 48.0796 44.746 48.133 44.7548C48.1864 44.7636 48.2412 44.7522 48.2866 44.7228L49.7232 43.6122C49.7458 43.5947 49.7646 43.5729 49.7787 43.548C49.7928 43.5232 49.8019 43.4959 49.8054 43.4676C49.8088 43.4393 49.8067 43.4105 49.799 43.3831C49.7913 43.3556 49.7782 43.3299 49.7606 43.3075C49.725 43.2623 49.6731 43.2327 49.616 43.2251C49.5589 43.2175 49.5011 43.2325 49.4549 43.2668V43.2702ZM34.7053 2.73923L27.1047 10.4188H27.716L34.7053 3.35888V2.73923ZM34.7053 4.43225L28.7858 10.4188H29.3971L34.7053 5.05529V4.43564V4.43225ZM34.7053 6.12528L30.4635 10.4188H31.0782L34.7053 6.7517V6.13544V6.12528ZM20.5534 0.0642524L10.3038 10.4188H10.9151L20.8625 0.372383C20.9029 0.331241 20.9256 0.275928 20.9256 0.218318C20.9256 0.160708 20.9029 0.105394 20.8625 0.0642524C20.8212 0.0239254 20.7657 0.00133747 20.708 0.00133747C20.6502 0.00133747 20.5947 0.0239254 20.5534 0.0642524ZM18.8554 0.0642524L9.61435 9.41652C9.5739 9.45766 9.55125 9.51297 9.55125 9.57058C9.55125 9.62819 9.5739 9.6835 9.61435 9.72465C9.65562 9.76497 9.7111 9.78756 9.76888 9.78756C9.82666 9.78756 9.88214 9.76497 9.92341 9.72465L19.1848 0.372383C19.2244 0.330834 19.2466 0.275674 19.2466 0.218318C19.2466 0.160962 19.2244 0.105801 19.1848 0.0642524C19.1435 0.0239254 19.088 0.00133747 19.0303 0.00133747C18.9725 0.00133747 18.917 0.0239254 18.8757 0.0642524H18.8554ZM17.1742 0.0642524L9.61435 7.72011C9.5739 7.76125 9.55125 7.81656 9.55125 7.87417C9.55125 7.93178 9.5739 7.98709 9.61435 8.02824C9.65562 8.06856 9.7111 8.09115 9.76888 8.09115C9.82666 8.09115 9.88214 8.06856 9.92341 8.02824L17.5037 0.372383C17.5241 0.35223 17.5403 0.328237 17.5514 0.301791C17.5625 0.275346 17.5682 0.246975 17.5682 0.218318C17.5682 0.189662 17.5625 0.161289 17.5514 0.134844C17.5403 0.108398 17.5241 0.0844052 17.5037 0.0642524C17.4624 0.0239254 17.4069 0.00133747 17.3491 0.00133747C17.2914 0.00133747 17.2359 0.0239254 17.1946 0.0642524H17.1742ZM15.4965 0.0642524L9.59737 6.0237C9.55693 6.06484 9.53427 6.12015 9.53427 6.17776C9.53427 6.23537 9.55693 6.29069 9.59737 6.33183C9.61759 6.3522 9.64165 6.36837 9.66817 6.37941C9.6947 6.39045 9.72315 6.39613 9.7519 6.39613C9.78064 6.39613 9.8091 6.39045 9.83562 6.37941C9.86215 6.36837 9.88621 6.3522 9.90642 6.33183L15.8226 0.372383C15.863 0.331241 15.8857 0.275928 15.8857 0.218318C15.8857 0.160708 15.863 0.105394 15.8226 0.0642524C15.7813 0.0239254 15.7258 0.00133747 15.668 0.00133747C15.6103 0.00133747 15.5548 0.0239254 15.5135 0.0642524H15.4965ZM13.7984 0.0642524L9.58039 4.32729C9.53994 4.36843 9.51729 4.42374 9.51729 4.48135C9.51729 4.53896 9.53994 4.59428 9.58039 4.63542C9.62166 4.67574 9.67714 4.69833 9.73492 4.69833C9.7927 4.69833 9.84818 4.67574 9.88944 4.63542L14.1415 0.372383C14.1619 0.35223 14.1781 0.328237 14.1892 0.301791C14.2003 0.275346 14.206 0.246975 14.206 0.218318C14.206 0.189662 14.2003 0.161289 14.1892 0.134844C14.1781 0.108398 14.1619 0.0844052 14.1415 0.0642524C14.1002 0.0239254 14.0447 0.00133747 13.9869 0.00133747C13.9291 0.00133747 13.8737 0.0239254 13.8324 0.0642524H13.7984ZM12.1004 0.0642524L9.56341 2.62749C9.52275 2.6692 9.5 2.72508 9.5 2.78325C9.5 2.84142 9.52275 2.89729 9.56341 2.93901C9.60468 2.97933 9.66015 3.00192 9.71794 3.00192C9.77572 3.00192 9.8312 2.97933 9.87246 2.93901L12.4128 0.375769C12.4533 0.334628 12.4759 0.279314 12.4759 0.221704C12.4759 0.164094 12.4533 0.108781 12.4128 0.0676391C12.3715 0.0273121 12.3161 0.00472424 12.2583 0.00472424C12.2005 0.00472424 12.145 0.0273121 12.1038 0.0676391L12.1004 0.0642524ZM10.4226 0.0642524L9.56341 0.931081C9.52296 0.972223 9.50031 1.02754 9.50031 1.08515C9.50031 1.14276 9.52296 1.19807 9.56341 1.23921C9.60468 1.27954 9.66015 1.30213 9.71794 1.30213C9.77572 1.30213 9.8312 1.27954 9.87246 1.23921L10.7317 0.372383C10.7521 0.35223 10.7684 0.328237 10.7794 0.301791C10.7905 0.275346 10.7962 0.246975 10.7962 0.218318C10.7962 0.189662 10.7905 0.161289 10.7794 0.134844C10.7684 0.108398 10.7521 0.0844052 10.7317 0.0642524C10.7118 0.0439809 10.688 0.027877 10.6618 0.0168828C10.6355 0.00588854 10.6073 0.000225337 10.5789 0.000225337C10.5504 0.000225337 10.5222 0.00588854 10.496 0.0168828C10.4697 0.027877 10.446 0.0439809 10.426 0.0642524H10.4226Z" fill="#9D9897"/>
<path fill-rule="evenodd" clip-rule="evenodd" d="M4.07541 28.8948H4.20447C4.16619 28.9753 4.14646 29.0632 4.14673 29.1522C4.14606 29.2679 4.17741 29.3816 4.23732 29.4808C4.29723 29.58 4.3834 29.6607 4.48635 29.7143V45.9267H2.47921V29.694C2.57603 29.6402 2.65668 29.5617 2.71281 29.4664C2.76894 29.3711 2.79851 29.2627 2.79845 29.1522C2.79872 29.0632 2.77899 28.9753 2.74072 28.8948H4.07541ZM1.35847 60.0059H15.4458V58.3433H1.35847V60.0059ZM34.9433 48.9098V48.0192H1.35847V48.9098H34.9433ZM5.84482 52.3703L5.6886 51.1107H1.35847V52.3669L5.84482 52.3703ZM6.91802 49.7597H1.35847V50.9143H5.7735L5.81426 50.9482V50.9719L5.98746 52.3263H7.06745L6.85349 49.7156L6.91802 49.7597ZM8.29686 49.7597H7.12179L7.33574 52.3703H8.0829L8.29686 49.7597ZM5.91954 53.8771V52.5735H1.35847V53.8771H5.91954ZM5.91954 55.3331V54.0803H1.35847V55.3331H5.91954ZM5.91954 56.6875V55.5397H1.35847V56.6875H5.91954ZM5.91954 58.1435V56.8907H1.35847V58.1435H5.91954ZM28.5754 49.7631L28.7894 52.3737H29.5366L29.7505 49.7631H28.5754ZM34.9365 49.5599V49.1163H1.35847V49.5599H34.9365ZM34.9365 51.1175H31.1328L30.9799 52.3737H34.9229V51.1141L34.9365 51.1175ZM31.058 50.9143H34.9365V49.7631H29.9339L29.7166 52.3737H30.7728L30.9426 51.0193V50.9786H30.9596L31.0003 50.9414H31.0173L31.058 50.9143ZM20.2141 53.1559C20.3561 53.2883 20.4857 53.4333 20.6012 53.5893L22.3706 52.3906H22.3876H22.408H27.3087L27.1524 51.131H21.7593L20.2005 53.1626L20.2141 53.1559ZM19.5348 52.692C19.7127 52.7809 19.8811 52.8875 20.0374 53.0103L21.6167 50.9414H21.6404L21.6744 50.9245H21.6982H27.2407L27.2815 50.9617H27.2985V50.9854L27.4683 52.3398H28.5347L28.3207 49.7292H20.7167L19.528 52.6581L19.5348 52.692ZM18.8556 52.455C19.0302 52.4882 19.2009 52.5393 19.365 52.6073L20.5231 49.7631H19.2665L18.8556 52.455ZM18.0745 52.4211C18.1672 52.416 18.2602 52.416 18.3529 52.4211C18.4548 52.4211 18.5567 52.4211 18.6518 52.4211L19.0594 49.7631H17.6601L18.0677 52.4211H18.0745ZM17.3613 52.6006C17.5266 52.5325 17.6984 52.4815 17.8741 52.4482L17.4631 49.7631H16.2066L17.3613 52.6006ZM16.6413 53.0103C16.803 52.8791 16.9783 52.7656 17.1643 52.6717L15.962 49.7597H8.49045L8.27649 52.3703H9.3293L9.49911 51.0159V50.9786L9.54326 50.9414H9.56024H14.9432H14.9704L15.0043 50.9583H15.0247L16.6413 53.0103ZM16.0979 53.5757C16.2143 53.4205 16.3438 53.2755 16.485 53.1423L14.916 51.1107H9.6859L9.53307 52.3669H14.2877H14.3115L16.0945 53.5588L16.0979 53.5757ZM15.6224 54.4798C15.7055 54.2221 15.8195 53.9754 15.962 53.745L14.2096 52.5735H9.45496H9.43798V53.8636H13.9956L15.5986 54.4595L15.6224 54.4798ZM15.4424 55.3331C15.4582 55.1038 15.498 54.8769 15.5613 54.6559L13.9651 54.0633H9.46175V55.3162L15.4424 55.3331ZM15.4424 56.6875V55.5397H9.47534V56.6875H15.4424ZM15.4424 58.1435V56.8907H9.47534V58.1435H15.4424ZM21.2635 60.0092H34.9399V58.3467H21.2465V60.0092H21.2635ZM30.9086 56.8907V58.1435H34.9331V56.8907H30.9086ZM30.9086 55.5363V56.6841H34.9399V55.5363H30.9086ZM30.9086 54.0803V55.3331H34.9399V54.0803H30.9086ZM30.9086 52.5735V53.8771H34.9399V52.5735H30.9086ZM27.4004 53.8771V52.5735H22.4419L20.7167 53.7518C20.8587 53.9813 20.9727 54.2268 21.0563 54.4832L22.6593 53.8839H27.3834L27.4004 53.8771ZM27.4004 55.3331V54.0803H22.7136L21.1174 54.6762C21.1768 54.891 21.2154 55.111 21.2329 55.3331H27.4004ZM27.4004 56.6875V55.5397H21.2465V56.6875H27.4004ZM27.4004 58.1435V56.8907H21.2465V58.1435H27.4004ZM1.33809 60.2124H1.25319H1.22942H1.19885H1.17508V60.1887V60.1582V58.2756V47.894V47.8669V47.8398H1.19885H1.22942H1.35168C1.38904 47.6434 1.50111 47.1626 1.73545 47.1626C1.75802 46.9917 1.80254 46.8244 1.8679 46.6648L2.01393 46.5362H2.05469V46.079V46.0486V46.0282H2.07506H2.10563H2.24148V29.7651H2.13959H1.71507C1.48629 29.7651 1.26687 29.6744 1.1051 29.5132C0.943326 29.3519 0.852441 29.1331 0.852441 28.905C0.852426 28.6787 0.941908 28.4614 1.10149 28.3004C1.26106 28.1394 1.47787 28.0476 1.70488 28.0449H1.85431V25.0483H1.14791V23.8632H0V22.5968L18.8794 12.7942L36.4919 22.5799L37.9047 23.5957L37.9217 23.6295V27.1747L37.9047 27.2086L37.1847 27.7808V30.9129C37.3694 30.951 37.5352 31.0511 37.6546 31.1966C37.7739 31.3421 37.8394 31.5241 37.8402 31.712C37.8384 31.9282 37.751 32.1349 37.5971 32.2871C37.4432 32.4393 37.2351 32.5247 37.0183 32.5247C36.8329 32.5269 36.648 32.5053 36.4682 32.4604L36.4036 32.44V48.3545H36.7059V48.8895H36.8315C36.9946 48.8895 37.0421 49.5226 37.0455 49.5667H37.0965C37.2832 49.5667 37.3444 50.1355 37.3512 50.2439V62.2779H2.96147L1.32111 60.2463L1.33809 60.2124ZM6.99273 47.8195H9.57043C9.60779 47.6231 9.71986 47.1423 9.9542 47.1423C9.97677 46.9714 10.0213 46.8041 10.0866 46.6445L10.2327 46.5158H10.2734V46.0587V46.0282V46.0079H10.2938H10.3244H10.4602V31.4513H8.36139C8.37225 31.5037 8.37793 31.557 8.37837 31.6105C8.37658 31.8275 8.28884 32.0351 8.13427 32.1879C7.97969 32.3407 7.7708 32.4265 7.5531 32.4265H7.53272C7.35403 32.4252 7.17615 32.4025 7.00292 32.3588H6.93499V47.833L6.99273 47.8195ZM15.2047 47.8195H22.751C22.7884 47.6231 22.9004 47.1423 23.1348 47.1423C23.1573 46.9714 23.2019 46.8041 23.2672 46.6445L23.4133 46.5158H23.454V46.0587V46.0282V46.0079H23.4744H23.5049H23.6408V35.9073H15.1503V47.8161L15.2047 47.8195ZM28.1645 47.8195H30.8101C30.8441 47.6231 30.9596 47.1423 31.1905 47.1423C31.2159 46.9716 31.2615 46.8045 31.3263 46.6445L31.469 46.5158H31.4894H31.5267V46.0824V46.0587V46.0282V46.0079H31.5471H31.5777H31.7135V31.4513H29.5434C29.5485 31.5042 29.5485 31.5575 29.5434 31.6105C29.5447 31.7186 29.5243 31.8259 29.4832 31.9259C29.4422 32.026 29.3813 32.1168 29.3043 32.193C29.2273 32.2691 29.1357 32.329 29.035 32.3692C28.9343 32.4093 28.8265 32.4288 28.7181 32.4265C28.5383 32.4255 28.3592 32.4028 28.1849 32.3588H28.1204V47.833L28.1645 47.8195ZM25.4713 28.8948H25.6004C25.5621 28.9753 25.5424 29.0632 25.5427 29.1522C25.542 29.2679 25.5733 29.3816 25.6332 29.4808C25.6932 29.58 25.7793 29.6607 25.8823 29.7143V45.9267H23.8751V29.694C23.972 29.6402 24.0526 29.5617 24.1087 29.4664C24.1649 29.3711 24.1944 29.2627 24.1944 29.1522C24.1946 29.0632 24.1749 28.9753 24.1366 28.8948H25.4713ZM26.5921 28.2921C26.6741 28.2921 26.7554 28.3082 26.8312 28.3396C26.907 28.3709 26.9759 28.4168 27.0339 28.4746C27.092 28.5325 27.138 28.6011 27.1694 28.6767C27.2008 28.7523 27.217 28.8333 27.217 28.9152C27.217 28.997 27.2008 29.078 27.1694 29.1536C27.138 29.2292 27.092 29.2979 27.0339 29.3557C26.9759 29.4136 26.907 29.4595 26.8312 29.4908C26.7554 29.5221 26.6741 29.5382 26.5921 29.5382H26.1506C26.0479 29.5382 25.9494 29.4975 25.8768 29.4251C25.8042 29.3527 25.7634 29.2546 25.7634 29.1522C25.7712 29.0735 25.8007 28.9986 25.8487 28.9357C25.8967 28.8728 25.9613 28.8244 26.0353 28.796C26.1092 28.7676 26.1896 28.7602 26.2676 28.7746C26.3455 28.7891 26.4179 28.8248 26.4766 28.8779L26.5241 28.9152C26.5466 28.9277 26.5724 28.9326 26.5979 28.9293C26.6234 28.9259 26.6471 28.9144 26.6654 28.8965C26.6838 28.8785 26.6958 28.8552 26.6998 28.8298C26.7037 28.8045 26.6993 28.7786 26.6872 28.756C26.6355 28.668 26.5653 28.5922 26.4815 28.5338C26.3977 28.4753 26.3022 28.4356 26.2015 28.4174H26.1438C25.8621 28.4318 25.5882 28.5143 25.3457 28.6578H24.3846C24.142 28.5143 23.8681 28.4318 23.5865 28.4174H23.5287C23.4281 28.4356 23.3326 28.4753 23.2488 28.5338C23.1649 28.5922 23.0948 28.668 23.0431 28.756C23.031 28.7786 23.0266 28.8045 23.0305 28.8298C23.0344 28.8552 23.0464 28.8785 23.0648 28.8965C23.0831 28.9144 23.1068 28.9259 23.1323 28.9293C23.1578 28.9326 23.1837 28.9277 23.2061 28.9152C23.2215 28.9036 23.2362 28.8912 23.2502 28.8779C23.3093 28.8251 23.3819 28.7896 23.46 28.7753C23.538 28.761 23.6185 28.7684 23.6926 28.7968C23.7667 28.8251 23.8315 28.8733 23.8798 28.936C23.9282 28.9987 23.9583 29.0735 23.9668 29.1522C23.9668 29.2546 23.926 29.3527 23.8534 29.4251C23.7808 29.4975 23.6823 29.5382 23.5797 29.5382H23.1551C22.9894 29.5382 22.8305 29.4726 22.7133 29.3557C22.5961 29.2389 22.5302 29.0804 22.5302 28.9152C22.5302 28.8333 22.5464 28.7523 22.5778 28.6767C22.6092 28.6011 22.6552 28.5325 22.7133 28.4746C22.7713 28.4168 22.8402 28.3709 22.916 28.3396C22.9918 28.3082 23.0731 28.2921 23.1551 28.2921H26.5921ZM26.2525 46.6648H23.488L23.4438 46.719C23.4305 46.7464 23.4191 46.7747 23.4099 46.8036C23.3961 46.8436 23.3847 46.8843 23.3759 46.9255C23.3759 46.9933 23.3453 47.0644 23.3351 47.1185H26.4732C26.4623 46.9812 26.4338 46.8458 26.3883 46.7156L26.3475 46.6648H26.2525ZM22.9921 47.7991H26.7687C26.7517 47.6332 26.7177 47.3556 26.6396 47.3556H23.1348C23.0736 47.3556 23.0125 47.6265 22.9785 47.7991H22.9921ZM23.6714 46.4447H26.1506V46.1061H23.6714V46.4447ZM33.5203 28.8779H33.6493C33.6111 28.9583 33.5913 29.0463 33.5916 29.1353C33.5902 29.2512 33.6212 29.3652 33.6812 29.4645C33.7412 29.5638 33.8278 29.6444 33.9312 29.6973V45.9097H31.9241V29.694C32.0209 29.6402 32.1015 29.5617 32.1577 29.4664C32.2138 29.3711 32.2434 29.2627 32.2433 29.1522C32.2424 29.0629 32.2215 28.975 32.1822 28.8948H33.5067L33.5203 28.8779ZM34.641 28.2921C34.7231 28.2921 34.8043 28.3082 34.8802 28.3396C34.956 28.3709 35.0249 28.4168 35.0829 28.4746C35.1409 28.5325 35.1869 28.6011 35.2183 28.6767C35.2497 28.7523 35.2659 28.8333 35.2659 28.9152C35.265 29.0801 35.1989 29.2381 35.0819 29.3547C34.9649 29.4714 34.8065 29.5373 34.641 29.5382H34.2131C34.111 29.5373 34.0134 29.4962 33.9415 29.4239C33.8696 29.3517 33.8293 29.254 33.8293 29.1522C33.8371 29.0735 33.8666 28.9986 33.9146 28.9357C33.9627 28.8728 34.0272 28.8244 34.1012 28.796C34.1751 28.7676 34.2556 28.7602 34.3335 28.7746C34.4114 28.7891 34.4838 28.8248 34.5425 28.8779L34.5901 28.9152C34.6125 28.9277 34.6384 28.9326 34.6638 28.9293C34.6893 28.9259 34.713 28.9144 34.7314 28.8965C34.7497 28.8785 34.7618 28.8552 34.7657 28.8298C34.7696 28.8045 34.7652 28.7786 34.7531 28.756C34.701 28.6676 34.6303 28.5916 34.5459 28.5331C34.4615 28.4747 34.3653 28.4352 34.264 28.4174H34.2097C33.928 28.4318 33.6541 28.5143 33.4116 28.6578H32.4335C32.1912 28.5138 31.9171 28.4313 31.6354 28.4174H31.5811C31.4804 28.4356 31.3849 28.4753 31.3011 28.5338C31.2173 28.5922 31.1471 28.668 31.0954 28.756C31.0833 28.7786 31.0789 28.8045 31.0828 28.8298C31.0867 28.8552 31.0988 28.8785 31.1171 28.8965C31.1355 28.9144 31.1592 28.9259 31.1847 28.9293C31.2101 28.9326 31.236 28.9277 31.2584 28.9152L31.3026 28.8779C31.3613 28.8248 31.4337 28.7891 31.5116 28.7746C31.5895 28.7602 31.67 28.7676 31.7439 28.796C31.8179 28.8244 31.8824 28.8728 31.9304 28.9357C31.9785 28.9986 32.008 29.0735 32.0158 29.1522C32.0162 29.2027 32.0066 29.2528 31.9875 29.2996C31.9685 29.3465 31.9403 29.389 31.9046 29.4249C31.8689 29.4608 31.8264 29.4893 31.7796 29.5087C31.7329 29.5282 31.6827 29.5382 31.632 29.5382H31.2075C31.0417 29.5382 30.8828 29.4726 30.7656 29.3557C30.6484 29.2389 30.5826 29.0804 30.5826 28.9152C30.5826 28.8328 30.599 28.7512 30.6308 28.6752C30.6626 28.5991 30.7093 28.5301 30.768 28.4722C30.8268 28.4143 30.8964 28.3685 30.973 28.3376C31.0497 28.3067 31.1316 28.2912 31.2143 28.2921H34.641ZM34.3014 46.6648H31.5369L31.4894 46.719L31.4588 46.8036C31.4439 46.8435 31.4314 46.8842 31.4214 46.9255C31.4214 46.9933 31.3943 47.0644 31.3841 47.1185H34.5221C34.5096 46.9814 34.4811 46.8462 34.4372 46.7156L34.3931 46.6648H34.3014ZM31.0411 47.7991H34.8176C34.8006 47.6332 34.7633 47.3556 34.6886 47.3556H31.1905C31.1328 47.3556 31.0716 47.6265 31.0377 47.7991H31.0411ZM31.7203 46.4447H34.1859V46.1061H31.7203V46.4447ZM22.8902 28.0788C22.9735 28.0513 23.0607 28.0376 23.1483 28.0382H26.6023C26.6899 28.0379 26.7771 28.0516 26.8604 28.0788H30.9358C31.0179 28.0516 31.1039 28.0379 31.1905 28.0382H34.6478H34.7429V25.0246H2.00375V28.0551H5.18936C5.27702 28.0548 5.36416 28.0686 5.44747 28.0957H9.69609C9.7794 28.0686 9.86654 28.0548 9.9542 28.0551H13.4081C13.4958 28.0545 13.583 28.0683 13.6662 28.0957L22.8902 28.0788ZM13.4081 28.2921C13.4902 28.2921 13.5714 28.3082 13.6472 28.3396C13.7231 28.3709 13.792 28.4168 13.85 28.4746C13.908 28.5325 13.954 28.6011 13.9854 28.6767C14.0168 28.7523 14.033 28.8333 14.033 28.9152C14.033 28.997 14.0168 29.078 13.9854 29.1536C13.954 29.2292 13.908 29.2979 13.85 29.3557C13.792 29.4136 13.7231 29.4595 13.6472 29.4908C13.5714 29.5221 13.4902 29.5382 13.4081 29.5382H12.9836C12.8809 29.5382 12.7824 29.4975 12.7098 29.4251C12.6372 29.3527 12.5964 29.2546 12.5964 29.1522C12.6042 29.0735 12.6337 28.9986 12.6817 28.9357C12.7297 28.8728 12.7943 28.8244 12.8683 28.796C12.9422 28.7676 13.0227 28.7602 13.1006 28.7746C13.1785 28.7891 13.2509 28.8248 13.3096 28.8779L13.3572 28.9152C13.3796 28.9277 13.4055 28.9326 13.4309 28.9293C13.4564 28.9259 13.4801 28.9144 13.4985 28.8965C13.5168 28.8785 13.5289 28.8552 13.5328 28.8298C13.5367 28.8045 13.5323 28.7786 13.5202 28.756C13.4685 28.668 13.3983 28.5922 13.3145 28.5338C13.2307 28.4753 13.1352 28.4356 13.0345 28.4174H12.9768C12.6951 28.4318 12.4212 28.5143 12.1787 28.6578H11.2074C10.9648 28.5143 10.6909 28.4318 10.4093 28.4174H10.3516C10.2509 28.4356 10.1554 28.4753 10.0716 28.5338C9.98776 28.5922 9.9176 28.668 9.8659 28.756C9.8538 28.7786 9.84938 28.8045 9.8533 28.8298C9.85721 28.8552 9.86925 28.8785 9.88761 28.8965C9.90597 28.9144 9.92967 28.9259 9.95514 28.9293C9.98062 28.9326 10.0065 28.9277 10.0289 28.9152L10.0765 28.8779C10.1352 28.8248 10.2076 28.7891 10.2855 28.7746C10.3634 28.7602 10.4438 28.7676 10.5178 28.796C10.5918 28.8244 10.6563 28.8728 10.7043 28.9357C10.7523 28.9986 10.7819 29.0735 10.7897 29.1522C10.7897 29.2546 10.7489 29.3527 10.6763 29.4251C10.6037 29.4975 10.5052 29.5382 10.4025 29.5382H9.97797C9.81224 29.5382 9.65329 29.4726 9.5361 29.3557C9.41891 29.2389 9.35307 29.0804 9.35307 28.9152C9.35307 28.7505 9.41844 28.5925 9.5349 28.4758C9.65136 28.3591 9.80943 28.293 9.97458 28.2921H13.4081ZM10.4908 46.4617H12.953V46.1231H10.4908V46.4617ZM9.81156 47.8161H13.5847C13.5847 47.6502 13.5338 47.3725 13.4557 47.3725H9.9542C9.89307 47.3725 9.83193 47.6434 9.79797 47.8161H9.81156ZM13.0719 46.6818H10.3108L10.2633 46.7359C10.2499 46.7633 10.2385 46.7916 10.2293 46.8206C10.2155 46.8605 10.2042 46.9012 10.1953 46.9425C10.1953 47.0102 10.1648 47.0813 10.1546 47.1355H13.296C13.284 46.998 13.2543 46.8625 13.2077 46.7325L13.167 46.6818H13.0719ZM12.3044 28.9118H12.43C12.3917 28.9922 12.372 29.0801 12.3723 29.1691C12.3716 29.2849 12.4029 29.3986 12.4629 29.4977C12.5228 29.5969 12.6089 29.6777 12.7119 29.7312V45.9436H10.7048V29.694C10.8016 29.6402 10.8822 29.5617 10.9384 29.4664C10.9945 29.3711 11.0241 29.2627 11.024 29.1522C11.0243 29.0632 11.0045 28.9753 10.9663 28.8948H12.2908L12.3044 28.9118ZM5.18936 28.2921C5.22551 28.2888 5.26189 28.2888 5.29804 28.2921C5.45611 28.3193 5.59738 28.4068 5.69199 28.5359C5.7098 28.5595 5.7257 28.5844 5.73954 28.6104C5.73954 28.7757 5.6737 28.9341 5.55651 29.051C5.43932 29.1678 5.28038 29.2334 5.11464 29.2334H4.52371C4.45866 29.2035 4.40342 29.1558 4.36437 29.0959C4.32531 29.036 4.30402 28.9663 4.30296 28.8948C4.31074 28.8162 4.34027 28.7412 4.38828 28.6784C4.43628 28.6155 4.50086 28.5671 4.57481 28.5387C4.64877 28.5102 4.7292 28.5028 4.80712 28.5173C4.88505 28.5317 4.95742 28.5675 5.01615 28.6206L5.0637 28.6578C5.08612 28.6704 5.112 28.6753 5.13747 28.6719C5.16295 28.6686 5.18664 28.6571 5.205 28.6391C5.22336 28.6212 5.2354 28.5978 5.23932 28.5725C5.24323 28.5472 5.23881 28.5213 5.22672 28.4987C5.15894 28.3897 5.06421 28.2999 4.95163 28.238C4.88676 28.2008 4.81523 28.1766 4.74106 28.1668H4.68333C4.53622 28.1688 4.39047 28.1951 4.25201 28.2447C4.12317 28.2827 3.99987 28.3374 3.88523 28.4073H2.91052C2.66782 28.2641 2.394 28.1817 2.11242 28.1668H2.05469C1.95405 28.1851 1.85855 28.2248 1.77472 28.2832C1.6909 28.3416 1.62073 28.4175 1.56904 28.5055C1.55694 28.5281 1.55252 28.554 1.55643 28.5793C1.56035 28.6046 1.57239 28.628 1.59075 28.6459C1.60911 28.6638 1.63281 28.6753 1.65828 28.6787C1.68375 28.6821 1.70964 28.6771 1.73205 28.6646C1.74746 28.653 1.7622 28.6406 1.7762 28.6273C1.83531 28.5746 1.90788 28.5391 1.98592 28.5247C2.06397 28.5104 2.14446 28.5179 2.21854 28.5462C2.29262 28.5746 2.35742 28.6227 2.40581 28.6855C2.4542 28.7482 2.48429 28.823 2.49279 28.9016C2.49279 28.9523 2.48278 29.0025 2.46332 29.0493C2.44387 29.0962 2.41535 29.1387 2.3794 29.1746C2.34345 29.2104 2.30077 29.2388 2.25379 29.2582C2.20682 29.2776 2.15647 29.2876 2.10563 29.2876H1.68111C1.51537 29.2876 1.35643 29.222 1.23924 29.1051C1.12205 28.9883 1.05621 28.8298 1.05621 28.6646C1.11158 28.5314 1.21158 28.4214 1.33916 28.3535C1.46674 28.2856 1.61399 28.2639 1.75582 28.2921H5.18936ZM4.67993 46.1298H4.73427V46.4684H2.27204V46.1298H4.67993ZM4.67993 46.6648H4.93465L4.9754 46.7156C5.02086 46.8458 5.0494 46.9812 5.06031 47.1185H1.92224C1.92224 47.0644 1.94601 46.9933 1.96299 46.9255C1.97184 46.8843 1.98318 46.8436 1.99695 46.8036C2.00621 46.7747 2.01756 46.7464 2.03092 46.719L2.07506 46.6648H4.67993ZM4.67993 47.342H5.22672C5.30483 47.342 5.33879 47.6197 5.35577 47.7856H1.57922C1.61319 47.6129 1.67432 47.342 1.73545 47.342H4.67993ZM20.0816 45.1716V39.0056V38.9785H20.051H16.3424H16.3152V39.0056V45.1851V45.2156H16.3424H20.0374H20.068V45.1851L20.0816 45.1716ZM2.39431 22.5866L18.876 14.1622L34.3014 22.6002L2.39431 22.5866ZM19.3378 15.1915L4.91427 22.5358L32.6373 22.4817L19.3378 15.2051V15.1915ZM22.2552 35.7888V35.7685C22.2355 34.7473 21.8139 33.7747 21.0813 33.0608C20.3487 32.3468 19.3638 31.9487 18.3394 31.9524C17.316 31.9549 16.3342 32.3567 15.6043 33.0718C14.8743 33.7869 14.4542 34.7586 14.4338 35.7787V35.8024H13.8055C13.8247 34.6194 14.3003 33.4892 15.1334 32.6466C15.5551 32.229 16.0554 31.8986 16.6056 31.6743C17.1558 31.45 17.745 31.3362 18.3394 31.3396C18.9354 31.3386 19.5258 31.455 20.0766 31.6822C20.6273 31.9094 21.1277 32.2429 21.5487 32.6635C21.9691 33.0753 22.303 33.5664 22.531 34.1083C22.759 34.6501 22.8765 35.2317 22.8767 35.8193L22.2552 35.7888ZM36.4036 22.6544L18.876 12.9262L0.118868 22.6679V23.7447H2.5743H36.4036V22.6679V22.6544Z" fill="#C14524"/>
<path fill-rule="evenodd" clip-rule="evenodd" d="M11.7072 78.0923V77.8079L11.9347 77.7808C12.1283 77.7571 12.1792 77.6115 12.1792 77.3812V75.6171H11.5V75.2785H11.663C11.8158 75.2992 11.9714 75.2788 12.1135 75.2192C12.2557 75.1597 12.3792 75.0632 12.4713 74.9399H13.0181V77.3914C13.0181 77.6216 13.0758 77.7672 13.266 77.7909L13.5003 77.818V78.1025L11.7072 78.0923ZM22.8161 78.0923V77.879C22.8161 77.2322 23.2508 76.9444 23.6855 76.704C24.3104 76.3654 24.6025 76.1115 24.6025 75.7356C24.6022 75.6622 24.5862 75.5896 24.5555 75.5229C24.5247 75.4561 24.4801 75.3967 24.4244 75.3486C24.3688 75.3005 24.3034 75.2648 24.2328 75.2439C24.1622 75.2231 24.0879 75.2176 24.0149 75.2277C23.4851 75.2277 23.3085 75.4884 23.3085 75.6069C23.3085 75.7255 23.3764 75.7458 23.5089 75.7593C23.6413 75.7729 23.8485 75.8575 23.8485 76.0302C23.8485 76.2029 23.6413 76.3688 23.3561 76.3688C22.9655 76.3688 22.8093 76.1047 22.8093 75.7525C22.8093 75.2243 23.4885 74.9128 24.2017 74.9128C24.847 74.9128 25.5602 75.2006 25.5602 75.7729C25.5602 76.4772 24.9489 76.7514 24.5074 76.8869C24.1474 77.0088 23.6311 77.1848 23.4036 77.5167C23.6039 77.402 23.8315 77.3435 24.0625 77.3474C24.1947 77.3456 24.3263 77.3639 24.453 77.4015C24.6014 77.4495 24.7557 77.4768 24.9115 77.4828C25.1391 77.4828 25.1594 77.2797 25.1594 77.0291H25.5941V77.3237C25.5941 77.8654 25.2919 78.1296 24.6975 78.1296C24.5035 78.1275 24.3114 78.0908 24.1304 78.0212C23.9425 77.9396 23.7409 77.8936 23.5361 77.8858C23.4697 77.8778 23.4028 77.8955 23.3491 77.9352C23.2955 77.9748 23.2591 78.0335 23.2474 78.0991L22.8161 78.0923ZM20.0991 76.3993C20.2514 76.3967 20.3968 76.3352 20.5045 76.2278C20.6122 76.1204 20.6739 75.9755 20.6765 75.8236C20.6765 75.485 20.4897 75.2311 19.9972 75.2311C19.5048 75.2311 19.318 75.4918 19.318 75.5697C19.318 75.6476 19.4063 75.7051 19.5082 75.7153C19.6101 75.7255 19.824 75.8203 19.824 75.9929C19.824 76.1656 19.6203 76.3316 19.3248 76.3316C18.9512 76.3316 18.8018 76.1013 18.8018 75.7492C18.8018 75.2209 19.5455 74.9094 20.1603 74.9094C20.8667 74.9094 21.6172 75.16 21.6172 75.7559C21.6046 75.914 21.5444 76.0646 21.4444 76.1879C21.3444 76.3112 21.2093 76.4014 21.0568 76.4467C21.2292 76.4877 21.3834 76.5836 21.4961 76.7199C21.6089 76.8561 21.674 77.0253 21.6817 77.2018C21.6817 77.7909 21.0568 78.1126 20.3233 78.1126C19.5897 78.1126 18.778 77.9399 18.778 77.3067C18.7696 77.2349 18.7777 77.1621 18.8019 77.0939C18.826 77.0256 18.8655 76.9638 18.9173 76.9132C18.9691 76.8625 19.0318 76.8244 19.1007 76.8016C19.1695 76.7789 19.2427 76.7721 19.3146 76.7819C19.6542 76.7819 19.7867 76.9173 19.7867 77.0596C19.7797 77.1247 19.7556 77.1869 19.7169 77.2398C19.6781 77.2927 19.6261 77.3345 19.5659 77.3609C19.4844 77.3948 19.4335 77.4456 19.4335 77.493C19.4335 77.5404 19.6542 77.7368 20.021 77.7368C20.3097 77.7368 20.7002 77.625 20.7002 77.2289C20.7002 76.7311 20.3912 76.6769 20.0889 76.6769V76.3722L20.0991 76.3993ZM15.5245 75.5832C15.5245 75.7695 15.803 75.9591 16.1188 76.0674C16.438 75.9591 16.7471 75.7695 16.7471 75.5934C16.7471 75.4173 16.4279 75.2311 16.1188 75.2311C15.8709 75.2311 15.5245 75.3361 15.5245 75.5697V75.5832ZM16.8048 77.3169C16.8048 77.1171 16.438 76.9444 15.7316 76.765C15.3716 76.8259 15.1849 77.0359 15.1849 77.2221C15.1849 77.5776 15.5958 77.7334 16.0848 77.7334C16.472 77.7334 16.8048 77.5844 16.8048 77.3169ZM17.5248 75.6882C17.5106 75.851 17.45 76.0064 17.3501 76.136C17.2502 76.2656 17.1152 76.364 16.9611 76.4196C17.1503 76.4565 17.323 76.552 17.4547 76.6924C17.5864 76.8328 17.6704 77.0111 17.6946 77.2018C17.6946 77.8993 16.8795 78.1126 16.0475 78.1126C15.4158 78.1126 14.4954 77.9873 14.4954 77.2763C14.5211 77.0926 14.5985 76.92 14.7188 76.7785C14.839 76.637 14.9971 76.5325 15.1747 76.4772C14.835 76.2706 14.6381 76.0742 14.6381 75.7119C14.6381 75.1837 15.3615 74.8823 16.1324 74.8823C16.7063 74.8823 17.5146 75.0956 17.5146 75.6611L17.5248 75.6882Z" fill="#9D9897"/>
<path fill-rule="evenodd" clip-rule="evenodd" d="M32.0395 65.8518H33.0923L34.5017 68.5335L34.5425 68.5538L34.5798 68.5301L35.7956 65.8518H36.7296L34.281 71.1949H33.0278V70.301H33.7783L33.8157 70.2773L34.0942 69.6678V69.6306L32.0565 65.8518H32.0395ZM4.92099 67.3349L5.6274 66.6136C5.38452 66.3438 5.08775 66.1276 4.75613 65.9789C4.42451 65.8303 4.06537 65.7523 3.70177 65.7502C3.02051 65.7502 2.3671 66.0198 1.88506 66.4997C1.40302 66.9797 1.13176 67.6308 1.13086 68.31C1.13176 68.9896 1.40291 69.641 1.88485 70.1215C2.3668 70.602 3.0202 70.8724 3.70177 70.8733C4.06542 70.8695 4.42432 70.7904 4.75578 70.6412C5.08723 70.492 5.38403 70.2759 5.6274 70.0064L4.92439 69.2818C4.77533 69.4619 4.58879 69.6076 4.37768 69.7088C4.16658 69.8099 3.93595 69.8641 3.70177 69.8676C3.28743 69.8676 2.89007 69.7035 2.59709 69.4114C2.30412 69.1193 2.13952 68.7231 2.13952 68.31C2.13952 67.8966 2.30401 67.5001 2.59689 67.2075C2.88977 66.9148 3.28712 66.75 3.70177 66.7491C3.93546 66.7526 4.16558 66.8068 4.37613 66.908C4.58667 67.0092 4.7726 67.1548 4.92099 67.3349ZM11.2447 70.8936H10.3413V66.7965V66.766H10.3107H8.19491H8.16774V66.7965V70.8936H7.26436V65.8518H11.2684V70.8936H11.2447ZM16.2269 69.5392C16.2233 69.9661 16.0507 70.3743 15.7466 70.6749C15.4426 70.9755 15.0317 71.1442 14.6035 71.1442C14.1744 71.1433 13.7633 70.9727 13.4602 70.6699C13.1571 70.3671 12.9869 69.9568 12.9869 69.529C12.9869 69.1015 13.1572 68.6916 13.4604 68.3893C13.7636 68.0871 14.1748 67.9173 14.6035 67.9173C15.0326 67.9173 15.4441 68.0869 15.7478 68.3891C16.0515 68.6913 16.2226 69.1012 16.2235 69.529L16.2269 69.5392ZM12.7526 66.6813C12.8514 66.5669 12.9657 66.4666 13.0922 66.3834C13.3998 66.1703 13.7637 66.0525 14.1382 66.0448C14.4231 66.0475 14.7042 66.1098 14.9635 66.2276C15.1019 66.2965 15.2537 66.3346 15.4084 66.3394C15.8261 66.3394 15.9823 66.0651 16.0876 65.7434H16.7397C16.7181 65.9594 16.6595 66.1702 16.5665 66.3664C16.4799 66.5741 16.3316 66.7503 16.1416 66.8714C15.9515 66.9924 15.7288 67.0526 15.5035 67.0436C15.1516 67.0211 14.8066 66.9363 14.4846 66.7931C14.4096 66.7651 14.3304 66.7503 14.2503 66.7491C13.7952 66.7491 13.2892 67.2637 13.3197 67.2367L12.739 66.6915L12.7526 66.6813ZM15.4695 69.5392C15.4668 69.7667 15.3745 69.9841 15.2125 70.1444C15.0505 70.3046 14.8317 70.395 14.6035 70.3958C14.4895 70.3958 14.3766 70.3734 14.2713 70.3298C14.166 70.2862 14.0704 70.2223 13.9899 70.1417C13.9095 70.0612 13.8457 69.9656 13.8024 69.8605C13.7591 69.7553 13.737 69.6427 13.7375 69.529C13.7375 69.3 13.8287 69.0804 13.9911 68.9185C14.1535 68.7565 14.3738 68.6656 14.6035 68.6656C14.8335 68.6656 15.0541 68.7564 15.2171 68.9183C15.38 69.0801 15.472 69.2997 15.4729 69.529L15.4695 69.5392ZM18.4955 66.8303V70.9139H17.728V65.8518H21.3076V66.7694H18.5465H18.5159V66.7965L18.4955 66.8303ZM22.8494 70.1961L22.5981 70.9139H21.5555L23.7969 65.8721H24.0619L26.3882 70.9139H25.3184L25.0637 70.1961L25.023 70.169H22.8902L22.8494 70.1995V70.1961ZM23.189 69.4511H24.7547L24.7886 69.4308V69.3936L24.089 67.4398L24.0517 67.4127H23.8785L23.8377 67.4398L23.1585 69.3936V69.4308L23.1924 69.4511H23.189ZM30.4704 67.3552L31.1768 66.6339C30.9332 66.3642 30.6358 66.1481 30.3036 65.9994C29.9715 65.8508 29.6119 65.7728 29.2478 65.7705C28.5671 65.7714 27.9146 66.0414 27.4333 66.5212C26.952 67.0011 26.6812 67.6517 26.6803 68.3303C26.6812 69.0093 26.9519 69.6602 27.4331 70.1406C27.9143 70.6211 28.5668 70.8918 29.2478 70.8936C29.6118 70.889 29.971 70.8097 30.3029 70.6605C30.6348 70.5114 30.9323 70.2956 31.1768 70.0268L30.4704 69.3021C30.3217 69.4826 30.1352 69.6285 29.924 69.7297C29.7129 69.8309 29.4821 69.8849 29.2478 69.8879C29.0427 69.8879 28.8395 69.8476 28.65 69.7694C28.4604 69.6911 28.2882 69.5764 28.1431 69.4317C27.9981 69.2871 27.883 69.1154 27.8045 68.9264C27.726 68.7374 27.6856 68.5349 27.6856 68.3303C27.6856 67.9169 27.8501 67.5204 28.1429 67.2278C28.4358 66.9351 28.8332 66.7703 29.2478 66.7694C29.482 66.7727 29.7127 66.8268 29.9239 66.9279C30.135 67.0291 30.3215 67.1749 30.4704 67.3552Z" fill="white"/>
</g>
<path d="M61.437 32.6595C60.9885 32.6595 60.5759 32.5945 60.1989 32.4645C59.8285 32.3345 59.5068 32.1331 59.2339 31.8601C58.9609 31.5807 58.7465 31.22 58.5905 30.7781C58.441 30.3362 58.3663 29.8033 58.3663 29.1794V28.9844C58.3663 28.3866 58.4443 27.8764 58.6003 27.454C58.7627 27.0251 58.9804 26.6741 59.2534 26.4012C59.5328 26.1283 59.8578 25.9268 60.2282 25.7968C60.6051 25.6668 61.008 25.6019 61.437 25.6019C61.8204 25.6019 62.1811 25.6473 62.519 25.7383C62.8569 25.8293 63.1526 25.9723 63.4061 26.1672C63.666 26.3557 63.874 26.5994 64.0299 26.8983C64.1924 27.1973 64.2866 27.5515 64.3126 27.9609H62.7919C62.7204 27.571 62.5645 27.285 62.324 27.1031C62.0836 26.9211 61.7879 26.8301 61.437 26.8301C61.2355 26.8301 61.0405 26.8659 60.8521 26.9373C60.6701 27.0088 60.5076 27.1291 60.3647 27.298C60.2217 27.467 60.1047 27.6879 60.0137 27.9609C59.9292 28.2338 59.887 28.575 59.887 28.9844V29.1794C59.887 29.6083 59.9325 29.969 60.0235 30.2614C60.1145 30.5474 60.2314 30.7781 60.3744 30.9535C60.5239 31.1225 60.6896 31.246 60.8716 31.324C61.06 31.3955 61.2485 31.4312 61.437 31.4312C61.8074 31.4312 62.1128 31.337 62.3533 31.1485C62.5937 30.9535 62.7399 30.6709 62.7919 30.3004H64.3126C64.2801 30.7293 64.1859 31.0933 64.0299 31.3922C63.874 31.6911 63.6693 31.9349 63.4158 32.1233C63.1624 32.3118 62.8667 32.4482 62.5287 32.5327C62.1908 32.6172 61.8269 32.6595 61.437 32.6595ZM66.8393 32.6595C66.5598 32.6595 66.3129 32.6205 66.0984 32.5425C65.884 32.458 65.702 32.3443 65.5525 32.2013C65.4031 32.0518 65.2893 31.8796 65.2114 31.6847C65.1334 31.4832 65.0944 31.2655 65.0944 31.0315C65.0944 29.9917 65.7118 29.4718 66.9465 29.4718H68.4867V29.2281C68.4867 28.8902 68.4087 28.653 68.2528 28.5165C68.1033 28.3801 67.8628 28.3118 67.5314 28.3118C67.239 28.3118 67.0277 28.3638 66.8978 28.4678C66.7678 28.5653 66.6931 28.6887 66.6736 28.8382H65.3868C65.3998 28.6173 65.4551 28.4093 65.5525 28.2143C65.6565 28.0194 65.7995 27.8537 65.9815 27.7172C66.1699 27.5742 66.3974 27.4637 66.6638 27.3858C66.9303 27.3013 67.2357 27.259 67.5801 27.259C67.9116 27.259 68.2105 27.2948 68.477 27.3663C68.7499 27.4377 68.9806 27.5547 69.1691 27.7172C69.364 27.8732 69.5135 28.0779 69.6175 28.3313C69.7215 28.5848 69.7735 28.8902 69.7735 29.2476V31.2265C69.7735 31.4994 69.7767 31.7399 69.7832 31.9478C69.7962 32.1493 69.8157 32.3475 69.8417 32.5425H68.6427C68.6167 32.3995 68.6004 32.2923 68.5939 32.2208C68.5939 32.1428 68.5939 32.0291 68.5939 31.8796C68.451 32.0876 68.2333 32.2695 67.9408 32.4255C67.6549 32.5815 67.2877 32.6595 66.8393 32.6595ZM67.239 31.6652C67.3949 31.6652 67.5476 31.6457 67.6971 31.6067C67.8466 31.5612 67.9798 31.4962 68.0968 31.4117C68.2138 31.3207 68.308 31.207 68.3795 31.0705C68.451 30.934 68.4867 30.7748 68.4867 30.5929V30.3492H67.1902C66.9433 30.3492 66.7483 30.4077 66.6053 30.5246C66.4689 30.6351 66.4006 30.7878 66.4006 30.9828C66.4006 31.1907 66.4721 31.3565 66.6151 31.4799C66.758 31.6034 66.966 31.6652 67.239 31.6652ZM70.8964 27.376H72.1831V29.3744H74.3862V27.376H75.6729V32.5425H74.3862V30.4466H72.1831V32.5425H70.8964V27.376ZM76.8461 27.376H78.1329V29.4036H78.6203L80.1995 27.376H81.6227L79.6731 29.8228L81.7202 32.5425H80.18L78.6203 30.4174H78.1329V32.5425H76.8461V27.376ZM83.7107 28.4483H82.0633V27.376H86.6448V28.4483H84.9974V32.5425H83.7107V28.4483ZM86.4255 29.2086H89.5449V30.4174H86.4255V29.2086ZM90.616 25.7188H96.3674V32.5425H94.9052V26.9276H92.0782V32.5425H90.616V25.7188ZM100.072 32.6595C99.7207 32.6595 99.386 32.6075 99.0676 32.5035C98.7557 32.393 98.4827 32.2305 98.2488 32.0161C98.0148 31.7951 97.8296 31.5189 97.6931 31.1875C97.5567 30.8496 97.4884 30.4564 97.4884 30.008V29.813C97.4884 29.3841 97.5534 29.0104 97.6834 28.692C97.8134 28.3736 97.9921 28.1104 98.2195 27.9024C98.447 27.6879 98.7102 27.5287 99.0091 27.4247C99.3081 27.3143 99.6298 27.259 99.9742 27.259C100.787 27.259 101.404 27.4735 101.826 27.9024C102.249 28.3313 102.46 28.9519 102.46 29.7643V30.3102H98.8044C98.8109 30.5376 98.8499 30.7358 98.9214 30.9048C98.9929 31.0673 99.0871 31.2005 99.2041 31.3045C99.3211 31.4085 99.4543 31.4864 99.6038 31.5384C99.7597 31.5839 99.9157 31.6067 100.072 31.6067C100.403 31.6067 100.653 31.5579 100.822 31.4604C100.991 31.363 101.111 31.22 101.183 31.0315H102.362C102.258 31.5709 102.002 31.9771 101.592 32.25C101.183 32.523 100.676 32.6595 100.072 32.6595ZM100.023 28.3118C99.8735 28.3118 99.724 28.3313 99.5745 28.3703C99.4315 28.4093 99.3048 28.471 99.1943 28.5555C99.0839 28.64 98.9929 28.7537 98.9214 28.8967C98.8499 29.0397 98.8109 29.2119 98.8044 29.4134H101.212C101.206 29.1989 101.17 29.0202 101.105 28.8772C101.046 28.7342 100.962 28.6205 100.852 28.536C100.748 28.4515 100.624 28.3931 100.481 28.3606C100.338 28.3281 100.185 28.3118 100.023 28.3118ZM104.549 28.4483H102.902V27.376H107.483V28.4483H105.836V32.5425H104.549V28.4483ZM110.505 32.6595C110.154 32.6595 109.82 32.6075 109.501 32.5035C109.189 32.393 108.916 32.2305 108.682 32.0161C108.448 31.7951 108.263 31.5189 108.127 31.1875C107.99 30.8496 107.922 30.4564 107.922 30.008V29.813C107.922 29.3841 107.987 29.0104 108.117 28.692C108.247 28.3736 108.426 28.1104 108.653 27.9024C108.88 27.6879 109.144 27.5287 109.443 27.4247C109.742 27.3143 110.063 27.259 110.408 27.259C111.22 27.259 111.837 27.4735 112.26 27.9024C112.682 28.3313 112.893 28.9519 112.893 29.7643V30.3102H109.238C109.244 30.5376 109.283 30.7358 109.355 30.9048C109.426 31.0673 109.521 31.2005 109.638 31.3045C109.755 31.4085 109.888 31.4864 110.037 31.5384C110.193 31.5839 110.349 31.6067 110.505 31.6067C110.837 31.6067 111.087 31.5579 111.256 31.4604C111.425 31.363 111.545 31.22 111.616 31.0315H112.796C112.692 31.5709 112.435 31.9771 112.026 32.25C111.616 32.523 111.11 32.6595 110.505 32.6595ZM110.456 28.3118C110.307 28.3118 110.157 28.3313 110.008 28.3703C109.865 28.4093 109.738 28.471 109.628 28.5555C109.517 28.64 109.426 28.7537 109.355 28.8967C109.283 29.0397 109.244 29.2119 109.238 29.4134H111.646C111.639 29.1989 111.603 29.0202 111.538 28.8772C111.48 28.7342 111.395 28.6205 111.285 28.536C111.181 28.4515 111.058 28.3931 110.915 28.3606C110.772 28.3281 110.619 28.3118 110.456 28.3118ZM113.82 27.376H115.019V28.1364C115.149 27.9024 115.354 27.6977 115.633 27.5222C115.913 27.3468 116.267 27.259 116.696 27.259C117.385 27.259 117.921 27.4735 118.304 27.9024C118.694 28.3248 118.889 28.9617 118.889 29.813V30.008C118.889 30.8983 118.691 31.5644 118.295 32.0063C117.905 32.4418 117.372 32.6595 116.696 32.6595C116.345 32.6595 116.033 32.5847 115.76 32.4353C115.494 32.2793 115.276 32.0778 115.107 31.8309V34.4921H113.82V27.376ZM116.394 31.5677C116.732 31.5677 117.014 31.4409 117.242 31.1875C117.469 30.9276 117.583 30.5344 117.583 30.008V29.813C117.583 29.3256 117.473 28.9617 117.252 28.7212C117.031 28.4743 116.745 28.3508 116.394 28.3508C116.023 28.3508 115.715 28.458 115.468 28.6725C115.227 28.8805 115.107 29.1956 115.107 29.6181V30.2029C115.107 30.6644 115.224 31.0088 115.458 31.2362C115.698 31.4572 116.01 31.5677 116.394 31.5677ZM122.157 32.6595C121.793 32.6595 121.455 32.5977 121.143 32.4742C120.838 32.3508 120.571 32.1656 120.344 31.9186C120.117 31.6652 119.938 31.3565 119.808 30.9925C119.684 30.6221 119.623 30.1932 119.623 29.7058V29.4816C119.623 28.8967 119.665 28.3768 119.749 27.9219C119.84 27.467 119.987 27.0803 120.188 26.7619C120.396 26.4434 120.669 26.1965 121.007 26.021C121.351 25.8391 121.78 25.7351 122.294 25.7091C122.495 25.7026 122.693 25.6961 122.888 25.6896C123.083 25.6831 123.268 25.6733 123.444 25.6603C123.619 25.6473 123.779 25.6279 123.922 25.6019C124.064 25.5694 124.191 25.5271 124.302 25.4751V26.6157C124.198 26.6741 124.003 26.7229 123.717 26.7619C123.437 26.8009 123.012 26.8236 122.44 26.8301C122.147 26.8366 121.894 26.8724 121.679 26.9373C121.472 26.9958 121.296 27.0933 121.153 27.2298C121.017 27.3598 120.906 27.532 120.822 27.7464C120.744 27.9609 120.688 28.2241 120.656 28.536C120.805 28.2436 121.03 28.0064 121.329 27.8244C121.627 27.6425 122.017 27.5515 122.498 27.5515C122.823 27.5515 123.119 27.6035 123.385 27.7074C123.652 27.8049 123.883 27.9511 124.077 28.1461C124.272 28.3411 124.422 28.5815 124.526 28.8675C124.636 29.1534 124.692 29.4848 124.692 29.8618V30.047C124.692 30.4564 124.627 30.8236 124.497 31.1485C124.373 31.4734 124.198 31.7496 123.97 31.9771C123.743 32.198 123.473 32.367 123.161 32.484C122.856 32.601 122.521 32.6595 122.157 32.6595ZM122.157 31.5677C122.547 31.5677 122.849 31.4409 123.064 31.1875C123.278 30.9276 123.385 30.5604 123.385 30.086V29.891C123.385 29.4816 123.275 29.1599 123.054 28.9259C122.833 28.692 122.534 28.575 122.157 28.575C121.787 28.575 121.488 28.692 121.26 28.9259C121.039 29.1599 120.929 29.4816 120.929 29.891V30.0665C120.929 30.3004 120.958 30.5116 121.017 30.7001C121.082 30.8886 121.169 31.0478 121.28 31.1778C121.39 31.3012 121.52 31.3987 121.67 31.4702C121.819 31.5352 121.982 31.5677 122.157 31.5677ZM126.302 34.6091C126.204 34.6091 126.107 34.5993 126.01 34.5798V33.488C126.107 33.5075 126.204 33.5173 126.302 33.5173C126.497 33.5173 126.646 33.4426 126.75 33.2931C126.861 33.1501 126.984 32.8999 127.121 32.5425L124.937 27.376H126.38L127.784 30.9438L129.07 27.376H130.396L128.408 32.5425C128.265 32.9064 128.128 33.2183 127.998 33.4783C127.875 33.7447 127.735 33.9592 127.579 34.1217C127.423 34.2906 127.244 34.4141 127.043 34.4921C126.841 34.5701 126.594 34.6091 126.302 34.6091ZM131.079 27.376H132.278V28.1364C132.408 27.9024 132.613 27.6977 132.892 27.5222C133.172 27.3468 133.526 27.259 133.955 27.259C134.644 27.259 135.18 27.4735 135.563 27.9024C135.953 28.3248 136.148 28.9617 136.148 29.813V30.008C136.148 30.8983 135.95 31.5644 135.554 32.0063C135.164 32.4418 134.631 32.6595 133.955 32.6595C133.604 32.6595 133.292 32.5847 133.019 32.4353C132.753 32.2793 132.535 32.0778 132.366 31.8309V34.4921H131.079V27.376ZM133.653 31.5677C133.991 31.5677 134.273 31.4409 134.501 31.1875C134.728 30.9276 134.842 30.5344 134.842 30.008V29.813C134.842 29.3256 134.732 28.9617 134.511 28.7212C134.29 28.4743 134.004 28.3508 133.653 28.3508C133.282 28.3508 132.974 28.458 132.727 28.6725C132.486 28.8805 132.366 29.1956 132.366 29.6181V30.2029C132.366 30.6644 132.483 31.0088 132.717 31.2362C132.957 31.4572 133.269 31.5677 133.653 31.5677ZM137.174 27.376H140.878V28.4483H138.461V32.5425H137.174V27.376ZM143.851 32.6595C143.494 32.6595 143.159 32.6042 142.847 32.4937C142.542 32.3833 142.275 32.2175 142.048 31.9966C141.82 31.7756 141.642 31.4994 141.512 31.168C141.382 30.8366 141.317 30.4499 141.317 30.008V29.813C141.317 29.3971 141.385 29.0299 141.521 28.7115C141.658 28.3931 141.84 28.1266 142.067 27.9121C142.301 27.6977 142.571 27.5352 142.876 27.4247C143.182 27.3143 143.507 27.259 143.851 27.259C144.215 27.259 144.537 27.3078 144.816 27.4052C145.102 27.5027 145.343 27.636 145.538 27.8049C145.733 27.9739 145.885 28.1721 145.996 28.3996C146.106 28.627 146.171 28.8707 146.191 29.1307H144.884C144.832 28.8902 144.725 28.7017 144.563 28.5653C144.407 28.4223 144.17 28.3508 143.851 28.3508C143.682 28.3508 143.523 28.3801 143.373 28.4385C143.231 28.497 143.101 28.588 142.984 28.7115C142.873 28.8285 142.785 28.9779 142.72 29.1599C142.655 29.3419 142.623 29.5596 142.623 29.813V30.008C142.623 30.2809 142.652 30.5181 142.711 30.7196C142.776 30.9146 142.863 31.077 142.974 31.207C143.084 31.3305 143.214 31.4215 143.364 31.4799C143.513 31.5384 143.676 31.5677 143.851 31.5677C144.105 31.5677 144.322 31.5027 144.504 31.3727C144.693 31.2362 144.819 31.0413 144.884 30.7878H146.191C146.158 31.0738 146.077 31.3337 145.947 31.5677C145.824 31.7951 145.658 31.9901 145.45 32.1526C145.248 32.315 145.011 32.4418 144.738 32.5327C144.465 32.6172 144.17 32.6595 143.851 32.6595ZM147.072 27.376H148.359V29.4036H148.846L150.426 27.376H151.849L149.899 29.8228L151.946 32.5425H150.406L148.846 30.4174H148.359V32.5425H147.072V27.376ZM152.679 27.376H153.966V30.6903L156.267 27.376H157.456V32.5425H156.169V29.2281L153.869 32.5425H152.679V27.376ZM158.629 27.376H159.916V30.6903L162.216 27.376H163.406V32.5425H162.119V29.2281L159.818 32.5425H158.629V27.376ZM161.017 26.8399C160.439 26.8399 160.016 26.7164 159.75 26.4694C159.49 26.2225 159.36 25.8586 159.36 25.3777H160.501C160.501 25.6311 160.543 25.8098 160.627 25.9138C160.718 26.0113 160.848 26.06 161.017 26.06C161.199 26.06 161.332 26.0113 161.417 25.9138C161.508 25.8098 161.553 25.6311 161.553 25.3777H162.674C162.674 25.8586 162.541 26.2225 162.275 26.4694C162.015 26.7164 161.596 26.8399 161.017 26.8399ZM58.5613 39.376H62.2655V40.4483H59.848V44.5425H58.5613V39.376ZM65.2871 44.6595C64.9361 44.6595 64.6014 44.6075 64.283 44.5035C63.9711 44.393 63.6981 44.2273 63.4642 44.0063C63.2302 43.7854 63.045 43.5092 62.9085 43.1778C62.7721 42.8463 62.7038 42.4564 62.7038 42.008V41.813C62.7038 41.3906 62.7721 41.0202 62.9085 40.7017C63.045 40.3833 63.2302 40.1169 63.4642 39.9024C63.6981 39.6879 63.9711 39.5287 64.283 39.4247C64.6014 39.3143 64.9361 39.259 65.2871 39.259C65.638 39.259 65.9694 39.3143 66.2814 39.4247C66.5933 39.5287 66.8662 39.6879 67.1002 39.9024C67.3406 40.1169 67.5291 40.3833 67.6656 40.7017C67.8021 41.0202 67.8703 41.3906 67.8703 41.813V42.008C67.8703 42.4499 67.8021 42.8366 67.6656 43.168C67.5291 43.4994 67.3406 43.7756 67.1002 43.9966C66.8662 44.2175 66.5933 44.3833 66.2814 44.4937C65.9694 44.6042 65.638 44.6595 65.2871 44.6595ZM65.2871 43.5677C65.651 43.5677 65.9532 43.4377 66.1936 43.1778C66.4406 42.9178 66.5641 42.5279 66.5641 42.008V41.813C66.5641 41.3386 66.4406 40.9779 66.1936 40.731C65.9532 40.4775 65.651 40.3508 65.2871 40.3508C64.9166 40.3508 64.6112 40.4775 64.3707 40.731C64.1303 40.9779 64.0101 41.3386 64.0101 41.813V42.008C64.0101 42.5344 64.1303 42.9276 64.3707 43.1875C64.6112 43.4409 64.9166 43.5677 65.2871 43.5677ZM71.0833 44.6595C70.7259 44.6595 70.3912 44.6042 70.0793 44.4937C69.7739 44.3833 69.5074 44.2175 69.28 43.9966C69.0525 43.7756 68.8738 43.4994 68.7438 43.168C68.6138 42.8366 68.5489 42.4499 68.5489 42.008V41.813C68.5489 41.3971 68.6171 41.0299 68.7536 40.7115C68.89 40.3931 69.072 40.1266 69.2995 39.9121C69.5334 39.6977 69.8031 39.5352 70.1085 39.4247C70.414 39.3143 70.7389 39.259 71.0833 39.259C71.4473 39.259 71.769 39.3078 72.0484 39.4052C72.3344 39.5027 72.5748 39.636 72.7698 39.8049C72.9647 39.9739 73.1174 40.1721 73.2279 40.3996C73.3384 40.627 73.4034 40.8707 73.4229 41.1307H72.1166C72.0647 40.8902 71.9574 40.7017 71.795 40.5653C71.639 40.4223 71.4018 40.3508 71.0833 40.3508C70.9144 40.3508 70.7552 40.3801 70.6057 40.4385C70.4627 40.497 70.3327 40.588 70.2158 40.7115C70.1053 40.8285 70.0176 40.9779 69.9526 41.1599C69.8876 41.3419 69.8551 41.5596 69.8551 41.813V42.008C69.8551 42.2809 69.8843 42.5181 69.9428 42.7196C70.0078 42.9146 70.0955 43.077 70.206 43.207C70.3165 43.3305 70.4465 43.4215 70.5959 43.4799C70.7454 43.5384 70.9079 43.5677 71.0833 43.5677C71.3368 43.5677 71.5545 43.5027 71.7365 43.3727C71.9249 43.2362 72.0517 43.0413 72.1166 42.7878H73.4229C73.3904 43.0738 73.3092 43.3337 73.1792 43.5677C73.0557 43.7951 72.89 43.9901 72.682 44.1526C72.4806 44.315 72.2434 44.4418 71.9704 44.5327C71.6975 44.6172 71.4018 44.6595 71.0833 44.6595ZM75.0104 46.6091C74.9129 46.6091 74.8154 46.5993 74.7179 46.5798V45.488C74.8154 45.5075 74.9129 45.5173 75.0104 45.5173C75.2053 45.5173 75.3548 45.4426 75.4588 45.2931C75.5693 45.1501 75.6927 44.8999 75.8292 44.5425L73.6456 39.376H75.0884L76.4921 42.9438L77.7788 39.376H79.1046L77.116 44.5425C76.973 44.9064 76.8365 45.2183 76.7065 45.4783C76.5831 45.7447 76.4433 45.9592 76.2874 46.1217C76.1314 46.2906 75.9527 46.4141 75.7512 46.4921C75.5498 46.5701 75.3028 46.6091 75.0104 46.6091ZM79.1503 43.4702H79.7351C79.8001 43.3727 79.8586 43.233 79.9106 43.051C79.9626 42.8626 80.0016 42.6546 80.0276 42.4271C80.0601 42.1932 80.0828 41.9495 80.0958 41.696C80.1153 41.4361 80.1251 41.1826 80.1251 40.9357V39.376H84.1705V43.4702H84.8041V45.761H83.6734V44.5425H80.281V45.761H79.1503V43.4702ZM82.8838 43.4702V40.4483H81.3046V41.1307C81.3046 41.3581 81.2981 41.5823 81.2851 41.8033C81.2721 42.0242 81.2526 42.2387 81.2266 42.4466C81.2071 42.6481 81.1779 42.8366 81.1389 43.012C81.0999 43.1875 81.0511 43.3402 80.9926 43.4702H82.8838ZM87.2683 44.6595C86.9889 44.6595 86.7419 44.6205 86.5275 44.5425C86.313 44.458 86.1311 44.3443 85.9816 44.2013C85.8321 44.0518 85.7184 43.8796 85.6404 43.6847C85.5624 43.4832 85.5234 43.2655 85.5234 43.0315C85.5234 41.9917 86.1408 41.4718 87.3756 41.4718H88.9158V41.2281C88.9158 40.8902 88.8378 40.653 88.6818 40.5165C88.5323 40.3801 88.2919 40.3118 87.9605 40.3118C87.668 40.3118 87.4568 40.3638 87.3268 40.4678C87.1969 40.5653 87.1221 40.6887 87.1026 40.8382H85.8159C85.8289 40.6173 85.8841 40.4093 85.9816 40.2143C86.0856 40.0194 86.2285 39.8537 86.4105 39.7172C86.599 39.5742 86.8264 39.4637 87.0929 39.3858C87.3593 39.3013 87.6648 39.259 88.0092 39.259C88.3406 39.259 88.6396 39.2948 88.906 39.3663C89.179 39.4377 89.4097 39.5547 89.5981 39.7172C89.7931 39.8732 89.9426 40.0779 90.0465 40.3313C90.1505 40.5848 90.2025 40.8902 90.2025 41.2476V43.2265C90.2025 43.4994 90.2058 43.7399 90.2123 43.9478C90.2253 44.1493 90.2447 44.3475 90.2707 44.5425H89.0717C89.0457 44.3995 89.0295 44.2923 89.023 44.2208C89.023 44.1428 89.023 44.0291 89.023 43.8796C88.88 44.0876 88.6623 44.2695 88.3699 44.4255C88.0839 44.5815 87.7167 44.6595 87.2683 44.6595ZM87.668 43.6652C87.824 43.6652 87.9767 43.6457 88.1262 43.6067C88.2756 43.5612 88.4089 43.4962 88.5258 43.4117C88.6428 43.3207 88.737 43.207 88.8085 43.0705C88.88 42.934 88.9158 42.7748 88.9158 42.5929V42.3492H87.6193C87.3723 42.3492 87.1774 42.4077 87.0344 42.5246C86.8979 42.6351 86.8297 42.7878 86.8297 42.9828C86.8297 43.1907 86.9012 43.3565 87.0441 43.4799C87.1871 43.6034 87.3951 43.6652 87.668 43.6652ZM91.3254 39.376H92.5245V40.1364C92.6544 39.9024 92.8591 39.6977 93.1386 39.5222C93.418 39.3468 93.7722 39.259 94.2011 39.259C94.89 39.259 95.4261 39.4735 95.8095 39.9024C96.1995 40.3248 96.3944 40.9617 96.3944 41.813V42.008C96.3944 42.8983 96.1962 43.5644 95.7998 44.0063C95.4099 44.4418 94.877 44.6595 94.2011 44.6595C93.8502 44.6595 93.5383 44.5847 93.2653 44.4353C92.9989 44.2793 92.7812 44.0778 92.6122 43.8309V46.4921H91.3254V39.376ZM93.8989 43.5677C94.2369 43.5677 94.5196 43.4409 94.747 43.1875C94.9745 42.9276 95.0882 42.5344 95.0882 42.008V41.813C95.0882 41.3256 94.9777 40.9617 94.7568 40.7212C94.5358 40.4743 94.2499 40.3508 93.8989 40.3508C93.5285 40.3508 93.2198 40.458 92.9729 40.6725C92.7324 40.8805 92.6122 41.1956 92.6122 41.6181V42.2029C92.6122 42.6644 92.7292 43.0088 92.9631 43.2362C93.2036 43.4572 93.5155 43.5677 93.8989 43.5677ZM99.6136 44.6595C99.2562 44.6595 98.9215 44.6042 98.6095 44.4937C98.3041 44.3833 98.0376 44.2175 97.8102 43.9966C97.5827 43.7756 97.404 43.4994 97.274 43.168C97.1441 42.8366 97.0791 42.4499 97.0791 42.008V41.813C97.0791 41.3971 97.1473 41.0299 97.2838 40.7115C97.4203 40.3931 97.6022 40.1266 97.8297 39.9121C98.0636 39.6977 98.3333 39.5352 98.6388 39.4247C98.9442 39.3143 99.2691 39.259 99.6136 39.259C99.9775 39.259 100.299 39.3078 100.579 39.4052C100.865 39.5027 101.105 39.636 101.3 39.8049C101.495 39.9739 101.648 40.1721 101.758 40.3996C101.869 40.627 101.934 40.8707 101.953 41.1307H100.647C100.595 40.8902 100.488 40.7017 100.325 40.5653C100.169 40.4223 99.932 40.3508 99.6136 40.3508C99.4446 40.3508 99.2854 40.3801 99.1359 40.4385C98.993 40.497 98.863 40.588 98.746 40.7115C98.6355 40.8285 98.5478 40.9779 98.4828 41.1599C98.4178 41.3419 98.3853 41.5596 98.3853 41.813V42.008C98.3853 42.2809 98.4146 42.5181 98.4731 42.7196C98.538 42.9146 98.6258 43.077 98.7363 43.207C98.8467 43.3305 98.9767 43.4215 99.1262 43.4799C99.2756 43.5384 99.4381 43.5677 99.6136 43.5677C99.867 43.5677 100.085 43.5027 100.267 43.3727C100.455 43.2362 100.582 43.0413 100.647 42.7878H101.953C101.921 43.0738 101.839 43.3337 101.709 43.5677C101.586 43.7951 101.42 43.9901 101.212 44.1526C101.011 44.315 100.774 44.4418 100.501 44.5327C100.228 44.6172 99.932 44.6595 99.6136 44.6595ZM104.092 40.4483H102.445V39.376H107.026V40.4483H105.379V44.5425H104.092V40.4483ZM107.804 39.376H110.397C110.728 39.376 111.011 39.4117 111.245 39.4832C111.485 39.5482 111.684 39.6425 111.84 39.7659C111.996 39.8894 112.109 40.0356 112.181 40.2046C112.252 40.3736 112.288 40.5588 112.288 40.7602C112.288 41.0007 112.213 41.2281 112.064 41.4426C111.921 41.6506 111.723 41.7903 111.469 41.8618C111.788 41.9397 112.035 42.0892 112.21 42.3102C112.392 42.5246 112.483 42.7781 112.483 43.0705C112.483 43.5189 112.327 43.8764 112.015 44.1428C111.703 44.4093 111.229 44.5425 110.592 44.5425H107.804V39.376ZM110.338 43.5092C110.631 43.5092 110.845 43.4669 110.982 43.3825C111.125 43.2915 111.196 43.1485 111.196 42.9535C111.196 42.7586 111.128 42.6189 110.991 42.5344C110.862 42.4434 110.644 42.3979 110.338 42.3979H109.091V43.5092H110.338ZM110.212 41.4426C110.511 41.4426 110.715 41.4004 110.826 41.3159C110.943 41.2314 111.001 41.1014 111.001 40.9259C111.001 40.757 110.943 40.6303 110.826 40.5458C110.709 40.4548 110.504 40.4093 110.212 40.4093H109.091V41.4426H110.212ZM115.75 44.6595C115.4 44.6595 115.065 44.6075 114.746 44.5035C114.434 44.393 114.162 44.2305 113.928 44.0161C113.694 43.7951 113.508 43.5189 113.372 43.1875C113.235 42.8496 113.167 42.4564 113.167 42.008V41.813C113.167 41.3841 113.232 41.0104 113.362 40.692C113.492 40.3736 113.671 40.1104 113.898 39.9024C114.126 39.6879 114.389 39.5287 114.688 39.4247C114.987 39.3143 115.309 39.259 115.653 39.259C116.465 39.259 117.083 39.4735 117.505 39.9024C117.928 40.3313 118.139 40.9519 118.139 41.7643V42.3102H114.483C114.49 42.5376 114.529 42.7358 114.6 42.9048C114.672 43.0673 114.766 43.2005 114.883 43.3045C115 43.4085 115.133 43.4864 115.283 43.5384C115.439 43.5839 115.594 43.6067 115.75 43.6067C116.082 43.6067 116.332 43.5579 116.501 43.4604C116.67 43.363 116.79 43.22 116.862 43.0315H118.041C117.937 43.5709 117.681 43.9771 117.271 44.25C116.862 44.523 116.355 44.6595 115.75 44.6595ZM115.702 40.3118C115.552 40.3118 115.403 40.3313 115.253 40.3703C115.11 40.4093 114.984 40.471 114.873 40.5555C114.763 40.64 114.672 40.7537 114.6 40.8967C114.529 41.0397 114.49 41.2119 114.483 41.4134H116.891C116.884 41.1989 116.849 41.0202 116.784 40.8772C116.725 40.7342 116.641 40.6205 116.53 40.536C116.426 40.4515 116.303 40.3931 116.16 40.3606C116.017 40.3281 115.864 40.3118 115.702 40.3118ZM119.066 39.376H120.352V41.3744H122.555V39.376H123.842V44.5425H122.555V42.4466H120.352V44.5425H119.066V39.376ZM125.015 39.376H126.302V41.3744H128.505V39.376H129.792V44.5425H128.505V42.4466H126.302V44.5425H125.015V39.376ZM130.965 39.376H132.252V41.1112H133.158C134.491 41.1112 135.157 41.683 135.157 42.8268C135.157 43.0803 135.118 43.3142 135.04 43.5287C134.968 43.7366 134.851 43.9154 134.689 44.0648C134.526 44.2143 134.318 44.3313 134.065 44.4158C133.811 44.5002 133.509 44.5425 133.158 44.5425H130.965V39.376ZM133.012 43.5092C133.324 43.5092 133.545 43.4539 133.675 43.3435C133.805 43.2265 133.87 43.0543 133.87 42.8268C133.87 42.5994 133.802 42.4304 133.665 42.3199C133.535 42.2029 133.318 42.1445 133.012 42.1445H132.252V43.5092H133.012ZM135.722 39.376H137.009V44.5425H135.722V39.376ZM138.181 39.376H139.468V42.6903L141.768 39.376H142.957V44.5425H141.671V41.2281L139.37 44.5425H138.181V39.376ZM140.569 38.8399C139.991 38.8399 139.568 38.7164 139.302 38.4694C139.042 38.2225 138.912 37.8586 138.912 37.3777H140.053C140.053 37.6311 140.095 37.8098 140.179 37.9138C140.27 38.0113 140.4 38.06 140.569 38.06C140.751 38.06 140.884 38.0113 140.969 37.9138C141.06 37.8098 141.105 37.6311 141.105 37.3777H142.226C142.226 37.8586 142.093 38.2225 141.827 38.4694C141.567 38.7164 141.148 38.8399 140.569 38.8399ZM148.118 44.6595C147.838 44.6595 147.591 44.6205 147.377 44.5425C147.162 44.458 146.98 44.3443 146.831 44.2013C146.681 44.0518 146.568 43.8796 146.49 43.6847C146.412 43.4832 146.373 43.2655 146.373 43.0315C146.373 41.9917 146.99 41.4718 148.225 41.4718H149.765V41.2281C149.765 40.8902 149.687 40.653 149.531 40.5165C149.382 40.3801 149.141 40.3118 148.81 40.3118C148.517 40.3118 148.306 40.3638 148.176 40.4678C148.046 40.5653 147.971 40.6887 147.952 40.8382H146.665C146.678 40.6173 146.733 40.4093 146.831 40.2143C146.935 40.0194 147.078 39.8537 147.26 39.7172C147.448 39.5742 147.676 39.4637 147.942 39.3858C148.209 39.3013 148.514 39.259 148.858 39.259C149.19 39.259 149.489 39.2948 149.755 39.3663C150.028 39.4377 150.259 39.5547 150.447 39.7172C150.642 39.8732 150.792 40.0779 150.896 40.3313C151 40.5848 151.052 40.8902 151.052 41.2476V43.2265C151.052 43.4994 151.055 43.7399 151.062 43.9478C151.075 44.1493 151.094 44.3475 151.12 44.5425H149.921C149.895 44.3995 149.879 44.2923 149.872 44.2208C149.872 44.1428 149.872 44.0291 149.872 43.8796C149.729 44.0876 149.512 44.2695 149.219 44.4255C148.933 44.5815 148.566 44.6595 148.118 44.6595ZM148.517 43.6652C148.673 43.6652 148.826 43.6457 148.975 43.6067C149.125 43.5612 149.258 43.4962 149.375 43.4117C149.492 43.3207 149.586 43.207 149.658 43.0705C149.729 42.934 149.765 42.7748 149.765 42.5929V42.3492H148.469C148.222 42.3492 148.027 42.4077 147.884 42.5246C147.747 42.6351 147.679 42.7878 147.679 42.9828C147.679 43.1907 147.75 43.3565 147.893 43.4799C148.036 43.6034 148.244 43.6652 148.517 43.6652ZM152.175 39.376H153.374V40.1364C153.504 39.9024 153.708 39.6977 153.988 39.5222C154.267 39.3468 154.621 39.259 155.05 39.259C155.739 39.259 156.275 39.4735 156.659 39.9024C157.049 40.3248 157.244 40.9617 157.244 41.813V42.008C157.244 42.8983 157.045 43.5644 156.649 44.0063C156.259 44.4418 155.726 44.6595 155.05 44.6595C154.699 44.6595 154.388 44.5847 154.115 44.4353C153.848 44.2793 153.63 44.0778 153.461 43.8309V46.4921H152.175V39.376ZM154.748 43.5677C155.086 43.5677 155.369 43.4409 155.596 43.1875C155.824 42.9276 155.937 42.5344 155.937 42.008V41.813C155.937 41.3256 155.827 40.9617 155.606 40.7212C155.385 40.4743 155.099 40.3508 154.748 40.3508C154.378 40.3508 154.069 40.458 153.822 40.6725C153.582 40.8805 153.461 41.1956 153.461 41.6181V42.2029C153.461 42.6644 153.578 43.0088 153.812 43.2362C154.053 43.4572 154.365 43.5677 154.748 43.5677ZM159.298 41.852L157.64 39.376H159.073L160.204 41.0332L161.315 39.376H162.709L161.072 41.8033L162.807 44.5425H161.364L160.155 42.6124L158.956 44.5425H157.543L159.298 41.852ZM163.541 39.376H164.828V42.6903L167.128 39.376H168.318V44.5425H167.031V41.2281L164.73 44.5425H163.541V39.376ZM170.748 40.4483H169.101V39.376H173.683V40.4483H172.035V44.5425H170.748V40.4483ZM176.704 44.6595C176.353 44.6595 176.019 44.6075 175.7 44.5035C175.388 44.393 175.115 44.2305 174.882 44.0161C174.648 43.7951 174.462 43.5189 174.326 43.1875C174.189 42.8496 174.121 42.4564 174.121 42.008V41.813C174.121 41.3841 174.186 41.0104 174.316 40.692C174.446 40.3736 174.625 40.1104 174.852 39.9024C175.08 39.6879 175.343 39.5287 175.642 39.4247C175.941 39.3143 176.262 39.259 176.607 39.259C177.419 39.259 178.037 39.4735 178.459 39.9024C178.881 40.3313 179.093 40.9519 179.093 41.7643V42.3102H175.437C175.444 42.5376 175.483 42.7358 175.554 42.9048C175.626 43.0673 175.72 43.2005 175.837 43.3045C175.954 43.4085 176.087 43.4864 176.237 43.5384C176.392 43.5839 176.548 43.6067 176.704 43.6067C177.036 43.6067 177.286 43.5579 177.455 43.4604C177.624 43.363 177.744 43.22 177.816 43.0315H178.995C178.891 43.5709 178.635 43.9771 178.225 44.25C177.816 44.523 177.309 44.6595 176.704 44.6595ZM176.656 40.3118C176.506 40.3118 176.357 40.3313 176.207 40.3703C176.064 40.4093 175.938 40.471 175.827 40.5555C175.717 40.64 175.626 40.7537 175.554 40.8967C175.483 41.0397 175.444 41.2119 175.437 41.4134H177.845C177.838 41.1989 177.803 41.0202 177.738 40.8772C177.679 40.7342 177.595 40.6205 177.484 40.536C177.38 40.4515 177.257 40.3931 177.114 40.3606C176.971 40.3281 176.818 40.3118 176.656 40.3118ZM180.02 39.376H181.306V41.4036H181.794L183.373 39.376H184.796L182.846 41.8228L184.894 44.5425H183.353L181.794 42.4174H181.306V44.5425H180.02V39.376ZM186.884 40.4483H185.237V39.376H189.818V40.4483H188.171V44.5425H186.884V40.4483ZM191.664 46.6091C191.566 46.6091 191.469 46.5993 191.371 46.5798V45.488C191.469 45.5075 191.566 45.5173 191.664 45.5173C191.858 45.5173 192.008 45.4426 192.112 45.2931C192.222 45.1501 192.346 44.8999 192.482 44.5425L190.299 39.376H191.741L193.145 42.9438L194.432 39.376H195.758L193.769 44.5425C193.626 44.9064 193.49 45.2183 193.36 45.4783C193.236 45.7447 193.096 45.9592 192.941 46.1217C192.785 46.2906 192.606 46.4141 192.404 46.4921C192.203 46.5701 191.956 46.6091 191.664 46.6091ZM196.441 39.376H197.64V40.1364C197.77 39.9024 197.975 39.6977 198.254 39.5222C198.533 39.3468 198.888 39.259 199.317 39.259C200.005 39.259 200.542 39.4735 200.925 39.9024C201.315 40.3248 201.51 40.9617 201.51 41.813V42.008C201.51 42.8983 201.312 43.5644 200.915 44.0063C200.525 44.4418 199.992 44.6595 199.317 44.6595C198.966 44.6595 198.654 44.5847 198.381 44.4353C198.114 44.2793 197.897 44.0778 197.728 43.8309V46.4921H196.441V39.376ZM199.014 43.5677C199.352 43.5677 199.635 43.4409 199.862 43.1875C200.09 42.9276 200.204 42.5344 200.204 42.008V41.813C200.204 41.3256 200.093 40.9617 199.872 40.7212C199.651 40.4743 199.365 40.3508 199.014 40.3508C198.644 40.3508 198.335 40.458 198.088 40.6725C197.848 40.8805 197.728 41.1956 197.728 41.6181V42.2029C197.728 42.6644 197.845 43.0088 198.079 43.2362C198.319 43.4572 198.631 43.5677 199.014 43.5677ZM202.438 39.376H203.725V41.3744H205.928V39.376H207.215V44.5425H205.928V42.4466H203.725V44.5425H202.438V39.376ZM210.727 44.6595C210.377 44.6595 210.042 44.6075 209.723 44.5035C209.411 44.393 209.139 44.2273 208.905 44.0063C208.671 43.7854 208.485 43.5092 208.349 43.1778C208.212 42.8463 208.144 42.4564 208.144 42.008V41.813C208.144 41.3906 208.212 41.0202 208.349 40.7017C208.485 40.3833 208.671 40.1169 208.905 39.9024C209.139 39.6879 209.411 39.5287 209.723 39.4247C210.042 39.3143 210.377 39.259 210.727 39.259C211.078 39.259 211.41 39.3143 211.722 39.4247C212.034 39.5287 212.307 39.6879 212.541 39.9024C212.781 40.1169 212.97 40.3833 213.106 40.7017C213.242 41.0202 213.311 41.3906 213.311 41.813V42.008C213.311 42.4499 213.242 42.8366 213.106 43.168C212.97 43.4994 212.781 43.7756 212.541 43.9966C212.307 44.2175 212.034 44.3833 211.722 44.4937C211.41 44.6042 211.078 44.6595 210.727 44.6595ZM210.727 43.5677C211.091 43.5677 211.394 43.4377 211.634 43.1778C211.881 42.9178 212.004 42.5279 212.004 42.008V41.813C212.004 41.3386 211.881 40.9779 211.634 40.731C211.394 40.4775 211.091 40.3508 210.727 40.3508C210.357 40.3508 210.052 40.4775 209.811 40.731C209.571 40.9779 209.45 41.3386 209.45 41.813V42.008C209.45 42.5344 209.571 42.9276 209.811 43.1875C210.052 43.4409 210.357 43.5677 210.727 43.5677ZM213.941 41.2086H217.06V42.4174H213.941V41.2086ZM60.7546 56.6595C60.3972 56.6595 60.0625 56.6042 59.7505 56.4937C59.4451 56.3833 59.1786 56.2175 58.9512 55.9966C58.7237 55.7756 58.545 55.4994 58.415 55.168C58.2851 54.8366 58.2201 54.4499 58.2201 54.008V53.813C58.2201 53.3971 58.2883 53.0299 58.4248 52.7115C58.5613 52.3931 58.7432 52.1266 58.9707 51.9121C59.2046 51.6977 59.4743 51.5352 59.7798 51.4247C60.0852 51.3143 60.4102 51.259 60.7546 51.259C61.1185 51.259 61.4402 51.3078 61.7196 51.4052C62.0056 51.5027 62.246 51.636 62.441 51.8049C62.636 51.9739 62.7887 52.1721 62.8992 52.3996C63.0096 52.627 63.0746 52.8707 63.0941 53.1307H61.7879C61.7359 52.8902 61.6287 52.7017 61.4662 52.5653C61.3102 52.4223 61.073 52.3508 60.7546 52.3508C60.5856 52.3508 60.4264 52.3801 60.2769 52.4385C60.134 52.497 60.004 52.588 59.887 52.7115C59.7765 52.8285 59.6888 52.9779 59.6238 53.1599C59.5588 53.3419 59.5263 53.5596 59.5263 53.813V54.008C59.5263 54.2809 59.5556 54.5181 59.6141 54.7196C59.679 54.9146 59.7668 55.077 59.8773 55.207C59.9877 55.3305 60.1177 55.4215 60.2672 55.4799C60.4167 55.5384 60.5791 55.5677 60.7546 55.5677C61.008 55.5677 61.2257 55.5027 61.4077 55.3727C61.5962 55.2362 61.7229 55.0413 61.7879 54.7878H63.0941C63.0616 55.0738 62.9804 55.3337 62.8504 55.5677C62.7269 55.7951 62.5612 55.9901 62.3533 56.1526C62.1518 56.315 61.9146 56.4418 61.6417 56.5327C61.3687 56.6172 61.073 56.6595 60.7546 56.6595ZM65.2331 52.4483H63.5857V51.376H68.1673V52.4483H66.5199V56.5425H65.2331V52.4483ZM68.9449 51.376H70.1439V52.1364C70.2739 51.9024 70.4786 51.6977 70.758 51.5222C71.0375 51.3468 71.3916 51.259 71.8205 51.259C72.5094 51.259 73.0456 51.4735 73.429 51.9024C73.8189 52.3248 74.0139 52.9617 74.0139 53.813V54.008C74.0139 54.8983 73.8157 55.5644 73.4192 56.0063C73.0293 56.4418 72.4964 56.6595 71.8205 56.6595C71.4696 56.6595 71.1577 56.5847 70.8847 56.4353C70.6183 56.2793 70.4006 56.0778 70.2316 55.8309V58.4921H68.9449V51.376ZM71.5184 55.5677C71.8563 55.5677 72.139 55.4409 72.3664 55.1875C72.5939 54.9276 72.7076 54.5344 72.7076 54.008V53.813C72.7076 53.3256 72.5971 52.9617 72.3762 52.7212C72.1552 52.4743 71.8693 52.3508 71.5184 52.3508C71.1479 52.3508 70.8392 52.458 70.5923 52.6725C70.3518 52.8805 70.2316 53.1956 70.2316 53.6181V54.2029C70.2316 54.6644 70.3486 55.0088 70.5825 55.2362C70.823 55.4572 71.1349 55.5677 71.5184 55.5677ZM77.2817 56.6595C76.9308 56.6595 76.5961 56.6075 76.2777 56.5035C75.9658 56.393 75.6928 56.2273 75.4589 56.0063C75.2249 55.7854 75.0397 55.5092 74.9032 55.1778C74.7667 54.8463 74.6985 54.4564 74.6985 54.008V53.813C74.6985 53.3906 74.7667 53.0202 74.9032 52.7017C75.0397 52.3833 75.2249 52.1169 75.4589 51.9024C75.6928 51.6879 75.9658 51.5287 76.2777 51.4247C76.5961 51.3143 76.9308 51.259 77.2817 51.259C77.6327 51.259 77.9641 51.3143 78.2761 51.4247C78.588 51.5287 78.8609 51.6879 79.0949 51.9024C79.3353 52.1169 79.5238 52.3833 79.6603 52.7017C79.7967 53.0202 79.865 53.3906 79.865 53.813V54.008C79.865 54.4499 79.7967 54.8366 79.6603 55.168C79.5238 55.4994 79.3353 55.7756 79.0949 55.9966C78.8609 56.2175 78.588 56.3833 78.2761 56.4937C77.9641 56.6042 77.6327 56.6595 77.2817 56.6595ZM77.2817 55.5677C77.6457 55.5677 77.9479 55.4377 78.1883 55.1778C78.4353 54.9178 78.5587 54.5279 78.5587 54.008V53.813C78.5587 53.3386 78.4353 52.9779 78.1883 52.731C77.9479 52.4775 77.6457 52.3508 77.2817 52.3508C76.9113 52.3508 76.6059 52.4775 76.3654 52.731C76.125 52.9779 76.0048 53.3386 76.0048 53.813V54.008C76.0048 54.5344 76.125 54.9276 76.3654 55.1875C76.6059 55.4409 76.9113 55.5677 77.2817 55.5677ZM80.7872 51.376H82.074V54.6903L84.3745 51.376H85.5638V56.5425H84.2771V53.2281L81.9765 56.5425H80.7872V51.376ZM87.9945 52.4483H86.3471V51.376H90.9287V52.4483H89.2812V56.5425H87.9945V52.4483ZM93.9506 56.6595C93.5996 56.6595 93.2649 56.6075 92.9465 56.5035C92.6346 56.393 92.3616 56.2305 92.1277 56.0161C91.8937 55.7951 91.7085 55.5189 91.572 55.1875C91.4356 54.8496 91.3673 54.4564 91.3673 54.008V53.813C91.3673 53.3841 91.4323 53.0104 91.5623 52.692C91.6923 52.3736 91.871 52.1104 92.0984 51.9024C92.3259 51.6879 92.5891 51.5287 92.888 51.4247C93.187 51.3143 93.5087 51.259 93.8531 51.259C94.6654 51.259 95.2828 51.4735 95.7052 51.9024C96.1276 52.3313 96.3388 52.9519 96.3388 53.7643V54.3102H92.6833C92.6898 54.5376 92.7288 54.7358 92.8003 54.9048C92.8718 55.0673 92.966 55.2005 93.083 55.3045C93.2 55.4085 93.3332 55.4864 93.4827 55.5384C93.6386 55.5839 93.7946 55.6067 93.9506 55.6067C94.282 55.6067 94.5322 55.5579 94.7012 55.4604C94.8701 55.363 94.9904 55.22 95.0618 55.0315H96.2414C96.1374 55.5709 95.8807 55.9771 95.4713 56.25C95.0618 56.523 94.5549 56.6595 93.9506 56.6595ZM93.9018 52.3118C93.7524 52.3118 93.6029 52.3313 93.4534 52.3703C93.3104 52.4093 93.1837 52.471 93.0732 52.5555C92.9628 52.64 92.8718 52.7537 92.8003 52.8967C92.7288 53.0397 92.6898 53.2119 92.6833 53.4134H95.0911C95.0846 53.1989 95.0488 53.0202 94.9839 52.8772C94.9254 52.7342 94.8409 52.6205 94.7304 52.536C94.6264 52.4515 94.503 52.3931 94.36 52.3606C94.217 52.3281 94.0643 52.3118 93.9018 52.3118ZM97.2192 56.6595C97.1672 56.6595 97.1022 56.6562 97.0242 56.6497C96.9463 56.6497 96.8813 56.6432 96.8293 56.6302V55.4702C96.8618 55.4767 96.9105 55.4799 96.9755 55.4799C97.099 55.4799 97.2062 55.4442 97.2972 55.3727C97.3882 55.2947 97.4629 55.1648 97.5214 54.9828C97.5864 54.8008 97.6319 54.5604 97.6579 54.2614C97.6904 53.956 97.7066 53.5791 97.7066 53.1307V51.376H101.801V56.5425H100.514V52.4483H98.8959V53.3256C98.8959 53.995 98.8601 54.5474 98.7886 54.9828C98.7237 55.4117 98.6197 55.7496 98.4767 55.9966C98.3402 56.2435 98.1648 56.4158 97.9503 56.5132C97.7424 56.6107 97.4987 56.6595 97.2192 56.6595ZM102.968 51.376H104.255V53.1112H105.356C106.688 53.1112 107.355 53.683 107.355 54.8268C107.355 55.0803 107.316 55.3142 107.238 55.5287C107.166 55.7366 107.049 55.9154 106.887 56.0648C106.724 56.2143 106.516 56.3313 106.263 56.4158C106.009 56.5002 105.707 56.5425 105.356 56.5425H102.968V51.376ZM105.21 55.5092C105.522 55.5092 105.743 55.4539 105.873 55.3435C106.003 55.2265 106.068 55.0543 106.068 54.8268C106.068 54.5994 106 54.4304 105.863 54.3199C105.733 54.2029 105.515 54.1445 105.21 54.1445H104.255V55.5092H105.21ZM108.185 51.376H109.471V53.3744H111.674V51.376H112.961V56.5425H111.674V54.4466H109.471V56.5425H108.185V51.376ZM114.134 51.376H115.421V53.1112H116.328C117.66 53.1112 118.326 53.683 118.326 54.8268C118.326 55.0803 118.287 55.3142 118.209 55.5287C118.138 55.7366 118.021 55.9154 117.858 56.0648C117.696 56.2143 117.488 56.3313 117.234 56.4158C116.981 56.5002 116.679 56.5425 116.328 56.5425H114.134V51.376ZM116.181 55.5092C116.493 55.5092 116.714 55.4539 116.844 55.3435C116.974 55.2265 117.039 55.0543 117.039 54.8268C117.039 54.5994 116.971 54.4304 116.835 54.3199C116.705 54.2029 116.487 54.1445 116.181 54.1445H115.421V55.5092H116.181ZM118.891 51.376H120.178V56.5425H118.891V51.376ZM121.35 51.376H122.637V54.6903L124.938 51.376H126.127V56.5425H124.84V53.2281L122.54 56.5425H121.35V51.376ZM123.739 50.8399C123.16 50.8399 122.738 50.7164 122.471 50.4694C122.211 50.2225 122.081 49.8586 122.081 49.3777H123.222C123.222 49.6311 123.264 49.8098 123.349 49.9138C123.44 50.0113 123.57 50.06 123.739 50.06C123.92 50.06 124.054 50.0113 124.138 49.9138C124.229 49.8098 124.275 49.6311 124.275 49.3777H125.396C125.396 49.8586 125.262 50.2225 124.996 50.4694C124.736 50.7164 124.317 50.8399 123.739 50.8399ZM130.614 58.6091C130.517 58.6091 130.419 58.5993 130.322 58.5798V57.488C130.419 57.5075 130.517 57.5173 130.614 57.5173C130.809 57.5173 130.959 57.4426 131.063 57.2931C131.173 57.1501 131.297 56.8999 131.433 56.5425L129.25 51.376H130.692L132.096 54.9438L133.383 51.376H134.709L132.72 56.5425C132.577 56.9064 132.44 57.2183 132.31 57.4783C132.187 57.7447 132.047 57.9592 131.891 58.1217C131.735 58.2906 131.557 58.4141 131.355 58.4921C131.154 58.5701 130.907 58.6091 130.614 58.6091ZM135.392 51.376H136.678V53.3744H138.881V51.376H140.168V56.5425H138.881V54.4466H136.678V56.5425H135.392V51.376ZM141.341 51.376H142.628V54.6903L144.929 51.376H146.118V56.5425H144.831V53.2281L142.531 56.5425H141.341V51.376ZM147.291 51.376H149.884C150.216 51.376 150.498 51.4117 150.732 51.4832C150.973 51.5482 151.171 51.6425 151.327 51.7659C151.483 51.8894 151.597 52.0356 151.668 52.2046C151.74 52.3736 151.775 52.5588 151.775 52.7602C151.775 53.0007 151.701 53.2281 151.551 53.4426C151.408 53.6506 151.21 53.7903 150.956 53.8618C151.275 53.9397 151.522 54.0892 151.697 54.3102C151.879 54.5246 151.97 54.7781 151.97 55.0705C151.97 55.5189 151.814 55.8764 151.502 56.1428C151.19 56.4093 150.716 56.5425 150.079 56.5425H147.291V51.376ZM149.826 55.5092C150.118 55.5092 150.333 55.4669 150.469 55.3825C150.612 55.2915 150.683 55.1485 150.683 54.9535C150.683 54.7586 150.615 54.6189 150.479 54.5344C150.349 54.4434 150.131 54.3979 149.826 54.3979H148.578V55.5092H149.826ZM149.699 53.4426C149.998 53.4426 150.203 53.4004 150.313 53.3159C150.43 53.2314 150.489 53.1014 150.489 52.9259C150.489 52.757 150.43 52.6303 150.313 52.5458C150.196 52.4548 149.991 52.4093 149.699 52.4093H148.578V53.4426H149.699ZM155.238 56.6595C154.887 56.6595 154.552 56.6075 154.234 56.5035C153.922 56.393 153.649 56.2305 153.415 56.0161C153.181 55.7951 152.996 55.5189 152.859 55.1875C152.723 54.8496 152.654 54.4564 152.654 54.008V53.813C152.654 53.3841 152.719 53.0104 152.849 52.692C152.979 52.3736 153.158 52.1104 153.386 51.9024C153.613 51.6879 153.876 51.5287 154.175 51.4247C154.474 51.3143 154.796 51.259 155.14 51.259C155.953 51.259 156.57 51.4735 156.992 51.9024C157.415 52.3313 157.626 52.9519 157.626 53.7643V54.3102H153.97C153.977 54.5376 154.016 54.7358 154.087 54.9048C154.159 55.0673 154.253 55.2005 154.37 55.3045C154.487 55.4085 154.62 55.4864 154.77 55.5384C154.926 55.5839 155.082 55.6067 155.238 55.6067C155.569 55.6067 155.819 55.5579 155.988 55.4604C156.157 55.363 156.278 55.22 156.349 55.0315H157.529C157.425 55.5709 157.168 55.9771 156.758 56.25C156.349 56.523 155.842 56.6595 155.238 56.6595ZM155.189 52.3118C155.04 52.3118 154.89 52.3313 154.741 52.3703C154.598 52.4093 154.471 52.471 154.36 52.5555C154.25 52.64 154.159 52.7537 154.087 52.8967C154.016 53.0397 153.977 53.2119 153.97 53.4134H156.378C156.372 53.1989 156.336 53.0202 156.271 52.8772C156.213 52.7342 156.128 52.6205 156.018 52.536C155.914 52.4515 155.79 52.3931 155.647 52.3606C155.504 52.3281 155.351 52.3118 155.189 52.3118ZM158.553 51.376H159.752V52.1364C159.882 51.9024 160.087 51.6977 160.366 51.5222C160.645 51.3468 161 51.259 161.429 51.259C162.117 51.259 162.654 51.4735 163.037 51.9024C163.427 52.3248 163.622 52.9617 163.622 53.813V54.008C163.622 54.8983 163.424 55.5644 163.027 56.0063C162.637 56.4418 162.104 56.6595 161.429 56.6595C161.078 56.6595 160.766 56.5847 160.493 56.4353C160.226 56.2793 160.009 56.0778 159.84 55.8309V58.4921H158.553V51.376ZM161.126 55.5677C161.464 55.5677 161.747 55.4409 161.974 55.1875C162.202 54.9276 162.316 54.5344 162.316 54.008V53.813C162.316 53.3256 162.205 52.9617 161.984 52.7212C161.763 52.4743 161.477 52.3508 161.126 52.3508C160.756 52.3508 160.447 52.458 160.2 52.6725C159.96 52.8805 159.84 53.1956 159.84 53.6181V54.2029C159.84 54.6644 159.957 55.0088 160.191 55.2362C160.431 55.4572 160.743 55.5677 161.126 55.5677ZM166.841 56.6595C166.484 56.6595 166.149 56.6042 165.837 56.4937C165.531 56.3833 165.265 56.2175 165.038 55.9966C164.81 55.7756 164.631 55.4994 164.501 55.168C164.371 54.8366 164.306 54.4499 164.306 54.008V53.813C164.306 53.3971 164.375 53.0299 164.511 52.7115C164.648 52.3931 164.83 52.1266 165.057 51.9121C165.291 51.6977 165.561 51.5352 165.866 51.4247C166.172 51.3143 166.497 51.259 166.841 51.259C167.205 51.259 167.527 51.3078 167.806 51.4052C168.092 51.5027 168.332 51.636 168.527 51.8049C168.722 51.9739 168.875 52.1721 168.986 52.3996C169.096 52.627 169.161 52.8707 169.181 53.1307H167.874C167.822 52.8902 167.715 52.7017 167.553 52.5653C167.397 52.4223 167.159 52.3508 166.841 52.3508C166.672 52.3508 166.513 52.3801 166.363 52.4385C166.22 52.497 166.09 52.588 165.973 52.7115C165.863 52.8285 165.775 52.9779 165.71 53.1599C165.645 53.3419 165.613 53.5596 165.613 53.813V54.008C165.613 54.2809 165.642 54.5181 165.7 54.7196C165.765 54.9146 165.853 55.077 165.964 55.207C166.074 55.3305 166.204 55.4215 166.354 55.4799C166.503 55.5384 166.666 55.5677 166.841 55.5677C167.094 55.5677 167.312 55.5027 167.494 55.3727C167.683 55.2362 167.809 55.0413 167.874 54.7878H169.181C169.148 55.0738 169.067 55.3337 168.937 55.5677C168.813 55.7951 168.648 55.9901 168.44 56.1526C168.238 56.315 168.001 56.4418 167.728 56.5327C167.455 56.6172 167.159 56.6595 166.841 56.6595ZM170.062 51.376H171.349V54.6903L173.649 51.376H174.839V56.5425H173.552V53.2281L171.251 56.5425H170.062V51.376ZM177.269 52.4483H175.622V51.376H180.203V52.4483H178.556V56.5425H177.269V52.4483ZM183.225 56.6595C182.874 56.6595 182.54 56.6075 182.221 56.5035C181.909 56.393 181.636 56.2305 181.402 56.0161C181.168 55.7951 180.983 55.5189 180.847 55.1875C180.71 54.8496 180.642 54.4564 180.642 54.008V53.813C180.642 53.3841 180.707 53.0104 180.837 52.692C180.967 52.3736 181.146 52.1104 181.373 51.9024C181.601 51.6879 181.864 51.5287 182.163 51.4247C182.462 51.3143 182.783 51.259 183.128 51.259C183.94 51.259 184.558 51.4735 184.98 51.9024C185.402 52.3313 185.614 52.9519 185.614 53.7643V54.3102H181.958C181.965 54.5376 182.004 54.7358 182.075 54.9048C182.147 55.0673 182.241 55.2005 182.358 55.3045C182.475 55.4085 182.608 55.4864 182.757 55.5384C182.913 55.5839 183.069 55.6067 183.225 55.6067C183.557 55.6067 183.807 55.5579 183.976 55.4604C184.145 55.363 184.265 55.22 184.337 55.0315H185.516C185.412 55.5709 185.155 55.9771 184.746 56.25C184.337 56.523 183.83 56.6595 183.225 56.6595ZM183.177 52.3118C183.027 52.3118 182.878 52.3313 182.728 52.3703C182.585 52.4093 182.458 52.471 182.348 52.5555C182.238 52.64 182.147 52.7537 182.075 52.8967C182.004 53.0397 181.965 53.2119 181.958 53.4134H184.366C184.359 53.1989 184.324 53.0202 184.259 52.8772C184.2 52.7342 184.116 52.6205 184.005 52.536C183.901 52.4515 183.778 52.3931 183.635 52.3606C183.492 52.3281 183.339 52.3118 183.177 52.3118ZM187.703 52.4483H186.055V51.376H190.637V52.4483H188.989V56.5425H187.703V52.4483Z" fill="#7E7E7E"/>
<defs>
<clipPath id="clip0_253_2739">
<rect width="49.9588" height="79.203" fill="white"/>
</clipPath>
</defs>
</svg>
