<svg width="150" height="66" viewBox="0 0 150 66" fill="none" xmlns="http://www.w3.org/2000/svg">
<g clip-path="url(#clip0_253_2742)">
<path d="M13.0742 35.5679V15.4822H23.0583V36.2098C23.0583 39.2982 25.103 42.4674 29.1456 42.4674C33.1883 42.4674 35.1863 39.2982 35.1863 36.2098V15.4822H45.1703V35.5158C45.1703 43.52 40.1053 51.3912 29.1456 51.3912C18.186 51.3912 13.0742 43.5258 13.0742 35.5679Z" fill="#0072BC"/>
<path d="M54.9794 3.33701H50.0779L46.818 4.22765V5.38433H36.1388V4.15825L32.8673 2.89169H30.215L29.66 2.59096C29.685 2.52533 29.6965 2.45541 29.6939 2.38531C29.6912 2.31521 29.6744 2.24635 29.6445 2.18277C29.6145 2.11919 29.5721 2.06217 29.5196 2.01507C29.467 1.96798 29.4055 1.93175 29.3387 1.90852V0H28.9297V1.92587C28.8288 1.96939 28.7424 2.04025 28.6803 2.1303C28.6183 2.22034 28.5833 2.3259 28.5792 2.43481C28.5853 2.49289 28.6011 2.54957 28.626 2.60252L28.0418 2.89169H25.2843L22.1647 4.20452V5.3612H11.4153V4.20452L8.17884 3.33701H3.25985L0 4.22765V37.4359C0.00927607 45.0087 3.0522 52.2688 8.46133 57.6236C13.8705 62.9784 21.2041 65.9908 28.8538 66H29.3913C37.0409 65.9908 44.3746 62.9784 49.7837 57.6236C55.1929 52.2688 58.2358 45.0087 58.2451 37.4359V5.98002V4.24501L54.9794 3.33701ZM54.0855 37.459C54.0716 43.9362 51.4647 50.1439 46.836 54.7218C42.2072 59.2997 35.9342 61.8746 29.3913 61.8822H28.8538C22.3068 61.8746 16.0302 59.2965 11.4008 54.7136C6.77145 50.1307 4.16726 43.9171 4.15953 37.4359V9.31125H54.0855V37.459Z" fill="#0072BC"/>
<path d="M65.4297 27.1008H71.7975V28.3385H69.2913V34.7465H67.9359V28.3385H65.4297V27.1008Z" fill="black"/>
<path d="M73.6103 29.7093C74.1209 29.7286 74.6146 29.8961 75.0298 30.191C75.445 30.4859 75.7634 30.8951 75.9455 31.3678C76.1276 31.8405 76.1652 32.3558 76.0537 32.8495C75.9423 33.3432 75.6866 33.7935 75.3186 34.1445C74.9505 34.4955 74.4864 34.7315 73.9839 34.8234C73.4813 34.9152 72.9626 34.8587 72.4923 34.6609C72.0219 34.4631 71.6207 34.1328 71.3386 33.711C71.0564 33.2892 70.9058 32.7946 70.9054 32.2887C70.8949 31.9387 70.9584 31.5904 71.0919 31.2661C71.2254 30.9418 71.426 30.6488 71.6807 30.4059C71.9355 30.163 72.2388 29.9755 72.5711 29.8555C72.9034 29.7356 73.2574 29.6857 73.6103 29.7093ZM73.6103 33.694C73.8935 33.7091 74.1749 33.6397 74.4179 33.495C74.661 33.3502 74.8547 33.1367 74.9741 32.8819C75.0934 32.6272 75.1329 32.3429 75.0875 32.0657C75.0421 31.7885 74.9138 31.5311 74.7192 31.3267C74.5246 31.1224 74.2727 30.9804 73.9958 30.9192C73.719 30.8579 73.43 30.8802 73.166 30.9831C72.9021 31.086 72.6753 31.2648 72.515 31.4965C72.3547 31.7282 72.2682 32.0021 72.2666 32.2829C72.2546 32.4647 72.2805 32.6471 72.3426 32.8186C72.4047 32.9902 72.5018 33.1472 72.6278 33.2801C72.7538 33.4129 72.906 33.5187 73.075 33.591C73.244 33.6632 73.4262 33.7002 73.6103 33.6998V33.694Z" fill="black"/>
<path d="M77.3965 29.8306H78.5649L80.2532 31.8837L81.854 29.8306H82.9581V34.7464H81.6904V31.7449L80.224 33.5782H80.189L78.6759 31.7449V34.7464H77.4082L77.3965 29.8306Z" fill="black"/>
<path d="M88.7164 34.0178C88.4754 34.3002 88.1719 34.5238 87.8294 34.6712C87.487 34.8187 87.1148 34.886 86.7418 34.868C86.3997 34.876 86.0593 34.8171 85.7401 34.6949C85.4209 34.5726 85.1291 34.3893 84.8815 34.1554C84.6338 33.9216 84.4351 33.6417 84.2968 33.3318C84.1584 33.0219 84.083 32.6881 84.0749 32.3493C84.0669 32.0106 84.1263 31.6736 84.2498 31.3576C84.3733 31.0416 84.5585 30.7528 84.7947 30.5076C85.031 30.2625 85.3137 30.0658 85.6267 29.9288C85.9398 29.7918 86.277 29.7172 86.6191 29.7092C87.3476 29.6621 88.0654 29.9011 88.6171 30.3743L88.0329 31.369C87.8709 31.2091 87.6773 31.0839 87.4642 31.0013C87.2511 30.9187 87.0231 30.8805 86.7944 30.889C86.6101 30.8882 86.4276 30.924 86.2576 30.9945C86.0876 31.065 85.9337 31.1686 85.8051 31.2992C85.6764 31.4298 85.5756 31.5847 85.5087 31.7547C85.4418 31.9247 85.4102 32.1063 85.4157 32.2886C85.4116 32.476 85.4461 32.6622 85.5171 32.836C85.588 33.0098 85.6939 33.1675 85.8284 33.2995C85.9628 33.4315 86.1229 33.535 86.299 33.6038C86.4752 33.6726 86.6636 33.7053 86.8528 33.6997C87.0955 33.6997 87.3353 33.648 87.556 33.5482C87.7767 33.4484 87.9732 33.3029 88.1322 33.1214L88.7164 34.0178Z" fill="black"/>
<path d="M89.7344 29.8306H91.0021V34.7464H89.7344V29.8306ZM92.5269 32.1439L94.6417 34.7464H92.9884L91.0255 32.2654L92.8131 29.8306H94.4138L92.5269 32.1439Z" fill="black"/>
<path d="M95.418 34.7464V29.8306H96.6857V32.9652L99.0225 29.8537H100.29V34.7696H99.0225V31.635L96.6857 34.7464H95.418Z" fill="black"/>
<path d="M101.691 34.7466V29.8307H102.959V32.9653L105.296 29.8539H106.564V34.7697H105.273V31.6352L102.936 34.7466H101.691ZM103.59 27.3728C103.59 27.7776 103.742 28.1709 104.174 28.1709C104.607 28.1709 104.706 27.7776 104.706 27.3728H105.874C105.892 27.5979 105.861 27.8242 105.783 28.0364C105.705 28.2485 105.582 28.4415 105.422 28.6023C105.261 28.7631 105.068 28.8878 104.855 28.9681C104.642 29.0483 104.414 29.0822 104.186 29.0673C103.952 29.0975 103.714 29.0748 103.491 29.0009C103.267 28.927 103.063 28.8039 102.895 28.6408C102.726 28.4777 102.597 28.2789 102.517 28.0592C102.437 27.8396 102.408 27.6049 102.433 27.3728H103.59Z" fill="black"/>
<path d="M66.0488 40.825H69.3846V41.9816H67.3224V45.7177H66.0547L66.0488 40.825Z" fill="black"/>
<path d="M72.4423 40.7034C72.953 40.7227 73.4466 40.8902 73.8618 41.1851C74.277 41.48 74.5955 41.8893 74.7776 42.362C74.9596 42.8347 74.9973 43.3499 74.8858 43.8436C74.7743 44.3373 74.5187 44.7877 74.1506 45.1386C73.7826 45.4896 73.3184 45.7257 72.8159 45.8175C72.3134 45.9093 71.7947 45.8528 71.3243 45.655C70.854 45.4572 70.4528 45.1269 70.1706 44.7051C69.8885 44.2833 69.7378 43.7887 69.7375 43.2828C69.7269 42.9328 69.7904 42.5845 69.9239 42.2602C70.0574 41.936 70.258 41.643 70.5128 41.4C70.7675 41.1571 71.0708 40.9696 71.4031 40.8497C71.7354 40.7297 72.0894 40.6799 72.4423 40.7034ZM72.4423 44.6882C72.7256 44.7032 73.0069 44.6339 73.25 44.4891C73.4931 44.3444 73.6868 44.1308 73.8061 43.8761C73.9255 43.6213 73.965 43.337 73.9195 43.0598C73.8741 42.7826 73.7458 42.5252 73.5513 42.3209C73.3567 42.1165 73.1047 41.9746 72.8279 41.9133C72.551 41.8521 72.262 41.8743 71.9981 41.9772C71.7341 42.0801 71.5074 42.2589 71.3471 42.4906C71.1867 42.7223 71.1002 42.9962 71.0986 43.277C71.0866 43.4589 71.1125 43.6412 71.1746 43.8128C71.2368 43.9843 71.3338 44.1414 71.4598 44.2742C71.5858 44.4071 71.738 44.5129 71.907 44.5851C72.076 44.6573 72.2582 44.6944 72.4423 44.694V44.6882Z" fill="black"/>
<path d="M80.6207 45.0064C80.3797 45.2887 80.0762 45.5123 79.7337 45.6598C79.3913 45.8072 79.0191 45.8745 78.6461 45.8565C77.9551 45.8726 77.2859 45.6163 76.7858 45.144C76.2856 44.6716 75.9955 44.022 75.9792 43.3379C75.963 42.6538 76.2219 41.9913 76.699 41.4962C77.1762 41.001 77.8324 40.7138 78.5235 40.6977C79.2519 40.6506 79.9697 40.8896 80.5214 41.3628L79.9372 42.3576C79.7752 42.1976 79.5816 42.0724 79.3685 41.9898C79.1554 41.9072 78.9274 41.869 78.6987 41.8776C78.5144 41.8767 78.3319 41.9126 78.1619 41.983C77.9919 42.0535 77.838 42.1571 77.7094 42.2877C77.5807 42.4183 77.4799 42.5733 77.413 42.7432C77.3461 42.9132 77.3145 43.0948 77.32 43.2771C77.316 43.4645 77.3504 43.6508 77.4214 43.8246C77.4923 43.9983 77.5982 44.156 77.7327 44.288C77.8671 44.42 78.0272 44.5236 78.2033 44.5924C78.3795 44.6612 78.5679 44.6938 78.7571 44.6883C78.9998 44.6882 79.2396 44.6365 79.4603 44.5368C79.6811 44.437 79.8776 44.2914 80.0365 44.1099L80.6207 45.0064Z" fill="black"/>
<path d="M84.2943 45.7409C83.5641 47.4759 83.1259 47.927 82.3723 47.927C81.983 47.9209 81.6069 47.7866 81.3032 47.5453L81.7121 46.5968C81.8674 46.6982 82.0465 46.758 82.2321 46.7703C82.5534 46.7703 82.7812 46.5217 82.9916 46.0069L83.1026 45.7467L80.8066 40.8308H82.3314L83.4998 43.5201C83.5991 43.763 83.6634 43.9885 83.7452 44.2314C83.7852 43.9865 83.8438 43.7448 83.9204 43.5085L84.8143 40.8308H86.2573L84.2943 45.7409Z" fill="black"/>
<path d="M86.0059 44.5726H86.6368C87.0869 43.7898 87.3263 42.9056 87.332 42.0048L87.4079 40.8481H91.0709V44.5958H91.9005V46.9091H90.7321V45.7525H87.2268V46.9091H86.0584L86.0059 44.5726ZM87.9571 44.5726H89.8032V42.0048H88.588L88.553 42.508C88.5207 43.2329 88.3165 43.9402 87.9571 44.5726Z" fill="black"/>
<path d="M92.8061 41.1718C93.3417 40.8733 93.9442 40.7122 94.5587 40.7034C96.0251 40.7034 96.545 41.4436 96.545 42.7449V45.7407H95.4409V45.1624C95.2651 45.3761 95.0404 45.5453 94.7854 45.6559C94.5304 45.7665 94.2524 45.8154 93.9745 45.7985C93.7688 45.8146 93.5621 45.7868 93.3681 45.7171C93.1742 45.6473 92.9976 45.5372 92.8503 45.3941C92.7031 45.251 92.5885 45.0784 92.5143 44.8878C92.4402 44.6971 92.4082 44.493 92.4205 44.2891C92.4205 43.2076 93.2268 42.6929 94.2316 42.6929C94.6306 42.6887 95.0223 42.7992 95.3591 43.0109C95.3942 42.1897 95.1722 41.7444 94.4302 41.7444C93.9747 41.7534 93.5279 41.8704 93.1274 42.0856L92.8061 41.1718ZM95.3533 44.2949V43.7917C95.098 43.6182 94.792 43.5328 94.4828 43.5488C94.0622 43.5488 93.6883 43.7454 93.6883 44.1618C93.6883 44.5782 93.9979 44.7402 94.3952 44.7402C94.5795 44.7542 94.7644 44.7211 94.9321 44.6441C95.0999 44.5672 95.2449 44.4489 95.3533 44.3006V44.2949Z" fill="black"/>
<path d="M97.8476 40.8249H99.1153V41.2933C99.5313 40.9089 100.083 40.7012 100.652 40.715C102.019 40.715 102.901 41.7618 102.901 43.2192C102.919 43.5681 102.864 43.9168 102.739 44.2435C102.613 44.5701 102.421 44.8675 102.174 45.117C101.927 45.3664 101.631 45.5624 101.303 45.6927C100.976 45.823 100.625 45.8846 100.272 45.8738C99.8683 45.8902 99.4667 45.8068 99.1037 45.6309V47.9442H97.8359L97.8476 40.8249ZM99.1153 42.4211V44.4106C99.4249 44.6121 99.791 44.7113 100.161 44.694C100.352 44.6995 100.541 44.6651 100.718 44.5931C100.894 44.5211 101.053 44.413 101.184 44.276C101.315 44.139 101.416 43.9761 101.479 43.798C101.543 43.6199 101.567 43.4305 101.551 43.2423C101.569 43.0657 101.549 42.8873 101.49 42.7193C101.432 42.5514 101.338 42.3979 101.214 42.2694C101.09 42.1408 100.94 42.0403 100.773 41.9747C100.607 41.909 100.428 41.8798 100.249 41.889C100.033 41.8934 99.8198 41.9431 99.6244 42.0349C99.4291 42.1266 99.2556 42.2582 99.1153 42.4211Z" fill="black"/>
<path d="M108.363 45.0064C108.122 45.2887 107.818 45.5123 107.476 45.6598C107.133 45.8072 106.761 45.8745 106.388 45.8565C105.697 45.8726 105.028 45.6163 104.528 45.144C104.028 44.6716 103.738 44.022 103.721 43.3379C103.705 42.6538 103.964 41.9913 104.441 41.4962C104.918 41.001 105.575 40.7138 106.266 40.6977C106.994 40.6506 107.712 40.8896 108.264 41.3628L107.679 42.3576C107.517 42.1976 107.324 42.0724 107.111 41.9898C106.898 41.9072 106.67 41.869 106.441 41.8776C106.257 41.8767 106.074 41.9126 105.904 41.983C105.734 42.0535 105.58 42.1571 105.452 42.2877C105.323 42.4183 105.222 42.5733 105.155 42.7432C105.088 42.9132 105.057 43.0948 105.062 43.2771C105.058 43.4645 105.093 43.6508 105.164 43.8246C105.235 43.9983 105.34 44.156 105.475 44.288C105.609 44.42 105.769 44.5236 105.946 44.5924C106.122 44.6612 106.31 44.6938 106.499 44.6883C106.742 44.6882 106.982 44.6365 107.202 44.5368C107.423 44.437 107.62 44.2914 107.779 44.1099L108.363 45.0064Z" fill="black"/>
<path d="M108.768 40.825H113.295V42.08H111.671V45.7408H110.415V42.08H108.779L108.768 40.825Z" fill="black"/>
<path d="M114.193 40.825C114.626 40.825 115.362 40.7729 116.145 40.7729C117.588 40.7729 118.394 41.1662 118.394 42.0626C118.397 42.3248 118.305 42.5795 118.135 42.7802C117.964 42.9808 117.726 43.1141 117.465 43.1557C118.16 43.3176 118.522 43.734 118.522 44.3124C118.522 45.284 117.763 45.7987 116.185 45.7987C115.566 45.7987 114.661 45.7467 114.211 45.7467L114.193 40.825ZM115.461 41.8082V42.8897H116.291C116.711 42.8897 117.05 42.7046 117.05 42.3113C117.05 41.9181 116.729 41.7735 116.256 41.7735C115.958 41.785 115.595 41.7966 115.461 41.8082ZM115.461 43.6531V44.7461C115.648 44.7461 115.993 44.7924 116.302 44.7924C116.887 44.7924 117.196 44.5611 117.196 44.2141C117.196 43.8671 116.857 43.6357 116.256 43.6357L115.461 43.6531Z" fill="black"/>
<path d="M123.996 45.2491C123.454 45.664 122.783 45.8806 122.098 45.8622C121.407 45.8683 120.742 45.6024 120.249 45.123C119.756 44.6436 119.475 43.99 119.469 43.3059C119.463 42.6218 119.731 41.9633 120.215 41.4752C120.7 40.9871 121.36 40.7095 122.051 40.7034C122.413 40.7082 122.769 40.7947 123.093 40.9561C123.416 41.1176 123.698 41.3499 123.917 41.6353C124.136 41.9207 124.286 42.2518 124.357 42.6034C124.427 42.955 124.416 43.3179 124.324 43.6645H120.737C120.786 44.0103 120.969 44.3238 121.246 44.5394C121.524 44.755 121.875 44.8559 122.226 44.8211C122.73 44.8291 123.223 44.6726 123.628 44.3758L123.996 45.2491ZM120.696 42.797H123.132C123.138 42.6497 123.113 42.5028 123.057 42.3662C123.001 42.2295 122.917 42.1063 122.809 42.0048C122.701 41.9034 122.572 41.8261 122.431 41.7782C122.29 41.7303 122.141 41.7128 121.993 41.727C121.679 41.7071 121.37 41.807 121.129 42.006C120.887 42.2051 120.732 42.4882 120.696 42.797Z" fill="black"/>
<path d="M128.875 43.8612H126.701V45.7408H125.428V40.825H126.695V42.6814H128.869V40.825H130.136V45.7408H128.875V43.8612Z" fill="black"/>
<path d="M134.998 43.8612H132.824V45.7408H131.557V40.825H132.824V42.6814H134.998V40.825H136.265V45.7408H134.998V43.8612Z" fill="black"/>
<path d="M137.686 40.825H138.953V42.1667H139.573C141.261 42.1667 141.757 42.9995 141.757 43.8728C141.757 44.7461 141.173 45.7408 139.473 45.7408H137.686V40.825ZM138.953 43.173V44.6478H139.45C140.133 44.6478 140.408 44.3644 140.408 43.9133C140.408 43.4622 140.145 43.173 139.462 43.173H138.953ZM142.459 40.825H143.715V45.7408H142.447L142.459 40.825Z" fill="black"/>
<path d="M145.145 45.7408V40.8249H146.412V43.9537L148.749 40.8422H150.017V45.7581H148.749V42.6293L146.412 45.7408H145.145ZM147.043 38.3669C147.043 38.7718 147.195 39.1651 147.627 39.1651C148.06 39.1651 148.159 38.7718 148.159 38.3669H149.327C149.346 38.592 149.314 38.8184 149.236 39.0305C149.158 39.2427 149.035 39.4357 148.875 39.5965C148.715 39.7572 148.521 39.882 148.308 39.9622C148.095 40.0424 147.867 40.0763 147.639 40.0615C147.405 40.0916 147.168 40.0689 146.944 39.9951C146.72 39.9212 146.516 39.7981 146.348 39.635C146.179 39.4719 146.05 39.273 145.97 39.0534C145.89 38.8338 145.862 38.5991 145.886 38.3669H147.043Z" fill="black"/>
<path d="M68.89 56.735C68.1598 58.47 67.7216 58.9212 66.968 58.9212C66.5787 58.915 66.2026 58.7807 65.8989 58.5395L66.3079 57.591C66.4631 57.6924 66.6422 57.7521 66.8278 57.7645C67.1491 57.7645 67.377 57.5158 67.5873 57.0011L67.6983 56.7408L65.4023 51.825H66.9271L68.0955 54.5142C68.1948 54.7571 68.2591 54.9827 68.3409 55.2256C68.3807 54.9805 68.4392 54.7389 68.5161 54.5027L69.41 51.825H70.853L68.89 56.735Z" fill="black"/>
<path d="M75.0464 54.8555H72.8732V56.7351H71.6055V51.8193H72.8732V53.6757H75.0464V51.8135H76.3142V56.7294H75.0464V54.8555Z" fill="black"/>
<path d="M77.6992 56.7352V51.8193H78.9669V54.9424L81.3037 51.8309H82.5715V56.7468H81.3037V53.618L78.9669 56.7294L77.6992 56.7352Z" fill="black"/>
<path d="M83.9961 51.8135C84.4284 51.8135 85.1645 51.7615 85.9473 51.7615C87.3903 51.7615 88.1965 52.1547 88.1965 53.0512C88.1998 53.3134 88.1079 53.568 87.9373 53.7687C87.7668 53.9693 87.5291 54.1026 87.2676 54.1442C87.9628 54.3062 88.325 54.7226 88.325 55.3009C88.325 56.2725 87.5655 56.7872 85.9882 56.7872C85.369 56.7872 84.4635 56.7352 84.0136 56.7352L83.9961 51.8135ZM85.2638 52.7967V53.8782H86.0934C86.514 53.8782 86.8528 53.6931 86.8528 53.2999C86.8528 52.9066 86.5315 52.762 86.0583 52.762C85.7604 52.7794 85.3982 52.7909 85.293 52.7967H85.2638ZM85.2638 54.6416V55.7347C85.4507 55.7347 85.7954 55.7809 86.105 55.7809C86.6892 55.7809 86.9989 55.5496 86.9989 55.2026C86.9989 54.8556 86.66 54.6242 86.0583 54.6242L85.2638 54.6416Z" fill="black"/>
<path d="M93.7992 56.2435C93.2566 56.6584 92.5859 56.875 91.9005 56.8565C91.2095 56.8627 90.5443 56.5968 90.0513 56.1174C89.5582 55.638 89.2778 54.9844 89.2716 54.3003C89.2654 53.6162 89.534 52.9577 90.0182 52.4696C90.5025 51.9815 91.1627 51.7039 91.8538 51.6978C92.2158 51.7026 92.572 51.789 92.8953 51.9505C93.2186 52.112 93.5004 52.3443 93.7195 52.6297C93.9385 52.9151 94.089 53.2462 94.1595 53.5978C94.23 53.9494 94.2187 54.3122 94.1263 54.6589H90.551C90.6005 55.0047 90.7832 55.3182 91.0609 55.5338C91.3385 55.7494 91.6896 55.8503 92.0407 55.8155C92.5448 55.8235 93.0375 55.667 93.4428 55.3702L93.7992 56.2435ZM90.4984 53.8203H92.9346C92.9411 53.673 92.9156 53.5261 92.8599 53.3895C92.8041 53.2528 92.7194 53.1296 92.6114 53.0281C92.5034 52.9267 92.3746 52.8494 92.2339 52.8015C92.0931 52.7536 91.9435 52.7361 91.7954 52.7503C91.4828 52.7303 91.1744 52.8294 90.9332 53.0272C90.6921 53.2251 90.5365 53.5067 90.4984 53.8145V53.8203Z" fill="black"/>
<path d="M95.2246 51.8134H96.4923V52.2819C96.9083 51.8974 97.4599 51.6897 98.0288 51.7035C99.3958 51.7035 100.278 52.7503 100.278 54.2077C100.296 54.5566 100.241 54.9054 100.116 55.232C99.9905 55.5586 99.7984 55.8561 99.5513 56.1055C99.3043 56.3549 99.0077 56.551 98.6803 56.6812C98.3529 56.8115 98.0018 56.8731 97.6491 56.8623C97.2452 56.8788 96.8437 56.7953 96.4806 56.6194V58.9327H95.2246V51.8134ZM96.4923 53.4096V55.3991C96.8019 55.6006 97.168 55.6998 97.5381 55.6825C97.7287 55.688 97.9184 55.6536 98.0947 55.5816C98.271 55.5096 98.43 55.4015 98.5612 55.2645C98.6925 55.1275 98.793 54.9646 98.8563 54.7865C98.9196 54.6084 98.9442 54.419 98.9285 54.2309C98.9464 54.0542 98.9255 53.8758 98.8673 53.7079C98.8091 53.5399 98.7149 53.3864 98.5912 53.2579C98.4674 53.1294 98.3171 53.0288 98.1505 52.9632C97.9838 52.8975 97.8048 52.8683 97.6257 52.8776C97.4115 52.8836 97.201 52.9341 97.0078 53.0257C96.8146 53.1174 96.643 53.2482 96.504 53.4096H96.4923Z" fill="black"/>
<path d="M105.74 56.0005C105.499 56.2829 105.195 56.5064 104.853 56.6539C104.51 56.8013 104.138 56.8686 103.765 56.8506C103.423 56.8586 103.083 56.7998 102.764 56.6775C102.444 56.5553 102.153 56.372 101.905 56.1381C101.657 55.9042 101.459 55.6243 101.32 55.3144C101.182 55.0046 101.106 54.6707 101.098 54.332C101.09 53.9933 101.15 53.6563 101.273 53.3403C101.397 53.0243 101.582 52.7355 101.818 52.4903C102.054 52.2451 102.337 52.0485 102.65 51.9115C102.963 51.7745 103.3 51.6999 103.643 51.6919C104.371 51.6448 105.089 51.8837 105.641 52.357L105.056 53.3517C104.894 53.1917 104.701 53.0665 104.488 52.9839C104.275 52.9014 104.047 52.8631 103.818 52.8717C103.634 52.8708 103.451 52.9067 103.281 52.9772C103.111 53.0476 102.957 53.1513 102.829 53.2819C102.7 53.4125 102.599 53.5674 102.532 53.7374C102.465 53.9073 102.434 54.0889 102.439 54.2713C102.435 54.4586 102.47 54.6449 102.541 54.8187C102.611 54.9925 102.717 55.1501 102.852 55.2821C102.986 55.4141 103.146 55.5177 103.322 55.5865C103.499 55.6553 103.687 55.6879 103.876 55.6824C104.119 55.6823 104.359 55.6307 104.579 55.5309C104.8 55.4311 104.997 55.2855 105.156 55.1041L105.74 56.0005Z" fill="black"/>
<path d="M106.77 56.7352V51.8193H108.037V54.9424L110.374 51.8309H111.642V56.7468H110.357V53.618L108.02 56.7294L106.77 56.7352Z" fill="black"/>
<path d="M112.518 51.8135H117.045V53.0685H115.421V56.7351H114.153V53.0743H112.518V51.8135Z" fill="black"/>
<path d="M122.051 56.2435C121.509 56.6584 120.838 56.875 120.152 56.8565C119.461 56.8627 118.796 56.5968 118.303 56.1174C117.81 55.638 117.53 54.9844 117.524 54.3003C117.517 53.6162 117.786 52.9577 118.27 52.4696C118.754 51.9815 119.415 51.7039 120.106 51.6978C120.468 51.7026 120.824 51.789 121.147 51.9505C121.471 52.112 121.752 52.3443 121.971 52.6297C122.19 52.9151 122.341 53.2462 122.411 53.5978C122.482 53.9494 122.471 54.3122 122.378 54.6589H118.791C118.841 55.0047 119.023 55.3182 119.301 55.5338C119.579 55.7494 119.93 55.8503 120.281 55.8155C120.785 55.8235 121.278 55.667 121.683 55.3702L122.051 56.2435ZM118.75 53.8203H121.187C121.193 53.673 121.168 53.5261 121.112 53.3895C121.056 53.2528 120.971 53.1296 120.863 53.0281C120.755 52.9267 120.627 52.8494 120.486 52.8015C120.345 52.7536 120.195 52.7361 120.047 52.7503C119.735 52.7303 119.426 52.8294 119.185 53.0272C118.944 53.2251 118.788 53.5067 118.75 53.8145V53.8203Z" fill="black"/>
<path d="M122.928 51.8135H127.455V53.0685H125.831V56.7351H124.564V53.0743H122.928V51.8135Z" fill="black"/>
<path d="M69.1339 11.7056H66.7445V13.6546H66.2188V9.35181H66.7445V11.2141H69.1339V9.35181H69.6597V13.6546H69.1339V11.7056Z" fill="black"/>
<path d="M70.777 11.075C71.0591 10.9072 71.3823 10.8191 71.7115 10.8206C72.5058 10.8206 72.7861 11.2312 72.7861 11.9773V13.6776H72.313V13.3016C72.207 13.4339 72.0706 13.5392 71.9152 13.6086C71.7597 13.678 71.5897 13.7096 71.4194 13.7007C71.3041 13.7085 71.1885 13.6916 71.0804 13.6513C70.9723 13.6109 70.8742 13.548 70.7927 13.4669C70.7113 13.3857 70.6485 13.2881 70.6085 13.1808C70.5684 13.0735 70.5522 12.9589 70.5609 12.8448C70.5609 12.2664 71.0164 11.9657 71.618 11.9657C71.8624 11.9572 72.1039 12.0195 72.313 12.145C72.313 11.6302 72.2313 11.2717 71.6823 11.2717C71.4114 11.2682 71.1448 11.3382 70.9113 11.4741L70.777 11.075ZM72.313 12.8968V12.5498C72.1296 12.4244 71.9109 12.3597 71.6881 12.3647C71.3902 12.3647 71.104 12.4978 71.104 12.8216C71.104 13.1455 71.2851 13.2554 71.6063 13.2554C71.744 13.2532 71.8793 13.2197 72.0018 13.1575C72.1243 13.0953 72.2308 13.0061 72.313 12.8968Z" fill="black"/>
<path d="M73.6094 10.8843H74.1058V13.1976H75.5952V10.8843H76.0916V13.1976H76.5589V14.3543H76.0916V13.6545H73.6094V10.8843Z" fill="black"/>
<path d="M77.1152 13.6545V10.8843H77.6117V12.9432L79.2295 10.8843H79.726V13.6545H79.2295V11.5667L77.6117 13.6256L77.1152 13.6545Z" fill="black"/>
<path d="M81.916 10.8265C82.2035 10.8322 82.4828 10.9218 82.7191 11.0841C82.9553 11.2464 83.1379 11.4742 83.244 11.7388C83.3501 12.0035 83.3748 12.2932 83.3152 12.5718C83.2556 12.8503 83.1143 13.1052 82.909 13.3045C82.7037 13.5039 82.4435 13.6387 82.1611 13.6922C81.8787 13.7457 81.5866 13.7154 81.3215 13.6052C81.0564 13.4949 80.83 13.3097 80.6708 13.0726C80.5116 12.8355 80.4267 12.5571 80.4266 12.2724C80.4198 12.0782 80.454 11.8848 80.5268 11.7044C80.5996 11.524 80.7096 11.3606 80.8497 11.2246C80.9898 11.0886 81.157 10.983 81.3405 10.9145C81.5241 10.8459 81.7201 10.816 81.916 10.8265ZM81.916 13.2556C82.1793 13.2556 82.4319 13.152 82.6181 12.9676C82.8043 12.7832 82.9089 12.5331 82.9089 12.2724C82.9089 12.0116 82.8043 11.7615 82.6181 11.5772C82.4319 11.3928 82.1793 11.2892 81.916 11.2892C81.6527 11.2892 81.4001 11.3928 81.2139 11.5772C81.0277 11.7615 80.9231 12.0116 80.9231 12.2724C80.9231 12.5331 81.0277 12.7832 81.2139 12.9676C81.4001 13.152 81.6527 13.2556 81.916 13.2556Z" fill="black"/>
<path d="M86.1692 12.4863H84.6156V13.643H84.125V10.8843H84.6215V12.041H86.1751V10.8843H86.6715V13.6545H86.1751L86.1692 12.4863Z" fill="black"/>
<path d="M87.5836 11.075C87.8639 10.9079 88.185 10.8199 88.5122 10.8206C89.3066 10.8206 89.5869 11.2312 89.5869 11.9772V13.6776H89.1138V13.3016C89.0078 13.4339 88.8714 13.5392 88.7159 13.6086C88.5605 13.678 88.3905 13.7096 88.2202 13.7007C88.1049 13.7085 87.9893 13.6916 87.8812 13.6513C87.7731 13.6109 87.675 13.548 87.5935 13.4669C87.5121 13.3857 87.4492 13.2881 87.4092 13.1808C87.3692 13.0734 87.353 12.9588 87.3616 12.8447C87.3616 12.2664 87.8172 11.9657 88.4188 11.9657C88.6632 11.9572 88.9047 12.0195 89.1138 12.145C89.1138 11.6302 89.032 11.2717 88.4772 11.2717C88.2064 11.2685 87.9399 11.3385 87.7062 11.4741L87.5836 11.075ZM89.1197 12.8968V12.5498C88.9363 12.4244 88.7175 12.3596 88.4947 12.3647C88.1968 12.3647 87.9106 12.4977 87.9106 12.8216C87.9106 13.1455 88.0917 13.2554 88.4129 13.2554C88.5505 13.2527 88.6857 13.219 88.8081 13.1569C88.9306 13.0948 89.0371 13.0058 89.1197 12.8968Z" fill="black"/>
<path d="M92.3329 11.3817H91.3517L91.3225 11.8502C91.1998 13.4233 90.7734 13.6951 90.2011 13.6951L90.166 13.2151C90.3763 13.2151 90.7501 13.03 90.8435 11.7519L90.8903 10.8901H92.8352V13.6604H92.3387L92.3329 11.3817Z" fill="black"/>
<path d="M93.7246 10.8843H94.221V11.7171H94.7292C95.5877 11.7171 95.8331 12.1798 95.8331 12.6713C95.8331 13.1629 95.5469 13.6545 94.6649 13.6545H93.7188L93.7246 10.8843ZM94.221 12.174V13.1861H94.6299C95.1205 13.1861 95.3074 13.0068 95.3074 12.6829C95.3074 12.359 95.1147 12.174 94.6357 12.174H94.221Z" fill="black"/>
<path d="M98.5481 12.4863H96.9769V13.643H96.4805V10.8843H96.9769V12.041H98.5305V10.8843H99.027V13.6545H98.5305L98.5481 12.4863Z" fill="black"/>
<path d="M99.9453 10.8843H100.442V11.7171H100.903C101.762 11.7171 102.008 12.1798 102.008 12.6713C102.008 13.1629 101.721 13.6545 100.839 13.6545H99.9395L99.9453 10.8843ZM100.442 12.174V13.1861H100.804C101.301 13.1861 101.482 13.0068 101.482 12.6829C101.482 12.359 101.289 12.174 100.81 12.174H100.442ZM102.539 10.8843H103.036V13.6545H102.539V10.8843Z" fill="black"/>
<path d="M103.936 13.6545V10.8843H104.432V12.9432L106.05 10.8843H106.546V13.6545H106.05V11.5667L104.432 13.6256L103.936 13.6545ZM104.8 9.47314C104.8 9.8028 104.981 9.95895 105.279 9.95895C105.577 9.95895 105.705 9.8028 105.734 9.47314H106.202C106.204 9.5908 106.181 9.70756 106.135 9.81603C106.089 9.92451 106.02 10.0223 105.934 10.1033C105.848 10.1843 105.746 10.2467 105.634 10.2866C105.522 10.3265 105.403 10.3429 105.285 10.3349C105.163 10.3491 105.041 10.3372 104.924 10.3C104.808 10.2628 104.701 10.2012 104.612 10.1193C104.522 10.0375 104.451 9.93737 104.404 9.82583C104.357 9.71429 104.334 9.59398 104.339 9.47314H104.8Z" fill="black"/>
<path d="M66.0156 21.0344V18.2642H66.5121V20.323L68.1299 18.2642H68.6264V21.0344H68.1299V18.9697L66.5121 21.0286L66.0156 21.0344Z" fill="black"/>
<path d="M71.9025 20.6294C71.77 20.7816 71.6046 20.9022 71.4185 20.9823C71.2324 21.0624 71.0305 21.0999 70.8278 21.0921C70.4405 21.1028 70.0648 20.9608 69.7833 20.6972C69.5018 20.4337 69.3376 20.0702 69.3267 19.6867C69.3159 19.3033 69.4593 18.9312 69.7255 18.6525C69.9917 18.3738 70.3588 18.2111 70.746 18.2004C70.9442 18.1867 71.1432 18.2119 71.3316 18.2744C71.5201 18.3369 71.6942 18.4356 71.8441 18.5647L71.6163 18.9522C71.398 18.7559 71.1108 18.6521 70.8161 18.6631C70.5528 18.6692 70.3027 18.7787 70.1209 18.9674C69.939 19.1561 69.8404 19.4086 69.8466 19.6694C69.8528 19.9301 69.9633 20.1778 70.1539 20.3578C70.3445 20.5378 70.5995 20.6355 70.8628 20.6294C71.0143 20.6295 71.1641 20.5976 71.3021 20.5358C71.4401 20.4739 71.5631 20.3836 71.663 20.2708L71.9025 20.6294Z" fill="black"/>
<path d="M74.7775 20.6294C74.645 20.7816 74.4796 20.9022 74.2935 20.9823C74.1074 21.0624 73.9055 21.0999 73.7028 21.0921C73.3155 21.1028 72.9398 20.9608 72.6583 20.6972C72.3768 20.4337 72.2126 20.0702 72.2017 19.6867C72.1909 19.3033 72.3343 18.9312 72.6005 18.6525C72.8667 18.3738 73.2338 18.2111 73.621 18.2004C73.8192 18.1867 74.0182 18.2119 74.2066 18.2744C74.395 18.3369 74.5692 18.4356 74.7191 18.5647L74.4913 18.9522C74.273 18.7559 73.9858 18.6521 73.6911 18.6631C73.4278 18.6692 73.1777 18.7787 72.9959 18.9674C72.814 19.1561 72.7154 19.4086 72.7216 19.6694C72.7278 19.9301 72.8383 20.1778 73.0289 20.3578C73.2195 20.5378 73.4745 20.6355 73.7378 20.6294C73.8894 20.6299 74.0392 20.5982 74.1773 20.5363C74.3154 20.4744 74.4384 20.3839 74.538 20.2708L74.7775 20.6294Z" fill="black"/>
<path d="M77.2958 18.7557H76.3146L76.2853 19.2242C76.1627 20.7973 75.7363 21.0691 75.1639 21.0691L75.1289 20.5891C75.3392 20.5891 75.713 20.404 75.8064 19.1259L75.8531 18.2642H77.7981V21.0344H77.3016L77.2958 18.7557Z" fill="black"/>
<path d="M81.0455 20.7277C80.7507 20.9704 80.3775 21.0997 79.9942 21.0921C79.797 21.1072 79.5988 21.0804 79.4128 21.0136C79.2268 20.9467 79.0574 20.8414 78.9159 20.7045C78.7744 20.5677 78.664 20.4024 78.5921 20.22C78.5202 20.0375 78.4885 19.8419 78.499 19.6463C78.4864 19.4546 78.5149 19.2625 78.5826 19.0826C78.6504 18.9026 78.756 18.739 78.8923 18.6024C79.0286 18.4658 79.1926 18.3593 79.3735 18.29C79.5543 18.2207 79.748 18.1902 79.9417 18.2004C80.1122 18.194 80.2822 18.2223 80.4413 18.2835C80.6003 18.3447 80.745 18.4374 80.8665 18.5561C80.988 18.6748 81.0837 18.8168 81.1476 18.9734C81.2115 19.1301 81.2424 19.2981 81.2383 19.467C81.2399 19.5776 81.2301 19.688 81.2091 19.7966H79.0597C79.0663 19.9155 79.097 20.0319 79.15 20.1388C79.2031 20.2456 79.2774 20.3408 79.3685 20.4185C79.4595 20.4963 79.5655 20.5551 79.6801 20.5913C79.7946 20.6275 79.9154 20.6405 80.0351 20.6294C80.3472 20.639 80.6522 20.5363 80.8937 20.3403L81.0455 20.7277ZM79.0247 19.3976H80.7185C80.7197 19.295 80.6992 19.1934 80.6583 19.0992C80.6174 19.0049 80.5571 18.9202 80.4812 18.8505C80.4053 18.7808 80.3154 18.7276 80.2175 18.6943C80.1195 18.661 80.0156 18.6484 79.9125 18.6573C79.6955 18.6428 79.4814 18.7126 79.3156 18.8519C79.1498 18.9912 79.0455 19.189 79.0247 19.4034V19.3976Z" fill="black"/>
<path d="M81.4257 20.5717H81.7762C82.0519 20.0921 82.1987 19.5505 82.2027 18.9986L82.2436 18.2642H84.1247V20.5775H84.5921V21.7342H84.1247V21.0344H81.8638V21.7111H81.3965L81.4257 20.5717ZM82.302 20.5717H83.6573V18.7268H82.7109L82.6817 19.1895C82.664 19.673 82.5341 20.1459 82.302 20.5717Z" fill="black"/>
<path d="M86.4609 18.2003C86.7484 18.206 87.0278 18.2956 87.264 18.4579C87.5003 18.6202 87.6829 18.848 87.7889 19.1126C87.895 19.3772 87.9198 19.667 87.8602 19.9455C87.8006 20.2241 87.6593 20.479 87.4539 20.6783C87.2486 20.8776 86.9884 21.0125 86.706 21.066C86.4236 21.1195 86.1315 21.0892 85.8664 20.979C85.6013 20.8687 85.3749 20.6834 85.2157 20.4463C85.0566 20.2092 84.9716 19.9309 84.9715 19.6462C84.9648 19.452 84.9989 19.2586 85.0717 19.0782C85.1446 18.8978 85.2545 18.7344 85.3946 18.5984C85.5347 18.4624 85.7019 18.3568 85.8855 18.2882C86.069 18.2197 86.265 18.1898 86.4609 18.2003ZM86.4609 20.6293C86.7243 20.6293 86.9768 20.5257 87.163 20.3414C87.3492 20.157 87.4538 19.9069 87.4538 19.6462C87.4538 19.3854 87.3492 19.1353 87.163 18.9509C86.9768 18.7666 86.7243 18.663 86.4609 18.663C86.1976 18.663 85.945 18.7666 85.7588 18.9509C85.5726 19.1353 85.468 19.3854 85.468 19.6462C85.468 19.9069 85.5726 20.157 85.7588 20.3414C85.945 20.5257 86.1976 20.6293 86.4609 20.6293Z" fill="black"/>
<path d="M88.664 18.2642C88.9035 18.2642 89.2481 18.2642 89.6744 18.2642C90.4571 18.2642 90.8776 18.4781 90.8776 18.9755C90.881 19.1354 90.8224 19.2906 90.7137 19.4089C90.605 19.5273 90.4546 19.5999 90.2935 19.6117C90.7433 19.6927 90.9477 19.9182 90.9477 20.2652C90.9477 20.7857 90.533 21.0691 89.6627 21.0691C89.3123 21.0691 88.8918 21.0691 88.6406 21.0691L88.664 18.2642ZM89.1604 18.6574V19.4845H89.7854C90.1125 19.4845 90.3695 19.3225 90.3695 19.0565C90.3695 18.7904 90.0891 18.6459 89.7328 18.6459C89.4934 18.6401 89.2831 18.6516 89.1604 18.6574ZM89.1604 19.8141V20.6643C89.3123 20.6643 89.5109 20.6643 89.7445 20.6643C90.2059 20.6643 90.4571 20.5081 90.4571 20.2189C90.4571 19.9298 90.2176 19.7968 89.7679 19.7968L89.1604 19.8141Z" fill="black"/>
<path d="M91.7496 18.4549C92.0299 18.2878 92.351 18.1998 92.6782 18.2004C93.4726 18.2004 93.7529 18.6111 93.7529 19.3571V21.0574H93.2798V20.6989C93.1738 20.8311 93.0374 20.9364 92.8819 21.0058C92.7265 21.0752 92.5565 21.1068 92.3862 21.0979C92.2714 21.1048 92.1564 21.0873 92.049 21.0466C91.9416 21.0059 91.8442 20.9429 91.7635 20.8618C91.6827 20.7807 91.6204 20.6834 91.5807 20.5765C91.541 20.4696 91.5249 20.3556 91.5335 20.242C91.5335 19.6636 91.9891 19.3629 92.5906 19.3629C92.835 19.3544 93.0765 19.4167 93.2857 19.5422C93.2857 19.0275 93.2039 18.6689 92.6549 18.6689C92.3841 18.6657 92.1175 18.7357 91.8839 18.8713L91.7496 18.4549ZM93.2857 20.2767V19.9239C93.1023 19.7985 92.8835 19.7337 92.6607 19.7388C92.3628 19.7388 92.0767 19.8718 92.0767 20.1957C92.0767 20.5196 92.2577 20.6295 92.5789 20.6295C92.716 20.6275 92.8509 20.5947 92.9733 20.5336C93.0957 20.4725 93.2025 20.3846 93.2857 20.2767Z" fill="black"/>
<path d="M94.2324 18.2642H96.779V18.7557H95.7568V21.0286H95.2604V18.7557H94.2324V18.2642Z" fill="black"/>
<path d="M99.5885 20.7277C99.2937 20.9704 98.9205 21.0997 98.5372 21.0921C98.34 21.1072 98.1417 21.0804 97.9558 21.0136C97.7698 20.9467 97.6004 20.8414 97.4589 20.7045C97.3173 20.5677 97.2069 20.4024 97.135 20.22C97.0631 20.0375 97.0314 19.8419 97.042 19.6463C97.0293 19.4546 97.0578 19.2625 97.1256 19.0826C97.1934 18.9026 97.2989 18.739 97.4352 18.6024C97.5715 18.4658 97.7355 18.3593 97.9164 18.29C98.0973 18.2207 98.291 18.1902 98.4846 18.2004C98.6552 18.194 98.8252 18.2223 98.9843 18.2835C99.1433 18.3447 99.288 18.4374 99.4095 18.5561C99.531 18.6748 99.6266 18.8168 99.6906 18.9734C99.7545 19.1301 99.7854 19.2981 99.7813 19.467C99.7828 19.5775 99.773 19.688 99.7521 19.7966H97.6027C97.6093 19.9155 97.64 20.0319 97.693 20.1388C97.7461 20.2456 97.8204 20.3408 97.9114 20.4185C98.0025 20.4963 98.1085 20.5551 98.223 20.5913C98.3376 20.6275 98.4584 20.6405 98.5781 20.6294C98.8902 20.639 99.1952 20.5363 99.4367 20.3403L99.5885 20.7277ZM97.5618 19.4034H99.2556C99.2568 19.3008 99.2363 19.1992 99.1955 19.105C99.1546 19.0107 99.0943 18.926 99.0183 18.8563C98.9424 18.7866 98.8526 18.7333 98.7546 18.7001C98.6567 18.6668 98.5528 18.6542 98.4496 18.6631C98.2336 18.6485 98.0203 18.7175 97.8546 18.8556C97.689 18.9937 97.584 19.1901 97.5618 19.4034Z" fill="black"/>
<path d="M102.235 18.7557H101.254L101.225 19.2242C101.102 20.7973 100.676 21.0691 100.103 21.0691L100.068 20.5891C100.279 20.5891 100.652 20.404 100.746 19.1259L100.798 18.2642H102.743V21.0344H102.235V18.7557Z" fill="black"/>
<path d="M103.656 18.2642H104.153V19.0854H104.661C105.519 19.0854 105.765 19.5481 105.765 20.0397C105.765 20.5312 105.479 21.0228 104.597 21.0228H103.65L103.656 18.2642ZM104.153 19.5539V20.5659H104.562C105.052 20.5659 105.239 20.3867 105.239 20.0628C105.239 19.7389 105.046 19.5539 104.567 19.5539H104.153Z" fill="black"/>
<path d="M108.783 20.6294C108.651 20.7816 108.485 20.9022 108.299 20.9823C108.113 21.0624 107.911 21.0999 107.709 21.0921C107.321 21.1028 106.946 20.9608 106.664 20.6972C106.383 20.4337 106.218 20.0702 106.208 19.6867C106.197 19.3033 106.34 18.9312 106.606 18.6525C106.873 18.3738 107.24 18.2111 107.627 18.2004C107.825 18.1867 108.024 18.2119 108.213 18.2744C108.401 18.3369 108.575 18.4356 108.725 18.5647L108.497 18.9522C108.279 18.7559 107.992 18.6521 107.697 18.6631C107.434 18.67 107.184 18.7802 107.003 18.9694C106.821 19.1587 106.723 19.4115 106.73 19.6723C106.737 19.933 106.849 20.1803 107.04 20.3598C107.231 20.5393 107.486 20.6363 107.75 20.6294C107.901 20.6299 108.051 20.5982 108.189 20.5363C108.327 20.4744 108.45 20.3839 108.55 20.2708L108.783 20.6294Z" fill="black"/>
<path d="M109.428 18.2642H109.924V21.0344H109.428V18.2642ZM110.654 19.5886L111.998 21.0344H111.308L110.047 19.6175L111.215 18.2642H111.869L110.654 19.5886Z" fill="black"/>
<path d="M112.518 21.0344V18.2642H113.014V20.323L114.632 18.2642H115.128V21.0344H114.632V18.9697L113.014 21.0286L112.518 21.0344Z" fill="black"/>
<path d="M116.029 21.0342V18.2639H116.526V20.3228L118.144 18.2639H118.64V21.0342H118.144V18.9695L116.526 21.0284L116.029 21.0342ZM116.894 16.8528C116.894 17.1824 117.075 17.3386 117.373 17.3386C117.671 17.3386 117.799 17.1824 117.828 16.8528H118.295C118.297 16.9704 118.275 17.0872 118.229 17.1957C118.182 17.3042 118.114 17.402 118.028 17.483C117.942 17.564 117.84 17.6264 117.728 17.6662C117.616 17.7061 117.497 17.7225 117.378 17.7145C117.257 17.7278 117.135 17.7152 117.019 17.6776C116.903 17.6401 116.797 17.5784 116.707 17.4967C116.618 17.4151 116.547 17.3154 116.499 17.2043C116.452 17.0932 116.429 16.9734 116.432 16.8528H116.894Z" fill="black"/>
<path d="M15.2198 48.592L17.1243 50.5006L16.6218 50.9864L15.9383 50.2981L14.1098 52.0852L13.584 51.5531L15.4125 49.7718L14.7232 49.0778L15.2198 48.592Z" fill="#0072BC"/>
<path d="M19.0166 51.7903C19.2152 51.902 19.3879 52.0538 19.5234 52.2358C19.6589 52.4178 19.7543 52.626 19.8033 52.8469C19.8523 53.0677 19.8539 53.2963 19.808 53.5178C19.762 53.7393 19.6696 53.9487 19.5366 54.1326C19.4154 54.3233 19.2558 54.4873 19.0678 54.6143C18.8798 54.7414 18.6674 54.8288 18.4439 54.8711C18.2203 54.9134 17.9903 54.9097 17.7683 54.8603C17.5462 54.8108 17.3368 54.7167 17.153 54.5837C16.954 54.4725 16.7808 54.3211 16.6447 54.1393C16.5086 53.9575 16.4126 53.7494 16.363 53.5285C16.3134 53.3076 16.3113 53.0789 16.3569 52.8571C16.4024 52.6354 16.4945 52.4256 16.6272 52.2414C16.748 52.0502 16.9072 51.8857 17.095 51.7581C17.2827 51.6305 17.495 51.5425 17.7186 51.4997C17.9422 51.4568 18.1723 51.46 18.3946 51.509C18.617 51.558 18.8267 51.6518 19.0108 51.7845L19.0166 51.7903ZM17.5269 54.0111C17.6319 54.0865 17.752 54.1386 17.879 54.1641C18.0061 54.1895 18.1372 54.1876 18.2635 54.1586C18.3898 54.1295 18.5083 54.0739 18.611 53.9956C18.7137 53.9173 18.7983 53.8181 18.8589 53.7046C18.9364 53.6024 18.992 53.4855 19.0222 53.3612C19.0524 53.2369 19.0566 53.1077 19.0345 52.9818C19.0124 52.8558 18.9645 52.7356 18.8937 52.6287C18.8229 52.5217 18.7308 52.4303 18.623 52.3599C18.5151 52.2895 18.3939 52.2417 18.2667 52.2195C18.1395 52.1972 18.0091 52.201 17.8834 52.2305C17.7578 52.2601 17.6395 52.3148 17.536 52.3912C17.4325 52.4677 17.3459 52.5643 17.2815 52.6752C17.2075 52.7783 17.155 52.8951 17.1273 53.0186C17.0995 53.1421 17.097 53.2699 17.1198 53.3943C17.1427 53.5188 17.1905 53.6375 17.2604 53.7435C17.3303 53.8494 17.4209 53.9404 17.5269 54.0111Z" fill="#0072BC"/>
<path d="M21.1414 53.1147L21.8541 53.3519L22.3624 54.9654L23.706 53.9765L24.3779 54.202L23.3205 57.2672L22.6136 57.0301L23.2854 55.0753L22.0119 55.9833L21.9125 55.9486L21.4569 54.4738L20.7909 56.4171L20.084 56.1742L21.1414 53.1147Z" fill="#0072BC"/>
<path d="M25.2666 55.2257C25.2867 55.0958 25.3334 54.9713 25.4041 54.86C25.4747 54.7487 25.5676 54.6529 25.6771 54.5786C25.7866 54.5044 25.9104 54.4531 26.0407 54.4282C26.171 54.4032 26.3051 54.4049 26.4347 54.4334C26.6113 54.4466 26.7832 54.4956 26.9399 54.5771C27.0966 54.6587 27.2348 54.7712 27.3459 54.9076L26.8786 55.4108C26.8273 55.3336 26.7592 55.2686 26.6794 55.2206C26.5996 55.1726 26.5101 55.1427 26.4172 55.1332C26.2128 55.1332 26.0785 55.1852 26.0609 55.3298C25.9909 55.8619 27.3634 55.9081 27.2291 56.9491C27.2042 57.0834 27.1521 57.2113 27.0759 57.3251C26.9998 57.4389 26.9012 57.5363 26.7861 57.6114C26.6709 57.6865 26.5417 57.7378 26.406 57.7621C26.2703 57.7865 26.1311 57.7834 25.9967 57.753C25.7814 57.7414 25.5731 57.6738 25.3926 57.557C25.2122 57.4403 25.066 57.2785 24.9688 57.0879L25.4535 56.6426C25.5232 56.7567 25.6174 56.8542 25.7295 56.9282C25.8415 57.0022 25.9687 57.0508 26.1018 57.0706C26.2946 57.0706 26.4172 57.0128 26.4406 56.8624C26.5048 56.3824 25.144 56.2841 25.2725 55.2315" fill="#0072BC"/>
<path d="M28.5156 54.6706L29.2632 54.6532L29.2983 56.0644L30.3321 54.6301L31.2315 54.6069L30.04 56.128L31.4067 57.8456L30.4547 57.863L29.3041 56.3535L29.3392 57.8919L28.5916 57.9093L28.5156 54.6706Z" fill="#0072BC"/>
<path d="M33.4066 55.7208L32.1895 55.9121L32.292 56.5518L33.5092 56.3606L33.4066 55.7208Z" fill="#0072BC"/>
<path d="M34.7185 53.9301L35.2033 53.7971L36.0969 56.9086L35.4252 57.0994L34.8061 54.9307L34.5491 55.2372L34.041 54.7861L34.7185 53.9301Z" fill="#0072BC"/>
<path d="M37.219 55.6592C37.1372 55.5096 37.1028 55.339 37.1205 55.1697C37.1383 55.0005 37.2072 54.8405 37.3183 54.7107C37.1631 54.6986 37.0143 54.6441 36.8885 54.5532C36.7626 54.4624 36.6648 54.3387 36.6058 54.196C36.5564 53.9501 36.5915 53.6948 36.7057 53.471C36.8199 53.2472 37.0065 53.0677 37.2358 52.9612C37.465 52.8547 37.7237 52.8273 37.9705 52.8834C38.2173 52.9395 38.438 53.0758 38.5974 53.2706C38.6659 53.4123 38.6934 53.5699 38.6769 53.7261C38.6604 53.8823 38.6006 54.0309 38.504 54.1555C38.6732 54.1284 38.8467 54.1589 38.9962 54.2418C39.1457 54.3248 39.2625 54.4554 39.3275 54.6124C39.5903 55.1907 39.2925 55.6823 38.6734 55.9715C38.0543 56.2606 37.4585 56.1623 37.219 55.665V55.6592ZM37.8031 54.0919C37.8414 54.0769 37.8762 54.0542 37.9052 54.0253C37.9342 53.9963 37.9568 53.9617 37.9716 53.9237C37.9864 53.8856 37.9931 53.845 37.9913 53.8042C37.9894 53.7635 37.979 53.7236 37.9608 53.687C37.8849 53.5251 37.7272 53.4788 37.5111 53.5772C37.295 53.6755 37.2541 53.8432 37.3242 53.982C37.3413 54.0203 37.3665 54.0545 37.398 54.0824C37.4295 54.1103 37.4667 54.1313 37.507 54.1439C37.5474 54.1564 37.5899 54.1604 37.6319 54.1554C37.6739 54.1504 37.7144 54.1367 37.7505 54.115L37.8031 54.0919ZM38.0484 54.7454C38.0008 54.7607 37.9568 54.7857 37.9194 54.8187C37.882 54.8517 37.8519 54.892 37.831 54.9372C37.8102 54.9823 37.799 55.0312 37.7982 55.0808C37.7974 55.1304 37.8071 55.1797 37.8265 55.2254C37.9024 55.3874 38.0835 55.4799 38.358 55.3469C38.6325 55.2139 38.6851 55.0172 38.6033 54.8611C38.5821 54.8161 38.5514 54.7762 38.5133 54.7439C38.4752 54.7117 38.4306 54.6879 38.3825 54.6742C38.3343 54.6605 38.2837 54.6572 38.2342 54.6645C38.1846 54.6718 38.1372 54.6895 38.0951 54.7165L38.0484 54.7454Z" fill="#0072BC"/>
<path d="M38.8965 52.1487L40.637 50.9053L40.9173 51.287L41.6533 54.1671L41.0342 54.6124L40.3683 51.9521L39.3053 52.7097L38.8965 52.1487Z" fill="#0072BC"/>
<path d="M42.9334 52.1083C42.8027 51.9968 42.7094 51.8486 42.6655 51.6834C42.6217 51.5182 42.6296 51.3437 42.688 51.183C42.5385 51.2248 42.3802 51.2247 42.2306 51.1829C42.0811 51.141 41.9462 51.059 41.8409 50.9459C41.7054 50.7333 41.646 50.4819 41.672 50.232C41.698 49.982 41.8081 49.7479 41.9846 49.5672C42.161 49.3866 42.3936 49.2698 42.6451 49.2355C42.8966 49.2013 43.1524 49.2517 43.3715 49.3786C43.4863 49.4873 43.5684 49.6254 43.6086 49.7775C43.6488 49.9297 43.6456 50.0899 43.5994 50.2403C43.7481 50.1555 43.9215 50.123 44.0912 50.1482C44.2609 50.1734 44.4171 50.2548 44.5341 50.3791C44.6345 50.4827 44.7113 50.6063 44.7594 50.7417C44.8075 50.8771 44.8258 51.0211 44.8131 51.164C44.8004 51.307 44.7569 51.4456 44.6856 51.5706C44.6143 51.6955 44.5168 51.804 44.3997 51.8886C43.9265 52.3744 43.3306 52.4669 42.9334 52.1083ZM42.9334 50.4254C42.9636 50.3977 42.9878 50.3642 43.0043 50.3269C43.0209 50.2896 43.0294 50.2492 43.0294 50.2085C43.0294 50.1677 43.0209 50.1274 43.0043 50.0901C42.9878 50.0528 42.9636 50.0192 42.9334 49.9916C42.799 49.8644 42.6413 49.8759 42.4719 50.0494C42.4378 50.075 42.4096 50.1075 42.3893 50.1448C42.3691 50.1821 42.3572 50.2232 42.3544 50.2655C42.3516 50.3077 42.3581 50.3501 42.3733 50.3896C42.3885 50.4292 42.4122 50.4651 42.4426 50.4948C42.4706 50.5257 42.5048 50.5504 42.5431 50.5673C42.5813 50.5842 42.6227 50.593 42.6646 50.593C42.7065 50.593 42.748 50.5842 42.7862 50.5673C42.8245 50.5504 42.8587 50.5257 42.8866 50.4948L42.9334 50.4254ZM43.4007 50.9459C43.3608 50.977 43.328 51.0161 43.3044 51.0606C43.2807 51.1051 43.2668 51.154 43.2635 51.2042C43.2602 51.2543 43.2676 51.3046 43.2852 51.3518C43.3028 51.399 43.3302 51.442 43.3657 51.4779C43.4942 51.6052 43.6928 51.6283 43.909 51.4085C44.1252 51.1888 44.0959 50.9863 43.9674 50.8649C43.9313 50.8307 43.8882 50.8045 43.8411 50.7881C43.7939 50.7717 43.7437 50.7655 43.6939 50.7698C43.6441 50.7742 43.5958 50.7891 43.5523 50.8135C43.5088 50.8379 43.4711 50.8712 43.4416 50.9112L43.4007 50.9459Z" fill="#0072BC"/>
</g>
<defs>
<clipPath id="clip0_253_2742">
<rect width="150" height="66" fill="white"/>
</clipPath>
</defs>
</svg>
