<svg width="152" height="59" viewBox="0 0 152 59" fill="none" xmlns="http://www.w3.org/2000/svg">
<path d="M80.0783 18.7417C80.4375 19.3195 80.9511 19.7865 81.5616 20.0904C82.1877 20.405 82.8808 20.5646 83.5821 20.5554C84.16 20.5661 84.7358 20.4836 85.2873 20.3113C85.7567 20.1542 86.2011 19.9311 86.607 19.6486C86.9745 19.3926 87.3184 19.1047 87.6348 18.7882V22.2761C87.0966 22.7023 86.4933 23.0399 85.8479 23.276C85.0591 23.5442 84.2285 23.6702 83.3952 23.6481C82.3728 23.6612 81.3562 23.4919 80.3937 23.1481C79.5225 22.8351 78.7268 22.3441 78.0578 21.7064C77.3989 21.0706 76.8782 20.3069 76.5279 19.4625C75.811 17.6186 75.811 15.5747 76.5279 13.7307C76.8784 12.8899 77.3992 12.13 78.0578 11.4985C78.7231 10.8533 79.5196 10.3577 80.3937 10.0452C81.3576 9.70705 82.3732 9.5379 83.3952 9.54522C84.2285 9.52303 85.0591 9.64902 85.8479 9.91726C86.4912 10.1581 87.0937 10.4952 87.6348 10.9171V14.4051C87.3157 14.088 86.972 13.7965 86.607 13.5331C86.2029 13.2617 85.7572 13.0575 85.2873 12.9285C84.7358 12.7561 84.16 12.6737 83.5821 12.6843C82.8808 12.6752 82.1877 12.8347 81.5616 13.1494C80.9511 13.4533 80.4375 13.9202 80.0783 14.4981C79.6884 15.1425 79.4938 15.8854 79.5177 16.6373C79.5043 17.377 79.6985 18.1058 80.0783 18.7417Z" fill="#483F97"/>
<path d="M90.0769 13.754C90.4348 12.9097 90.9623 12.1473 91.6271 11.5135C92.2919 10.8797 93.0799 10.3879 93.9427 10.0684C95.8048 9.38605 97.8501 9.38605 99.7122 10.0684C100.583 10.3885 101.378 10.8831 102.048 11.5217C102.71 12.1502 103.232 12.9109 103.578 13.754C103.951 14.6613 104.138 15.6338 104.127 16.6141C104.134 17.5929 103.951 18.5639 103.59 19.4742C103.257 20.3459 102.744 21.1381 102.083 21.7995C101.414 22.4485 100.619 22.9549 99.7472 23.2877C97.8655 23.9947 95.7894 23.9947 93.9076 23.2877C93.0355 22.9549 92.2406 22.4485 91.5718 21.7995C90.9075 21.1412 90.3936 20.3481 90.0652 19.4742C89.6982 18.5655 89.5156 17.5934 89.5279 16.6141C89.5171 15.6338 89.7038 14.6613 90.0769 13.754ZM93.4638 18.7417C93.7621 19.3347 94.2239 19.8308 94.7953 20.1718C95.4107 20.5306 96.1144 20.7117 96.8274 20.695C97.5292 20.7101 98.2212 20.5289 98.8246 20.1718C99.3959 19.8308 99.8578 19.3347 100.156 18.7417C100.484 18.089 100.648 17.367 100.635 16.6373C100.652 15.9049 100.492 15.1792 100.168 14.5213C99.8758 13.9314 99.4223 13.4357 98.8596 13.0913C98.2377 12.7482 97.5384 12.5683 96.8274 12.5683C96.1165 12.5683 95.4172 12.7482 94.7953 13.0913C94.2267 13.4357 93.7657 13.9309 93.4638 14.5213C93.1399 15.1792 92.9797 15.9049 92.9967 16.6373C92.9798 17.366 93.14 18.088 93.4638 18.7417Z" fill="#483F97"/>
<path d="M115.28 20.4393V9.87085H118.608V20.4393H120.734V25.9502H117.604V23.3924H106.182V9.87085H109.51V20.4393H115.28Z" fill="#483F97"/>
<path d="M122.814 24.0202L122.908 19.9626L135.311 9.19653L135.218 13.2541L122.814 24.0202ZM125.944 20.8229L122.814 24.0202V9.87086H125.944V20.8229ZM135.288 23.3459H132.134V12.5101L135.288 9.19653V23.3459Z" fill="#483F97"/>
<path d="M137.948 13.754C138.299 12.9104 138.824 12.1498 139.49 11.5217C140.159 10.8818 140.955 10.387 141.826 10.0684C143.688 9.38605 145.733 9.38605 147.595 10.0684C148.466 10.3885 149.261 10.8831 149.931 11.5217C150.59 12.1533 151.111 12.9132 151.461 13.754C151.83 14.6621 152.013 15.6346 151.999 16.6141C152.009 17.5922 151.831 18.5632 151.473 19.4742C151.134 20.3315 150.619 21.1092 149.962 21.7578C149.304 22.4063 148.518 22.9115 147.654 23.2412C145.772 23.9482 143.696 23.9482 141.814 23.2412C140.939 22.9141 140.143 22.407 139.478 21.753C138.814 21.0923 138.297 20.3001 137.96 19.4277C137.602 18.5167 137.424 17.5457 137.435 16.5676C137.419 15.6052 137.593 14.6492 137.948 13.754ZM141.335 18.7185C141.634 19.3115 142.095 19.8075 142.667 20.1485C143.278 20.5069 143.978 20.6881 144.687 20.6717C145.393 20.6884 146.089 20.5071 146.696 20.1485C147.264 19.8138 147.726 19.3262 148.028 18.7417C148.355 18.089 148.52 17.367 148.506 16.6373C148.523 15.9049 148.363 15.1792 148.039 14.5213C147.744 13.9299 147.287 13.434 146.72 13.0913C146.106 12.7284 145.401 12.547 144.687 12.5681C143.978 12.5517 143.278 12.7329 142.667 13.0913C142.098 13.4357 141.637 13.9309 141.335 14.5213C141.008 15.1783 140.844 15.904 140.857 16.6373C140.843 17.367 141.008 18.089 141.335 18.7417V18.7185Z" fill="#483F97"/>
<path d="M85.8364 43.5525V32.9841H89.1533V43.5525H91.2906V49.0635H88.1489V46.4708H76.7383V32.9841H80.0669V43.5525H85.8364Z" fill="#483F97"/>
<path d="M96.4875 32.9841V46.4708H93.3574V32.9841H96.4875ZM95.5298 32.9841H102.35V35.6582H95.5298V32.9841ZM95.5298 38.0649H101.918V40.6924H95.5298V38.0649ZM95.5298 43.7851H102.35V46.4708H95.5298V43.7851Z" fill="#483F97"/>
<path d="M108.296 32.9841V46.4708H105.025V32.9841H108.296ZM105.96 37.8905H116.214V40.832H105.96V37.8905ZM117.417 32.9841V46.4708H114.147V32.9841H117.417Z" fill="#483F97"/>
<path d="M118.877 32.9841H129.598V35.8907H125.861V46.4708H122.591V35.8907H118.877V32.9841Z" fill="#483F97"/>
<path d="M134.364 32.9841V46.4707H131.117V32.9841H134.364ZM133.196 32.9841H135.789C136.781 32.9523 137.768 33.1307 138.685 33.5073C139.415 33.8237 140.033 34.35 140.461 35.0187C140.865 35.7267 141.07 36.5298 141.056 37.344C141.073 38.1585 140.867 38.9623 140.461 39.6693C140.037 40.3408 139.417 40.868 138.685 41.1807C137.77 41.5658 136.782 41.7483 135.789 41.7155H133.138V39.0414H135.789C136.342 39.073 136.889 38.9173 137.342 38.5996C137.53 38.4451 137.678 38.2488 137.776 38.0267C137.873 37.8045 137.917 37.5627 137.903 37.3207C137.917 37.077 137.873 36.8335 137.776 36.6095C137.678 36.3854 137.53 36.1871 137.342 36.0302C136.889 35.7125 136.342 35.5568 135.789 35.5884H133.138L133.196 32.9841Z" fill="#483F97"/>
<path d="M64.44 26.1827C64.5216 30.4457 63.7485 34.6822 62.1661 38.6444C60.5836 42.6066 58.2236 46.2149 55.2239 49.2585C52.2241 52.302 48.645 54.7197 44.6957 56.3701C40.7464 58.0205 36.5061 58.8706 32.2229 58.8706C27.9397 58.8706 23.6995 58.0205 19.7502 56.3701C15.8009 54.7197 12.2217 52.302 9.22202 49.2585C6.22231 46.2149 3.86223 42.6066 2.27979 38.6444C0.69735 34.6822 -0.0757004 30.4457 0.00584002 26.1827C0.00584002 25.613 0.00584002 25.02 0.00584002 24.4968C0.29046 27.3634 0.998858 30.1725 2.1081 32.833C3.5431 36.3209 5.68634 39.4761 8.40349 42.101C11.1206 44.7258 14.3531 46.7637 17.8984 48.0868C21.6987 49.5216 25.7353 50.2353 29.7995 50.1912C34.0915 50.2808 38.3517 49.4397 42.2846 47.7264C45.775 46.1867 48.8844 43.9049 51.3944 41.0412L42.051 32.2865C40.7977 33.9982 39.1573 35.3922 37.2625 36.3558C35.0907 37.4404 32.6839 37.9755 30.255 37.9137C28.0739 37.9364 25.9115 37.513 23.9015 36.6697C22.0094 35.8664 20.3067 34.6784 18.9028 33.1818C17.4679 31.6298 16.3599 29.8073 15.6443 27.822C14.8418 25.6165 14.4461 23.2847 14.4764 20.9392C14.45 18.6356 14.8458 16.3465 15.6443 14.1842C16.3979 12.1962 17.5368 10.375 18.9962 8.82445C20.4185 7.3053 22.14 6.09422 24.0533 5.26676C26.1038 4.39054 28.3157 3.95095 30.547 3.97623C32.699 3.97985 34.8296 4.40246 36.8187 5.22026C38.8009 6.00671 40.5182 7.33719 41.7707 9.05697L50.8688 0C55.0707 2.96447 58.4964 6.8897 60.858 11.4458C63.2196 16.0019 64.448 21.0558 64.44 26.1827Z" fill="#483F97"/>
</svg>
