<svg width="168" height="62" viewBox="0 0 168 62" fill="none" xmlns="http://www.w3.org/2000/svg">
<g clip-path="url(#clip0_479_6361)">
<path d="M0.0078125 48.168L4.21669 51.3208V29.8764L0.0078125 26.7063V48.168Z" fill="#3761E1"/>
<path d="M36.8147 0L18.3987 13.8751L0 0V21.2892L4.21754 24.4636V11.1923L18.4073 21.8844L32.6015 11.1923V24.4636L36.8147 21.3064V0Z" fill="#3761E1"/>
<path d="M28.3931 27.6379V19.8572L18.3992 27.3619L8.43555 19.8572V27.6379L18.4121 35.0995L28.3931 27.6379Z" fill="#3761E1"/>
<path d="M32.6019 40.2708L28.419 43.4237V33.0206L18.4121 40.5339L8.43555 33.0422V54.4909L18.4121 61.9999L36.8151 48.1723V26.7063L32.6019 29.8764V40.2708Z" fill="#3761E1"/>
<path d="M61.0887 43.0959L61.0628 33.068L56.1264 41.3318H54.3771L49.458 33.2837V43.0959H45.8164V26.3828H49.0294L55.308 36.7686L61.4958 26.3828H64.6827L64.7304 43.0959H61.0887Z" fill="#3761E1"/>
<path d="M75.0624 40.3398C75.5571 40.0465 75.9315 39.5881 76.1189 39.0459V37.752H73.5512C72.0183 37.752 71.2519 38.2523 71.2519 39.2529C71.244 39.4736 71.2913 39.6929 71.3896 39.8909C71.4878 40.0889 71.6339 40.2594 71.8148 40.3872C72.2694 40.6944 72.812 40.8458 73.3606 40.8185C73.9568 40.8327 74.5455 40.6835 75.0624 40.3872V40.3398ZM78.2493 31.4851C79.3232 32.434 79.8587 33.863 79.8558 35.7723V43.1044H76.3571V41.4957C75.6556 42.6918 74.345 43.2899 72.4253 43.2899C71.5398 43.3112 70.6604 43.1389 69.8489 42.7853C69.1713 42.4948 68.5924 42.0156 68.1818 41.4051C67.7961 40.8075 67.5958 40.1099 67.6059 39.3995C67.5853 38.8558 67.6979 38.3152 67.934 37.8245C68.1702 37.3337 68.5227 36.9077 68.9612 36.5831C69.8648 35.8959 71.2591 35.5537 73.1441 35.5566H76.1189C76.1397 35.2087 76.0837 34.8605 75.9551 34.5364C75.8264 34.2123 75.6282 33.9202 75.3742 33.6804C74.736 33.1982 73.9429 32.965 73.1441 33.0249C72.4557 33.025 71.7717 33.1342 71.1176 33.3483C70.5077 33.5336 69.9359 33.8257 69.4289 34.211L68.0866 31.6231C68.8566 31.099 69.7123 30.7123 70.6153 30.4802C71.6025 30.2083 72.6223 30.0719 73.6464 30.0747C75.6469 30.0747 77.1813 30.5477 78.2493 31.4937" fill="#3761E1"/>
<path d="M84.4368 42.8931C83.5722 42.6982 82.7457 42.363 81.9902 41.9011L83.2373 39.2271C83.8791 39.6201 84.5748 39.9179 85.3028 40.1112C86.0827 40.3353 86.8899 40.4514 87.7017 40.4563C89.2807 40.4563 90.0717 40.0667 90.0746 39.2874C90.0699 39.1033 90.004 38.926 89.8872 38.7831C89.7705 38.6403 89.6094 38.5401 89.4294 38.4982C88.7816 38.2935 88.114 38.1576 87.4375 38.0927C86.5598 37.9706 85.6916 37.7875 84.8395 37.545C84.1564 37.3417 83.5395 36.9623 83.0511 36.4451C82.5149 35.8246 82.2444 35.0194 82.2977 34.2024C82.2872 33.4256 82.5354 32.6672 83.0035 32.0458C83.5381 31.3724 84.2525 30.8626 85.0646 30.5751C86.0898 30.2059 87.1747 30.029 88.2646 30.0532C89.1806 30.0536 90.0939 30.1534 90.9882 30.3508C91.7734 30.5061 92.529 30.7841 93.2269 31.1746L91.9798 33.8228C90.8459 33.1881 89.5652 32.8595 88.2646 32.8696C87.6474 32.8338 87.0308 32.9478 86.4676 33.2017C86.2965 33.2748 86.1496 33.3945 86.0438 33.5471C85.9381 33.6998 85.8778 33.8791 85.87 34.0643C85.8704 34.2545 85.9339 34.4393 86.0505 34.5898C86.1672 34.7403 86.3306 34.8483 86.5152 34.8968C87.188 35.1156 87.8793 35.2729 88.5807 35.3669C89.4569 35.5014 90.3244 35.6872 91.1788 35.9233C91.8422 36.1272 92.4397 36.5022 92.9108 37.0102C93.4376 37.6185 93.7049 38.4079 93.6556 39.2098C93.6649 39.9792 93.4114 40.729 92.9368 41.3361C92.3869 42.0037 91.6589 42.5031 90.8367 42.7767C89.787 43.1433 88.6795 43.3186 87.5674 43.2943C86.5083 43.2952 85.4534 43.1619 84.4281 42.8975" fill="#3761E1"/>
<path d="M101.503 38.0583L99.7061 39.8266V43.0959H95.9648V25.3779H99.7061V35.4101L105.171 30.2517H109.631L104.261 35.6947L110.111 43.0959H105.578L101.503 38.0583Z" fill="#3761E1"/>
<path d="M118.105 42.8459C117.032 42.5673 116.021 42.0936 115.121 41.4485L116.42 38.5371C117.2 39.0938 118.066 39.5206 118.984 39.8009C119.944 40.115 120.948 40.2766 121.958 40.2796C122.803 40.3365 123.648 40.1667 124.405 39.7879C124.642 39.6636 124.84 39.4776 124.979 39.2497C125.118 39.0218 125.192 38.7606 125.193 38.494C125.196 38.3041 125.156 38.1158 125.075 37.9439C124.994 37.7719 124.874 37.6207 124.725 37.502C124.371 37.2163 123.966 37.001 123.53 36.868C123.041 36.7084 122.383 36.5359 121.551 36.3461C120.488 36.1042 119.44 35.8003 118.412 35.4361C117.599 35.136 116.876 34.6342 116.312 33.9783C115.701 33.2241 115.393 32.2715 115.446 31.3042C115.436 30.3661 115.712 29.4471 116.238 28.6689C116.838 27.8203 117.675 27.1663 118.646 26.7884C119.884 26.2946 121.21 26.0597 122.543 26.0983C123.602 26.0962 124.658 26.2236 125.687 26.4779C126.634 26.7021 127.54 27.0733 128.371 27.5777L127.172 30.5149C125.762 29.6858 124.158 29.2396 122.521 29.221C121.683 29.1622 120.846 29.3449 120.109 29.7472C119.87 29.8905 119.672 30.0936 119.535 30.3364C119.399 30.5792 119.328 30.8533 119.33 31.1317C119.326 31.4139 119.411 31.6904 119.572 31.9224C119.734 32.1544 119.964 32.3303 120.231 32.4256C121.116 32.7814 122.036 33.0445 122.976 33.2105C124.04 33.4511 125.088 33.755 126.115 34.1206C126.922 34.4178 127.642 34.9098 128.211 35.5525C128.823 36.2957 129.132 37.241 129.077 38.2007C129.084 39.1349 128.803 40.0488 128.272 40.8187C127.666 41.6635 126.829 42.3164 125.86 42.6992C124.621 43.1913 123.296 43.4276 121.963 43.3936C120.662 43.3963 119.367 43.2148 118.118 42.8545" fill="black"/>
<path d="M138.084 40.3398C138.577 40.0461 138.95 39.5876 139.136 39.0459V37.752H136.573C135.04 37.752 134.273 38.2523 134.273 39.2529C134.265 39.4736 134.313 39.6929 134.411 39.8909C134.509 40.0889 134.655 40.2594 134.836 40.3872C135.29 40.6956 135.833 40.8471 136.382 40.8185C136.978 40.8316 137.567 40.6825 138.084 40.3872V40.3398ZM141.271 31.4851C142.345 32.434 142.88 33.863 142.877 35.7723V43.1044H139.379V41.4957C138.674 42.6918 137.364 43.2899 135.447 43.2899C134.561 43.3112 133.682 43.1389 132.87 42.7853C132.193 42.4948 131.614 42.0156 131.203 41.4051C130.818 40.8075 130.617 40.1099 130.627 39.3995C130.607 38.8558 130.719 38.3152 130.956 37.8245C131.192 37.3337 131.544 36.9077 131.983 36.5831C132.883 35.8974 134.282 35.5566 136.166 35.5566H139.136C139.158 35.209 139.103 34.8609 138.975 34.5368C138.847 34.2127 138.649 33.9204 138.396 33.6804C137.757 33.1989 136.964 32.9658 136.166 33.0249C135.477 33.025 134.793 33.1342 134.139 33.3483C133.529 33.5336 132.957 33.8257 132.45 34.211L131.108 31.6231C131.878 31.099 132.734 30.7123 133.637 30.4802C134.624 30.2083 135.644 30.0719 136.668 30.0747C138.668 30.0747 140.203 30.5477 141.271 31.4937" fill="black"/>
<path d="M150.354 30.5364H153.662V33.4046H150.449V43.096H146.713V33.4046H144.721V30.5364H146.713V29.9628C146.678 29.3243 146.776 28.6855 146.999 28.086C147.222 27.4866 147.567 26.9392 148.012 26.4778C148.878 25.6152 150.103 25.1839 151.688 25.1839C152.226 25.1813 152.762 25.2421 153.286 25.3651C153.732 25.4587 154.158 25.6327 154.541 25.8783L153.558 28.574C153.115 28.2679 152.586 28.1094 152.047 28.1211C150.913 28.1211 150.346 28.7422 150.346 29.9843L150.354 30.5364Z" fill="black"/>
<path d="M159.18 33.5943C158.594 34.0922 158.217 34.791 158.124 35.5524H164.476C164.377 34.7972 164.003 34.1047 163.424 33.6073C162.832 33.1152 162.081 32.8559 161.31 32.8784C160.537 32.8536 159.78 33.1079 159.18 33.5943ZM167.927 37.7262H158.171C158.329 38.4906 158.775 39.1654 159.418 39.611C160.141 40.0915 160.997 40.333 161.865 40.3011C162.473 40.3118 163.077 40.2109 163.649 40.0035C164.191 39.7905 164.684 39.4707 165.099 39.0633L167.091 41.2198C165.873 42.6057 164.099 43.2987 161.769 43.2987C160.431 43.3207 159.107 43.025 157.907 42.4361C156.834 41.9145 155.933 41.0991 155.309 40.0854C154.716 39.0462 154.404 37.8713 154.404 36.676C154.404 35.4806 154.716 34.3058 155.309 33.2665C155.896 32.2664 156.751 31.4482 157.777 30.903C158.856 30.3241 160.064 30.0273 161.289 30.0404C162.481 30.0224 163.658 30.3011 164.714 30.8512C165.737 31.3853 166.581 32.2053 167.143 33.2105C167.74 34.2879 168.039 35.5039 168.009 36.7342C168.009 36.7817 167.983 37.1181 167.936 37.7392" fill="black"/>
</g>
<defs>
<clipPath id="clip0_479_6361">
<rect width="168" height="62" fill="white"/>
</clipPath>
</defs>
</svg>
