<svg display="none" xmlns="http://www.w3.org/2000/svg">
    <symbol id="loupe" viewBox="0 0 14 14">
        <path d="M5.5 10C7.98528 10 10 7.98528 10 5.5C10 3.01472 7.98528 1 5.5 1C3.01472 1 1 3.01472 1 5.5C1 7.98528 3.01472 10 5.5 10Z" stroke-width="2" stroke-linecap="round" stroke-linejoin="round" fill="none"/>
        <path d="M12.6759 12.3204L9 9" stroke-width="2" stroke-linecap="round" stroke-linejoin="round"/>
    </symbol>
    <symbol id="arrow-left" viewBox="0 0 12 13">
        <path d="M1.05025 6.49998H10.9497" stroke-width="1.2" stroke-linecap="round" stroke-linejoin="round"/>
        <path d="M6 1.55023L10.9497 6.49998L6 11.4497" fill="none" stroke-width="1.2" stroke-linecap="round" stroke-linejoin="round"/>
    </symbol>
    <symbol id="tg" viewBox="0 0 14 12">
        <path d="M5.29716 7.53929L5.07385 10.6803C5.39335 10.6803 5.53173 10.543 5.69766 10.3782L7.1956 8.94667L10.2995 11.2197C10.8687 11.537 11.2698 11.3699 11.4234 10.696L13.4607 1.1493L13.4613 1.14873C13.6419 0.307234 13.157 -0.0218285 12.6024 0.184609L0.626725 4.76954C-0.190587 5.08679 -0.178213 5.54242 0.487788 5.74886L3.54948 6.70117L10.6612 2.25123C10.9959 2.02961 11.3002 2.15223 11.0499 2.37386L5.29716 7.53929Z"/>
    </symbol>
    <symbol id="vk" viewBox="0 0 18 11">
        <path d="M17.9045 9.48265C17.8827 9.43463 17.8624 9.39479 17.8435 9.36287C17.5312 8.7878 16.9345 8.08195 16.0535 7.24511L16.0349 7.22594L16.0256 7.21655L16.0162 7.20691H16.0067C15.6069 6.81724 15.3537 6.55523 15.2477 6.42108C15.0537 6.16555 15.0102 5.90689 15.1163 5.64482C15.1912 5.44681 15.4726 5.02864 15.9597 4.38973C16.216 4.05114 16.419 3.77976 16.5688 3.57531C17.6498 2.10601 18.1185 1.16711 17.9747 0.758231L17.9189 0.662683C17.8813 0.60516 17.7845 0.552536 17.6285 0.504544C17.4721 0.456652 17.2722 0.448732 17.0285 0.480648L14.3295 0.499711C14.2858 0.48387 14.2233 0.485347 14.142 0.504544C14.0607 0.523741 14.0201 0.533373 14.0201 0.533373L13.9731 0.557369L13.9358 0.586198C13.9046 0.60526 13.8702 0.638788 13.8327 0.686713C13.7954 0.73447 13.7642 0.790517 13.7392 0.854384C13.4454 1.62733 13.1113 2.34597 12.7363 3.01028C12.5051 3.4064 12.2928 3.74969 12.0989 4.04036C11.9053 4.33094 11.7428 4.54502 11.6117 4.68225C11.4804 4.81962 11.3619 4.92966 11.2555 5.01279C11.1492 5.09596 11.0681 5.1311 11.012 5.11824C10.9557 5.10539 10.9027 5.09264 10.8525 5.07988C10.7651 5.02236 10.6947 4.94413 10.6417 4.84512C10.5885 4.74612 10.5526 4.62151 10.5339 4.47139C10.5153 4.32117 10.5042 4.19196 10.5011 4.08332C10.4982 3.97482 10.4995 3.82135 10.5058 3.62334C10.5123 3.42522 10.5153 3.29118 10.5153 3.22091C10.5153 2.97812 10.5199 2.71464 10.5292 2.43038C10.5386 2.14611 10.5463 1.92089 10.5527 1.75496C10.559 1.58887 10.562 1.41314 10.562 1.22788C10.562 1.04263 10.551 0.897342 10.5292 0.791893C10.5076 0.686579 10.4746 0.584352 10.431 0.485246C10.3872 0.386241 10.3231 0.309655 10.2389 0.255286C10.1546 0.200984 10.0497 0.157892 9.92496 0.125875C9.59379 0.0492549 9.17208 0.00780709 8.65965 0.00136337C7.4976 -0.0113898 6.75093 0.0653307 6.41979 0.231424C6.28859 0.3016 6.16986 0.397484 6.0637 0.518774C5.95121 0.659361 5.93552 0.736081 6.01673 0.7487C6.39166 0.806123 6.65708 0.943488 6.8133 1.16066L6.86959 1.27574C6.91338 1.35877 6.9571 1.50577 7.00086 1.71653C7.04455 1.9273 7.07275 2.16044 7.08516 2.41584C7.11634 2.88224 7.11634 3.28148 7.08516 3.6136C7.05387 3.94586 7.02433 4.20451 6.99613 4.38977C6.96794 4.57503 6.92579 4.72514 6.86959 4.84009C6.8133 4.95507 6.77584 5.02535 6.75707 5.05085C6.73832 5.07636 6.7227 5.09244 6.71029 5.09874C6.62908 5.13056 6.54462 5.14677 6.45721 5.14677C6.36966 5.14677 6.26351 5.102 6.13858 5.01253C6.01368 4.92305 5.88405 4.80015 5.7497 4.64362C5.61534 4.48706 5.46382 4.26828 5.29507 3.98724C5.12644 3.7062 4.95148 3.37404 4.77029 2.99078L4.62038 2.71283C4.52666 2.53401 4.39864 2.27365 4.23619 1.93196C4.07364 1.59014 3.92996 1.2595 3.80506 0.940099C3.75514 0.805955 3.68013 0.703829 3.58018 0.633552L3.53327 0.604723C3.50209 0.579217 3.45203 0.552133 3.38336 0.523271C3.31459 0.494442 3.24283 0.473768 3.1678 0.461049L0.599913 0.480111C0.337509 0.480111 0.159465 0.54089 0.0657161 0.66228L0.0281968 0.719703C0.00945366 0.751687 0 0.802767 0 0.873077C0 0.943354 0.0187432 1.02961 0.0562624 1.13173C0.431126 2.03251 0.838782 2.90124 1.27923 3.73805C1.71968 4.57486 2.10242 5.24893 2.42723 5.75966C2.7521 6.27076 3.08324 6.75313 3.42065 7.20654C3.75806 7.66012 3.9814 7.95079 4.09068 8.07849C4.20008 8.20643 4.28602 8.30208 4.34849 8.36594L4.58282 8.59587C4.73277 8.74921 4.95296 8.93286 5.2435 9.14681C5.5341 9.36089 5.85582 9.57166 6.20882 9.77943C6.56189 9.98687 6.97263 10.1562 7.44128 10.2871C7.90986 10.4181 8.36593 10.4707 8.80956 10.4453H9.88734C10.1059 10.4261 10.2715 10.3558 10.3841 10.2345L10.4214 10.1865C10.4465 10.1483 10.4699 10.0891 10.4916 10.0094C10.5135 9.92955 10.5244 9.84159 10.5244 9.7459C10.518 9.47128 10.5385 9.22376 10.5852 9.0034C10.6319 8.78311 10.6852 8.61701 10.7447 8.50515C10.8042 8.3934 10.8714 8.29909 10.9461 8.22264C11.021 8.14602 11.0744 8.0996 11.1057 8.08363C11.1368 8.06755 11.1617 8.05664 11.1804 8.0501C11.3304 7.99902 11.5068 8.04849 11.7101 8.19874C11.9132 8.34886 12.1037 8.53422 12.2818 8.75451C12.4599 8.97501 12.6739 9.22239 12.9237 9.49702C13.1738 9.77175 13.3924 9.97597 13.5798 10.1103L13.7671 10.2253C13.8922 10.302 14.0547 10.3723 14.2547 10.4362C14.4543 10.5 14.6292 10.516 14.7794 10.484L17.1784 10.4458C17.4157 10.4458 17.6004 10.4056 17.7314 10.3259C17.8626 10.2461 17.9405 10.1581 17.9657 10.0624C17.9908 9.96663 17.9921 9.85796 17.9705 9.73647C17.9482 9.61528 17.9263 9.53054 17.9045 9.48265Z"/>
    </symbol>
    <symbol id="vc" viewBox="0 0 17 16">
        <path d="M14.3616 9.63773H13.2104V8.50145H15.5943V14.1107H16.4999V15.2406H15.7965C15.4972 15.2406 15.1972 15.2313 14.8987 15.2406C14.7209 15.2484 14.6602 15.1813 14.6437 15.0113C14.6173 14.7442 14.5666 14.4792 14.5195 14.165C14.4566 14.2514 14.4223 14.2957 14.3916 14.3421C13.8139 15.2241 12.9518 15.5812 11.9334 15.3813C10.9271 15.1806 10.2607 14.5028 10.0765 13.4722C10.0332 13.2198 10.0112 12.9642 10.0108 12.708C10.0036 11.7924 10.0108 10.8776 10.0108 9.96269V9.64701H8.99805V8.50073H11.2063C11.2113 8.60572 11.2192 8.70428 11.2192 8.80355C11.2192 10.0441 11.2135 11.2839 11.2242 12.5238C11.2234 12.8058 11.2569 13.0869 11.3242 13.3608C11.5184 14.1064 12.1441 14.4685 12.8997 14.3014C13.2961 14.2127 13.6525 13.9965 13.9142 13.6858C14.1759 13.3752 14.3286 12.9873 14.3488 12.5816C14.4052 11.6189 14.3616 10.6533 14.3616 9.63773Z"/>
        <path d="M15.1775 5.01757L16.0831 5.70819C15.5639 6.40025 14.9068 6.8509 14.0719 7.03159C11.813 7.51082 9.77393 5.91674 9.68966 3.61275C9.62324 1.80727 11.1009 0.146767 12.9092 0.0139271C13.9327 -0.0610632 14.8833 0.161766 15.7053 0.80454C15.8005 0.890999 15.8581 1.01117 15.866 1.1395C15.8839 1.62443 15.8739 2.1108 15.8739 2.61431H14.7126C14.7126 2.32434 14.6962 2.02867 14.7176 1.73585C14.734 1.50873 14.6404 1.40303 14.4433 1.31447C13.2813 0.79097 11.9758 1.14949 11.3466 2.1765C10.6774 3.26851 10.8981 4.70903 11.8515 5.47751C12.7607 6.20955 14.1369 6.101 14.9783 5.2304C15.0425 5.16398 15.1061 5.0947 15.1775 5.01757Z"/>
        <path d="M1.85938 1.31731V0.163168C2.53714 0.163168 3.20206 0.156741 3.86554 0.173882C3.92982 0.173882 4.01695 0.313149 4.04766 0.403137C4.57141 1.91151 5.09039 3.42108 5.60461 4.93184C5.62675 4.99611 5.6496 5.06039 5.69316 5.18466C5.74316 5.05682 5.77815 4.97826 5.80601 4.89898C6.32308 3.39918 6.8423 1.89937 7.35295 0.393854C7.4108 0.221733 7.4865 0.154598 7.67577 0.158883C8.24712 0.173167 8.81847 0.163883 9.4134 0.163883V1.31873C9.12129 1.31873 8.84204 1.33016 8.56065 1.31445C8.37567 1.30445 8.29211 1.37087 8.22855 1.5437C7.58578 3.28919 6.92515 5.0304 6.28309 6.7766C6.2081 6.98086 6.11382 7.06228 5.90028 7.04014C5.63103 7.01443 5.29607 7.10727 5.10681 6.978C4.91755 6.84873 4.89255 6.51306 4.80614 6.26381C4.24978 4.70472 3.68557 3.14635 3.13564 1.58299C3.06422 1.38373 2.97637 1.29731 2.7564 1.31088C2.46787 1.33302 2.17862 1.31731 1.85938 1.31731Z"/>
        <path d="M3.44213 9.53357H2.35156V8.50585H4.44629C4.47272 8.90651 4.49843 9.31217 4.53128 9.81496C5.29118 8.55227 6.41532 8.34515 7.69444 8.50442V10.5234H6.56387V9.52357C6.16537 9.51123 5.77597 9.64424 5.4683 9.89781C4.94194 10.3263 4.65983 10.8841 4.65555 11.5676C4.65055 12.3289 4.65555 13.0895 4.65555 13.853V14.133H7.53518V15.2193H2.35156V14.1244H3.44213V9.53357Z"/>
        <path d="M0 15.2527V14.0957H1.15128V15.2527H0Z"/>
    </symbol>
</svg>
