<svg display="none" xmlns="http://www.w3.org/2000/svg">
    <symbol id="loupe" viewBox="0 0 14 14">
        <path d="M5.5 10C7.98528 10 10 7.98528 10 5.5C10 3.01472 7.98528 1 5.5 1C3.01472 1 1 3.01472 1 5.5C1 7.98528 3.01472 10 5.5 10Z" stroke-width="2" stroke-linecap="round" stroke-linejoin="round" fill="none"/>
        <path d="M12.6759 12.3204L9 9" stroke-width="2" stroke-linecap="round" stroke-linejoin="round"/>
    </symbol>
    <symbol id="arrow-left" viewBox="0 0 12 13">
        <path xmlns="http://www.w3.org/2000/svg" d="M6.62563 0.827728C6.83776 1.03983 6.83776 1.46413 6.62563 1.67623L2.66583 5.63607L11.1511 5.63607C11.434 5.63607 11.7168 5.91891 11.7168 6.20175C11.7168 6.4846 11.434 6.76744 11.1511 6.76744L2.66583 6.76744L6.62563 10.7272C6.83776 10.9394 6.83776 11.3636 6.62563 11.5758C6.41349 11.7879 5.98923 11.7879 5.7771 11.5758L0.827343 6.62602C0.756643 6.55531 0.685944 6.4846 0.685944 6.4846C0.615244 6.41389 0.615243 6.27247 0.615243 6.27247C0.615243 6.27247 0.615244 6.13104 0.685944 6.06033C0.756644 5.98962 0.756643 5.98962 0.827343 5.91891L5.7771 0.969129C5.98923 0.615629 6.41349 0.615628 6.62563 0.827728Z"/>
    </symbol>
    <symbol id="arrow-right" viewBox="0 0 12 13">
        <path d="M5.37401 11.1723C5.16188 10.9602 5.16188 10.5359 5.37401 10.3238L9.33381 6.36396L0.848532 6.36396C0.565689 6.36396 0.282846 6.08112 0.282846 5.79828C0.282846 5.51543 0.565688 5.23259 0.848531 5.23259L9.33381 5.23259L5.37401 1.27279C5.16188 1.06066 5.16188 0.636396 5.37401 0.424264C5.58615 0.212132 6.01041 0.212132 6.22254 0.424264L11.1723 5.37401C11.243 5.44472 11.3137 5.51543 11.3137 5.51543C11.3844 5.58614 11.3844 5.72756 11.3844 5.72756C11.3844 5.72756 11.3844 5.86899 11.3137 5.9397C11.243 6.01041 11.243 6.01041 11.1723 6.08112L6.22254 11.0309C6.01041 11.3844 5.58615 11.3844 5.37401 11.1723Z"/>
    </symbol>
    <symbol id="arrow-down" viewBox="0 0 12 7">
        <path d="M10.9004 1.44971L5.95064 6.39945L1.0009 1.44971" fill="none" stroke-width="1.2" stroke-linecap="round" stroke-linejoin="round"/>
    </symbol>
    <symbol id="tg" viewBox="0 0 14 12">
        <path d="M5.29716 7.53929L5.07385 10.6803C5.39335 10.6803 5.53173 10.543 5.69766 10.3782L7.1956 8.94667L10.2995 11.2197C10.8687 11.537 11.2698 11.3699 11.4234 10.696L13.4607 1.1493L13.4613 1.14873C13.6419 0.307234 13.157 -0.0218285 12.6024 0.184609L0.626725 4.76954C-0.190587 5.08679 -0.178213 5.54242 0.487788 5.74886L3.54948 6.70117L10.6612 2.25123C10.9959 2.02961 11.3002 2.15223 11.0499 2.37386L5.29716 7.53929Z"/>
    </symbol>
    <symbol id="vk" viewBox="0 0 18 11">
        <path d="M17.9045 9.48265C17.8827 9.43463 17.8624 9.39479 17.8435 9.36287C17.5312 8.7878 16.9345 8.08195 16.0535 7.24511L16.0349 7.22594L16.0256 7.21655L16.0162 7.20691H16.0067C15.6069 6.81724 15.3537 6.55523 15.2477 6.42108C15.0537 6.16555 15.0102 5.90689 15.1163 5.64482C15.1912 5.44681 15.4726 5.02864 15.9597 4.38973C16.216 4.05114 16.419 3.77976 16.5688 3.57531C17.6498 2.10601 18.1185 1.16711 17.9747 0.758231L17.9189 0.662683C17.8813 0.60516 17.7845 0.552536 17.6285 0.504544C17.4721 0.456652 17.2722 0.448732 17.0285 0.480648L14.3295 0.499711C14.2858 0.48387 14.2233 0.485347 14.142 0.504544C14.0607 0.523741 14.0201 0.533373 14.0201 0.533373L13.9731 0.557369L13.9358 0.586198C13.9046 0.60526 13.8702 0.638788 13.8327 0.686713C13.7954 0.73447 13.7642 0.790517 13.7392 0.854384C13.4454 1.62733 13.1113 2.34597 12.7363 3.01028C12.5051 3.4064 12.2928 3.74969 12.0989 4.04036C11.9053 4.33094 11.7428 4.54502 11.6117 4.68225C11.4804 4.81962 11.3619 4.92966 11.2555 5.01279C11.1492 5.09596 11.0681 5.1311 11.012 5.11824C10.9557 5.10539 10.9027 5.09264 10.8525 5.07988C10.7651 5.02236 10.6947 4.94413 10.6417 4.84512C10.5885 4.74612 10.5526 4.62151 10.5339 4.47139C10.5153 4.32117 10.5042 4.19196 10.5011 4.08332C10.4982 3.97482 10.4995 3.82135 10.5058 3.62334C10.5123 3.42522 10.5153 3.29118 10.5153 3.22091C10.5153 2.97812 10.5199 2.71464 10.5292 2.43038C10.5386 2.14611 10.5463 1.92089 10.5527 1.75496C10.559 1.58887 10.562 1.41314 10.562 1.22788C10.562 1.04263 10.551 0.897342 10.5292 0.791893C10.5076 0.686579 10.4746 0.584352 10.431 0.485246C10.3872 0.386241 10.3231 0.309655 10.2389 0.255286C10.1546 0.200984 10.0497 0.157892 9.92496 0.125875C9.59379 0.0492549 9.17208 0.00780709 8.65965 0.00136337C7.4976 -0.0113898 6.75093 0.0653307 6.41979 0.231424C6.28859 0.3016 6.16986 0.397484 6.0637 0.518774C5.95121 0.659361 5.93552 0.736081 6.01673 0.7487C6.39166 0.806123 6.65708 0.943488 6.8133 1.16066L6.86959 1.27574C6.91338 1.35877 6.9571 1.50577 7.00086 1.71653C7.04455 1.9273 7.07275 2.16044 7.08516 2.41584C7.11634 2.88224 7.11634 3.28148 7.08516 3.6136C7.05387 3.94586 7.02433 4.20451 6.99613 4.38977C6.96794 4.57503 6.92579 4.72514 6.86959 4.84009C6.8133 4.95507 6.77584 5.02535 6.75707 5.05085C6.73832 5.07636 6.7227 5.09244 6.71029 5.09874C6.62908 5.13056 6.54462 5.14677 6.45721 5.14677C6.36966 5.14677 6.26351 5.102 6.13858 5.01253C6.01368 4.92305 5.88405 4.80015 5.7497 4.64362C5.61534 4.48706 5.46382 4.26828 5.29507 3.98724C5.12644 3.7062 4.95148 3.37404 4.77029 2.99078L4.62038 2.71283C4.52666 2.53401 4.39864 2.27365 4.23619 1.93196C4.07364 1.59014 3.92996 1.2595 3.80506 0.940099C3.75514 0.805955 3.68013 0.703829 3.58018 0.633552L3.53327 0.604723C3.50209 0.579217 3.45203 0.552133 3.38336 0.523271C3.31459 0.494442 3.24283 0.473768 3.1678 0.461049L0.599913 0.480111C0.337509 0.480111 0.159465 0.54089 0.0657161 0.66228L0.0281968 0.719703C0.00945366 0.751687 0 0.802767 0 0.873077C0 0.943354 0.0187432 1.02961 0.0562624 1.13173C0.431126 2.03251 0.838782 2.90124 1.27923 3.73805C1.71968 4.57486 2.10242 5.24893 2.42723 5.75966C2.7521 6.27076 3.08324 6.75313 3.42065 7.20654C3.75806 7.66012 3.9814 7.95079 4.09068 8.07849C4.20008 8.20643 4.28602 8.30208 4.34849 8.36594L4.58282 8.59587C4.73277 8.74921 4.95296 8.93286 5.2435 9.14681C5.5341 9.36089 5.85582 9.57166 6.20882 9.77943C6.56189 9.98687 6.97263 10.1562 7.44128 10.2871C7.90986 10.4181 8.36593 10.4707 8.80956 10.4453H9.88734C10.1059 10.4261 10.2715 10.3558 10.3841 10.2345L10.4214 10.1865C10.4465 10.1483 10.4699 10.0891 10.4916 10.0094C10.5135 9.92955 10.5244 9.84159 10.5244 9.7459C10.518 9.47128 10.5385 9.22376 10.5852 9.0034C10.6319 8.78311 10.6852 8.61701 10.7447 8.50515C10.8042 8.3934 10.8714 8.29909 10.9461 8.22264C11.021 8.14602 11.0744 8.0996 11.1057 8.08363C11.1368 8.06755 11.1617 8.05664 11.1804 8.0501C11.3304 7.99902 11.5068 8.04849 11.7101 8.19874C11.9132 8.34886 12.1037 8.53422 12.2818 8.75451C12.4599 8.97501 12.6739 9.22239 12.9237 9.49702C13.1738 9.77175 13.3924 9.97597 13.5798 10.1103L13.7671 10.2253C13.8922 10.302 14.0547 10.3723 14.2547 10.4362C14.4543 10.5 14.6292 10.516 14.7794 10.484L17.1784 10.4458C17.4157 10.4458 17.6004 10.4056 17.7314 10.3259C17.8626 10.2461 17.9405 10.1581 17.9657 10.0624C17.9908 9.96663 17.9921 9.85796 17.9705 9.73647C17.9482 9.61528 17.9263 9.53054 17.9045 9.48265Z"/>
    </symbol>
    <symbol id="vc" viewBox="0 0 17 16">
        <path d="M14.3616 9.63773H13.2104V8.50145H15.5943V14.1107H16.4999V15.2406H15.7965C15.4972 15.2406 15.1972 15.2313 14.8987 15.2406C14.7209 15.2484 14.6602 15.1813 14.6437 15.0113C14.6173 14.7442 14.5666 14.4792 14.5195 14.165C14.4566 14.2514 14.4223 14.2957 14.3916 14.3421C13.8139 15.2241 12.9518 15.5812 11.9334 15.3813C10.9271 15.1806 10.2607 14.5028 10.0765 13.4722C10.0332 13.2198 10.0112 12.9642 10.0108 12.708C10.0036 11.7924 10.0108 10.8776 10.0108 9.96269V9.64701H8.99805V8.50073H11.2063C11.2113 8.60572 11.2192 8.70428 11.2192 8.80355C11.2192 10.0441 11.2135 11.2839 11.2242 12.5238C11.2234 12.8058 11.2569 13.0869 11.3242 13.3608C11.5184 14.1064 12.1441 14.4685 12.8997 14.3014C13.2961 14.2127 13.6525 13.9965 13.9142 13.6858C14.1759 13.3752 14.3286 12.9873 14.3488 12.5816C14.4052 11.6189 14.3616 10.6533 14.3616 9.63773Z"/>
        <path d="M15.1775 5.01757L16.0831 5.70819C15.5639 6.40025 14.9068 6.8509 14.0719 7.03159C11.813 7.51082 9.77393 5.91674 9.68966 3.61275C9.62324 1.80727 11.1009 0.146767 12.9092 0.0139271C13.9327 -0.0610632 14.8833 0.161766 15.7053 0.80454C15.8005 0.890999 15.8581 1.01117 15.866 1.1395C15.8839 1.62443 15.8739 2.1108 15.8739 2.61431H14.7126C14.7126 2.32434 14.6962 2.02867 14.7176 1.73585C14.734 1.50873 14.6404 1.40303 14.4433 1.31447C13.2813 0.79097 11.9758 1.14949 11.3466 2.1765C10.6774 3.26851 10.8981 4.70903 11.8515 5.47751C12.7607 6.20955 14.1369 6.101 14.9783 5.2304C15.0425 5.16398 15.1061 5.0947 15.1775 5.01757Z"/>
        <path d="M1.85938 1.31731V0.163168C2.53714 0.163168 3.20206 0.156741 3.86554 0.173882C3.92982 0.173882 4.01695 0.313149 4.04766 0.403137C4.57141 1.91151 5.09039 3.42108 5.60461 4.93184C5.62675 4.99611 5.6496 5.06039 5.69316 5.18466C5.74316 5.05682 5.77815 4.97826 5.80601 4.89898C6.32308 3.39918 6.8423 1.89937 7.35295 0.393854C7.4108 0.221733 7.4865 0.154598 7.67577 0.158883C8.24712 0.173167 8.81847 0.163883 9.4134 0.163883V1.31873C9.12129 1.31873 8.84204 1.33016 8.56065 1.31445C8.37567 1.30445 8.29211 1.37087 8.22855 1.5437C7.58578 3.28919 6.92515 5.0304 6.28309 6.7766C6.2081 6.98086 6.11382 7.06228 5.90028 7.04014C5.63103 7.01443 5.29607 7.10727 5.10681 6.978C4.91755 6.84873 4.89255 6.51306 4.80614 6.26381C4.24978 4.70472 3.68557 3.14635 3.13564 1.58299C3.06422 1.38373 2.97637 1.29731 2.7564 1.31088C2.46787 1.33302 2.17862 1.31731 1.85938 1.31731Z"/>
        <path d="M3.44213 9.53357H2.35156V8.50585H4.44629C4.47272 8.90651 4.49843 9.31217 4.53128 9.81496C5.29118 8.55227 6.41532 8.34515 7.69444 8.50442V10.5234H6.56387V9.52357C6.16537 9.51123 5.77597 9.64424 5.4683 9.89781C4.94194 10.3263 4.65983 10.8841 4.65555 11.5676C4.65055 12.3289 4.65555 13.0895 4.65555 13.853V14.133H7.53518V15.2193H2.35156V14.1244H3.44213V9.53357Z"/>
        <path d="M0 15.2527V14.0957H1.15128V15.2527H0Z"/>
    </symbol>

    <symbol id="logo" viewBox="0 0 114 24">
        <path d="M100.606 9.91307C99.145 9.91307 97.5912 10.7887 97.5912 12.7093C97.5912 14.126 98.6409 15.5532 100.633 15.5532C102.626 15.5532 103.675 14.1247 103.675 12.7093C103.675 11.3165 102.626 9.91307 100.606 9.91307ZM100.606 19.3217C98.4138 19.3217 96.4743 18.7093 94.9861 17.5452C93.2066 16.1537 92.5024 14.4249 92.5024 11.3773C92.5024 6.36154 93.0209 2.14863 99.3707 1.45684L102.403 1.1169C103.944 0.948908 104.435 0.769016 104.648 0.27696C104.684 0.196869 104.744 0.128154 104.822 0.0791012C104.899 0.0300485 104.99 0.00275356 105.084 0.000508198C105.124 -0.00151365 105.164 0.00250601 105.204 0.0124128L108.346 0.948908C108.464 0.976244 108.567 1.04545 108.632 1.1418C108.696 1.23815 108.718 1.35403 108.691 1.46477C108.107 3.66051 107.363 4.30865 104.799 4.5851L100.442 5.1142C98.2767 5.36684 96.6828 5.77556 96.2701 8.40251C97.4526 7.15385 99.2322 6.50703 101.477 6.50703C103.377 6.50703 105.158 7.09565 106.476 8.175C107.904 9.33901 108.654 10.9527 108.654 12.831C108.643 16.6458 105.335 19.3217 100.606 19.3217Z"/>
        <path d="M84.5317 9.37321C83.1634 9.37321 81.9937 10.0809 81.6881 11.0769C81.6881 11.0888 81.6881 11.0888 81.7009 11.1007C81.7138 11.1126 81.7281 11.1007 81.7681 11.1007H86.9225C86.9496 11.1007 86.9753 11.1126 86.9753 11.1007C86.9753 11.0888 87.0025 11.0888 86.9882 11.065C86.8354 9.99622 85.9127 9.37321 84.5317 9.37321ZM84.6373 19.3215C82.4593 19.3215 80.4655 18.721 79.0316 17.6297C77.4906 16.4538 76.6665 14.7858 76.6665 12.8057C76.6665 10.8613 77.4506 9.19332 78.9388 7.9817C80.367 6.82959 82.3265 6.19336 84.4788 6.19336C88.9063 6.19336 91.7727 8.82163 91.7727 12.9023C91.7727 13.1179 91.7727 13.3467 91.7598 13.5636C91.7532 13.7094 91.6858 13.847 91.5717 13.9477C91.4577 14.0483 91.306 14.1041 91.1486 14.1033H81.7424C81.7192 14.1 81.6954 14.1042 81.6752 14.1152C81.6657 14.122 81.6592 14.1318 81.6568 14.1427C81.6544 14.1537 81.6564 14.165 81.6624 14.1747C81.9952 15.1469 83.2563 15.8427 84.6616 15.8427C85.7913 15.8427 86.7211 15.5067 87.3752 14.8705C87.4325 14.8128 87.5024 14.7669 87.5801 14.7359C87.6579 14.7049 87.7419 14.6895 87.8265 14.6906C87.9333 14.69 88.0385 14.7146 88.1322 14.762L90.7487 16.1654C90.8247 16.205 90.89 16.2601 90.9395 16.3266C90.989 16.393 91.0215 16.4692 91.0343 16.549C91.0498 16.6276 91.0459 16.7084 91.0229 16.7854C90.9999 16.8623 90.9584 16.9335 90.9015 16.9935C89.5261 18.5186 87.3481 19.3215 84.6373 19.3215Z"/>
        <path d="M67.4201 9.4212C67.336 9.42285 67.2556 9.4532 67.1941 9.50641C67.1327 9.55963 67.0947 9.63196 67.0873 9.70955V11.1011C67.0977 11.1735 67.1384 11.2392 67.2007 11.284C67.263 11.3288 67.3418 11.3491 67.4201 11.3405H69.1068C69.4653 11.3405 70.6079 11.2691 70.6079 10.3445C70.6079 9.57596 69.6781 9.41855 68.9069 9.41855L67.4201 9.4212ZM67.4201 13.8616C67.3379 13.8626 67.2589 13.8912 67.1977 13.942C67.1366 13.9929 67.0973 14.0625 67.0873 14.1381V15.7809C67.0977 15.8533 67.1384 15.919 67.2007 15.9638C67.263 16.0087 67.3418 16.0289 67.4201 16.0203H69.134C69.5724 16.0203 71.0078 15.9489 71.0078 14.9277C71.0078 13.9912 69.7995 13.8603 69.0811 13.8603L67.4201 13.8616ZM62.917 18.9012C62.4656 18.9012 62.04 18.601 62.04 18.1936V7.3207C62.0543 7.11259 62.1522 6.91698 62.3146 6.7725C62.4769 6.62802 62.6919 6.54516 62.917 6.54028H70.118C73.5985 6.54028 75.5252 7.75191 75.5252 9.92384C75.5293 10.4472 75.3713 10.9607 75.0698 11.4033C74.7683 11.846 74.336 12.1992 73.8242 12.4212C75.2524 12.8775 76.1493 13.933 76.1493 15.265C76.1493 17.5216 73.9841 18.9012 70.4893 18.9012H62.917Z"/>
        <path d="M55.8433 13.7413C53.0939 13.7413 51.8186 14.1857 51.8186 15.1328C51.8186 16.0587 53.2796 16.1169 53.5595 16.1169C55.2334 16.1169 56.2032 15.3233 56.2032 13.9331V13.7413H55.8433ZM52.4027 19.2253C49.7462 19.2253 47.0483 18.0018 47.0483 15.2651C47.0483 13.6447 48.0709 12.4688 50.0904 11.7731C51.5386 11.281 53.4781 11.0284 56.0289 11.0165C56.0161 10.5482 55.7433 9.5879 53.7709 9.5879C52.6276 9.61705 51.5253 9.9883 50.6289 10.6461C50.5478 10.7066 50.4473 10.7406 50.3432 10.7426C50.279 10.7427 50.2155 10.7311 50.1562 10.7084C50.0969 10.6857 50.043 10.6524 49.9976 10.6104L47.9652 8.75854C47.9181 8.71735 47.8816 8.66679 47.8586 8.61065C47.8356 8.55452 47.8266 8.49428 47.8324 8.43447C47.833 8.37558 47.8472 8.31749 47.8741 8.2641C47.9009 8.21072 47.9398 8.16327 47.9881 8.12495C49.6091 6.90143 51.8543 6.20435 54.1922 6.20435C58.8825 6.20435 60.8605 8.14876 60.8605 12.7201V18.519C60.8656 18.5723 60.8579 18.6259 60.8382 18.6762C60.8184 18.7264 60.787 18.7721 60.7462 18.8099C60.7053 18.8477 60.6561 18.8768 60.6018 18.8951C60.5475 18.9134 60.4896 18.9205 60.4321 18.9158H56.6473C56.5894 18.9201 56.5313 18.9128 56.4767 18.8945C56.4221 18.8761 56.3723 18.8472 56.3308 18.8096C56.2893 18.772 56.2569 18.7267 56.2359 18.6765C56.2148 18.6264 56.2056 18.5727 56.2089 18.519V18.0269C55.272 18.7571 53.9366 19.2253 52.3956 19.2253H52.4027Z"/>
        <path d="M38.4592 9.91277C36.9311 9.91277 35.35 10.971 35.35 12.7328C35.3499 13.1082 35.4308 13.4799 35.5878 13.826C35.7448 14.172 35.9749 14.4856 36.2645 14.7483C36.5541 15.0109 36.8974 15.2174 37.2743 15.3556C37.6511 15.4937 38.054 15.5608 38.4592 15.5529C40.5316 15.5529 41.4742 14.0767 41.4742 12.709C41.4756 11.3651 40.533 9.91277 38.4592 9.91277ZM30.8612 23.2221C30.801 23.2224 30.7415 23.2113 30.6863 23.1893C30.631 23.1673 30.5813 23.135 30.5401 23.0944C30.4989 23.0538 30.4673 23.0058 30.4471 22.9533C30.4269 22.9009 30.4186 22.8451 30.4227 22.7896V7.0107C30.418 6.95324 30.4257 6.89549 30.4453 6.84079C30.4648 6.78609 30.4959 6.73552 30.5366 6.69199C30.5774 6.64846 30.6271 6.61283 30.6828 6.58717C30.7385 6.5615 30.7991 6.5463 30.8612 6.54245H34.8202C34.9539 6.54712 35.0809 6.59761 35.1767 6.68413C35.2725 6.77064 35.3302 6.88702 35.3386 7.0107V7.73026C36.4012 6.79377 37.9422 6.24219 39.6032 6.24219C41.5827 6.24219 43.3623 6.93795 44.6377 8.18661C45.8331 9.37707 46.4844 10.9829 46.4844 12.7104C46.4844 15.9749 44.0793 19.2751 39.5361 19.2751C38.0553 19.2915 36.6157 18.8231 35.4714 17.9523V22.7883C35.4768 22.8433 35.4697 22.8988 35.4506 22.9511C35.4315 23.0035 35.4008 23.0515 35.3604 23.0922C35.3201 23.133 35.271 23.1654 35.2164 23.1876C35.1617 23.2097 35.1026 23.221 35.043 23.2208L30.8612 23.2221Z"/>
        <path d="M24.1374 13.7413C21.3881 13.7413 20.1127 14.1857 20.1127 15.1328C20.1127 16.0587 21.5409 16.1169 21.8265 16.1169C23.5004 16.1169 24.443 15.3233 24.443 13.9331V13.7413H24.1374ZM20.6697 19.2253C18.0132 19.2253 15.3296 18.0018 15.3296 15.2651C15.3296 13.6447 16.3522 12.4688 18.3845 11.7731C19.8327 11.281 21.7851 11.0284 24.323 11.0165C24.3102 10.5482 24.0374 9.5879 22.065 9.5879C20.9218 9.61705 19.8194 9.9883 18.923 10.6461C18.8419 10.7066 18.7414 10.7406 18.6373 10.7426C18.5732 10.7427 18.5096 10.7311 18.4503 10.7084C18.391 10.6857 18.3371 10.6524 18.2917 10.6104L16.2594 8.75854C16.2122 8.71735 16.1757 8.66679 16.1527 8.61065C16.1297 8.55452 16.1208 8.49428 16.1265 8.43447C16.1271 8.37558 16.1413 8.31749 16.1682 8.2641C16.195 8.21072 16.2339 8.16327 16.2822 8.12495C17.9032 6.90143 20.1741 6.20435 22.5263 6.20435C27.2166 6.20435 29.2389 8.14876 29.2389 12.7201V18.519C29.2361 18.5753 29.221 18.6306 29.1945 18.6814C29.168 18.7322 29.1306 18.7775 29.0847 18.8145C29.0388 18.8516 28.9853 18.8797 28.9274 18.8971C28.8694 18.9145 28.8083 18.9209 28.7476 18.9158H24.9629C24.6972 18.9158 24.4587 18.7597 24.4587 18.519V18.0269C23.6475 18.7571 22.2121 19.2253 20.6711 19.2253H20.6697Z"/>
        <path d="M9.68469 18.9015C9.41904 18.9015 9.16625 18.7454 9.16625 18.5047V10.022H5.18154V18.506C5.18177 18.5611 5.16958 18.6157 5.14577 18.6663C5.12195 18.7168 5.08703 18.7622 5.04322 18.7995C4.99941 18.8368 4.94768 18.8653 4.89134 18.8831C4.83499 18.9009 4.77526 18.9076 4.71595 18.9028H0.504158C0.238511 18.9028 0 18.7467 0 18.506V7.01146C0.00558139 6.88916 0.0604478 6.77323 0.153776 6.68655C0.247105 6.59987 0.372119 6.54873 0.504158 6.54321H13.8965C14.023 6.55071 14.1413 6.60404 14.2258 6.69166C14.3102 6.77928 14.3541 6.89415 14.3478 7.01146V18.506C14.3496 18.5604 14.339 18.6145 14.3166 18.6649C14.2943 18.7152 14.2607 18.7606 14.2181 18.798C14.1755 18.8355 14.1248 18.8642 14.0694 18.8823C14.0139 18.9003 13.955 18.9073 13.8965 18.9028L9.68469 18.9015Z"/>
        <path d="M111.313 19.1801C109.832 19.1801 108.627 18.1312 108.627 16.8415C108.627 15.5519 109.832 14.5029 111.313 14.5029C112.794 14.5029 114 15.5519 114 16.8415C114 18.1312 112.794 19.1801 111.313 19.1801Z" fill="#FFCE5D"/>
    </symbol>
</svg>
