<svg width="78" height="18" viewBox="0 0 78 18" fill="none" xmlns="http://www.w3.org/2000/svg">
<path d="M68.8356 7.37933C67.836 7.37933 66.7728 8.03117 66.7728 9.46088C66.7728 10.5154 67.491 11.5779 68.8542 11.5779C70.2174 11.5779 70.9356 10.5145 70.9356 9.46088C70.9356 8.42405 70.2174 7.37933 68.8356 7.37933ZM68.8356 14.3831C67.3356 14.3831 66.0086 13.9272 64.9904 13.0608C63.7728 12.0249 63.291 10.738 63.291 8.46934C63.291 4.73555 63.6457 1.59945 67.9904 1.08448L70.065 0.831421C71.1193 0.706371 71.4555 0.572459 71.6011 0.20617C71.6258 0.14655 71.6671 0.0953982 71.7199 0.0588833C71.7728 0.0223683 71.8351 0.00204976 71.8992 0.000378305C71.9268 -0.00112677 71.9545 0.00186548 71.9812 0.00924014L74.1311 0.706371C74.2124 0.72672 74.2826 0.778239 74.3268 0.849963C74.3709 0.921686 74.3856 1.00795 74.3676 1.09038C73.9679 2.7249 73.4588 3.20738 71.7047 3.41317L68.7233 3.80703C67.2418 3.9951 66.1513 4.29935 65.8689 6.25486C66.678 5.32536 67.8956 4.84386 69.4317 4.84386C70.7314 4.84386 71.95 5.28203 72.8519 6.0855C73.8291 6.952 74.3422 8.15327 74.3422 9.55147C74.3343 12.3912 72.0711 14.3831 68.8356 14.3831Z" fill="white"/>
<path d="M57.8375 6.97769C56.9013 6.97769 56.101 7.50448 55.8919 8.24592C55.8919 8.25478 55.8919 8.25478 55.9007 8.26364C55.9095 8.2725 55.9192 8.26364 55.9466 8.26364H59.4733C59.4919 8.26364 59.5095 8.2725 59.5095 8.26364C59.5095 8.25478 59.528 8.25478 59.5183 8.23706C59.4137 7.44146 58.7824 6.97769 57.8375 6.97769ZM57.9098 14.3832C56.4196 14.3832 55.0554 13.9362 54.0743 13.1239C53.0199 12.2485 52.4561 11.0069 52.4561 9.53285C52.4561 8.08542 52.9925 6.84378 54.0108 5.94184C54.988 5.08421 56.3287 4.6106 57.8013 4.6106C60.8306 4.6106 62.7919 6.56709 62.7919 9.60473C62.7919 9.76523 62.7919 9.93557 62.7831 10.0971C62.7785 10.2055 62.7324 10.308 62.6544 10.383C62.5764 10.4579 62.4726 10.4994 62.3648 10.4988H55.929C55.9132 10.4963 55.8969 10.4994 55.8831 10.5077C55.8766 10.5127 55.8721 10.52 55.8705 10.5282C55.8689 10.5363 55.8702 10.5447 55.8743 10.552C56.102 11.2757 56.9649 11.7936 57.9264 11.7936C58.6994 11.7936 59.3355 11.5435 59.7831 11.0699C59.8223 11.0269 59.8701 10.9928 59.9233 10.9697C59.9765 10.9466 60.034 10.9351 60.0919 10.936C60.1649 10.9356 60.2369 10.9538 60.301 10.9891L62.0912 12.0339C62.1433 12.0633 62.188 12.1043 62.2218 12.1538C62.2557 12.2033 62.2779 12.2599 62.2867 12.3194C62.2973 12.3779 62.2946 12.438 62.2789 12.4953C62.2631 12.5526 62.2347 12.6056 62.1958 12.6502C61.2547 13.7855 59.7645 14.3832 57.9098 14.3832Z" fill="white"/>
<path d="M46.1298 7.01322C46.0723 7.01445 46.0173 7.03704 45.9752 7.07665C45.9332 7.11626 45.9072 7.17011 45.9022 7.22787V8.26372C45.9092 8.31762 45.9371 8.36655 45.9797 8.39991C46.0223 8.43326 46.0763 8.44837 46.1298 8.44194H47.2839C47.5292 8.44194 48.3109 8.38877 48.3109 7.7005C48.3109 7.12842 47.6748 7.01125 47.1471 7.01125L46.1298 7.01322ZM46.1298 10.3187C46.0736 10.3194 46.0196 10.3407 45.9777 10.3786C45.9358 10.4164 45.909 10.4682 45.9022 10.5245V11.7474C45.9092 11.8013 45.9371 11.8502 45.9797 11.8836C46.0223 11.917 46.0763 11.9321 46.1298 11.9256H47.3025C47.6025 11.9256 48.5846 11.8725 48.5846 11.1123C48.5846 10.4152 47.7578 10.3177 47.2663 10.3177L46.1298 10.3187ZM43.0487 14.0702C42.7399 14.0702 42.4487 13.8467 42.4487 13.5434V5.44959C42.4585 5.29468 42.5255 5.14907 42.6366 5.04152C42.7477 4.93397 42.8947 4.87228 43.0487 4.86865H47.9758C50.3572 4.86865 51.6754 5.77059 51.6754 7.38738C51.6783 7.77697 51.5701 8.1592 51.3638 8.48871C51.1575 8.81822 50.8618 9.08119 50.5116 9.2464C51.4888 9.5861 52.1025 10.3719 52.1025 11.3634C52.1025 13.0432 50.621 14.0702 48.2298 14.0702H43.0487Z" fill="white"/>
<path d="M38.2085 10.2294C36.3274 10.2294 35.4548 10.5603 35.4548 11.2653C35.4548 11.9545 36.4544 11.9979 36.646 11.9979C37.7912 11.9979 38.4548 11.4071 38.4548 10.3722V10.2294H38.2085ZM35.8544 14.3118C34.0368 14.3118 32.1909 13.401 32.1909 11.3637C32.1909 10.1575 32.8906 9.28219 34.2723 8.76427C35.2632 8.39798 36.5903 8.20991 38.3355 8.20105C38.3267 7.85248 38.1401 7.13763 36.7906 7.13763C36.0083 7.15933 35.2541 7.43569 34.6408 7.92535C34.5853 7.97041 34.5165 7.99568 34.4453 7.99723C34.4014 7.99727 34.3579 7.9886 34.3173 7.9717C34.2768 7.95481 34.2399 7.93002 34.2088 7.89876L32.8183 6.52025C32.786 6.48959 32.7611 6.45195 32.7453 6.41016C32.7296 6.36837 32.7234 6.32353 32.7274 6.27901C32.7278 6.23517 32.7375 6.19193 32.7559 6.15219C32.7743 6.11245 32.8009 6.07713 32.8339 6.04861C33.943 5.13781 35.4792 4.6189 37.0789 4.6189C40.288 4.6189 41.6414 6.06633 41.6414 9.46927V13.786C41.6448 13.8256 41.6396 13.8656 41.6261 13.903C41.6126 13.9404 41.5911 13.9744 41.5631 14.0025C41.5352 14.0307 41.5015 14.0523 41.4644 14.0659C41.4272 14.0796 41.3876 14.0848 41.3482 14.0814H38.7587C38.7191 14.0845 38.6792 14.0791 38.6419 14.0655C38.6045 14.0518 38.5705 14.0303 38.5421 14.0023C38.5137 13.9743 38.4915 13.9406 38.4771 13.9032C38.4627 13.8659 38.4564 13.8259 38.4587 13.786V13.4197C37.8176 13.9632 36.9039 14.3118 35.8495 14.3118H35.8544Z" fill="white"/>
<path d="M26.3141 7.37937C25.2685 7.37937 24.1867 8.16709 24.1867 9.47864C24.1866 9.75809 24.2419 10.0347 24.3494 10.2924C24.4568 10.55 24.6142 10.7834 24.8124 10.9789C25.0105 11.1745 25.2454 11.3282 25.5033 11.431C25.7611 11.5339 26.0368 11.5838 26.3141 11.5779C27.732 11.5779 28.3769 10.479 28.3769 9.46092C28.3779 8.46052 27.733 7.37937 26.3141 7.37937ZM21.1154 17.2869C21.0742 17.2871 21.0335 17.2788 20.9957 17.2625C20.9579 17.2461 20.9238 17.2221 20.8957 17.1918C20.8675 17.1616 20.8459 17.1259 20.832 17.0868C20.8182 17.0478 20.8125 17.0063 20.8154 16.9649V5.21905C20.8122 5.17628 20.8174 5.1333 20.8308 5.09258C20.8442 5.05186 20.8654 5.01421 20.8933 4.98181C20.9212 4.9494 20.9552 4.92288 20.9933 4.90378C21.0314 4.88467 21.0729 4.87336 21.1154 4.87049H23.8242C23.9156 4.87397 24.0026 4.91155 24.0681 4.97595C24.1337 5.04036 24.1731 5.12699 24.1789 5.21905V5.7547C24.9059 5.05757 25.9603 4.64697 27.0968 4.64697C28.4512 4.64697 29.6688 5.1649 30.5414 6.09441C31.3593 6.98059 31.8049 8.17595 31.8049 9.4619C31.8049 11.892 30.1593 14.3487 27.0509 14.3487C26.0376 14.361 25.0527 14.0122 24.2698 13.3641V16.9639C24.2734 17.0049 24.2686 17.0462 24.2555 17.0852C24.2424 17.1241 24.2214 17.1599 24.1938 17.1902C24.1662 17.2205 24.1326 17.2447 24.0952 17.2612C24.0578 17.2777 24.0174 17.2861 23.9766 17.2859L21.1154 17.2869Z" fill="white"/>
<path d="M16.5147 10.2294C14.6336 10.2294 13.7609 10.5603 13.7609 11.2653C13.7609 11.9545 14.7381 11.9979 14.9336 11.9979C16.0788 11.9979 16.7238 11.4071 16.7238 10.3722V10.2294H16.5147ZM14.142 14.3118C12.3244 14.3118 10.4883 13.401 10.4883 11.3637C10.4883 10.1575 11.188 9.28219 12.5785 8.76427C13.5694 8.39798 14.9052 8.20991 16.6417 8.20105C16.6329 7.85248 16.4463 7.13763 15.0968 7.13763C14.3145 7.15933 13.5603 7.43569 12.9469 7.92535C12.8914 7.97041 12.8227 7.99568 12.7515 7.99723C12.7076 7.99727 12.6641 7.9886 12.6235 7.9717C12.5829 7.95481 12.5461 7.93002 12.515 7.89876L11.1244 6.52025C11.0922 6.48959 11.0672 6.45195 11.0515 6.41016C11.0357 6.36837 11.0296 6.32353 11.0336 6.27901C11.034 6.23517 11.0437 6.19193 11.0621 6.15219C11.0804 6.11245 11.107 6.07713 11.1401 6.04861C12.2492 5.13781 13.8029 4.6189 15.4124 4.6189C18.6215 4.6189 20.0052 6.06633 20.0052 9.46927V13.786C20.0033 13.8279 19.9929 13.869 19.9748 13.9068C19.9567 13.9447 19.9311 13.9784 19.8997 14.006C19.8683 14.0336 19.8317 14.0545 19.792 14.0674C19.7524 14.0804 19.7106 14.0851 19.6691 14.0814H17.0795C16.8977 14.0814 16.7345 13.9652 16.7345 13.786V13.4197C16.1795 13.9632 15.1974 14.3118 14.143 14.3118H14.142Z" fill="white"/>
<path d="M6.62639 14.0699C6.44463 14.0699 6.27166 13.9537 6.27166 13.7745V7.45999H3.54528V13.7755C3.54543 13.8166 3.53709 13.8572 3.5208 13.8948C3.5045 13.9324 3.48061 13.9662 3.45063 13.994C3.42066 14.0218 3.38527 14.043 3.34672 14.0562C3.30816 14.0695 3.26729 14.0745 3.22671 14.0709H0.344951C0.163192 14.0709 0 13.9547 0 13.7755V5.21893C0.00381886 5.12788 0.0413591 5.04159 0.105216 4.97706C0.169072 4.91254 0.254608 4.87447 0.344951 4.87036H9.50815C9.59474 4.87595 9.67567 4.91564 9.73345 4.98086C9.79123 5.04609 9.82123 5.1316 9.81694 5.21893V13.7755C9.81818 13.816 9.81091 13.8563 9.79562 13.8938C9.78033 13.9312 9.75735 13.965 9.72819 13.9929C9.69904 14.0208 9.66436 14.0422 9.62644 14.0556C9.58852 14.069 9.54821 14.0743 9.50815 14.0709L6.62639 14.0699Z" fill="white"/>
<path d="M76.1618 14.2779C75.1485 14.2779 74.3237 13.497 74.3237 12.537C74.3237 11.577 75.1485 10.7961 76.1618 10.7961C77.1752 10.7961 77.9999 11.577 77.9999 12.537C77.9999 13.497 77.1752 14.2779 76.1618 14.2779Z" fill="white"/>
</svg>
