<svg width="114" height="24" viewBox="0 0 114 24" fill="none" xmlns="http://www.w3.org/2000/svg">
<path d="M100.606 9.91307C99.145 9.91307 97.5912 10.7887 97.5912 12.7093C97.5912 14.126 98.6409 15.5532 100.633 15.5532C102.626 15.5532 103.675 14.1247 103.675 12.7093C103.675 11.3165 102.626 9.91307 100.606 9.91307ZM100.606 19.3217C98.4138 19.3217 96.4743 18.7093 94.9861 17.5452C93.2066 16.1537 92.5024 14.4249 92.5024 11.3773C92.5024 6.36154 93.0209 2.14863 99.3707 1.45684L102.403 1.1169C103.944 0.948908 104.435 0.769016 104.648 0.27696C104.684 0.196869 104.744 0.128154 104.822 0.0791012C104.899 0.0300485 104.99 0.00275356 105.084 0.000508198C105.124 -0.00151365 105.164 0.00250601 105.204 0.0124128L108.346 0.948908C108.464 0.976244 108.567 1.04545 108.632 1.1418C108.696 1.23815 108.718 1.35403 108.691 1.46477C108.107 3.66051 107.363 4.30865 104.799 4.5851L100.442 5.1142C98.2767 5.36684 96.6828 5.77556 96.2701 8.40251C97.4526 7.15385 99.2322 6.50703 101.477 6.50703C103.377 6.50703 105.158 7.09565 106.476 8.175C107.904 9.33901 108.654 10.9527 108.654 12.831C108.643 16.6458 105.335 19.3217 100.606 19.3217Z" fill="#3D3D3D"/>
<path d="M84.5317 9.37321C83.1634 9.37321 81.9937 10.0809 81.6881 11.0769C81.6881 11.0888 81.6881 11.0888 81.7009 11.1007C81.7138 11.1126 81.7281 11.1007 81.7681 11.1007H86.9225C86.9496 11.1007 86.9753 11.1126 86.9753 11.1007C86.9753 11.0888 87.0025 11.0888 86.9882 11.065C86.8354 9.99622 85.9127 9.37321 84.5317 9.37321ZM84.6373 19.3215C82.4593 19.3215 80.4655 18.721 79.0316 17.6297C77.4906 16.4538 76.6665 14.7858 76.6665 12.8057C76.6665 10.8613 77.4506 9.19332 78.9388 7.9817C80.367 6.82959 82.3265 6.19336 84.4788 6.19336C88.9063 6.19336 91.7727 8.82163 91.7727 12.9023C91.7727 13.1179 91.7727 13.3467 91.7598 13.5636C91.7532 13.7094 91.6858 13.847 91.5717 13.9477C91.4577 14.0483 91.306 14.1041 91.1486 14.1033H81.7424C81.7192 14.1 81.6954 14.1042 81.6752 14.1152C81.6657 14.122 81.6592 14.1318 81.6568 14.1427C81.6544 14.1537 81.6564 14.165 81.6624 14.1747C81.9952 15.1469 83.2563 15.8427 84.6616 15.8427C85.7913 15.8427 86.7211 15.5067 87.3752 14.8705C87.4325 14.8128 87.5024 14.7669 87.5801 14.7359C87.6579 14.7049 87.7419 14.6895 87.8265 14.6906C87.9333 14.69 88.0385 14.7146 88.1322 14.762L90.7487 16.1654C90.8247 16.205 90.89 16.2601 90.9395 16.3266C90.989 16.393 91.0215 16.4692 91.0343 16.549C91.0498 16.6276 91.0459 16.7084 91.0229 16.7854C90.9999 16.8623 90.9584 16.9335 90.9015 16.9935C89.5261 18.5186 87.3481 19.3215 84.6373 19.3215Z" fill="#3D3D3D"/>
<path d="M67.4201 9.4212C67.336 9.42285 67.2556 9.4532 67.1941 9.50641C67.1327 9.55963 67.0947 9.63196 67.0873 9.70955V11.1011C67.0977 11.1735 67.1384 11.2392 67.2007 11.284C67.263 11.3288 67.3418 11.3491 67.4201 11.3405H69.1068C69.4653 11.3405 70.6079 11.2691 70.6079 10.3445C70.6079 9.57596 69.6781 9.41855 68.9069 9.41855L67.4201 9.4212ZM67.4201 13.8616C67.3379 13.8626 67.2589 13.8912 67.1977 13.942C67.1366 13.9929 67.0973 14.0625 67.0873 14.1381V15.7809C67.0977 15.8533 67.1384 15.919 67.2007 15.9638C67.263 16.0087 67.3418 16.0289 67.4201 16.0203H69.134C69.5724 16.0203 71.0078 15.9489 71.0078 14.9277C71.0078 13.9912 69.7995 13.8603 69.0811 13.8603L67.4201 13.8616ZM62.917 18.9012C62.4656 18.9012 62.04 18.601 62.04 18.1936V7.3207C62.0543 7.11259 62.1522 6.91698 62.3146 6.7725C62.4769 6.62802 62.6919 6.54516 62.917 6.54028H70.118C73.5985 6.54028 75.5252 7.75191 75.5252 9.92384C75.5293 10.4472 75.3713 10.9607 75.0698 11.4033C74.7683 11.846 74.336 12.1992 73.8242 12.4212C75.2524 12.8775 76.1493 13.933 76.1493 15.265C76.1493 17.5216 73.9841 18.9012 70.4893 18.9012H62.917Z" fill="#3D3D3D"/>
<path d="M55.8433 13.7413C53.0939 13.7413 51.8186 14.1857 51.8186 15.1328C51.8186 16.0587 53.2796 16.1169 53.5595 16.1169C55.2334 16.1169 56.2032 15.3233 56.2032 13.9331V13.7413H55.8433ZM52.4027 19.2253C49.7462 19.2253 47.0483 18.0018 47.0483 15.2651C47.0483 13.6447 48.0709 12.4688 50.0904 11.7731C51.5386 11.281 53.4781 11.0284 56.0289 11.0165C56.0161 10.5482 55.7433 9.5879 53.7709 9.5879C52.6276 9.61705 51.5253 9.9883 50.6289 10.6461C50.5478 10.7066 50.4473 10.7406 50.3432 10.7426C50.279 10.7427 50.2155 10.7311 50.1562 10.7084C50.0969 10.6857 50.043 10.6524 49.9976 10.6104L47.9652 8.75854C47.9181 8.71735 47.8816 8.66679 47.8586 8.61065C47.8356 8.55452 47.8266 8.49428 47.8324 8.43447C47.833 8.37558 47.8472 8.31749 47.8741 8.2641C47.9009 8.21072 47.9398 8.16327 47.9881 8.12495C49.6091 6.90143 51.8543 6.20435 54.1922 6.20435C58.8825 6.20435 60.8605 8.14876 60.8605 12.7201V18.519C60.8656 18.5723 60.8579 18.6259 60.8382 18.6762C60.8184 18.7264 60.787 18.7721 60.7462 18.8099C60.7053 18.8477 60.6561 18.8768 60.6018 18.8951C60.5475 18.9134 60.4896 18.9205 60.4321 18.9158H56.6473C56.5894 18.9201 56.5313 18.9128 56.4767 18.8945C56.4221 18.8761 56.3723 18.8472 56.3308 18.8096C56.2893 18.772 56.2569 18.7267 56.2359 18.6765C56.2148 18.6264 56.2056 18.5727 56.2089 18.519V18.0269C55.272 18.7571 53.9366 19.2253 52.3956 19.2253H52.4027Z" fill="#3D3D3D"/>
<path d="M38.4592 9.91277C36.9311 9.91277 35.35 10.971 35.35 12.7328C35.3499 13.1082 35.4308 13.4799 35.5878 13.826C35.7448 14.172 35.9749 14.4856 36.2645 14.7483C36.5541 15.0109 36.8974 15.2174 37.2743 15.3556C37.6511 15.4937 38.054 15.5608 38.4592 15.5529C40.5316 15.5529 41.4742 14.0767 41.4742 12.709C41.4756 11.3651 40.533 9.91277 38.4592 9.91277ZM30.8612 23.2221C30.801 23.2224 30.7415 23.2113 30.6863 23.1893C30.631 23.1673 30.5813 23.135 30.5401 23.0944C30.4989 23.0538 30.4673 23.0058 30.4471 22.9533C30.4269 22.9009 30.4186 22.8451 30.4227 22.7896V7.0107C30.418 6.95324 30.4257 6.89549 30.4453 6.84079C30.4648 6.78609 30.4959 6.73552 30.5366 6.69199C30.5774 6.64846 30.6271 6.61283 30.6828 6.58717C30.7385 6.5615 30.7991 6.5463 30.8612 6.54245H34.8202C34.9539 6.54712 35.0809 6.59761 35.1767 6.68413C35.2725 6.77064 35.3302 6.88702 35.3386 7.0107V7.73026C36.4012 6.79377 37.9422 6.24219 39.6032 6.24219C41.5827 6.24219 43.3623 6.93795 44.6377 8.18661C45.8331 9.37707 46.4844 10.9829 46.4844 12.7104C46.4844 15.9749 44.0793 19.2751 39.5361 19.2751C38.0553 19.2915 36.6157 18.8231 35.4714 17.9523V22.7883C35.4768 22.8433 35.4697 22.8988 35.4506 22.9511C35.4315 23.0035 35.4008 23.0515 35.3604 23.0922C35.3201 23.133 35.271 23.1654 35.2164 23.1876C35.1617 23.2097 35.1026 23.221 35.043 23.2208L30.8612 23.2221Z" fill="#3D3D3D"/>
<path d="M24.1374 13.7413C21.3881 13.7413 20.1127 14.1857 20.1127 15.1328C20.1127 16.0587 21.5409 16.1169 21.8265 16.1169C23.5004 16.1169 24.443 15.3233 24.443 13.9331V13.7413H24.1374ZM20.6697 19.2253C18.0132 19.2253 15.3296 18.0018 15.3296 15.2651C15.3296 13.6447 16.3522 12.4688 18.3845 11.7731C19.8327 11.281 21.7851 11.0284 24.323 11.0165C24.3102 10.5482 24.0374 9.5879 22.065 9.5879C20.9218 9.61705 19.8194 9.9883 18.923 10.6461C18.8419 10.7066 18.7414 10.7406 18.6373 10.7426C18.5732 10.7427 18.5096 10.7311 18.4503 10.7084C18.391 10.6857 18.3371 10.6524 18.2917 10.6104L16.2594 8.75854C16.2122 8.71735 16.1757 8.66679 16.1527 8.61065C16.1297 8.55452 16.1208 8.49428 16.1265 8.43447C16.1271 8.37558 16.1413 8.31749 16.1682 8.2641C16.195 8.21072 16.2339 8.16327 16.2822 8.12495C17.9032 6.90143 20.1741 6.20435 22.5263 6.20435C27.2166 6.20435 29.2389 8.14876 29.2389 12.7201V18.519C29.2361 18.5753 29.221 18.6306 29.1945 18.6814C29.168 18.7322 29.1306 18.7775 29.0847 18.8145C29.0388 18.8516 28.9853 18.8797 28.9274 18.8971C28.8694 18.9145 28.8083 18.9209 28.7476 18.9158H24.9629C24.6972 18.9158 24.4587 18.7597 24.4587 18.519V18.0269C23.6475 18.7571 22.2121 19.2253 20.6711 19.2253H20.6697Z" fill="#3D3D3D"/>
<path d="M9.68469 18.9015C9.41904 18.9015 9.16625 18.7454 9.16625 18.5047V10.022H5.18154V18.506C5.18177 18.5611 5.16958 18.6157 5.14577 18.6663C5.12195 18.7168 5.08703 18.7622 5.04322 18.7995C4.99941 18.8368 4.94768 18.8653 4.89134 18.8831C4.83499 18.9009 4.77526 18.9076 4.71595 18.9028H0.504158C0.238511 18.9028 0 18.7467 0 18.506V7.01146C0.00558139 6.88916 0.0604478 6.77323 0.153776 6.68655C0.247105 6.59987 0.372119 6.54873 0.504158 6.54321H13.8965C14.023 6.55071 14.1413 6.60404 14.2258 6.69166C14.3102 6.77928 14.3541 6.89415 14.3478 7.01146V18.506C14.3496 18.5604 14.339 18.6145 14.3166 18.6649C14.2943 18.7152 14.2607 18.7606 14.2181 18.798C14.1755 18.8355 14.1248 18.8642 14.0694 18.8823C14.0139 18.9003 13.955 18.9073 13.8965 18.9028L9.68469 18.9015Z" fill="#3D3D3D"/>
<path d="M111.313 19.1801C109.832 19.1801 108.627 18.1312 108.627 16.8415C108.627 15.5519 109.832 14.5029 111.313 14.5029C112.794 14.5029 114 15.5519 114 16.8415C114 18.1312 112.794 19.1801 111.313 19.1801Z" fill="#FFCE5D"/>
</svg>
